G75*
%MOIN*%
%OFA0B0*%
%FSLAX25Y25*%
%IPPOS*%
%LPD*%
%AMOC8*
5,1,8,0,0,1.08239X$1,22.5*
%
%ADD10C,0.00000*%
%ADD11C,0.00787*%
%ADD12C,0.00600*%
%ADD13C,0.00500*%
%ADD14C,0.01000*%
%ADD15C,0.00400*%
D10*
X0001000Y0001000D02*
X0001000Y0079740D01*
X0138795Y0079740D01*
X0138795Y0001000D01*
X0001000Y0001000D01*
X0006315Y0012811D02*
X0006317Y0012972D01*
X0006323Y0013132D01*
X0006333Y0013293D01*
X0006347Y0013453D01*
X0006365Y0013612D01*
X0006386Y0013772D01*
X0006412Y0013930D01*
X0006442Y0014088D01*
X0006475Y0014245D01*
X0006513Y0014402D01*
X0006554Y0014557D01*
X0006599Y0014711D01*
X0006648Y0014864D01*
X0006701Y0015016D01*
X0006757Y0015166D01*
X0006817Y0015315D01*
X0006881Y0015463D01*
X0006948Y0015609D01*
X0007019Y0015753D01*
X0007094Y0015895D01*
X0007172Y0016036D01*
X0007253Y0016174D01*
X0007338Y0016311D01*
X0007427Y0016445D01*
X0007518Y0016577D01*
X0007613Y0016707D01*
X0007711Y0016834D01*
X0007812Y0016959D01*
X0007916Y0017082D01*
X0008023Y0017201D01*
X0008133Y0017318D01*
X0008246Y0017433D01*
X0008362Y0017544D01*
X0008480Y0017653D01*
X0008601Y0017758D01*
X0008725Y0017861D01*
X0008851Y0017961D01*
X0008980Y0018057D01*
X0009111Y0018150D01*
X0009244Y0018240D01*
X0009379Y0018327D01*
X0009517Y0018410D01*
X0009656Y0018489D01*
X0009798Y0018566D01*
X0009941Y0018639D01*
X0010086Y0018708D01*
X0010233Y0018773D01*
X0010381Y0018835D01*
X0010531Y0018894D01*
X0010682Y0018948D01*
X0010834Y0018999D01*
X0010988Y0019046D01*
X0011143Y0019089D01*
X0011298Y0019128D01*
X0011455Y0019164D01*
X0011613Y0019196D01*
X0011771Y0019223D01*
X0011930Y0019247D01*
X0012089Y0019267D01*
X0012249Y0019283D01*
X0012410Y0019295D01*
X0012570Y0019303D01*
X0012731Y0019307D01*
X0012891Y0019307D01*
X0013052Y0019303D01*
X0013212Y0019295D01*
X0013373Y0019283D01*
X0013533Y0019267D01*
X0013692Y0019247D01*
X0013851Y0019223D01*
X0014009Y0019196D01*
X0014167Y0019164D01*
X0014324Y0019128D01*
X0014479Y0019089D01*
X0014634Y0019046D01*
X0014788Y0018999D01*
X0014940Y0018948D01*
X0015091Y0018894D01*
X0015241Y0018835D01*
X0015389Y0018773D01*
X0015536Y0018708D01*
X0015681Y0018639D01*
X0015824Y0018566D01*
X0015966Y0018489D01*
X0016105Y0018410D01*
X0016243Y0018327D01*
X0016378Y0018240D01*
X0016511Y0018150D01*
X0016642Y0018057D01*
X0016771Y0017961D01*
X0016897Y0017861D01*
X0017021Y0017758D01*
X0017142Y0017653D01*
X0017260Y0017544D01*
X0017376Y0017433D01*
X0017489Y0017318D01*
X0017599Y0017201D01*
X0017706Y0017082D01*
X0017810Y0016959D01*
X0017911Y0016834D01*
X0018009Y0016707D01*
X0018104Y0016577D01*
X0018195Y0016445D01*
X0018284Y0016311D01*
X0018369Y0016174D01*
X0018450Y0016036D01*
X0018528Y0015895D01*
X0018603Y0015753D01*
X0018674Y0015609D01*
X0018741Y0015463D01*
X0018805Y0015315D01*
X0018865Y0015166D01*
X0018921Y0015016D01*
X0018974Y0014864D01*
X0019023Y0014711D01*
X0019068Y0014557D01*
X0019109Y0014402D01*
X0019147Y0014245D01*
X0019180Y0014088D01*
X0019210Y0013930D01*
X0019236Y0013772D01*
X0019257Y0013612D01*
X0019275Y0013453D01*
X0019289Y0013293D01*
X0019299Y0013132D01*
X0019305Y0012972D01*
X0019307Y0012811D01*
X0019305Y0012650D01*
X0019299Y0012490D01*
X0019289Y0012329D01*
X0019275Y0012169D01*
X0019257Y0012010D01*
X0019236Y0011850D01*
X0019210Y0011692D01*
X0019180Y0011534D01*
X0019147Y0011377D01*
X0019109Y0011220D01*
X0019068Y0011065D01*
X0019023Y0010911D01*
X0018974Y0010758D01*
X0018921Y0010606D01*
X0018865Y0010456D01*
X0018805Y0010307D01*
X0018741Y0010159D01*
X0018674Y0010013D01*
X0018603Y0009869D01*
X0018528Y0009727D01*
X0018450Y0009586D01*
X0018369Y0009448D01*
X0018284Y0009311D01*
X0018195Y0009177D01*
X0018104Y0009045D01*
X0018009Y0008915D01*
X0017911Y0008788D01*
X0017810Y0008663D01*
X0017706Y0008540D01*
X0017599Y0008421D01*
X0017489Y0008304D01*
X0017376Y0008189D01*
X0017260Y0008078D01*
X0017142Y0007969D01*
X0017021Y0007864D01*
X0016897Y0007761D01*
X0016771Y0007661D01*
X0016642Y0007565D01*
X0016511Y0007472D01*
X0016378Y0007382D01*
X0016243Y0007295D01*
X0016105Y0007212D01*
X0015966Y0007133D01*
X0015824Y0007056D01*
X0015681Y0006983D01*
X0015536Y0006914D01*
X0015389Y0006849D01*
X0015241Y0006787D01*
X0015091Y0006728D01*
X0014940Y0006674D01*
X0014788Y0006623D01*
X0014634Y0006576D01*
X0014479Y0006533D01*
X0014324Y0006494D01*
X0014167Y0006458D01*
X0014009Y0006426D01*
X0013851Y0006399D01*
X0013692Y0006375D01*
X0013533Y0006355D01*
X0013373Y0006339D01*
X0013212Y0006327D01*
X0013052Y0006319D01*
X0012891Y0006315D01*
X0012731Y0006315D01*
X0012570Y0006319D01*
X0012410Y0006327D01*
X0012249Y0006339D01*
X0012089Y0006355D01*
X0011930Y0006375D01*
X0011771Y0006399D01*
X0011613Y0006426D01*
X0011455Y0006458D01*
X0011298Y0006494D01*
X0011143Y0006533D01*
X0010988Y0006576D01*
X0010834Y0006623D01*
X0010682Y0006674D01*
X0010531Y0006728D01*
X0010381Y0006787D01*
X0010233Y0006849D01*
X0010086Y0006914D01*
X0009941Y0006983D01*
X0009798Y0007056D01*
X0009656Y0007133D01*
X0009517Y0007212D01*
X0009379Y0007295D01*
X0009244Y0007382D01*
X0009111Y0007472D01*
X0008980Y0007565D01*
X0008851Y0007661D01*
X0008725Y0007761D01*
X0008601Y0007864D01*
X0008480Y0007969D01*
X0008362Y0008078D01*
X0008246Y0008189D01*
X0008133Y0008304D01*
X0008023Y0008421D01*
X0007916Y0008540D01*
X0007812Y0008663D01*
X0007711Y0008788D01*
X0007613Y0008915D01*
X0007518Y0009045D01*
X0007427Y0009177D01*
X0007338Y0009311D01*
X0007253Y0009448D01*
X0007172Y0009586D01*
X0007094Y0009727D01*
X0007019Y0009869D01*
X0006948Y0010013D01*
X0006881Y0010159D01*
X0006817Y0010307D01*
X0006757Y0010456D01*
X0006701Y0010606D01*
X0006648Y0010758D01*
X0006599Y0010911D01*
X0006554Y0011065D01*
X0006513Y0011220D01*
X0006475Y0011377D01*
X0006442Y0011534D01*
X0006412Y0011692D01*
X0006386Y0011850D01*
X0006365Y0012010D01*
X0006347Y0012169D01*
X0006333Y0012329D01*
X0006323Y0012490D01*
X0006317Y0012650D01*
X0006315Y0012811D01*
X0006315Y0067929D02*
X0006317Y0068090D01*
X0006323Y0068250D01*
X0006333Y0068411D01*
X0006347Y0068571D01*
X0006365Y0068730D01*
X0006386Y0068890D01*
X0006412Y0069048D01*
X0006442Y0069206D01*
X0006475Y0069363D01*
X0006513Y0069520D01*
X0006554Y0069675D01*
X0006599Y0069829D01*
X0006648Y0069982D01*
X0006701Y0070134D01*
X0006757Y0070284D01*
X0006817Y0070433D01*
X0006881Y0070581D01*
X0006948Y0070727D01*
X0007019Y0070871D01*
X0007094Y0071013D01*
X0007172Y0071154D01*
X0007253Y0071292D01*
X0007338Y0071429D01*
X0007427Y0071563D01*
X0007518Y0071695D01*
X0007613Y0071825D01*
X0007711Y0071952D01*
X0007812Y0072077D01*
X0007916Y0072200D01*
X0008023Y0072319D01*
X0008133Y0072436D01*
X0008246Y0072551D01*
X0008362Y0072662D01*
X0008480Y0072771D01*
X0008601Y0072876D01*
X0008725Y0072979D01*
X0008851Y0073079D01*
X0008980Y0073175D01*
X0009111Y0073268D01*
X0009244Y0073358D01*
X0009379Y0073445D01*
X0009517Y0073528D01*
X0009656Y0073607D01*
X0009798Y0073684D01*
X0009941Y0073757D01*
X0010086Y0073826D01*
X0010233Y0073891D01*
X0010381Y0073953D01*
X0010531Y0074012D01*
X0010682Y0074066D01*
X0010834Y0074117D01*
X0010988Y0074164D01*
X0011143Y0074207D01*
X0011298Y0074246D01*
X0011455Y0074282D01*
X0011613Y0074314D01*
X0011771Y0074341D01*
X0011930Y0074365D01*
X0012089Y0074385D01*
X0012249Y0074401D01*
X0012410Y0074413D01*
X0012570Y0074421D01*
X0012731Y0074425D01*
X0012891Y0074425D01*
X0013052Y0074421D01*
X0013212Y0074413D01*
X0013373Y0074401D01*
X0013533Y0074385D01*
X0013692Y0074365D01*
X0013851Y0074341D01*
X0014009Y0074314D01*
X0014167Y0074282D01*
X0014324Y0074246D01*
X0014479Y0074207D01*
X0014634Y0074164D01*
X0014788Y0074117D01*
X0014940Y0074066D01*
X0015091Y0074012D01*
X0015241Y0073953D01*
X0015389Y0073891D01*
X0015536Y0073826D01*
X0015681Y0073757D01*
X0015824Y0073684D01*
X0015966Y0073607D01*
X0016105Y0073528D01*
X0016243Y0073445D01*
X0016378Y0073358D01*
X0016511Y0073268D01*
X0016642Y0073175D01*
X0016771Y0073079D01*
X0016897Y0072979D01*
X0017021Y0072876D01*
X0017142Y0072771D01*
X0017260Y0072662D01*
X0017376Y0072551D01*
X0017489Y0072436D01*
X0017599Y0072319D01*
X0017706Y0072200D01*
X0017810Y0072077D01*
X0017911Y0071952D01*
X0018009Y0071825D01*
X0018104Y0071695D01*
X0018195Y0071563D01*
X0018284Y0071429D01*
X0018369Y0071292D01*
X0018450Y0071154D01*
X0018528Y0071013D01*
X0018603Y0070871D01*
X0018674Y0070727D01*
X0018741Y0070581D01*
X0018805Y0070433D01*
X0018865Y0070284D01*
X0018921Y0070134D01*
X0018974Y0069982D01*
X0019023Y0069829D01*
X0019068Y0069675D01*
X0019109Y0069520D01*
X0019147Y0069363D01*
X0019180Y0069206D01*
X0019210Y0069048D01*
X0019236Y0068890D01*
X0019257Y0068730D01*
X0019275Y0068571D01*
X0019289Y0068411D01*
X0019299Y0068250D01*
X0019305Y0068090D01*
X0019307Y0067929D01*
X0019305Y0067768D01*
X0019299Y0067608D01*
X0019289Y0067447D01*
X0019275Y0067287D01*
X0019257Y0067128D01*
X0019236Y0066968D01*
X0019210Y0066810D01*
X0019180Y0066652D01*
X0019147Y0066495D01*
X0019109Y0066338D01*
X0019068Y0066183D01*
X0019023Y0066029D01*
X0018974Y0065876D01*
X0018921Y0065724D01*
X0018865Y0065574D01*
X0018805Y0065425D01*
X0018741Y0065277D01*
X0018674Y0065131D01*
X0018603Y0064987D01*
X0018528Y0064845D01*
X0018450Y0064704D01*
X0018369Y0064566D01*
X0018284Y0064429D01*
X0018195Y0064295D01*
X0018104Y0064163D01*
X0018009Y0064033D01*
X0017911Y0063906D01*
X0017810Y0063781D01*
X0017706Y0063658D01*
X0017599Y0063539D01*
X0017489Y0063422D01*
X0017376Y0063307D01*
X0017260Y0063196D01*
X0017142Y0063087D01*
X0017021Y0062982D01*
X0016897Y0062879D01*
X0016771Y0062779D01*
X0016642Y0062683D01*
X0016511Y0062590D01*
X0016378Y0062500D01*
X0016243Y0062413D01*
X0016105Y0062330D01*
X0015966Y0062251D01*
X0015824Y0062174D01*
X0015681Y0062101D01*
X0015536Y0062032D01*
X0015389Y0061967D01*
X0015241Y0061905D01*
X0015091Y0061846D01*
X0014940Y0061792D01*
X0014788Y0061741D01*
X0014634Y0061694D01*
X0014479Y0061651D01*
X0014324Y0061612D01*
X0014167Y0061576D01*
X0014009Y0061544D01*
X0013851Y0061517D01*
X0013692Y0061493D01*
X0013533Y0061473D01*
X0013373Y0061457D01*
X0013212Y0061445D01*
X0013052Y0061437D01*
X0012891Y0061433D01*
X0012731Y0061433D01*
X0012570Y0061437D01*
X0012410Y0061445D01*
X0012249Y0061457D01*
X0012089Y0061473D01*
X0011930Y0061493D01*
X0011771Y0061517D01*
X0011613Y0061544D01*
X0011455Y0061576D01*
X0011298Y0061612D01*
X0011143Y0061651D01*
X0010988Y0061694D01*
X0010834Y0061741D01*
X0010682Y0061792D01*
X0010531Y0061846D01*
X0010381Y0061905D01*
X0010233Y0061967D01*
X0010086Y0062032D01*
X0009941Y0062101D01*
X0009798Y0062174D01*
X0009656Y0062251D01*
X0009517Y0062330D01*
X0009379Y0062413D01*
X0009244Y0062500D01*
X0009111Y0062590D01*
X0008980Y0062683D01*
X0008851Y0062779D01*
X0008725Y0062879D01*
X0008601Y0062982D01*
X0008480Y0063087D01*
X0008362Y0063196D01*
X0008246Y0063307D01*
X0008133Y0063422D01*
X0008023Y0063539D01*
X0007916Y0063658D01*
X0007812Y0063781D01*
X0007711Y0063906D01*
X0007613Y0064033D01*
X0007518Y0064163D01*
X0007427Y0064295D01*
X0007338Y0064429D01*
X0007253Y0064566D01*
X0007172Y0064704D01*
X0007094Y0064845D01*
X0007019Y0064987D01*
X0006948Y0065131D01*
X0006881Y0065277D01*
X0006817Y0065425D01*
X0006757Y0065574D01*
X0006701Y0065724D01*
X0006648Y0065876D01*
X0006599Y0066029D01*
X0006554Y0066183D01*
X0006513Y0066338D01*
X0006475Y0066495D01*
X0006442Y0066652D01*
X0006412Y0066810D01*
X0006386Y0066968D01*
X0006365Y0067128D01*
X0006347Y0067287D01*
X0006333Y0067447D01*
X0006323Y0067608D01*
X0006317Y0067768D01*
X0006315Y0067929D01*
X0120488Y0067929D02*
X0120490Y0068090D01*
X0120496Y0068250D01*
X0120506Y0068411D01*
X0120520Y0068571D01*
X0120538Y0068730D01*
X0120559Y0068890D01*
X0120585Y0069048D01*
X0120615Y0069206D01*
X0120648Y0069363D01*
X0120686Y0069520D01*
X0120727Y0069675D01*
X0120772Y0069829D01*
X0120821Y0069982D01*
X0120874Y0070134D01*
X0120930Y0070284D01*
X0120990Y0070433D01*
X0121054Y0070581D01*
X0121121Y0070727D01*
X0121192Y0070871D01*
X0121267Y0071013D01*
X0121345Y0071154D01*
X0121426Y0071292D01*
X0121511Y0071429D01*
X0121600Y0071563D01*
X0121691Y0071695D01*
X0121786Y0071825D01*
X0121884Y0071952D01*
X0121985Y0072077D01*
X0122089Y0072200D01*
X0122196Y0072319D01*
X0122306Y0072436D01*
X0122419Y0072551D01*
X0122535Y0072662D01*
X0122653Y0072771D01*
X0122774Y0072876D01*
X0122898Y0072979D01*
X0123024Y0073079D01*
X0123153Y0073175D01*
X0123284Y0073268D01*
X0123417Y0073358D01*
X0123552Y0073445D01*
X0123690Y0073528D01*
X0123829Y0073607D01*
X0123971Y0073684D01*
X0124114Y0073757D01*
X0124259Y0073826D01*
X0124406Y0073891D01*
X0124554Y0073953D01*
X0124704Y0074012D01*
X0124855Y0074066D01*
X0125007Y0074117D01*
X0125161Y0074164D01*
X0125316Y0074207D01*
X0125471Y0074246D01*
X0125628Y0074282D01*
X0125786Y0074314D01*
X0125944Y0074341D01*
X0126103Y0074365D01*
X0126262Y0074385D01*
X0126422Y0074401D01*
X0126583Y0074413D01*
X0126743Y0074421D01*
X0126904Y0074425D01*
X0127064Y0074425D01*
X0127225Y0074421D01*
X0127385Y0074413D01*
X0127546Y0074401D01*
X0127706Y0074385D01*
X0127865Y0074365D01*
X0128024Y0074341D01*
X0128182Y0074314D01*
X0128340Y0074282D01*
X0128497Y0074246D01*
X0128652Y0074207D01*
X0128807Y0074164D01*
X0128961Y0074117D01*
X0129113Y0074066D01*
X0129264Y0074012D01*
X0129414Y0073953D01*
X0129562Y0073891D01*
X0129709Y0073826D01*
X0129854Y0073757D01*
X0129997Y0073684D01*
X0130139Y0073607D01*
X0130278Y0073528D01*
X0130416Y0073445D01*
X0130551Y0073358D01*
X0130684Y0073268D01*
X0130815Y0073175D01*
X0130944Y0073079D01*
X0131070Y0072979D01*
X0131194Y0072876D01*
X0131315Y0072771D01*
X0131433Y0072662D01*
X0131549Y0072551D01*
X0131662Y0072436D01*
X0131772Y0072319D01*
X0131879Y0072200D01*
X0131983Y0072077D01*
X0132084Y0071952D01*
X0132182Y0071825D01*
X0132277Y0071695D01*
X0132368Y0071563D01*
X0132457Y0071429D01*
X0132542Y0071292D01*
X0132623Y0071154D01*
X0132701Y0071013D01*
X0132776Y0070871D01*
X0132847Y0070727D01*
X0132914Y0070581D01*
X0132978Y0070433D01*
X0133038Y0070284D01*
X0133094Y0070134D01*
X0133147Y0069982D01*
X0133196Y0069829D01*
X0133241Y0069675D01*
X0133282Y0069520D01*
X0133320Y0069363D01*
X0133353Y0069206D01*
X0133383Y0069048D01*
X0133409Y0068890D01*
X0133430Y0068730D01*
X0133448Y0068571D01*
X0133462Y0068411D01*
X0133472Y0068250D01*
X0133478Y0068090D01*
X0133480Y0067929D01*
X0133478Y0067768D01*
X0133472Y0067608D01*
X0133462Y0067447D01*
X0133448Y0067287D01*
X0133430Y0067128D01*
X0133409Y0066968D01*
X0133383Y0066810D01*
X0133353Y0066652D01*
X0133320Y0066495D01*
X0133282Y0066338D01*
X0133241Y0066183D01*
X0133196Y0066029D01*
X0133147Y0065876D01*
X0133094Y0065724D01*
X0133038Y0065574D01*
X0132978Y0065425D01*
X0132914Y0065277D01*
X0132847Y0065131D01*
X0132776Y0064987D01*
X0132701Y0064845D01*
X0132623Y0064704D01*
X0132542Y0064566D01*
X0132457Y0064429D01*
X0132368Y0064295D01*
X0132277Y0064163D01*
X0132182Y0064033D01*
X0132084Y0063906D01*
X0131983Y0063781D01*
X0131879Y0063658D01*
X0131772Y0063539D01*
X0131662Y0063422D01*
X0131549Y0063307D01*
X0131433Y0063196D01*
X0131315Y0063087D01*
X0131194Y0062982D01*
X0131070Y0062879D01*
X0130944Y0062779D01*
X0130815Y0062683D01*
X0130684Y0062590D01*
X0130551Y0062500D01*
X0130416Y0062413D01*
X0130278Y0062330D01*
X0130139Y0062251D01*
X0129997Y0062174D01*
X0129854Y0062101D01*
X0129709Y0062032D01*
X0129562Y0061967D01*
X0129414Y0061905D01*
X0129264Y0061846D01*
X0129113Y0061792D01*
X0128961Y0061741D01*
X0128807Y0061694D01*
X0128652Y0061651D01*
X0128497Y0061612D01*
X0128340Y0061576D01*
X0128182Y0061544D01*
X0128024Y0061517D01*
X0127865Y0061493D01*
X0127706Y0061473D01*
X0127546Y0061457D01*
X0127385Y0061445D01*
X0127225Y0061437D01*
X0127064Y0061433D01*
X0126904Y0061433D01*
X0126743Y0061437D01*
X0126583Y0061445D01*
X0126422Y0061457D01*
X0126262Y0061473D01*
X0126103Y0061493D01*
X0125944Y0061517D01*
X0125786Y0061544D01*
X0125628Y0061576D01*
X0125471Y0061612D01*
X0125316Y0061651D01*
X0125161Y0061694D01*
X0125007Y0061741D01*
X0124855Y0061792D01*
X0124704Y0061846D01*
X0124554Y0061905D01*
X0124406Y0061967D01*
X0124259Y0062032D01*
X0124114Y0062101D01*
X0123971Y0062174D01*
X0123829Y0062251D01*
X0123690Y0062330D01*
X0123552Y0062413D01*
X0123417Y0062500D01*
X0123284Y0062590D01*
X0123153Y0062683D01*
X0123024Y0062779D01*
X0122898Y0062879D01*
X0122774Y0062982D01*
X0122653Y0063087D01*
X0122535Y0063196D01*
X0122419Y0063307D01*
X0122306Y0063422D01*
X0122196Y0063539D01*
X0122089Y0063658D01*
X0121985Y0063781D01*
X0121884Y0063906D01*
X0121786Y0064033D01*
X0121691Y0064163D01*
X0121600Y0064295D01*
X0121511Y0064429D01*
X0121426Y0064566D01*
X0121345Y0064704D01*
X0121267Y0064845D01*
X0121192Y0064987D01*
X0121121Y0065131D01*
X0121054Y0065277D01*
X0120990Y0065425D01*
X0120930Y0065574D01*
X0120874Y0065724D01*
X0120821Y0065876D01*
X0120772Y0066029D01*
X0120727Y0066183D01*
X0120686Y0066338D01*
X0120648Y0066495D01*
X0120615Y0066652D01*
X0120585Y0066810D01*
X0120559Y0066968D01*
X0120538Y0067128D01*
X0120520Y0067287D01*
X0120506Y0067447D01*
X0120496Y0067608D01*
X0120490Y0067768D01*
X0120488Y0067929D01*
X0120488Y0012811D02*
X0120490Y0012972D01*
X0120496Y0013132D01*
X0120506Y0013293D01*
X0120520Y0013453D01*
X0120538Y0013612D01*
X0120559Y0013772D01*
X0120585Y0013930D01*
X0120615Y0014088D01*
X0120648Y0014245D01*
X0120686Y0014402D01*
X0120727Y0014557D01*
X0120772Y0014711D01*
X0120821Y0014864D01*
X0120874Y0015016D01*
X0120930Y0015166D01*
X0120990Y0015315D01*
X0121054Y0015463D01*
X0121121Y0015609D01*
X0121192Y0015753D01*
X0121267Y0015895D01*
X0121345Y0016036D01*
X0121426Y0016174D01*
X0121511Y0016311D01*
X0121600Y0016445D01*
X0121691Y0016577D01*
X0121786Y0016707D01*
X0121884Y0016834D01*
X0121985Y0016959D01*
X0122089Y0017082D01*
X0122196Y0017201D01*
X0122306Y0017318D01*
X0122419Y0017433D01*
X0122535Y0017544D01*
X0122653Y0017653D01*
X0122774Y0017758D01*
X0122898Y0017861D01*
X0123024Y0017961D01*
X0123153Y0018057D01*
X0123284Y0018150D01*
X0123417Y0018240D01*
X0123552Y0018327D01*
X0123690Y0018410D01*
X0123829Y0018489D01*
X0123971Y0018566D01*
X0124114Y0018639D01*
X0124259Y0018708D01*
X0124406Y0018773D01*
X0124554Y0018835D01*
X0124704Y0018894D01*
X0124855Y0018948D01*
X0125007Y0018999D01*
X0125161Y0019046D01*
X0125316Y0019089D01*
X0125471Y0019128D01*
X0125628Y0019164D01*
X0125786Y0019196D01*
X0125944Y0019223D01*
X0126103Y0019247D01*
X0126262Y0019267D01*
X0126422Y0019283D01*
X0126583Y0019295D01*
X0126743Y0019303D01*
X0126904Y0019307D01*
X0127064Y0019307D01*
X0127225Y0019303D01*
X0127385Y0019295D01*
X0127546Y0019283D01*
X0127706Y0019267D01*
X0127865Y0019247D01*
X0128024Y0019223D01*
X0128182Y0019196D01*
X0128340Y0019164D01*
X0128497Y0019128D01*
X0128652Y0019089D01*
X0128807Y0019046D01*
X0128961Y0018999D01*
X0129113Y0018948D01*
X0129264Y0018894D01*
X0129414Y0018835D01*
X0129562Y0018773D01*
X0129709Y0018708D01*
X0129854Y0018639D01*
X0129997Y0018566D01*
X0130139Y0018489D01*
X0130278Y0018410D01*
X0130416Y0018327D01*
X0130551Y0018240D01*
X0130684Y0018150D01*
X0130815Y0018057D01*
X0130944Y0017961D01*
X0131070Y0017861D01*
X0131194Y0017758D01*
X0131315Y0017653D01*
X0131433Y0017544D01*
X0131549Y0017433D01*
X0131662Y0017318D01*
X0131772Y0017201D01*
X0131879Y0017082D01*
X0131983Y0016959D01*
X0132084Y0016834D01*
X0132182Y0016707D01*
X0132277Y0016577D01*
X0132368Y0016445D01*
X0132457Y0016311D01*
X0132542Y0016174D01*
X0132623Y0016036D01*
X0132701Y0015895D01*
X0132776Y0015753D01*
X0132847Y0015609D01*
X0132914Y0015463D01*
X0132978Y0015315D01*
X0133038Y0015166D01*
X0133094Y0015016D01*
X0133147Y0014864D01*
X0133196Y0014711D01*
X0133241Y0014557D01*
X0133282Y0014402D01*
X0133320Y0014245D01*
X0133353Y0014088D01*
X0133383Y0013930D01*
X0133409Y0013772D01*
X0133430Y0013612D01*
X0133448Y0013453D01*
X0133462Y0013293D01*
X0133472Y0013132D01*
X0133478Y0012972D01*
X0133480Y0012811D01*
X0133478Y0012650D01*
X0133472Y0012490D01*
X0133462Y0012329D01*
X0133448Y0012169D01*
X0133430Y0012010D01*
X0133409Y0011850D01*
X0133383Y0011692D01*
X0133353Y0011534D01*
X0133320Y0011377D01*
X0133282Y0011220D01*
X0133241Y0011065D01*
X0133196Y0010911D01*
X0133147Y0010758D01*
X0133094Y0010606D01*
X0133038Y0010456D01*
X0132978Y0010307D01*
X0132914Y0010159D01*
X0132847Y0010013D01*
X0132776Y0009869D01*
X0132701Y0009727D01*
X0132623Y0009586D01*
X0132542Y0009448D01*
X0132457Y0009311D01*
X0132368Y0009177D01*
X0132277Y0009045D01*
X0132182Y0008915D01*
X0132084Y0008788D01*
X0131983Y0008663D01*
X0131879Y0008540D01*
X0131772Y0008421D01*
X0131662Y0008304D01*
X0131549Y0008189D01*
X0131433Y0008078D01*
X0131315Y0007969D01*
X0131194Y0007864D01*
X0131070Y0007761D01*
X0130944Y0007661D01*
X0130815Y0007565D01*
X0130684Y0007472D01*
X0130551Y0007382D01*
X0130416Y0007295D01*
X0130278Y0007212D01*
X0130139Y0007133D01*
X0129997Y0007056D01*
X0129854Y0006983D01*
X0129709Y0006914D01*
X0129562Y0006849D01*
X0129414Y0006787D01*
X0129264Y0006728D01*
X0129113Y0006674D01*
X0128961Y0006623D01*
X0128807Y0006576D01*
X0128652Y0006533D01*
X0128497Y0006494D01*
X0128340Y0006458D01*
X0128182Y0006426D01*
X0128024Y0006399D01*
X0127865Y0006375D01*
X0127706Y0006355D01*
X0127546Y0006339D01*
X0127385Y0006327D01*
X0127225Y0006319D01*
X0127064Y0006315D01*
X0126904Y0006315D01*
X0126743Y0006319D01*
X0126583Y0006327D01*
X0126422Y0006339D01*
X0126262Y0006355D01*
X0126103Y0006375D01*
X0125944Y0006399D01*
X0125786Y0006426D01*
X0125628Y0006458D01*
X0125471Y0006494D01*
X0125316Y0006533D01*
X0125161Y0006576D01*
X0125007Y0006623D01*
X0124855Y0006674D01*
X0124704Y0006728D01*
X0124554Y0006787D01*
X0124406Y0006849D01*
X0124259Y0006914D01*
X0124114Y0006983D01*
X0123971Y0007056D01*
X0123829Y0007133D01*
X0123690Y0007212D01*
X0123552Y0007295D01*
X0123417Y0007382D01*
X0123284Y0007472D01*
X0123153Y0007565D01*
X0123024Y0007661D01*
X0122898Y0007761D01*
X0122774Y0007864D01*
X0122653Y0007969D01*
X0122535Y0008078D01*
X0122419Y0008189D01*
X0122306Y0008304D01*
X0122196Y0008421D01*
X0122089Y0008540D01*
X0121985Y0008663D01*
X0121884Y0008788D01*
X0121786Y0008915D01*
X0121691Y0009045D01*
X0121600Y0009177D01*
X0121511Y0009311D01*
X0121426Y0009448D01*
X0121345Y0009586D01*
X0121267Y0009727D01*
X0121192Y0009869D01*
X0121121Y0010013D01*
X0121054Y0010159D01*
X0120990Y0010307D01*
X0120930Y0010456D01*
X0120874Y0010606D01*
X0120821Y0010758D01*
X0120772Y0010911D01*
X0120727Y0011065D01*
X0120686Y0011220D01*
X0120648Y0011377D01*
X0120615Y0011534D01*
X0120585Y0011692D01*
X0120559Y0011850D01*
X0120538Y0012010D01*
X0120520Y0012169D01*
X0120506Y0012329D01*
X0120496Y0012490D01*
X0120490Y0012650D01*
X0120488Y0012811D01*
D11*
X0119110Y0012811D02*
X0119112Y0013004D01*
X0119119Y0013197D01*
X0119131Y0013390D01*
X0119148Y0013583D01*
X0119169Y0013775D01*
X0119195Y0013966D01*
X0119226Y0014157D01*
X0119261Y0014347D01*
X0119301Y0014536D01*
X0119346Y0014724D01*
X0119395Y0014911D01*
X0119449Y0015097D01*
X0119507Y0015281D01*
X0119570Y0015464D01*
X0119638Y0015645D01*
X0119709Y0015824D01*
X0119786Y0016002D01*
X0119866Y0016178D01*
X0119951Y0016351D01*
X0120040Y0016523D01*
X0120133Y0016692D01*
X0120230Y0016859D01*
X0120332Y0017024D01*
X0120437Y0017186D01*
X0120546Y0017345D01*
X0120660Y0017502D01*
X0120777Y0017655D01*
X0120897Y0017806D01*
X0121022Y0017954D01*
X0121150Y0018099D01*
X0121281Y0018240D01*
X0121416Y0018379D01*
X0121555Y0018514D01*
X0121696Y0018645D01*
X0121841Y0018773D01*
X0121989Y0018898D01*
X0122140Y0019018D01*
X0122293Y0019135D01*
X0122450Y0019249D01*
X0122609Y0019358D01*
X0122771Y0019463D01*
X0122936Y0019565D01*
X0123103Y0019662D01*
X0123272Y0019755D01*
X0123444Y0019844D01*
X0123617Y0019929D01*
X0123793Y0020009D01*
X0123971Y0020086D01*
X0124150Y0020157D01*
X0124331Y0020225D01*
X0124514Y0020288D01*
X0124698Y0020346D01*
X0124884Y0020400D01*
X0125071Y0020449D01*
X0125259Y0020494D01*
X0125448Y0020534D01*
X0125638Y0020569D01*
X0125829Y0020600D01*
X0126020Y0020626D01*
X0126212Y0020647D01*
X0126405Y0020664D01*
X0126598Y0020676D01*
X0126791Y0020683D01*
X0126984Y0020685D01*
X0127177Y0020683D01*
X0127370Y0020676D01*
X0127563Y0020664D01*
X0127756Y0020647D01*
X0127948Y0020626D01*
X0128139Y0020600D01*
X0128330Y0020569D01*
X0128520Y0020534D01*
X0128709Y0020494D01*
X0128897Y0020449D01*
X0129084Y0020400D01*
X0129270Y0020346D01*
X0129454Y0020288D01*
X0129637Y0020225D01*
X0129818Y0020157D01*
X0129997Y0020086D01*
X0130175Y0020009D01*
X0130351Y0019929D01*
X0130524Y0019844D01*
X0130696Y0019755D01*
X0130865Y0019662D01*
X0131032Y0019565D01*
X0131197Y0019463D01*
X0131359Y0019358D01*
X0131518Y0019249D01*
X0131675Y0019135D01*
X0131828Y0019018D01*
X0131979Y0018898D01*
X0132127Y0018773D01*
X0132272Y0018645D01*
X0132413Y0018514D01*
X0132552Y0018379D01*
X0132687Y0018240D01*
X0132818Y0018099D01*
X0132946Y0017954D01*
X0133071Y0017806D01*
X0133191Y0017655D01*
X0133308Y0017502D01*
X0133422Y0017345D01*
X0133531Y0017186D01*
X0133636Y0017024D01*
X0133738Y0016859D01*
X0133835Y0016692D01*
X0133928Y0016523D01*
X0134017Y0016351D01*
X0134102Y0016178D01*
X0134182Y0016002D01*
X0134259Y0015824D01*
X0134330Y0015645D01*
X0134398Y0015464D01*
X0134461Y0015281D01*
X0134519Y0015097D01*
X0134573Y0014911D01*
X0134622Y0014724D01*
X0134667Y0014536D01*
X0134707Y0014347D01*
X0134742Y0014157D01*
X0134773Y0013966D01*
X0134799Y0013775D01*
X0134820Y0013583D01*
X0134837Y0013390D01*
X0134849Y0013197D01*
X0134856Y0013004D01*
X0134858Y0012811D01*
X0134856Y0012618D01*
X0134849Y0012425D01*
X0134837Y0012232D01*
X0134820Y0012039D01*
X0134799Y0011847D01*
X0134773Y0011656D01*
X0134742Y0011465D01*
X0134707Y0011275D01*
X0134667Y0011086D01*
X0134622Y0010898D01*
X0134573Y0010711D01*
X0134519Y0010525D01*
X0134461Y0010341D01*
X0134398Y0010158D01*
X0134330Y0009977D01*
X0134259Y0009798D01*
X0134182Y0009620D01*
X0134102Y0009444D01*
X0134017Y0009271D01*
X0133928Y0009099D01*
X0133835Y0008930D01*
X0133738Y0008763D01*
X0133636Y0008598D01*
X0133531Y0008436D01*
X0133422Y0008277D01*
X0133308Y0008120D01*
X0133191Y0007967D01*
X0133071Y0007816D01*
X0132946Y0007668D01*
X0132818Y0007523D01*
X0132687Y0007382D01*
X0132552Y0007243D01*
X0132413Y0007108D01*
X0132272Y0006977D01*
X0132127Y0006849D01*
X0131979Y0006724D01*
X0131828Y0006604D01*
X0131675Y0006487D01*
X0131518Y0006373D01*
X0131359Y0006264D01*
X0131197Y0006159D01*
X0131032Y0006057D01*
X0130865Y0005960D01*
X0130696Y0005867D01*
X0130524Y0005778D01*
X0130351Y0005693D01*
X0130175Y0005613D01*
X0129997Y0005536D01*
X0129818Y0005465D01*
X0129637Y0005397D01*
X0129454Y0005334D01*
X0129270Y0005276D01*
X0129084Y0005222D01*
X0128897Y0005173D01*
X0128709Y0005128D01*
X0128520Y0005088D01*
X0128330Y0005053D01*
X0128139Y0005022D01*
X0127948Y0004996D01*
X0127756Y0004975D01*
X0127563Y0004958D01*
X0127370Y0004946D01*
X0127177Y0004939D01*
X0126984Y0004937D01*
X0126791Y0004939D01*
X0126598Y0004946D01*
X0126405Y0004958D01*
X0126212Y0004975D01*
X0126020Y0004996D01*
X0125829Y0005022D01*
X0125638Y0005053D01*
X0125448Y0005088D01*
X0125259Y0005128D01*
X0125071Y0005173D01*
X0124884Y0005222D01*
X0124698Y0005276D01*
X0124514Y0005334D01*
X0124331Y0005397D01*
X0124150Y0005465D01*
X0123971Y0005536D01*
X0123793Y0005613D01*
X0123617Y0005693D01*
X0123444Y0005778D01*
X0123272Y0005867D01*
X0123103Y0005960D01*
X0122936Y0006057D01*
X0122771Y0006159D01*
X0122609Y0006264D01*
X0122450Y0006373D01*
X0122293Y0006487D01*
X0122140Y0006604D01*
X0121989Y0006724D01*
X0121841Y0006849D01*
X0121696Y0006977D01*
X0121555Y0007108D01*
X0121416Y0007243D01*
X0121281Y0007382D01*
X0121150Y0007523D01*
X0121022Y0007668D01*
X0120897Y0007816D01*
X0120777Y0007967D01*
X0120660Y0008120D01*
X0120546Y0008277D01*
X0120437Y0008436D01*
X0120332Y0008598D01*
X0120230Y0008763D01*
X0120133Y0008930D01*
X0120040Y0009099D01*
X0119951Y0009271D01*
X0119866Y0009444D01*
X0119786Y0009620D01*
X0119709Y0009798D01*
X0119638Y0009977D01*
X0119570Y0010158D01*
X0119507Y0010341D01*
X0119449Y0010525D01*
X0119395Y0010711D01*
X0119346Y0010898D01*
X0119301Y0011086D01*
X0119261Y0011275D01*
X0119226Y0011465D01*
X0119195Y0011656D01*
X0119169Y0011847D01*
X0119148Y0012039D01*
X0119131Y0012232D01*
X0119119Y0012425D01*
X0119112Y0012618D01*
X0119110Y0012811D01*
X0119110Y0067929D02*
X0119112Y0068122D01*
X0119119Y0068315D01*
X0119131Y0068508D01*
X0119148Y0068701D01*
X0119169Y0068893D01*
X0119195Y0069084D01*
X0119226Y0069275D01*
X0119261Y0069465D01*
X0119301Y0069654D01*
X0119346Y0069842D01*
X0119395Y0070029D01*
X0119449Y0070215D01*
X0119507Y0070399D01*
X0119570Y0070582D01*
X0119638Y0070763D01*
X0119709Y0070942D01*
X0119786Y0071120D01*
X0119866Y0071296D01*
X0119951Y0071469D01*
X0120040Y0071641D01*
X0120133Y0071810D01*
X0120230Y0071977D01*
X0120332Y0072142D01*
X0120437Y0072304D01*
X0120546Y0072463D01*
X0120660Y0072620D01*
X0120777Y0072773D01*
X0120897Y0072924D01*
X0121022Y0073072D01*
X0121150Y0073217D01*
X0121281Y0073358D01*
X0121416Y0073497D01*
X0121555Y0073632D01*
X0121696Y0073763D01*
X0121841Y0073891D01*
X0121989Y0074016D01*
X0122140Y0074136D01*
X0122293Y0074253D01*
X0122450Y0074367D01*
X0122609Y0074476D01*
X0122771Y0074581D01*
X0122936Y0074683D01*
X0123103Y0074780D01*
X0123272Y0074873D01*
X0123444Y0074962D01*
X0123617Y0075047D01*
X0123793Y0075127D01*
X0123971Y0075204D01*
X0124150Y0075275D01*
X0124331Y0075343D01*
X0124514Y0075406D01*
X0124698Y0075464D01*
X0124884Y0075518D01*
X0125071Y0075567D01*
X0125259Y0075612D01*
X0125448Y0075652D01*
X0125638Y0075687D01*
X0125829Y0075718D01*
X0126020Y0075744D01*
X0126212Y0075765D01*
X0126405Y0075782D01*
X0126598Y0075794D01*
X0126791Y0075801D01*
X0126984Y0075803D01*
X0127177Y0075801D01*
X0127370Y0075794D01*
X0127563Y0075782D01*
X0127756Y0075765D01*
X0127948Y0075744D01*
X0128139Y0075718D01*
X0128330Y0075687D01*
X0128520Y0075652D01*
X0128709Y0075612D01*
X0128897Y0075567D01*
X0129084Y0075518D01*
X0129270Y0075464D01*
X0129454Y0075406D01*
X0129637Y0075343D01*
X0129818Y0075275D01*
X0129997Y0075204D01*
X0130175Y0075127D01*
X0130351Y0075047D01*
X0130524Y0074962D01*
X0130696Y0074873D01*
X0130865Y0074780D01*
X0131032Y0074683D01*
X0131197Y0074581D01*
X0131359Y0074476D01*
X0131518Y0074367D01*
X0131675Y0074253D01*
X0131828Y0074136D01*
X0131979Y0074016D01*
X0132127Y0073891D01*
X0132272Y0073763D01*
X0132413Y0073632D01*
X0132552Y0073497D01*
X0132687Y0073358D01*
X0132818Y0073217D01*
X0132946Y0073072D01*
X0133071Y0072924D01*
X0133191Y0072773D01*
X0133308Y0072620D01*
X0133422Y0072463D01*
X0133531Y0072304D01*
X0133636Y0072142D01*
X0133738Y0071977D01*
X0133835Y0071810D01*
X0133928Y0071641D01*
X0134017Y0071469D01*
X0134102Y0071296D01*
X0134182Y0071120D01*
X0134259Y0070942D01*
X0134330Y0070763D01*
X0134398Y0070582D01*
X0134461Y0070399D01*
X0134519Y0070215D01*
X0134573Y0070029D01*
X0134622Y0069842D01*
X0134667Y0069654D01*
X0134707Y0069465D01*
X0134742Y0069275D01*
X0134773Y0069084D01*
X0134799Y0068893D01*
X0134820Y0068701D01*
X0134837Y0068508D01*
X0134849Y0068315D01*
X0134856Y0068122D01*
X0134858Y0067929D01*
X0134856Y0067736D01*
X0134849Y0067543D01*
X0134837Y0067350D01*
X0134820Y0067157D01*
X0134799Y0066965D01*
X0134773Y0066774D01*
X0134742Y0066583D01*
X0134707Y0066393D01*
X0134667Y0066204D01*
X0134622Y0066016D01*
X0134573Y0065829D01*
X0134519Y0065643D01*
X0134461Y0065459D01*
X0134398Y0065276D01*
X0134330Y0065095D01*
X0134259Y0064916D01*
X0134182Y0064738D01*
X0134102Y0064562D01*
X0134017Y0064389D01*
X0133928Y0064217D01*
X0133835Y0064048D01*
X0133738Y0063881D01*
X0133636Y0063716D01*
X0133531Y0063554D01*
X0133422Y0063395D01*
X0133308Y0063238D01*
X0133191Y0063085D01*
X0133071Y0062934D01*
X0132946Y0062786D01*
X0132818Y0062641D01*
X0132687Y0062500D01*
X0132552Y0062361D01*
X0132413Y0062226D01*
X0132272Y0062095D01*
X0132127Y0061967D01*
X0131979Y0061842D01*
X0131828Y0061722D01*
X0131675Y0061605D01*
X0131518Y0061491D01*
X0131359Y0061382D01*
X0131197Y0061277D01*
X0131032Y0061175D01*
X0130865Y0061078D01*
X0130696Y0060985D01*
X0130524Y0060896D01*
X0130351Y0060811D01*
X0130175Y0060731D01*
X0129997Y0060654D01*
X0129818Y0060583D01*
X0129637Y0060515D01*
X0129454Y0060452D01*
X0129270Y0060394D01*
X0129084Y0060340D01*
X0128897Y0060291D01*
X0128709Y0060246D01*
X0128520Y0060206D01*
X0128330Y0060171D01*
X0128139Y0060140D01*
X0127948Y0060114D01*
X0127756Y0060093D01*
X0127563Y0060076D01*
X0127370Y0060064D01*
X0127177Y0060057D01*
X0126984Y0060055D01*
X0126791Y0060057D01*
X0126598Y0060064D01*
X0126405Y0060076D01*
X0126212Y0060093D01*
X0126020Y0060114D01*
X0125829Y0060140D01*
X0125638Y0060171D01*
X0125448Y0060206D01*
X0125259Y0060246D01*
X0125071Y0060291D01*
X0124884Y0060340D01*
X0124698Y0060394D01*
X0124514Y0060452D01*
X0124331Y0060515D01*
X0124150Y0060583D01*
X0123971Y0060654D01*
X0123793Y0060731D01*
X0123617Y0060811D01*
X0123444Y0060896D01*
X0123272Y0060985D01*
X0123103Y0061078D01*
X0122936Y0061175D01*
X0122771Y0061277D01*
X0122609Y0061382D01*
X0122450Y0061491D01*
X0122293Y0061605D01*
X0122140Y0061722D01*
X0121989Y0061842D01*
X0121841Y0061967D01*
X0121696Y0062095D01*
X0121555Y0062226D01*
X0121416Y0062361D01*
X0121281Y0062500D01*
X0121150Y0062641D01*
X0121022Y0062786D01*
X0120897Y0062934D01*
X0120777Y0063085D01*
X0120660Y0063238D01*
X0120546Y0063395D01*
X0120437Y0063554D01*
X0120332Y0063716D01*
X0120230Y0063881D01*
X0120133Y0064048D01*
X0120040Y0064217D01*
X0119951Y0064389D01*
X0119866Y0064562D01*
X0119786Y0064738D01*
X0119709Y0064916D01*
X0119638Y0065095D01*
X0119570Y0065276D01*
X0119507Y0065459D01*
X0119449Y0065643D01*
X0119395Y0065829D01*
X0119346Y0066016D01*
X0119301Y0066204D01*
X0119261Y0066393D01*
X0119226Y0066583D01*
X0119195Y0066774D01*
X0119169Y0066965D01*
X0119148Y0067157D01*
X0119131Y0067350D01*
X0119119Y0067543D01*
X0119112Y0067736D01*
X0119110Y0067929D01*
X0004937Y0067929D02*
X0004939Y0068122D01*
X0004946Y0068315D01*
X0004958Y0068508D01*
X0004975Y0068701D01*
X0004996Y0068893D01*
X0005022Y0069084D01*
X0005053Y0069275D01*
X0005088Y0069465D01*
X0005128Y0069654D01*
X0005173Y0069842D01*
X0005222Y0070029D01*
X0005276Y0070215D01*
X0005334Y0070399D01*
X0005397Y0070582D01*
X0005465Y0070763D01*
X0005536Y0070942D01*
X0005613Y0071120D01*
X0005693Y0071296D01*
X0005778Y0071469D01*
X0005867Y0071641D01*
X0005960Y0071810D01*
X0006057Y0071977D01*
X0006159Y0072142D01*
X0006264Y0072304D01*
X0006373Y0072463D01*
X0006487Y0072620D01*
X0006604Y0072773D01*
X0006724Y0072924D01*
X0006849Y0073072D01*
X0006977Y0073217D01*
X0007108Y0073358D01*
X0007243Y0073497D01*
X0007382Y0073632D01*
X0007523Y0073763D01*
X0007668Y0073891D01*
X0007816Y0074016D01*
X0007967Y0074136D01*
X0008120Y0074253D01*
X0008277Y0074367D01*
X0008436Y0074476D01*
X0008598Y0074581D01*
X0008763Y0074683D01*
X0008930Y0074780D01*
X0009099Y0074873D01*
X0009271Y0074962D01*
X0009444Y0075047D01*
X0009620Y0075127D01*
X0009798Y0075204D01*
X0009977Y0075275D01*
X0010158Y0075343D01*
X0010341Y0075406D01*
X0010525Y0075464D01*
X0010711Y0075518D01*
X0010898Y0075567D01*
X0011086Y0075612D01*
X0011275Y0075652D01*
X0011465Y0075687D01*
X0011656Y0075718D01*
X0011847Y0075744D01*
X0012039Y0075765D01*
X0012232Y0075782D01*
X0012425Y0075794D01*
X0012618Y0075801D01*
X0012811Y0075803D01*
X0013004Y0075801D01*
X0013197Y0075794D01*
X0013390Y0075782D01*
X0013583Y0075765D01*
X0013775Y0075744D01*
X0013966Y0075718D01*
X0014157Y0075687D01*
X0014347Y0075652D01*
X0014536Y0075612D01*
X0014724Y0075567D01*
X0014911Y0075518D01*
X0015097Y0075464D01*
X0015281Y0075406D01*
X0015464Y0075343D01*
X0015645Y0075275D01*
X0015824Y0075204D01*
X0016002Y0075127D01*
X0016178Y0075047D01*
X0016351Y0074962D01*
X0016523Y0074873D01*
X0016692Y0074780D01*
X0016859Y0074683D01*
X0017024Y0074581D01*
X0017186Y0074476D01*
X0017345Y0074367D01*
X0017502Y0074253D01*
X0017655Y0074136D01*
X0017806Y0074016D01*
X0017954Y0073891D01*
X0018099Y0073763D01*
X0018240Y0073632D01*
X0018379Y0073497D01*
X0018514Y0073358D01*
X0018645Y0073217D01*
X0018773Y0073072D01*
X0018898Y0072924D01*
X0019018Y0072773D01*
X0019135Y0072620D01*
X0019249Y0072463D01*
X0019358Y0072304D01*
X0019463Y0072142D01*
X0019565Y0071977D01*
X0019662Y0071810D01*
X0019755Y0071641D01*
X0019844Y0071469D01*
X0019929Y0071296D01*
X0020009Y0071120D01*
X0020086Y0070942D01*
X0020157Y0070763D01*
X0020225Y0070582D01*
X0020288Y0070399D01*
X0020346Y0070215D01*
X0020400Y0070029D01*
X0020449Y0069842D01*
X0020494Y0069654D01*
X0020534Y0069465D01*
X0020569Y0069275D01*
X0020600Y0069084D01*
X0020626Y0068893D01*
X0020647Y0068701D01*
X0020664Y0068508D01*
X0020676Y0068315D01*
X0020683Y0068122D01*
X0020685Y0067929D01*
X0020683Y0067736D01*
X0020676Y0067543D01*
X0020664Y0067350D01*
X0020647Y0067157D01*
X0020626Y0066965D01*
X0020600Y0066774D01*
X0020569Y0066583D01*
X0020534Y0066393D01*
X0020494Y0066204D01*
X0020449Y0066016D01*
X0020400Y0065829D01*
X0020346Y0065643D01*
X0020288Y0065459D01*
X0020225Y0065276D01*
X0020157Y0065095D01*
X0020086Y0064916D01*
X0020009Y0064738D01*
X0019929Y0064562D01*
X0019844Y0064389D01*
X0019755Y0064217D01*
X0019662Y0064048D01*
X0019565Y0063881D01*
X0019463Y0063716D01*
X0019358Y0063554D01*
X0019249Y0063395D01*
X0019135Y0063238D01*
X0019018Y0063085D01*
X0018898Y0062934D01*
X0018773Y0062786D01*
X0018645Y0062641D01*
X0018514Y0062500D01*
X0018379Y0062361D01*
X0018240Y0062226D01*
X0018099Y0062095D01*
X0017954Y0061967D01*
X0017806Y0061842D01*
X0017655Y0061722D01*
X0017502Y0061605D01*
X0017345Y0061491D01*
X0017186Y0061382D01*
X0017024Y0061277D01*
X0016859Y0061175D01*
X0016692Y0061078D01*
X0016523Y0060985D01*
X0016351Y0060896D01*
X0016178Y0060811D01*
X0016002Y0060731D01*
X0015824Y0060654D01*
X0015645Y0060583D01*
X0015464Y0060515D01*
X0015281Y0060452D01*
X0015097Y0060394D01*
X0014911Y0060340D01*
X0014724Y0060291D01*
X0014536Y0060246D01*
X0014347Y0060206D01*
X0014157Y0060171D01*
X0013966Y0060140D01*
X0013775Y0060114D01*
X0013583Y0060093D01*
X0013390Y0060076D01*
X0013197Y0060064D01*
X0013004Y0060057D01*
X0012811Y0060055D01*
X0012618Y0060057D01*
X0012425Y0060064D01*
X0012232Y0060076D01*
X0012039Y0060093D01*
X0011847Y0060114D01*
X0011656Y0060140D01*
X0011465Y0060171D01*
X0011275Y0060206D01*
X0011086Y0060246D01*
X0010898Y0060291D01*
X0010711Y0060340D01*
X0010525Y0060394D01*
X0010341Y0060452D01*
X0010158Y0060515D01*
X0009977Y0060583D01*
X0009798Y0060654D01*
X0009620Y0060731D01*
X0009444Y0060811D01*
X0009271Y0060896D01*
X0009099Y0060985D01*
X0008930Y0061078D01*
X0008763Y0061175D01*
X0008598Y0061277D01*
X0008436Y0061382D01*
X0008277Y0061491D01*
X0008120Y0061605D01*
X0007967Y0061722D01*
X0007816Y0061842D01*
X0007668Y0061967D01*
X0007523Y0062095D01*
X0007382Y0062226D01*
X0007243Y0062361D01*
X0007108Y0062500D01*
X0006977Y0062641D01*
X0006849Y0062786D01*
X0006724Y0062934D01*
X0006604Y0063085D01*
X0006487Y0063238D01*
X0006373Y0063395D01*
X0006264Y0063554D01*
X0006159Y0063716D01*
X0006057Y0063881D01*
X0005960Y0064048D01*
X0005867Y0064217D01*
X0005778Y0064389D01*
X0005693Y0064562D01*
X0005613Y0064738D01*
X0005536Y0064916D01*
X0005465Y0065095D01*
X0005397Y0065276D01*
X0005334Y0065459D01*
X0005276Y0065643D01*
X0005222Y0065829D01*
X0005173Y0066016D01*
X0005128Y0066204D01*
X0005088Y0066393D01*
X0005053Y0066583D01*
X0005022Y0066774D01*
X0004996Y0066965D01*
X0004975Y0067157D01*
X0004958Y0067350D01*
X0004946Y0067543D01*
X0004939Y0067736D01*
X0004937Y0067929D01*
X0004937Y0012811D02*
X0004939Y0013004D01*
X0004946Y0013197D01*
X0004958Y0013390D01*
X0004975Y0013583D01*
X0004996Y0013775D01*
X0005022Y0013966D01*
X0005053Y0014157D01*
X0005088Y0014347D01*
X0005128Y0014536D01*
X0005173Y0014724D01*
X0005222Y0014911D01*
X0005276Y0015097D01*
X0005334Y0015281D01*
X0005397Y0015464D01*
X0005465Y0015645D01*
X0005536Y0015824D01*
X0005613Y0016002D01*
X0005693Y0016178D01*
X0005778Y0016351D01*
X0005867Y0016523D01*
X0005960Y0016692D01*
X0006057Y0016859D01*
X0006159Y0017024D01*
X0006264Y0017186D01*
X0006373Y0017345D01*
X0006487Y0017502D01*
X0006604Y0017655D01*
X0006724Y0017806D01*
X0006849Y0017954D01*
X0006977Y0018099D01*
X0007108Y0018240D01*
X0007243Y0018379D01*
X0007382Y0018514D01*
X0007523Y0018645D01*
X0007668Y0018773D01*
X0007816Y0018898D01*
X0007967Y0019018D01*
X0008120Y0019135D01*
X0008277Y0019249D01*
X0008436Y0019358D01*
X0008598Y0019463D01*
X0008763Y0019565D01*
X0008930Y0019662D01*
X0009099Y0019755D01*
X0009271Y0019844D01*
X0009444Y0019929D01*
X0009620Y0020009D01*
X0009798Y0020086D01*
X0009977Y0020157D01*
X0010158Y0020225D01*
X0010341Y0020288D01*
X0010525Y0020346D01*
X0010711Y0020400D01*
X0010898Y0020449D01*
X0011086Y0020494D01*
X0011275Y0020534D01*
X0011465Y0020569D01*
X0011656Y0020600D01*
X0011847Y0020626D01*
X0012039Y0020647D01*
X0012232Y0020664D01*
X0012425Y0020676D01*
X0012618Y0020683D01*
X0012811Y0020685D01*
X0013004Y0020683D01*
X0013197Y0020676D01*
X0013390Y0020664D01*
X0013583Y0020647D01*
X0013775Y0020626D01*
X0013966Y0020600D01*
X0014157Y0020569D01*
X0014347Y0020534D01*
X0014536Y0020494D01*
X0014724Y0020449D01*
X0014911Y0020400D01*
X0015097Y0020346D01*
X0015281Y0020288D01*
X0015464Y0020225D01*
X0015645Y0020157D01*
X0015824Y0020086D01*
X0016002Y0020009D01*
X0016178Y0019929D01*
X0016351Y0019844D01*
X0016523Y0019755D01*
X0016692Y0019662D01*
X0016859Y0019565D01*
X0017024Y0019463D01*
X0017186Y0019358D01*
X0017345Y0019249D01*
X0017502Y0019135D01*
X0017655Y0019018D01*
X0017806Y0018898D01*
X0017954Y0018773D01*
X0018099Y0018645D01*
X0018240Y0018514D01*
X0018379Y0018379D01*
X0018514Y0018240D01*
X0018645Y0018099D01*
X0018773Y0017954D01*
X0018898Y0017806D01*
X0019018Y0017655D01*
X0019135Y0017502D01*
X0019249Y0017345D01*
X0019358Y0017186D01*
X0019463Y0017024D01*
X0019565Y0016859D01*
X0019662Y0016692D01*
X0019755Y0016523D01*
X0019844Y0016351D01*
X0019929Y0016178D01*
X0020009Y0016002D01*
X0020086Y0015824D01*
X0020157Y0015645D01*
X0020225Y0015464D01*
X0020288Y0015281D01*
X0020346Y0015097D01*
X0020400Y0014911D01*
X0020449Y0014724D01*
X0020494Y0014536D01*
X0020534Y0014347D01*
X0020569Y0014157D01*
X0020600Y0013966D01*
X0020626Y0013775D01*
X0020647Y0013583D01*
X0020664Y0013390D01*
X0020676Y0013197D01*
X0020683Y0013004D01*
X0020685Y0012811D01*
X0020683Y0012618D01*
X0020676Y0012425D01*
X0020664Y0012232D01*
X0020647Y0012039D01*
X0020626Y0011847D01*
X0020600Y0011656D01*
X0020569Y0011465D01*
X0020534Y0011275D01*
X0020494Y0011086D01*
X0020449Y0010898D01*
X0020400Y0010711D01*
X0020346Y0010525D01*
X0020288Y0010341D01*
X0020225Y0010158D01*
X0020157Y0009977D01*
X0020086Y0009798D01*
X0020009Y0009620D01*
X0019929Y0009444D01*
X0019844Y0009271D01*
X0019755Y0009099D01*
X0019662Y0008930D01*
X0019565Y0008763D01*
X0019463Y0008598D01*
X0019358Y0008436D01*
X0019249Y0008277D01*
X0019135Y0008120D01*
X0019018Y0007967D01*
X0018898Y0007816D01*
X0018773Y0007668D01*
X0018645Y0007523D01*
X0018514Y0007382D01*
X0018379Y0007243D01*
X0018240Y0007108D01*
X0018099Y0006977D01*
X0017954Y0006849D01*
X0017806Y0006724D01*
X0017655Y0006604D01*
X0017502Y0006487D01*
X0017345Y0006373D01*
X0017186Y0006264D01*
X0017024Y0006159D01*
X0016859Y0006057D01*
X0016692Y0005960D01*
X0016523Y0005867D01*
X0016351Y0005778D01*
X0016178Y0005693D01*
X0016002Y0005613D01*
X0015824Y0005536D01*
X0015645Y0005465D01*
X0015464Y0005397D01*
X0015281Y0005334D01*
X0015097Y0005276D01*
X0014911Y0005222D01*
X0014724Y0005173D01*
X0014536Y0005128D01*
X0014347Y0005088D01*
X0014157Y0005053D01*
X0013966Y0005022D01*
X0013775Y0004996D01*
X0013583Y0004975D01*
X0013390Y0004958D01*
X0013197Y0004946D01*
X0013004Y0004939D01*
X0012811Y0004937D01*
X0012618Y0004939D01*
X0012425Y0004946D01*
X0012232Y0004958D01*
X0012039Y0004975D01*
X0011847Y0004996D01*
X0011656Y0005022D01*
X0011465Y0005053D01*
X0011275Y0005088D01*
X0011086Y0005128D01*
X0010898Y0005173D01*
X0010711Y0005222D01*
X0010525Y0005276D01*
X0010341Y0005334D01*
X0010158Y0005397D01*
X0009977Y0005465D01*
X0009798Y0005536D01*
X0009620Y0005613D01*
X0009444Y0005693D01*
X0009271Y0005778D01*
X0009099Y0005867D01*
X0008930Y0005960D01*
X0008763Y0006057D01*
X0008598Y0006159D01*
X0008436Y0006264D01*
X0008277Y0006373D01*
X0008120Y0006487D01*
X0007967Y0006604D01*
X0007816Y0006724D01*
X0007668Y0006849D01*
X0007523Y0006977D01*
X0007382Y0007108D01*
X0007243Y0007243D01*
X0007108Y0007382D01*
X0006977Y0007523D01*
X0006849Y0007668D01*
X0006724Y0007816D01*
X0006604Y0007967D01*
X0006487Y0008120D01*
X0006373Y0008277D01*
X0006264Y0008436D01*
X0006159Y0008598D01*
X0006057Y0008763D01*
X0005960Y0008930D01*
X0005867Y0009099D01*
X0005778Y0009271D01*
X0005693Y0009444D01*
X0005613Y0009620D01*
X0005536Y0009798D01*
X0005465Y0009977D01*
X0005397Y0010158D01*
X0005334Y0010341D01*
X0005276Y0010525D01*
X0005222Y0010711D01*
X0005173Y0010898D01*
X0005128Y0011086D01*
X0005088Y0011275D01*
X0005053Y0011465D01*
X0005022Y0011656D01*
X0004996Y0011847D01*
X0004975Y0012039D01*
X0004958Y0012232D01*
X0004946Y0012425D01*
X0004939Y0012618D01*
X0004937Y0012811D01*
D12*
X0091394Y0012870D02*
X0093894Y0010370D01*
X0108894Y0010370D01*
X0111394Y0012870D01*
X0111394Y0017870D01*
X0108894Y0020370D01*
X0111394Y0022870D01*
X0111394Y0027870D01*
X0108894Y0030370D01*
X0111394Y0032870D01*
X0111394Y0037870D01*
X0108894Y0040370D01*
X0111394Y0042870D01*
X0111394Y0047870D01*
X0108894Y0050370D01*
X0111394Y0052870D01*
X0111394Y0057870D01*
X0108894Y0060370D01*
X0111394Y0062870D01*
X0111394Y0067870D01*
X0108894Y0070370D01*
X0093894Y0070370D01*
X0091394Y0067870D01*
X0091394Y0062870D01*
X0093894Y0060370D01*
X0091394Y0057870D01*
X0091394Y0052870D01*
X0093894Y0050370D01*
X0091394Y0047870D01*
X0091394Y0042870D01*
X0093894Y0040370D01*
X0091394Y0037870D01*
X0091394Y0032870D01*
X0093894Y0030370D01*
X0091394Y0027870D01*
X0091394Y0022870D01*
X0093894Y0020370D01*
X0091394Y0017870D01*
X0091394Y0012870D01*
X0117442Y0030043D02*
X0123842Y0033599D01*
X0117442Y0033599D01*
X0117442Y0036156D02*
X0117442Y0036511D01*
X0117797Y0036511D01*
X0117797Y0036156D01*
X0117442Y0036156D01*
X0119575Y0036334D02*
X0123842Y0036334D01*
X0123842Y0038604D02*
X0119575Y0041448D01*
X0119575Y0043719D02*
X0123842Y0043719D01*
X0123842Y0041448D02*
X0119575Y0038604D01*
X0117797Y0043541D02*
X0117797Y0043896D01*
X0117442Y0043896D01*
X0117442Y0043541D01*
X0117797Y0043541D01*
X0120997Y0046194D02*
X0122775Y0046194D01*
X0122775Y0046193D02*
X0122839Y0046195D01*
X0122904Y0046201D01*
X0122967Y0046210D01*
X0123030Y0046224D01*
X0123092Y0046241D01*
X0123153Y0046262D01*
X0123213Y0046287D01*
X0123271Y0046315D01*
X0123327Y0046347D01*
X0123381Y0046382D01*
X0123433Y0046420D01*
X0123483Y0046461D01*
X0123529Y0046506D01*
X0123574Y0046552D01*
X0123615Y0046602D01*
X0123653Y0046654D01*
X0123688Y0046708D01*
X0123720Y0046764D01*
X0123748Y0046822D01*
X0123773Y0046882D01*
X0123794Y0046943D01*
X0123811Y0047005D01*
X0123825Y0047068D01*
X0123834Y0047131D01*
X0123840Y0047196D01*
X0123842Y0047260D01*
X0123842Y0049038D01*
X0121708Y0049038D02*
X0121708Y0046194D01*
X0120997Y0046194D02*
X0120923Y0046196D01*
X0120848Y0046202D01*
X0120775Y0046212D01*
X0120701Y0046225D01*
X0120629Y0046242D01*
X0120558Y0046264D01*
X0120487Y0046288D01*
X0120419Y0046317D01*
X0120351Y0046349D01*
X0120286Y0046385D01*
X0120223Y0046423D01*
X0120161Y0046466D01*
X0120102Y0046511D01*
X0120045Y0046559D01*
X0119991Y0046610D01*
X0119940Y0046664D01*
X0119892Y0046721D01*
X0119847Y0046780D01*
X0119804Y0046842D01*
X0119766Y0046905D01*
X0119730Y0046970D01*
X0119698Y0047038D01*
X0119669Y0047106D01*
X0119645Y0047177D01*
X0119623Y0047248D01*
X0119606Y0047320D01*
X0119593Y0047394D01*
X0119583Y0047467D01*
X0119577Y0047542D01*
X0119575Y0047616D01*
X0119577Y0047690D01*
X0119583Y0047765D01*
X0119593Y0047838D01*
X0119606Y0047912D01*
X0119623Y0047984D01*
X0119645Y0048055D01*
X0119669Y0048126D01*
X0119698Y0048194D01*
X0119730Y0048262D01*
X0119766Y0048327D01*
X0119804Y0048390D01*
X0119847Y0048452D01*
X0119892Y0048511D01*
X0119940Y0048568D01*
X0119991Y0048622D01*
X0120045Y0048673D01*
X0120102Y0048721D01*
X0120161Y0048766D01*
X0120223Y0048809D01*
X0120286Y0048847D01*
X0120351Y0048883D01*
X0120419Y0048915D01*
X0120487Y0048944D01*
X0120558Y0048968D01*
X0120629Y0048990D01*
X0120701Y0049007D01*
X0120775Y0049020D01*
X0120848Y0049030D01*
X0120923Y0049036D01*
X0120997Y0049038D01*
X0121708Y0049038D01*
X0127942Y0053850D02*
X0134342Y0053850D01*
X0134342Y0052072D01*
X0134340Y0052008D01*
X0134334Y0051943D01*
X0134325Y0051880D01*
X0134311Y0051817D01*
X0134294Y0051755D01*
X0134273Y0051694D01*
X0134248Y0051634D01*
X0134220Y0051576D01*
X0134188Y0051520D01*
X0134153Y0051466D01*
X0134115Y0051414D01*
X0134074Y0051364D01*
X0134029Y0051318D01*
X0133983Y0051273D01*
X0133933Y0051232D01*
X0133881Y0051194D01*
X0133827Y0051159D01*
X0133771Y0051127D01*
X0133713Y0051099D01*
X0133653Y0051074D01*
X0133592Y0051053D01*
X0133530Y0051036D01*
X0133467Y0051022D01*
X0133404Y0051013D01*
X0133339Y0051007D01*
X0133275Y0051005D01*
X0131142Y0051005D01*
X0131078Y0051007D01*
X0131013Y0051013D01*
X0130950Y0051022D01*
X0130887Y0051036D01*
X0130825Y0051053D01*
X0130764Y0051074D01*
X0130704Y0051099D01*
X0130646Y0051127D01*
X0130590Y0051159D01*
X0130536Y0051194D01*
X0130484Y0051232D01*
X0130434Y0051273D01*
X0130388Y0051318D01*
X0130343Y0051364D01*
X0130302Y0051414D01*
X0130264Y0051466D01*
X0130229Y0051520D01*
X0130197Y0051576D01*
X0130169Y0051634D01*
X0130144Y0051694D01*
X0130123Y0051755D01*
X0130106Y0051817D01*
X0130092Y0051880D01*
X0130083Y0051943D01*
X0130077Y0052008D01*
X0130075Y0052072D01*
X0130075Y0053850D01*
X0130075Y0049098D02*
X0130786Y0049098D01*
X0130075Y0049098D02*
X0130075Y0046965D01*
X0134342Y0046965D01*
X0134342Y0044003D02*
X0131142Y0044003D01*
X0131853Y0044003D02*
X0131853Y0042403D01*
X0131142Y0044004D02*
X0131078Y0044002D01*
X0131013Y0043996D01*
X0130950Y0043987D01*
X0130887Y0043973D01*
X0130825Y0043956D01*
X0130764Y0043935D01*
X0130704Y0043910D01*
X0130646Y0043882D01*
X0130590Y0043850D01*
X0130536Y0043815D01*
X0130484Y0043777D01*
X0130434Y0043736D01*
X0130388Y0043691D01*
X0130343Y0043645D01*
X0130302Y0043595D01*
X0130264Y0043543D01*
X0130229Y0043489D01*
X0130197Y0043433D01*
X0130169Y0043375D01*
X0130144Y0043315D01*
X0130123Y0043254D01*
X0130106Y0043192D01*
X0130092Y0043129D01*
X0130083Y0043066D01*
X0130077Y0043001D01*
X0130075Y0042937D01*
X0130075Y0041514D01*
X0131853Y0042403D02*
X0131855Y0042333D01*
X0131861Y0042264D01*
X0131871Y0042195D01*
X0131884Y0042126D01*
X0131902Y0042059D01*
X0131923Y0041992D01*
X0131948Y0041927D01*
X0131976Y0041863D01*
X0132008Y0041801D01*
X0132044Y0041741D01*
X0132082Y0041683D01*
X0132124Y0041627D01*
X0132169Y0041574D01*
X0132217Y0041523D01*
X0132268Y0041475D01*
X0132321Y0041430D01*
X0132377Y0041388D01*
X0132435Y0041350D01*
X0132495Y0041314D01*
X0132557Y0041282D01*
X0132621Y0041254D01*
X0132686Y0041229D01*
X0132753Y0041208D01*
X0132820Y0041190D01*
X0132889Y0041177D01*
X0132958Y0041167D01*
X0133027Y0041161D01*
X0133097Y0041159D01*
X0133167Y0041161D01*
X0133236Y0041167D01*
X0133305Y0041177D01*
X0133374Y0041190D01*
X0133441Y0041208D01*
X0133508Y0041229D01*
X0133573Y0041254D01*
X0133637Y0041282D01*
X0133699Y0041314D01*
X0133759Y0041350D01*
X0133817Y0041388D01*
X0133873Y0041430D01*
X0133926Y0041475D01*
X0133977Y0041523D01*
X0134025Y0041574D01*
X0134070Y0041627D01*
X0134112Y0041683D01*
X0134150Y0041741D01*
X0134186Y0041801D01*
X0134218Y0041863D01*
X0134246Y0041927D01*
X0134271Y0041992D01*
X0134292Y0042059D01*
X0134310Y0042126D01*
X0134323Y0042195D01*
X0134333Y0042264D01*
X0134339Y0042333D01*
X0134341Y0042403D01*
X0134342Y0042403D02*
X0134342Y0044003D01*
X0132920Y0038699D02*
X0131497Y0038699D01*
X0131497Y0038698D02*
X0131423Y0038696D01*
X0131348Y0038690D01*
X0131275Y0038680D01*
X0131201Y0038667D01*
X0131129Y0038650D01*
X0131058Y0038628D01*
X0130987Y0038604D01*
X0130919Y0038575D01*
X0130851Y0038543D01*
X0130786Y0038507D01*
X0130723Y0038469D01*
X0130661Y0038426D01*
X0130602Y0038381D01*
X0130545Y0038333D01*
X0130491Y0038282D01*
X0130440Y0038228D01*
X0130392Y0038171D01*
X0130347Y0038112D01*
X0130304Y0038050D01*
X0130266Y0037987D01*
X0130230Y0037922D01*
X0130198Y0037854D01*
X0130169Y0037786D01*
X0130145Y0037715D01*
X0130123Y0037644D01*
X0130106Y0037572D01*
X0130093Y0037498D01*
X0130083Y0037425D01*
X0130077Y0037350D01*
X0130075Y0037276D01*
X0130077Y0037202D01*
X0130083Y0037127D01*
X0130093Y0037054D01*
X0130106Y0036980D01*
X0130123Y0036908D01*
X0130145Y0036837D01*
X0130169Y0036766D01*
X0130198Y0036698D01*
X0130230Y0036630D01*
X0130266Y0036565D01*
X0130304Y0036502D01*
X0130347Y0036440D01*
X0130392Y0036381D01*
X0130440Y0036324D01*
X0130491Y0036270D01*
X0130545Y0036219D01*
X0130602Y0036171D01*
X0130661Y0036126D01*
X0130723Y0036083D01*
X0130786Y0036045D01*
X0130851Y0036009D01*
X0130919Y0035977D01*
X0130987Y0035948D01*
X0131058Y0035924D01*
X0131129Y0035902D01*
X0131201Y0035885D01*
X0131275Y0035872D01*
X0131348Y0035862D01*
X0131423Y0035856D01*
X0131497Y0035854D01*
X0132920Y0035854D01*
X0132994Y0035856D01*
X0133069Y0035862D01*
X0133142Y0035872D01*
X0133216Y0035885D01*
X0133288Y0035902D01*
X0133359Y0035924D01*
X0133430Y0035948D01*
X0133498Y0035977D01*
X0133566Y0036009D01*
X0133631Y0036045D01*
X0133694Y0036083D01*
X0133756Y0036126D01*
X0133815Y0036171D01*
X0133872Y0036219D01*
X0133926Y0036270D01*
X0133977Y0036324D01*
X0134025Y0036381D01*
X0134070Y0036440D01*
X0134113Y0036502D01*
X0134151Y0036565D01*
X0134187Y0036630D01*
X0134219Y0036698D01*
X0134248Y0036766D01*
X0134272Y0036837D01*
X0134294Y0036908D01*
X0134311Y0036980D01*
X0134324Y0037054D01*
X0134334Y0037127D01*
X0134340Y0037202D01*
X0134342Y0037276D01*
X0134340Y0037350D01*
X0134334Y0037425D01*
X0134324Y0037498D01*
X0134311Y0037572D01*
X0134294Y0037644D01*
X0134272Y0037715D01*
X0134248Y0037786D01*
X0134219Y0037854D01*
X0134187Y0037922D01*
X0134151Y0037987D01*
X0134113Y0038050D01*
X0134070Y0038112D01*
X0134025Y0038171D01*
X0133977Y0038228D01*
X0133926Y0038282D01*
X0133872Y0038333D01*
X0133815Y0038381D01*
X0133756Y0038426D01*
X0133694Y0038469D01*
X0133631Y0038507D01*
X0133566Y0038543D01*
X0133498Y0038575D01*
X0133430Y0038604D01*
X0133359Y0038628D01*
X0133288Y0038650D01*
X0133216Y0038667D01*
X0133142Y0038680D01*
X0133069Y0038690D01*
X0132994Y0038696D01*
X0132920Y0038698D01*
X0134342Y0031821D02*
X0134340Y0031904D01*
X0134334Y0031987D01*
X0134324Y0032070D01*
X0134311Y0032153D01*
X0134293Y0032234D01*
X0134272Y0032315D01*
X0134247Y0032394D01*
X0134218Y0032472D01*
X0134186Y0032549D01*
X0134150Y0032624D01*
X0134111Y0032698D01*
X0134068Y0032769D01*
X0134022Y0032839D01*
X0133972Y0032906D01*
X0133920Y0032971D01*
X0133865Y0033033D01*
X0133806Y0033093D01*
X0133745Y0033150D01*
X0133682Y0033204D01*
X0133616Y0033255D01*
X0133547Y0033302D01*
X0133477Y0033347D01*
X0133404Y0033388D01*
X0133330Y0033425D01*
X0133254Y0033460D01*
X0133176Y0033490D01*
X0133098Y0033517D01*
X0133017Y0033540D01*
X0132936Y0033560D01*
X0132854Y0033575D01*
X0132772Y0033587D01*
X0132689Y0033595D01*
X0132606Y0033599D01*
X0132522Y0033599D01*
X0132439Y0033595D01*
X0132356Y0033587D01*
X0132274Y0033575D01*
X0132192Y0033560D01*
X0132111Y0033540D01*
X0132030Y0033517D01*
X0131952Y0033490D01*
X0131874Y0033460D01*
X0131798Y0033425D01*
X0131724Y0033388D01*
X0131651Y0033347D01*
X0131581Y0033302D01*
X0131512Y0033255D01*
X0131446Y0033204D01*
X0131383Y0033150D01*
X0131322Y0033093D01*
X0131263Y0033033D01*
X0131208Y0032971D01*
X0131156Y0032906D01*
X0131106Y0032839D01*
X0131060Y0032769D01*
X0131017Y0032698D01*
X0130978Y0032624D01*
X0130942Y0032549D01*
X0130910Y0032472D01*
X0130881Y0032394D01*
X0130856Y0032315D01*
X0130835Y0032234D01*
X0130817Y0032153D01*
X0130804Y0032070D01*
X0130794Y0031987D01*
X0130788Y0031904D01*
X0130786Y0031821D01*
X0130786Y0030043D01*
X0130786Y0031821D02*
X0130784Y0031895D01*
X0130778Y0031970D01*
X0130768Y0032043D01*
X0130755Y0032117D01*
X0130738Y0032189D01*
X0130716Y0032260D01*
X0130692Y0032331D01*
X0130663Y0032399D01*
X0130631Y0032467D01*
X0130595Y0032532D01*
X0130557Y0032595D01*
X0130514Y0032657D01*
X0130469Y0032716D01*
X0130421Y0032773D01*
X0130370Y0032827D01*
X0130316Y0032878D01*
X0130259Y0032926D01*
X0130200Y0032971D01*
X0130138Y0033014D01*
X0130075Y0033052D01*
X0130010Y0033088D01*
X0129942Y0033120D01*
X0129874Y0033149D01*
X0129803Y0033173D01*
X0129732Y0033195D01*
X0129660Y0033212D01*
X0129586Y0033225D01*
X0129513Y0033235D01*
X0129438Y0033241D01*
X0129364Y0033243D01*
X0129290Y0033241D01*
X0129215Y0033235D01*
X0129142Y0033225D01*
X0129068Y0033212D01*
X0128996Y0033195D01*
X0128925Y0033173D01*
X0128854Y0033149D01*
X0128786Y0033120D01*
X0128718Y0033088D01*
X0128653Y0033052D01*
X0128590Y0033014D01*
X0128528Y0032971D01*
X0128469Y0032926D01*
X0128412Y0032878D01*
X0128358Y0032827D01*
X0128307Y0032773D01*
X0128259Y0032716D01*
X0128214Y0032657D01*
X0128171Y0032595D01*
X0128133Y0032532D01*
X0128097Y0032467D01*
X0128065Y0032399D01*
X0128036Y0032331D01*
X0128012Y0032260D01*
X0127990Y0032189D01*
X0127973Y0032117D01*
X0127960Y0032043D01*
X0127950Y0031970D01*
X0127944Y0031895D01*
X0127942Y0031821D01*
X0127942Y0030043D01*
X0134342Y0030043D01*
X0134342Y0031821D01*
X0123842Y0030043D02*
X0117442Y0030043D01*
D13*
X0117644Y0016120D02*
X0117644Y0013620D01*
X0117644Y0014870D02*
X0113144Y0014870D01*
X0114144Y0013620D01*
X0089644Y0016220D02*
X0085144Y0017720D01*
X0085144Y0014720D02*
X0089644Y0016220D01*
X0089644Y0019470D02*
X0089644Y0021970D01*
X0089644Y0019470D02*
X0087144Y0021595D01*
X0085144Y0020845D02*
X0085146Y0020772D01*
X0085151Y0020700D01*
X0085160Y0020628D01*
X0085173Y0020556D01*
X0085189Y0020485D01*
X0085209Y0020415D01*
X0085233Y0020347D01*
X0085259Y0020279D01*
X0085290Y0020213D01*
X0085323Y0020148D01*
X0085360Y0020086D01*
X0085399Y0020025D01*
X0085442Y0019966D01*
X0085488Y0019909D01*
X0085536Y0019855D01*
X0085587Y0019804D01*
X0085641Y0019754D01*
X0085697Y0019708D01*
X0085755Y0019665D01*
X0085816Y0019624D01*
X0085878Y0019587D01*
X0085942Y0019553D01*
X0086008Y0019522D01*
X0086075Y0019494D01*
X0086144Y0019470D01*
X0087144Y0021595D02*
X0087098Y0021641D01*
X0087049Y0021685D01*
X0086998Y0021725D01*
X0086945Y0021763D01*
X0086890Y0021798D01*
X0086833Y0021830D01*
X0086775Y0021859D01*
X0086715Y0021885D01*
X0086653Y0021907D01*
X0086591Y0021926D01*
X0086528Y0021942D01*
X0086464Y0021954D01*
X0086399Y0021963D01*
X0086334Y0021968D01*
X0086269Y0021970D01*
X0086204Y0021968D01*
X0086138Y0021962D01*
X0086074Y0021953D01*
X0086010Y0021940D01*
X0085946Y0021923D01*
X0085884Y0021902D01*
X0085823Y0021878D01*
X0085764Y0021850D01*
X0085707Y0021819D01*
X0085651Y0021785D01*
X0085597Y0021747D01*
X0085546Y0021707D01*
X0085497Y0021663D01*
X0085451Y0021617D01*
X0085407Y0021568D01*
X0085367Y0021517D01*
X0085329Y0021463D01*
X0085295Y0021408D01*
X0085264Y0021350D01*
X0085236Y0021291D01*
X0085212Y0021230D01*
X0085191Y0021168D01*
X0085174Y0021104D01*
X0085161Y0021040D01*
X0085152Y0020976D01*
X0085146Y0020910D01*
X0085144Y0020845D01*
X0087769Y0012620D02*
X0087019Y0011245D01*
X0085144Y0011745D02*
X0085146Y0011825D01*
X0085151Y0011906D01*
X0085160Y0011986D01*
X0085172Y0012065D01*
X0085187Y0012144D01*
X0085206Y0012222D01*
X0085228Y0012300D01*
X0085253Y0012376D01*
X0085282Y0012451D01*
X0085314Y0012525D01*
X0085349Y0012597D01*
X0085387Y0012668D01*
X0085428Y0012737D01*
X0085472Y0012805D01*
X0085519Y0012870D01*
X0087019Y0011245D02*
X0086986Y0011193D01*
X0086950Y0011142D01*
X0086911Y0011094D01*
X0086869Y0011049D01*
X0086824Y0011006D01*
X0086776Y0010966D01*
X0086727Y0010929D01*
X0086675Y0010895D01*
X0086621Y0010864D01*
X0086565Y0010836D01*
X0086508Y0010812D01*
X0086449Y0010792D01*
X0086390Y0010775D01*
X0086329Y0010762D01*
X0086268Y0010753D01*
X0086206Y0010747D01*
X0086144Y0010745D01*
X0086084Y0010747D01*
X0086023Y0010752D01*
X0085964Y0010761D01*
X0085905Y0010774D01*
X0085846Y0010790D01*
X0085789Y0010810D01*
X0085734Y0010833D01*
X0085679Y0010860D01*
X0085627Y0010889D01*
X0085576Y0010922D01*
X0085527Y0010958D01*
X0085481Y0010996D01*
X0085437Y0011038D01*
X0085395Y0011082D01*
X0085357Y0011128D01*
X0085321Y0011177D01*
X0085288Y0011228D01*
X0085259Y0011280D01*
X0085232Y0011335D01*
X0085209Y0011390D01*
X0085189Y0011447D01*
X0085173Y0011506D01*
X0085160Y0011565D01*
X0085151Y0011624D01*
X0085146Y0011685D01*
X0085144Y0011745D01*
X0089019Y0010620D02*
X0089080Y0010683D01*
X0089138Y0010748D01*
X0089194Y0010816D01*
X0089247Y0010887D01*
X0089296Y0010959D01*
X0089343Y0011033D01*
X0089387Y0011109D01*
X0089427Y0011187D01*
X0089464Y0011267D01*
X0089498Y0011348D01*
X0089528Y0011430D01*
X0089555Y0011514D01*
X0089579Y0011599D01*
X0089599Y0011684D01*
X0089615Y0011770D01*
X0089628Y0011857D01*
X0089637Y0011945D01*
X0089642Y0012032D01*
X0089644Y0012120D01*
X0089642Y0012180D01*
X0089637Y0012241D01*
X0089628Y0012300D01*
X0089615Y0012359D01*
X0089599Y0012418D01*
X0089579Y0012475D01*
X0089556Y0012530D01*
X0089529Y0012585D01*
X0089500Y0012637D01*
X0089467Y0012688D01*
X0089431Y0012737D01*
X0089393Y0012783D01*
X0089351Y0012827D01*
X0089307Y0012869D01*
X0089261Y0012907D01*
X0089212Y0012943D01*
X0089161Y0012976D01*
X0089109Y0013005D01*
X0089054Y0013032D01*
X0088999Y0013055D01*
X0088942Y0013075D01*
X0088883Y0013091D01*
X0088824Y0013104D01*
X0088765Y0013113D01*
X0088704Y0013118D01*
X0088644Y0013120D01*
X0088582Y0013118D01*
X0088520Y0013112D01*
X0088459Y0013103D01*
X0088398Y0013090D01*
X0088339Y0013073D01*
X0088280Y0013053D01*
X0088223Y0013029D01*
X0088167Y0013001D01*
X0088113Y0012970D01*
X0088061Y0012936D01*
X0088012Y0012899D01*
X0087964Y0012859D01*
X0087919Y0012816D01*
X0087877Y0012771D01*
X0087838Y0012723D01*
X0087802Y0012672D01*
X0087769Y0012620D01*
X0047900Y0015336D02*
X0047296Y0015345D01*
X0046693Y0015369D01*
X0046090Y0015408D01*
X0045488Y0015461D01*
X0044888Y0015530D01*
X0044290Y0015613D01*
X0043693Y0015710D01*
X0043100Y0015823D01*
X0042509Y0015949D01*
X0041922Y0016091D01*
X0041338Y0016246D01*
X0040759Y0016416D01*
X0040183Y0016600D01*
X0039613Y0016798D01*
X0039047Y0017010D01*
X0038487Y0017236D01*
X0037932Y0017476D01*
X0037384Y0017729D01*
X0036842Y0017995D01*
X0036306Y0018275D01*
X0035778Y0018568D01*
X0035257Y0018874D01*
X0034743Y0019192D01*
X0034238Y0019523D01*
X0033741Y0019866D01*
X0033252Y0020221D01*
X0032772Y0020588D01*
X0032302Y0020967D01*
X0031841Y0021357D01*
X0031389Y0021759D01*
X0030948Y0022171D01*
X0030517Y0022594D01*
X0030096Y0023028D01*
X0029686Y0023472D01*
X0029287Y0023925D01*
X0028900Y0024389D01*
X0028524Y0024861D01*
X0028159Y0025343D01*
X0027807Y0025834D01*
X0027466Y0026333D01*
X0027138Y0026840D01*
X0026823Y0027355D01*
X0026520Y0027878D01*
X0026231Y0028408D01*
X0025954Y0028945D01*
X0025690Y0029488D01*
X0025440Y0030038D01*
X0025204Y0030594D01*
X0024981Y0031156D01*
X0024772Y0031723D01*
X0024578Y0032294D01*
X0024397Y0032871D01*
X0024230Y0033451D01*
X0024078Y0034036D01*
X0023940Y0034624D01*
X0023816Y0035215D01*
X0023708Y0035810D01*
X0023613Y0036406D01*
X0023534Y0037005D01*
X0023469Y0037606D01*
X0023419Y0038208D01*
X0023383Y0038811D01*
X0023363Y0039414D01*
X0023357Y0040018D01*
X0023366Y0040622D01*
X0023390Y0041226D01*
X0023429Y0041829D01*
X0023482Y0042431D01*
X0023551Y0043031D01*
X0023634Y0043629D01*
X0023731Y0044225D01*
X0023844Y0044819D01*
X0023970Y0045409D01*
X0024112Y0045997D01*
X0024267Y0046581D01*
X0024437Y0047160D01*
X0024621Y0047736D01*
X0024819Y0048306D01*
X0025031Y0048872D01*
X0025257Y0049432D01*
X0025497Y0049987D01*
X0025750Y0050535D01*
X0026016Y0051077D01*
X0026296Y0051613D01*
X0026589Y0052141D01*
X0026894Y0052662D01*
X0027213Y0053175D01*
X0027544Y0053681D01*
X0027887Y0054178D01*
X0028242Y0054667D01*
X0028609Y0055146D01*
X0028988Y0055617D01*
X0029378Y0056078D01*
X0029780Y0056529D01*
X0030192Y0056971D01*
X0030615Y0057402D01*
X0031049Y0057823D01*
X0031492Y0058233D01*
X0031946Y0058631D01*
X0032409Y0059019D01*
X0032882Y0059395D01*
X0033364Y0059760D01*
X0033854Y0060112D01*
X0034353Y0060452D01*
X0034861Y0060780D01*
X0035376Y0061096D01*
X0035899Y0061399D01*
X0036429Y0061688D01*
X0036966Y0061965D01*
X0037509Y0062228D01*
X0038059Y0062478D01*
X0038615Y0062715D01*
X0039177Y0062938D01*
X0039743Y0063146D01*
X0040315Y0063341D01*
X0040892Y0063522D01*
X0041472Y0063689D01*
X0042057Y0063841D01*
X0042645Y0063979D01*
X0043236Y0064102D01*
X0043830Y0064211D01*
X0044427Y0064306D01*
X0045026Y0064385D01*
X0045626Y0064450D01*
X0046228Y0064500D01*
X0046832Y0064536D01*
X0047435Y0064556D01*
X0048039Y0064562D01*
X0085144Y0061870D02*
X0089644Y0061870D01*
X0089644Y0060620D02*
X0089644Y0063120D01*
X0089644Y0065120D02*
X0089644Y0067620D01*
X0089644Y0065120D02*
X0087144Y0067245D01*
X0085144Y0066495D02*
X0085146Y0066422D01*
X0085151Y0066350D01*
X0085160Y0066278D01*
X0085173Y0066206D01*
X0085189Y0066135D01*
X0085209Y0066065D01*
X0085233Y0065997D01*
X0085259Y0065929D01*
X0085290Y0065863D01*
X0085323Y0065798D01*
X0085360Y0065736D01*
X0085399Y0065675D01*
X0085442Y0065616D01*
X0085488Y0065559D01*
X0085536Y0065505D01*
X0085587Y0065454D01*
X0085641Y0065404D01*
X0085697Y0065358D01*
X0085755Y0065315D01*
X0085816Y0065274D01*
X0085878Y0065237D01*
X0085942Y0065203D01*
X0086008Y0065172D01*
X0086075Y0065144D01*
X0086144Y0065120D01*
X0087144Y0067245D02*
X0087098Y0067291D01*
X0087049Y0067335D01*
X0086998Y0067375D01*
X0086945Y0067413D01*
X0086890Y0067448D01*
X0086833Y0067480D01*
X0086775Y0067509D01*
X0086715Y0067535D01*
X0086653Y0067557D01*
X0086591Y0067576D01*
X0086528Y0067592D01*
X0086464Y0067604D01*
X0086399Y0067613D01*
X0086334Y0067618D01*
X0086269Y0067620D01*
X0086204Y0067618D01*
X0086138Y0067612D01*
X0086074Y0067603D01*
X0086010Y0067590D01*
X0085946Y0067573D01*
X0085884Y0067552D01*
X0085823Y0067528D01*
X0085764Y0067500D01*
X0085707Y0067469D01*
X0085651Y0067435D01*
X0085597Y0067397D01*
X0085546Y0067357D01*
X0085497Y0067313D01*
X0085451Y0067267D01*
X0085407Y0067218D01*
X0085367Y0067167D01*
X0085329Y0067113D01*
X0085295Y0067058D01*
X0085264Y0067000D01*
X0085236Y0066941D01*
X0085212Y0066880D01*
X0085191Y0066818D01*
X0085174Y0066754D01*
X0085161Y0066690D01*
X0085152Y0066626D01*
X0085146Y0066560D01*
X0085144Y0066495D01*
X0085144Y0061870D02*
X0086144Y0060620D01*
X0018244Y0040370D02*
X0018253Y0041106D01*
X0018280Y0041842D01*
X0018325Y0042577D01*
X0018388Y0043311D01*
X0018470Y0044042D01*
X0018569Y0044772D01*
X0018686Y0045499D01*
X0018820Y0046223D01*
X0018973Y0046943D01*
X0019143Y0047659D01*
X0019331Y0048371D01*
X0019536Y0049079D01*
X0019758Y0049780D01*
X0019998Y0050477D01*
X0020254Y0051167D01*
X0020528Y0051851D01*
X0020818Y0052527D01*
X0021124Y0053197D01*
X0021447Y0053858D01*
X0021786Y0054512D01*
X0022141Y0055157D01*
X0022512Y0055793D01*
X0022898Y0056420D01*
X0023300Y0057037D01*
X0023716Y0057644D01*
X0024148Y0058241D01*
X0024594Y0058827D01*
X0025054Y0059402D01*
X0025528Y0059965D01*
X0026015Y0060517D01*
X0026517Y0061056D01*
X0027031Y0061583D01*
X0027558Y0062097D01*
X0028097Y0062599D01*
X0028649Y0063086D01*
X0029212Y0063560D01*
X0029787Y0064020D01*
X0030373Y0064466D01*
X0030970Y0064898D01*
X0031577Y0065314D01*
X0032194Y0065716D01*
X0032821Y0066102D01*
X0033457Y0066473D01*
X0034102Y0066828D01*
X0034756Y0067167D01*
X0035417Y0067490D01*
X0036087Y0067796D01*
X0036763Y0068086D01*
X0037447Y0068360D01*
X0038137Y0068616D01*
X0038834Y0068856D01*
X0039535Y0069078D01*
X0040243Y0069283D01*
X0040955Y0069471D01*
X0041671Y0069641D01*
X0042391Y0069794D01*
X0043115Y0069928D01*
X0043842Y0070045D01*
X0044572Y0070144D01*
X0045303Y0070226D01*
X0046037Y0070289D01*
X0046772Y0070334D01*
X0047508Y0070361D01*
X0048244Y0070370D01*
X0048980Y0070361D01*
X0049716Y0070334D01*
X0050451Y0070289D01*
X0051185Y0070226D01*
X0051916Y0070144D01*
X0052646Y0070045D01*
X0053373Y0069928D01*
X0054097Y0069794D01*
X0054817Y0069641D01*
X0055533Y0069471D01*
X0056245Y0069283D01*
X0056953Y0069078D01*
X0057654Y0068856D01*
X0058351Y0068616D01*
X0059041Y0068360D01*
X0059725Y0068086D01*
X0060401Y0067796D01*
X0061071Y0067490D01*
X0061732Y0067167D01*
X0062386Y0066828D01*
X0063031Y0066473D01*
X0063667Y0066102D01*
X0064294Y0065716D01*
X0064911Y0065314D01*
X0065518Y0064898D01*
X0066115Y0064466D01*
X0066701Y0064020D01*
X0067276Y0063560D01*
X0067839Y0063086D01*
X0068391Y0062599D01*
X0068930Y0062097D01*
X0069457Y0061583D01*
X0069971Y0061056D01*
X0070473Y0060517D01*
X0070960Y0059965D01*
X0071434Y0059402D01*
X0071894Y0058827D01*
X0072340Y0058241D01*
X0072772Y0057644D01*
X0073188Y0057037D01*
X0073590Y0056420D01*
X0073976Y0055793D01*
X0074347Y0055157D01*
X0074702Y0054512D01*
X0075041Y0053858D01*
X0075364Y0053197D01*
X0075670Y0052527D01*
X0075960Y0051851D01*
X0076234Y0051167D01*
X0076490Y0050477D01*
X0076730Y0049780D01*
X0076952Y0049079D01*
X0077157Y0048371D01*
X0077345Y0047659D01*
X0077515Y0046943D01*
X0077668Y0046223D01*
X0077802Y0045499D01*
X0077919Y0044772D01*
X0078018Y0044042D01*
X0078100Y0043311D01*
X0078163Y0042577D01*
X0078208Y0041842D01*
X0078235Y0041106D01*
X0078244Y0040370D01*
X0078235Y0039634D01*
X0078208Y0038898D01*
X0078163Y0038163D01*
X0078100Y0037429D01*
X0078018Y0036698D01*
X0077919Y0035968D01*
X0077802Y0035241D01*
X0077668Y0034517D01*
X0077515Y0033797D01*
X0077345Y0033081D01*
X0077157Y0032369D01*
X0076952Y0031661D01*
X0076730Y0030960D01*
X0076490Y0030263D01*
X0076234Y0029573D01*
X0075960Y0028889D01*
X0075670Y0028213D01*
X0075364Y0027543D01*
X0075041Y0026882D01*
X0074702Y0026228D01*
X0074347Y0025583D01*
X0073976Y0024947D01*
X0073590Y0024320D01*
X0073188Y0023703D01*
X0072772Y0023096D01*
X0072340Y0022499D01*
X0071894Y0021913D01*
X0071434Y0021338D01*
X0070960Y0020775D01*
X0070473Y0020223D01*
X0069971Y0019684D01*
X0069457Y0019157D01*
X0068930Y0018643D01*
X0068391Y0018141D01*
X0067839Y0017654D01*
X0067276Y0017180D01*
X0066701Y0016720D01*
X0066115Y0016274D01*
X0065518Y0015842D01*
X0064911Y0015426D01*
X0064294Y0015024D01*
X0063667Y0014638D01*
X0063031Y0014267D01*
X0062386Y0013912D01*
X0061732Y0013573D01*
X0061071Y0013250D01*
X0060401Y0012944D01*
X0059725Y0012654D01*
X0059041Y0012380D01*
X0058351Y0012124D01*
X0057654Y0011884D01*
X0056953Y0011662D01*
X0056245Y0011457D01*
X0055533Y0011269D01*
X0054817Y0011099D01*
X0054097Y0010946D01*
X0053373Y0010812D01*
X0052646Y0010695D01*
X0051916Y0010596D01*
X0051185Y0010514D01*
X0050451Y0010451D01*
X0049716Y0010406D01*
X0048980Y0010379D01*
X0048244Y0010370D01*
X0047508Y0010379D01*
X0046772Y0010406D01*
X0046037Y0010451D01*
X0045303Y0010514D01*
X0044572Y0010596D01*
X0043842Y0010695D01*
X0043115Y0010812D01*
X0042391Y0010946D01*
X0041671Y0011099D01*
X0040955Y0011269D01*
X0040243Y0011457D01*
X0039535Y0011662D01*
X0038834Y0011884D01*
X0038137Y0012124D01*
X0037447Y0012380D01*
X0036763Y0012654D01*
X0036087Y0012944D01*
X0035417Y0013250D01*
X0034756Y0013573D01*
X0034102Y0013912D01*
X0033457Y0014267D01*
X0032821Y0014638D01*
X0032194Y0015024D01*
X0031577Y0015426D01*
X0030970Y0015842D01*
X0030373Y0016274D01*
X0029787Y0016720D01*
X0029212Y0017180D01*
X0028649Y0017654D01*
X0028097Y0018141D01*
X0027558Y0018643D01*
X0027031Y0019157D01*
X0026517Y0019684D01*
X0026015Y0020223D01*
X0025528Y0020775D01*
X0025054Y0021338D01*
X0024594Y0021913D01*
X0024148Y0022499D01*
X0023716Y0023096D01*
X0023300Y0023703D01*
X0022898Y0024320D01*
X0022512Y0024947D01*
X0022141Y0025583D01*
X0021786Y0026228D01*
X0021447Y0026882D01*
X0021124Y0027543D01*
X0020818Y0028213D01*
X0020528Y0028889D01*
X0020254Y0029573D01*
X0019998Y0030263D01*
X0019758Y0030960D01*
X0019536Y0031661D01*
X0019331Y0032369D01*
X0019143Y0033081D01*
X0018973Y0033797D01*
X0018820Y0034517D01*
X0018686Y0035241D01*
X0018569Y0035968D01*
X0018470Y0036698D01*
X0018388Y0037429D01*
X0018325Y0038163D01*
X0018280Y0038898D01*
X0018253Y0039634D01*
X0018244Y0040370D01*
D14*
X0018290Y0040370D02*
X0018299Y0041105D01*
X0018326Y0041840D01*
X0018371Y0042574D01*
X0018434Y0043306D01*
X0018515Y0044037D01*
X0018614Y0044765D01*
X0018731Y0045491D01*
X0018866Y0046214D01*
X0019018Y0046933D01*
X0019188Y0047648D01*
X0019375Y0048359D01*
X0019580Y0049065D01*
X0019802Y0049766D01*
X0020041Y0050461D01*
X0020297Y0051150D01*
X0020570Y0051833D01*
X0020860Y0052509D01*
X0021166Y0053177D01*
X0021488Y0053838D01*
X0021827Y0054490D01*
X0022181Y0055134D01*
X0022552Y0055769D01*
X0022937Y0056395D01*
X0023338Y0057012D01*
X0023754Y0057618D01*
X0024185Y0058214D01*
X0024630Y0058799D01*
X0025089Y0059373D01*
X0025563Y0059935D01*
X0026050Y0060486D01*
X0026550Y0061024D01*
X0027063Y0061551D01*
X0027590Y0062064D01*
X0028128Y0062564D01*
X0028679Y0063051D01*
X0029241Y0063525D01*
X0029815Y0063984D01*
X0030400Y0064429D01*
X0030996Y0064860D01*
X0031602Y0065276D01*
X0032219Y0065677D01*
X0032845Y0066062D01*
X0033480Y0066433D01*
X0034124Y0066787D01*
X0034776Y0067126D01*
X0035437Y0067448D01*
X0036105Y0067754D01*
X0036781Y0068044D01*
X0037464Y0068317D01*
X0038153Y0068573D01*
X0038848Y0068812D01*
X0039549Y0069034D01*
X0040255Y0069239D01*
X0040966Y0069426D01*
X0041681Y0069596D01*
X0042400Y0069748D01*
X0043123Y0069883D01*
X0043849Y0070000D01*
X0044577Y0070099D01*
X0045308Y0070180D01*
X0046040Y0070243D01*
X0046774Y0070288D01*
X0047509Y0070315D01*
X0048244Y0070324D01*
X0048979Y0070315D01*
X0049714Y0070288D01*
X0050448Y0070243D01*
X0051180Y0070180D01*
X0051911Y0070099D01*
X0052639Y0070000D01*
X0053365Y0069883D01*
X0054088Y0069748D01*
X0054807Y0069596D01*
X0055522Y0069426D01*
X0056233Y0069239D01*
X0056939Y0069034D01*
X0057640Y0068812D01*
X0058335Y0068573D01*
X0059024Y0068317D01*
X0059707Y0068044D01*
X0060383Y0067754D01*
X0061051Y0067448D01*
X0061712Y0067126D01*
X0062364Y0066787D01*
X0063008Y0066433D01*
X0063643Y0066062D01*
X0064269Y0065677D01*
X0064886Y0065276D01*
X0065492Y0064860D01*
X0066088Y0064429D01*
X0066673Y0063984D01*
X0067247Y0063525D01*
X0067809Y0063051D01*
X0068360Y0062564D01*
X0068898Y0062064D01*
X0069425Y0061551D01*
X0069938Y0061024D01*
X0070438Y0060486D01*
X0070925Y0059935D01*
X0071399Y0059373D01*
X0071858Y0058799D01*
X0072303Y0058214D01*
X0072734Y0057618D01*
X0073150Y0057012D01*
X0073551Y0056395D01*
X0073936Y0055769D01*
X0074307Y0055134D01*
X0074661Y0054490D01*
X0075000Y0053838D01*
X0075322Y0053177D01*
X0075628Y0052509D01*
X0075918Y0051833D01*
X0076191Y0051150D01*
X0076447Y0050461D01*
X0076686Y0049766D01*
X0076908Y0049065D01*
X0077113Y0048359D01*
X0077300Y0047648D01*
X0077470Y0046933D01*
X0077622Y0046214D01*
X0077757Y0045491D01*
X0077874Y0044765D01*
X0077973Y0044037D01*
X0078054Y0043306D01*
X0078117Y0042574D01*
X0078162Y0041840D01*
X0078189Y0041105D01*
X0078198Y0040370D01*
X0078189Y0039635D01*
X0078162Y0038900D01*
X0078117Y0038166D01*
X0078054Y0037434D01*
X0077973Y0036703D01*
X0077874Y0035975D01*
X0077757Y0035249D01*
X0077622Y0034526D01*
X0077470Y0033807D01*
X0077300Y0033092D01*
X0077113Y0032381D01*
X0076908Y0031675D01*
X0076686Y0030974D01*
X0076447Y0030279D01*
X0076191Y0029590D01*
X0075918Y0028907D01*
X0075628Y0028231D01*
X0075322Y0027563D01*
X0075000Y0026902D01*
X0074661Y0026250D01*
X0074307Y0025606D01*
X0073936Y0024971D01*
X0073551Y0024345D01*
X0073150Y0023728D01*
X0072734Y0023122D01*
X0072303Y0022526D01*
X0071858Y0021941D01*
X0071399Y0021367D01*
X0070925Y0020805D01*
X0070438Y0020254D01*
X0069938Y0019716D01*
X0069425Y0019189D01*
X0068898Y0018676D01*
X0068360Y0018176D01*
X0067809Y0017689D01*
X0067247Y0017215D01*
X0066673Y0016756D01*
X0066088Y0016311D01*
X0065492Y0015880D01*
X0064886Y0015464D01*
X0064269Y0015063D01*
X0063643Y0014678D01*
X0063008Y0014307D01*
X0062364Y0013953D01*
X0061712Y0013614D01*
X0061051Y0013292D01*
X0060383Y0012986D01*
X0059707Y0012696D01*
X0059024Y0012423D01*
X0058335Y0012167D01*
X0057640Y0011928D01*
X0056939Y0011706D01*
X0056233Y0011501D01*
X0055522Y0011314D01*
X0054807Y0011144D01*
X0054088Y0010992D01*
X0053365Y0010857D01*
X0052639Y0010740D01*
X0051911Y0010641D01*
X0051180Y0010560D01*
X0050448Y0010497D01*
X0049714Y0010452D01*
X0048979Y0010425D01*
X0048244Y0010416D01*
X0047509Y0010425D01*
X0046774Y0010452D01*
X0046040Y0010497D01*
X0045308Y0010560D01*
X0044577Y0010641D01*
X0043849Y0010740D01*
X0043123Y0010857D01*
X0042400Y0010992D01*
X0041681Y0011144D01*
X0040966Y0011314D01*
X0040255Y0011501D01*
X0039549Y0011706D01*
X0038848Y0011928D01*
X0038153Y0012167D01*
X0037464Y0012423D01*
X0036781Y0012696D01*
X0036105Y0012986D01*
X0035437Y0013292D01*
X0034776Y0013614D01*
X0034124Y0013953D01*
X0033480Y0014307D01*
X0032845Y0014678D01*
X0032219Y0015063D01*
X0031602Y0015464D01*
X0030996Y0015880D01*
X0030400Y0016311D01*
X0029815Y0016756D01*
X0029241Y0017215D01*
X0028679Y0017689D01*
X0028128Y0018176D01*
X0027590Y0018676D01*
X0027063Y0019189D01*
X0026550Y0019716D01*
X0026050Y0020254D01*
X0025563Y0020805D01*
X0025089Y0021367D01*
X0024630Y0021941D01*
X0024185Y0022526D01*
X0023754Y0023122D01*
X0023338Y0023728D01*
X0022937Y0024345D01*
X0022552Y0024971D01*
X0022181Y0025606D01*
X0021827Y0026250D01*
X0021488Y0026902D01*
X0021166Y0027563D01*
X0020860Y0028231D01*
X0020570Y0028907D01*
X0020297Y0029590D01*
X0020041Y0030279D01*
X0019802Y0030974D01*
X0019580Y0031675D01*
X0019375Y0032381D01*
X0019188Y0033092D01*
X0019018Y0033807D01*
X0018866Y0034526D01*
X0018731Y0035249D01*
X0018614Y0035975D01*
X0018515Y0036703D01*
X0018434Y0037434D01*
X0018371Y0038166D01*
X0018326Y0038900D01*
X0018299Y0039635D01*
X0018290Y0040370D01*
X0048244Y0064746D02*
X0047643Y0064739D01*
X0047042Y0064717D01*
X0046442Y0064680D01*
X0045843Y0064629D01*
X0045245Y0064563D01*
X0044649Y0064483D01*
X0044056Y0064388D01*
X0043464Y0064279D01*
X0042876Y0064155D01*
X0042291Y0064018D01*
X0041709Y0063865D01*
X0041131Y0063699D01*
X0040558Y0063519D01*
X0039989Y0063325D01*
X0039425Y0063117D01*
X0038866Y0062895D01*
X0038312Y0062660D01*
X0037765Y0062412D01*
X0037224Y0062150D01*
X0036689Y0061875D01*
X0036161Y0061587D01*
X0035641Y0061287D01*
X0035127Y0060973D01*
X0034622Y0060648D01*
X0034125Y0060310D01*
X0033636Y0059960D01*
X0033155Y0059598D01*
X0032684Y0059225D01*
X0032222Y0058841D01*
X0031769Y0058445D01*
X0031326Y0058038D01*
X0030894Y0057621D01*
X0030471Y0057193D01*
X0030059Y0056755D01*
X0029658Y0056308D01*
X0029268Y0055850D01*
X0028889Y0055383D01*
X0028521Y0054908D01*
X0028166Y0054423D01*
X0027822Y0053930D01*
X0027490Y0053428D01*
X0027170Y0052919D01*
X0026864Y0052402D01*
X0026569Y0051878D01*
X0026288Y0051346D01*
X0026020Y0050808D01*
X0025764Y0050264D01*
X0025522Y0049714D01*
X0025294Y0049157D01*
X0025079Y0048596D01*
X0024878Y0048029D01*
X0024691Y0047458D01*
X0024518Y0046882D01*
X0024359Y0046302D01*
X0024214Y0045719D01*
X0024083Y0045132D01*
X0023967Y0044542D01*
X0023865Y0043950D01*
X0023777Y0043355D01*
X0023704Y0042758D01*
X0023646Y0042160D01*
X0023602Y0041560D01*
X0023572Y0040960D01*
X0023558Y0040359D01*
X0023558Y0039757D01*
X0023572Y0039156D01*
X0023602Y0038556D01*
X0023646Y0037956D01*
X0023704Y0037358D01*
X0023777Y0036761D01*
X0023865Y0036166D01*
X0023967Y0035574D01*
X0024083Y0034984D01*
X0024214Y0034397D01*
X0024359Y0033814D01*
X0024518Y0033234D01*
X0024691Y0032658D01*
X0024878Y0032087D01*
X0025079Y0031520D01*
X0025294Y0030959D01*
X0025522Y0030402D01*
X0025764Y0029852D01*
X0026020Y0029308D01*
X0026288Y0028770D01*
X0026569Y0028238D01*
X0026864Y0027714D01*
X0027170Y0027197D01*
X0027490Y0026688D01*
X0027822Y0026186D01*
X0028166Y0025693D01*
X0028521Y0025208D01*
X0028889Y0024733D01*
X0029268Y0024266D01*
X0029658Y0023808D01*
X0030059Y0023361D01*
X0030471Y0022923D01*
X0030894Y0022495D01*
X0031326Y0022078D01*
X0031769Y0021671D01*
X0032222Y0021275D01*
X0032684Y0020891D01*
X0033155Y0020518D01*
X0033636Y0020156D01*
X0034125Y0019806D01*
X0034622Y0019468D01*
X0035127Y0019143D01*
X0035641Y0018829D01*
X0036161Y0018529D01*
X0036689Y0018241D01*
X0037224Y0017966D01*
X0037765Y0017704D01*
X0038312Y0017456D01*
X0038866Y0017221D01*
X0039425Y0016999D01*
X0039989Y0016791D01*
X0040558Y0016597D01*
X0041131Y0016417D01*
X0041709Y0016251D01*
X0042291Y0016098D01*
X0042876Y0015961D01*
X0043464Y0015837D01*
X0044056Y0015728D01*
X0044649Y0015633D01*
X0045245Y0015553D01*
X0045843Y0015487D01*
X0046442Y0015436D01*
X0047042Y0015399D01*
X0047643Y0015377D01*
X0048244Y0015370D01*
D15*
X0050214Y0074320D02*
X0050214Y0078920D01*
X0052769Y0074320D01*
X0052769Y0078920D01*
X0054864Y0077898D02*
X0056142Y0078920D01*
X0056142Y0074320D01*
X0057419Y0074320D02*
X0054864Y0074320D01*
M02*
