%
M48
M72
T01C0.03937
T02C0.04000
T03C0.12992
%
T01
X37102Y25938
X45946Y22809
X54760Y23660
X61983Y28160
X31763Y32778
X30120Y40505
X32293Y49043
X39002Y55478
X47499Y58307
X55752Y56994
X61958Y51361
T02
X96394Y55370
X106394Y55370
X106394Y45370
X96394Y45370
X96394Y35370
X106394Y35370
X106394Y25370
X96394Y25370
X96394Y15370
X106394Y15370
X106394Y65370
X96394Y65370
T03
X12811Y12811
X12811Y67929
X126984Y67929
X126984Y12811
M30
