G75*
%MOIN*%
%OFA0B0*%
%FSLAX25Y25*%
%IPPOS*%
%LPD*%
%AMOC8*
5,1,8,0,0,1.08239X$1,22.5*
%
%ADD10C,0.05937*%
%ADD11OC8,0.06000*%
%ADD12C,0.01181*%
D10*
X0037102Y0025938D03*
X0045946Y0022809D03*
X0054760Y0023660D03*
X0061983Y0028160D03*
X0031763Y0032778D03*
X0030120Y0040505D03*
X0032293Y0049043D03*
X0039002Y0055478D03*
X0047499Y0058307D03*
X0055752Y0056994D03*
X0061958Y0051361D03*
D11*
X0096394Y0055370D03*
X0106394Y0055370D03*
X0106394Y0045370D03*
X0096394Y0045370D03*
X0096394Y0035370D03*
X0106394Y0035370D03*
X0106394Y0025370D03*
X0096394Y0025370D03*
X0096394Y0015370D03*
X0106394Y0015370D03*
X0106394Y0065370D03*
X0096394Y0065370D03*
D12*
X0024622Y0035006D02*
X0024622Y0020685D01*
X0036433Y0008874D01*
X0099898Y0008874D01*
X0106394Y0015370D01*
X0101709Y0020685D02*
X0079740Y0020685D01*
X0067142Y0033283D01*
X0048052Y0033283D01*
X0032293Y0049043D01*
X0039002Y0055478D02*
X0056078Y0038402D01*
X0071866Y0038402D01*
X0079740Y0030528D01*
X0101551Y0030528D01*
X0106394Y0035370D01*
X0101394Y0040370D02*
X0083677Y0040370D01*
X0079740Y0044307D01*
X0058087Y0044307D01*
X0047499Y0054895D01*
X0047499Y0058307D01*
X0055752Y0056994D02*
X0072593Y0073835D01*
X0107299Y0073835D01*
X0113205Y0067929D01*
X0113205Y0060055D01*
X0108520Y0055370D01*
X0106394Y0055370D01*
X0101079Y0060055D02*
X0070652Y0060055D01*
X0061958Y0051361D01*
X0030120Y0040505D02*
X0024622Y0035006D01*
X0101394Y0040370D02*
X0106394Y0045370D01*
X0101079Y0060055D02*
X0106394Y0065370D01*
X0106394Y0025370D02*
X0101709Y0020685D01*
M02*
