M48
;GenerationSoftware,Autodesk,EAGLE,9.0.1*%
;CreationDate,2018-07-01T13:53:42Z*%
FMAT,2
ICI,OFF
METRIC,TZ,000.000
T10C0.400
T9C0.550
T8C0.760
T7C0.800
T6C0.813
T5C1.000
T4C1.016
T3C1.778
T2C2.750
T1C3.300
%
G90
M71
T1
X45500Y69300
X59500Y69300
X90500Y69300
X104500Y69300
X132000Y69300
X132000Y40300
X104500Y40300
X118000Y40300
X90500Y40300
X59500Y40300
X45500Y40300
X32000Y40300
X18000Y40300
X32000Y69300
X118000Y69300
X18000Y69300
X147000Y97000
X147000Y3000
X3000Y3000
X3000Y97000
T2
X78835Y4615
X78835Y27615
X136835Y4615
X136835Y27615
T3
X134620Y80645
X134620Y95885
X93980Y95885
X93980Y80645
T4
X51435Y3810
X48895Y16510
X48895Y13970
X48895Y11430
X48895Y8890
X48895Y6350
X48895Y3810
X2794Y23876
X5334Y23876
X7874Y23876
X10414Y23876
X12954Y23876
X15494Y23876
X2794Y21336
X5334Y21336
X7874Y21336
X10414Y21336
X12954Y21336
X15494Y21336
X18034Y23876
X20574Y23876
X23114Y23876
X28194Y23876
X30734Y23876
X18034Y21336
X20574Y21336
X23114Y21336
X25654Y21336
X28194Y21336
X30734Y21336
X28575Y95885
X31115Y95885
X33655Y95885
X36195Y95885
X38735Y95885
X48895Y24130
X48895Y19050
X48895Y21590
X48895Y26670
X48895Y29210
X48895Y31750
X51435Y19050
X51435Y21590
X20320Y27940
X51435Y24130
X51435Y26670
X51435Y29210
X51435Y31750
X15240Y27940
X17780Y27940
X13970Y93980
X13970Y91440
X13970Y88900
X13970Y86360
X13970Y83820
X58850Y48070
X56310Y48070
X53770Y48070
X51230Y48070
X48690Y48070
X46150Y48070
X58850Y45530
X56310Y45530
X25654Y23876
X53770Y45530
X51230Y45530
X48690Y45530
X46150Y45530
X96230Y48070
X98770Y48070
X101310Y48070
X103850Y48070
X118650Y45530
X121190Y45530
X123730Y45530
X126270Y45530
X128810Y45530
X131350Y45530
X118650Y48070
X121190Y48070
X131350Y48070
X123730Y48070
X126270Y48070
X128810Y48070
X18650Y45530
X21190Y45530
X23730Y45530
X26270Y45530
X28810Y45530
X31350Y45530
X18650Y48070
X21190Y48070
X23730Y48070
X26270Y48070
X28810Y48070
X31350Y48070
X69215Y27305
X66675Y27305
X64135Y27305
X61595Y27305
X59055Y27305
X91150Y45530
X93690Y45530
X96230Y45530
X98770Y45530
X101310Y45530
X103850Y45530
X91150Y48070
X93690Y48070
X51435Y6350
X51435Y8890
X51435Y11430
X51435Y13970
X51435Y16510
T5
X83705Y5885
X86245Y3345
X86245Y5885
X88785Y3345
X88785Y5885
X91325Y3345
X91325Y5885
X93865Y3345
X93865Y5885
X96405Y3345
X96405Y5885
X98945Y3345
X98945Y5885
X121805Y5885
X121805Y3345
X119265Y5885
X119265Y3345
X116725Y5885
X116725Y3345
X114185Y5885
X114185Y3345
X111645Y5885
X111645Y3345
X124345Y3345
X109105Y5885
X109105Y3345
X106565Y5885
X106565Y3345
X104025Y5885
X104025Y3345
X101485Y5885
X101485Y3345
X126885Y5885
X126885Y3345
X131965Y5885
X131965Y3345
X129425Y5885
X129425Y3345
X124345Y5885
X83705Y3345
T6
X73025Y93345
X73025Y80645
X73025Y78105
X73025Y90805
X73025Y88265
X73025Y83185
X73025Y85725
X80645Y78105
X80645Y80645
X80645Y83185
X80645Y85725
X80645Y90805
X80645Y93345
X80645Y95885
X80645Y88265
X140589Y94996
X140589Y87376
X73025Y95885
T7
X101600Y80645
X104140Y80645
X106680Y80645
X109220Y80645
X111760Y80645
X114300Y80645
X116840Y80645
X119380Y80645
X121920Y80645
X124460Y80645
X127000Y80645
X129540Y80645
X132080Y80645
X132080Y95885
X129540Y95885
X127000Y95885
X124460Y95885
X121920Y95885
X119380Y95885
X116840Y95885
X114300Y95885
X111760Y95885
X109220Y95885
X106680Y95885
X104140Y95885
X101600Y95885
X99060Y95885
X96520Y95885
X96520Y80645
X99060Y80645
T8
X32340Y1821
X40960Y6211
X41320Y1821
X32700Y6211
X19624Y6211
X19984Y1821
X11364Y6211
X11004Y1821
T9
X9525Y91440
X31115Y93345
X9525Y86360
X36195Y85405
X9525Y83820
X9525Y88900
X24765Y87950
X13335Y39370
X40430Y7461
X33230Y7461
X60960Y33655
X100330Y90805
X88900Y90805
X19094Y7461
X11894Y7461
X9525Y93980
X51435Y92710
X24130Y95885
T10
X98640Y73025
X46570Y73025
X24980Y73025
X60960Y52705
X98770Y52705
X126270Y52705
X26270Y52705
X53770Y52705
X59690Y53975
X96230Y53975
X123730Y53975
X23730Y53975
X51230Y53975
X56515Y55245
X21190Y55245
X48690Y55245
X53340Y56515
X91150Y56515
X118650Y56515
X18650Y56515
X46150Y56515
X66040Y43180
X48220Y43180
X116285Y43180
X88940Y43180
X20555Y43180
X69850Y46863
X33575Y46863
X43775Y46863
X88813Y46863
X26270Y37465
X81280Y37465
X56310Y37465
X101310Y37465
X128810Y37465
X28810Y38735
X85090Y44400
X58850Y44400
X103850Y44400
X131350Y44400
X31350Y44400
X51230Y34925
X69215Y86995
X78105Y90170
X67310Y84670
X41275Y25400
X118110Y76515
X109220Y83185
X33655Y78740
X137160Y84455
X102870Y92710
X102870Y77470
X69469Y76581
X92710Y83820
X33655Y77470
X121190Y55245
X38100Y76515
X83185Y89535
X83185Y80645
X126580Y73025
X107530Y73025
X73660Y34925
X130048Y8128
X120523Y8128
X135470Y73025
X39630Y6811
X39230Y5911
X38430Y5911
X38030Y6811
X37630Y5911
X37230Y6811
X33870Y73025
X36030Y5911
X35630Y6811
X35230Y5911
X34430Y5911
X34030Y6811
X96230Y34925
X123730Y34925
X23730Y36195
X93690Y55245
X18294Y6811
X17894Y5911
X17094Y5911
X16694Y6811
X36430Y6811
X15894Y6811
X15094Y6811
X14694Y5911
X14294Y6811
X13894Y5911
X13094Y5911
X12694Y6811
X77470Y36195
X53770Y36195
X98770Y36195
X126270Y36195
X64135Y73025
X115904Y46863
X16294Y5911
M30