G04 EAGLE Gerber X2 export*
%TF.Part,Single*%
%TF.FileFunction,Legend,Top,1*%
%TF.FilePolarity,Positive*%
%TF.GenerationSoftware,Autodesk,EAGLE,9.0.1*%
%TF.CreationDate,2018-07-01T13:53:45Z*%
G75*
%MOMM*%
%FSLAX34Y34*%
%LPD*%
%AMOC8*
5,1,8,0,0,1.08239X$1,22.5*%
G01*
%ADD10C,0.152400*%
%ADD11C,0.127000*%
%ADD12C,0.101600*%
%ADD13R,0.508000X0.381000*%
%ADD14C,0.076200*%
%ADD15C,0.050800*%
%ADD16C,0.000000*%
%ADD17C,0.015875*%

G36*
X1333588Y932832D02*
X1333588Y932832D01*
X1333676Y932841D01*
X1333697Y932851D01*
X1333721Y932855D01*
X1333798Y932901D01*
X1333877Y932940D01*
X1333894Y932957D01*
X1333914Y932970D01*
X1333970Y933039D01*
X1334031Y933103D01*
X1334040Y933125D01*
X1334055Y933144D01*
X1334084Y933228D01*
X1334119Y933310D01*
X1334120Y933334D01*
X1334127Y933356D01*
X1334125Y933445D01*
X1334129Y933534D01*
X1334121Y933557D01*
X1334121Y933581D01*
X1334087Y933663D01*
X1334060Y933748D01*
X1334044Y933769D01*
X1334036Y933788D01*
X1334002Y933826D01*
X1333948Y933898D01*
X1321248Y946598D01*
X1321217Y946620D01*
X1321200Y946639D01*
X1321181Y946649D01*
X1321147Y946681D01*
X1321103Y946700D01*
X1321064Y946727D01*
X1321001Y946743D01*
X1320940Y946769D01*
X1320893Y946771D01*
X1320847Y946783D01*
X1320782Y946776D01*
X1320716Y946779D01*
X1320671Y946764D01*
X1320624Y946759D01*
X1320565Y946730D01*
X1320502Y946710D01*
X1320458Y946677D01*
X1320423Y946660D01*
X1320396Y946631D01*
X1320388Y946626D01*
X1320371Y946615D01*
X1320366Y946609D01*
X1320352Y946598D01*
X1307652Y933898D01*
X1307601Y933825D01*
X1307545Y933756D01*
X1307537Y933734D01*
X1307523Y933714D01*
X1307501Y933628D01*
X1307473Y933544D01*
X1307473Y933520D01*
X1307468Y933497D01*
X1307477Y933408D01*
X1307479Y933319D01*
X1307488Y933297D01*
X1307491Y933274D01*
X1307530Y933194D01*
X1307564Y933112D01*
X1307580Y933094D01*
X1307590Y933073D01*
X1307655Y933012D01*
X1307715Y932946D01*
X1307736Y932935D01*
X1307753Y932919D01*
X1307835Y932884D01*
X1307915Y932843D01*
X1307941Y932840D01*
X1307960Y932831D01*
X1308010Y932829D01*
X1308100Y932816D01*
X1333500Y932816D01*
X1333588Y932832D01*
G37*
G36*
X1295418Y932824D02*
X1295418Y932824D01*
X1295484Y932821D01*
X1295529Y932836D01*
X1295576Y932841D01*
X1295635Y932870D01*
X1295698Y932890D01*
X1295742Y932923D01*
X1295777Y932940D01*
X1295804Y932969D01*
X1295848Y933002D01*
X1308548Y945702D01*
X1308599Y945775D01*
X1308655Y945844D01*
X1308663Y945866D01*
X1308677Y945886D01*
X1308699Y945972D01*
X1308727Y946056D01*
X1308727Y946080D01*
X1308733Y946103D01*
X1308723Y946192D01*
X1308721Y946281D01*
X1308712Y946303D01*
X1308709Y946326D01*
X1308670Y946406D01*
X1308636Y946488D01*
X1308620Y946506D01*
X1308610Y946527D01*
X1308545Y946588D01*
X1308485Y946654D01*
X1308464Y946665D01*
X1308447Y946681D01*
X1308365Y946716D01*
X1308285Y946757D01*
X1308259Y946760D01*
X1308240Y946769D01*
X1308190Y946771D01*
X1308100Y946784D01*
X1282700Y946784D01*
X1282612Y946768D01*
X1282524Y946759D01*
X1282503Y946749D01*
X1282479Y946745D01*
X1282402Y946699D01*
X1282323Y946660D01*
X1282306Y946643D01*
X1282286Y946630D01*
X1282230Y946561D01*
X1282169Y946497D01*
X1282160Y946475D01*
X1282145Y946456D01*
X1282116Y946372D01*
X1282081Y946290D01*
X1282080Y946266D01*
X1282073Y946244D01*
X1282075Y946155D01*
X1282071Y946066D01*
X1282079Y946043D01*
X1282079Y946019D01*
X1282113Y945937D01*
X1282140Y945852D01*
X1282156Y945831D01*
X1282164Y945812D01*
X1282198Y945774D01*
X1282252Y945702D01*
X1294952Y933002D01*
X1295006Y932964D01*
X1295053Y932919D01*
X1295097Y932900D01*
X1295136Y932873D01*
X1295199Y932857D01*
X1295260Y932831D01*
X1295307Y932829D01*
X1295353Y932818D01*
X1295418Y932824D01*
G37*
D10*
X716700Y295250D02*
X716700Y125250D01*
X566700Y125250D01*
X566700Y295250D01*
X716700Y295250D01*
X150000Y373000D02*
X150000Y723000D01*
X150000Y373000D02*
X350000Y373000D01*
X350000Y723000D01*
X150000Y723000D01*
X625000Y723000D02*
X625000Y373000D01*
X425000Y373000D02*
X425000Y723000D01*
X625000Y723000D01*
X625000Y373000D02*
X425000Y373000D01*
X875000Y373000D02*
X875000Y723000D01*
X1075000Y723000D02*
X1075000Y373000D01*
X1075000Y723000D02*
X875000Y723000D01*
X875000Y373000D02*
X1075000Y373000D01*
X1150000Y373000D02*
X1350000Y373000D01*
X1350000Y723000D02*
X1150000Y723000D01*
X1150000Y373000D01*
X1350000Y373000D02*
X1350000Y723000D01*
X162500Y403000D02*
X162505Y403429D01*
X162521Y403859D01*
X162547Y404287D01*
X162584Y404715D01*
X162632Y405142D01*
X162689Y405568D01*
X162758Y405992D01*
X162836Y406414D01*
X162925Y406834D01*
X163024Y407252D01*
X163134Y407667D01*
X163254Y408080D01*
X163383Y408489D01*
X163523Y408896D01*
X163673Y409298D01*
X163832Y409697D01*
X164001Y410092D01*
X164180Y410482D01*
X164369Y410868D01*
X164566Y411249D01*
X164773Y411626D01*
X164990Y411997D01*
X165215Y412362D01*
X165449Y412722D01*
X165692Y413077D01*
X165944Y413425D01*
X166204Y413767D01*
X166472Y414102D01*
X166749Y414431D01*
X167033Y414752D01*
X167326Y415067D01*
X167626Y415374D01*
X167933Y415674D01*
X168248Y415967D01*
X168569Y416251D01*
X168898Y416528D01*
X169233Y416796D01*
X169575Y417056D01*
X169923Y417308D01*
X170278Y417551D01*
X170638Y417785D01*
X171003Y418010D01*
X171374Y418227D01*
X171751Y418434D01*
X172132Y418631D01*
X172518Y418820D01*
X172908Y418999D01*
X173303Y419168D01*
X173702Y419327D01*
X174104Y419477D01*
X174511Y419617D01*
X174920Y419746D01*
X175333Y419866D01*
X175748Y419976D01*
X176166Y420075D01*
X176586Y420164D01*
X177008Y420242D01*
X177432Y420311D01*
X177858Y420368D01*
X178285Y420416D01*
X178713Y420453D01*
X179141Y420479D01*
X179571Y420495D01*
X180000Y420500D01*
X180429Y420495D01*
X180859Y420479D01*
X181287Y420453D01*
X181715Y420416D01*
X182142Y420368D01*
X182568Y420311D01*
X182992Y420242D01*
X183414Y420164D01*
X183834Y420075D01*
X184252Y419976D01*
X184667Y419866D01*
X185080Y419746D01*
X185489Y419617D01*
X185896Y419477D01*
X186298Y419327D01*
X186697Y419168D01*
X187092Y418999D01*
X187482Y418820D01*
X187868Y418631D01*
X188249Y418434D01*
X188626Y418227D01*
X188997Y418010D01*
X189362Y417785D01*
X189722Y417551D01*
X190077Y417308D01*
X190425Y417056D01*
X190767Y416796D01*
X191102Y416528D01*
X191431Y416251D01*
X191752Y415967D01*
X192067Y415674D01*
X192374Y415374D01*
X192674Y415067D01*
X192967Y414752D01*
X193251Y414431D01*
X193528Y414102D01*
X193796Y413767D01*
X194056Y413425D01*
X194308Y413077D01*
X194551Y412722D01*
X194785Y412362D01*
X195010Y411997D01*
X195227Y411626D01*
X195434Y411249D01*
X195631Y410868D01*
X195820Y410482D01*
X195999Y410092D01*
X196168Y409697D01*
X196327Y409298D01*
X196477Y408896D01*
X196617Y408489D01*
X196746Y408080D01*
X196866Y407667D01*
X196976Y407252D01*
X197075Y406834D01*
X197164Y406414D01*
X197242Y405992D01*
X197311Y405568D01*
X197368Y405142D01*
X197416Y404715D01*
X197453Y404287D01*
X197479Y403859D01*
X197495Y403429D01*
X197500Y403000D01*
X197495Y402571D01*
X197479Y402141D01*
X197453Y401713D01*
X197416Y401285D01*
X197368Y400858D01*
X197311Y400432D01*
X197242Y400008D01*
X197164Y399586D01*
X197075Y399166D01*
X196976Y398748D01*
X196866Y398333D01*
X196746Y397920D01*
X196617Y397511D01*
X196477Y397104D01*
X196327Y396702D01*
X196168Y396303D01*
X195999Y395908D01*
X195820Y395518D01*
X195631Y395132D01*
X195434Y394751D01*
X195227Y394374D01*
X195010Y394003D01*
X194785Y393638D01*
X194551Y393278D01*
X194308Y392923D01*
X194056Y392575D01*
X193796Y392233D01*
X193528Y391898D01*
X193251Y391569D01*
X192967Y391248D01*
X192674Y390933D01*
X192374Y390626D01*
X192067Y390326D01*
X191752Y390033D01*
X191431Y389749D01*
X191102Y389472D01*
X190767Y389204D01*
X190425Y388944D01*
X190077Y388692D01*
X189722Y388449D01*
X189362Y388215D01*
X188997Y387990D01*
X188626Y387773D01*
X188249Y387566D01*
X187868Y387369D01*
X187482Y387180D01*
X187092Y387001D01*
X186697Y386832D01*
X186298Y386673D01*
X185896Y386523D01*
X185489Y386383D01*
X185080Y386254D01*
X184667Y386134D01*
X184252Y386024D01*
X183834Y385925D01*
X183414Y385836D01*
X182992Y385758D01*
X182568Y385689D01*
X182142Y385632D01*
X181715Y385584D01*
X181287Y385547D01*
X180859Y385521D01*
X180429Y385505D01*
X180000Y385500D01*
X179571Y385505D01*
X179141Y385521D01*
X178713Y385547D01*
X178285Y385584D01*
X177858Y385632D01*
X177432Y385689D01*
X177008Y385758D01*
X176586Y385836D01*
X176166Y385925D01*
X175748Y386024D01*
X175333Y386134D01*
X174920Y386254D01*
X174511Y386383D01*
X174104Y386523D01*
X173702Y386673D01*
X173303Y386832D01*
X172908Y387001D01*
X172518Y387180D01*
X172132Y387369D01*
X171751Y387566D01*
X171374Y387773D01*
X171003Y387990D01*
X170638Y388215D01*
X170278Y388449D01*
X169923Y388692D01*
X169575Y388944D01*
X169233Y389204D01*
X168898Y389472D01*
X168569Y389749D01*
X168248Y390033D01*
X167933Y390326D01*
X167626Y390626D01*
X167326Y390933D01*
X167033Y391248D01*
X166749Y391569D01*
X166472Y391898D01*
X166204Y392233D01*
X165944Y392575D01*
X165692Y392923D01*
X165449Y393278D01*
X165215Y393638D01*
X164990Y394003D01*
X164773Y394374D01*
X164566Y394751D01*
X164369Y395132D01*
X164180Y395518D01*
X164001Y395908D01*
X163832Y396303D01*
X163673Y396702D01*
X163523Y397104D01*
X163383Y397511D01*
X163254Y397920D01*
X163134Y398333D01*
X163024Y398748D01*
X162925Y399166D01*
X162836Y399586D01*
X162758Y400008D01*
X162689Y400432D01*
X162632Y400858D01*
X162584Y401285D01*
X162547Y401713D01*
X162521Y402141D01*
X162505Y402571D01*
X162500Y403000D01*
X302500Y403000D02*
X302505Y403429D01*
X302521Y403859D01*
X302547Y404287D01*
X302584Y404715D01*
X302632Y405142D01*
X302689Y405568D01*
X302758Y405992D01*
X302836Y406414D01*
X302925Y406834D01*
X303024Y407252D01*
X303134Y407667D01*
X303254Y408080D01*
X303383Y408489D01*
X303523Y408896D01*
X303673Y409298D01*
X303832Y409697D01*
X304001Y410092D01*
X304180Y410482D01*
X304369Y410868D01*
X304566Y411249D01*
X304773Y411626D01*
X304990Y411997D01*
X305215Y412362D01*
X305449Y412722D01*
X305692Y413077D01*
X305944Y413425D01*
X306204Y413767D01*
X306472Y414102D01*
X306749Y414431D01*
X307033Y414752D01*
X307326Y415067D01*
X307626Y415374D01*
X307933Y415674D01*
X308248Y415967D01*
X308569Y416251D01*
X308898Y416528D01*
X309233Y416796D01*
X309575Y417056D01*
X309923Y417308D01*
X310278Y417551D01*
X310638Y417785D01*
X311003Y418010D01*
X311374Y418227D01*
X311751Y418434D01*
X312132Y418631D01*
X312518Y418820D01*
X312908Y418999D01*
X313303Y419168D01*
X313702Y419327D01*
X314104Y419477D01*
X314511Y419617D01*
X314920Y419746D01*
X315333Y419866D01*
X315748Y419976D01*
X316166Y420075D01*
X316586Y420164D01*
X317008Y420242D01*
X317432Y420311D01*
X317858Y420368D01*
X318285Y420416D01*
X318713Y420453D01*
X319141Y420479D01*
X319571Y420495D01*
X320000Y420500D01*
X320429Y420495D01*
X320859Y420479D01*
X321287Y420453D01*
X321715Y420416D01*
X322142Y420368D01*
X322568Y420311D01*
X322992Y420242D01*
X323414Y420164D01*
X323834Y420075D01*
X324252Y419976D01*
X324667Y419866D01*
X325080Y419746D01*
X325489Y419617D01*
X325896Y419477D01*
X326298Y419327D01*
X326697Y419168D01*
X327092Y418999D01*
X327482Y418820D01*
X327868Y418631D01*
X328249Y418434D01*
X328626Y418227D01*
X328997Y418010D01*
X329362Y417785D01*
X329722Y417551D01*
X330077Y417308D01*
X330425Y417056D01*
X330767Y416796D01*
X331102Y416528D01*
X331431Y416251D01*
X331752Y415967D01*
X332067Y415674D01*
X332374Y415374D01*
X332674Y415067D01*
X332967Y414752D01*
X333251Y414431D01*
X333528Y414102D01*
X333796Y413767D01*
X334056Y413425D01*
X334308Y413077D01*
X334551Y412722D01*
X334785Y412362D01*
X335010Y411997D01*
X335227Y411626D01*
X335434Y411249D01*
X335631Y410868D01*
X335820Y410482D01*
X335999Y410092D01*
X336168Y409697D01*
X336327Y409298D01*
X336477Y408896D01*
X336617Y408489D01*
X336746Y408080D01*
X336866Y407667D01*
X336976Y407252D01*
X337075Y406834D01*
X337164Y406414D01*
X337242Y405992D01*
X337311Y405568D01*
X337368Y405142D01*
X337416Y404715D01*
X337453Y404287D01*
X337479Y403859D01*
X337495Y403429D01*
X337500Y403000D01*
X337495Y402571D01*
X337479Y402141D01*
X337453Y401713D01*
X337416Y401285D01*
X337368Y400858D01*
X337311Y400432D01*
X337242Y400008D01*
X337164Y399586D01*
X337075Y399166D01*
X336976Y398748D01*
X336866Y398333D01*
X336746Y397920D01*
X336617Y397511D01*
X336477Y397104D01*
X336327Y396702D01*
X336168Y396303D01*
X335999Y395908D01*
X335820Y395518D01*
X335631Y395132D01*
X335434Y394751D01*
X335227Y394374D01*
X335010Y394003D01*
X334785Y393638D01*
X334551Y393278D01*
X334308Y392923D01*
X334056Y392575D01*
X333796Y392233D01*
X333528Y391898D01*
X333251Y391569D01*
X332967Y391248D01*
X332674Y390933D01*
X332374Y390626D01*
X332067Y390326D01*
X331752Y390033D01*
X331431Y389749D01*
X331102Y389472D01*
X330767Y389204D01*
X330425Y388944D01*
X330077Y388692D01*
X329722Y388449D01*
X329362Y388215D01*
X328997Y387990D01*
X328626Y387773D01*
X328249Y387566D01*
X327868Y387369D01*
X327482Y387180D01*
X327092Y387001D01*
X326697Y386832D01*
X326298Y386673D01*
X325896Y386523D01*
X325489Y386383D01*
X325080Y386254D01*
X324667Y386134D01*
X324252Y386024D01*
X323834Y385925D01*
X323414Y385836D01*
X322992Y385758D01*
X322568Y385689D01*
X322142Y385632D01*
X321715Y385584D01*
X321287Y385547D01*
X320859Y385521D01*
X320429Y385505D01*
X320000Y385500D01*
X319571Y385505D01*
X319141Y385521D01*
X318713Y385547D01*
X318285Y385584D01*
X317858Y385632D01*
X317432Y385689D01*
X317008Y385758D01*
X316586Y385836D01*
X316166Y385925D01*
X315748Y386024D01*
X315333Y386134D01*
X314920Y386254D01*
X314511Y386383D01*
X314104Y386523D01*
X313702Y386673D01*
X313303Y386832D01*
X312908Y387001D01*
X312518Y387180D01*
X312132Y387369D01*
X311751Y387566D01*
X311374Y387773D01*
X311003Y387990D01*
X310638Y388215D01*
X310278Y388449D01*
X309923Y388692D01*
X309575Y388944D01*
X309233Y389204D01*
X308898Y389472D01*
X308569Y389749D01*
X308248Y390033D01*
X307933Y390326D01*
X307626Y390626D01*
X307326Y390933D01*
X307033Y391248D01*
X306749Y391569D01*
X306472Y391898D01*
X306204Y392233D01*
X305944Y392575D01*
X305692Y392923D01*
X305449Y393278D01*
X305215Y393638D01*
X304990Y394003D01*
X304773Y394374D01*
X304566Y394751D01*
X304369Y395132D01*
X304180Y395518D01*
X304001Y395908D01*
X303832Y396303D01*
X303673Y396702D01*
X303523Y397104D01*
X303383Y397511D01*
X303254Y397920D01*
X303134Y398333D01*
X303024Y398748D01*
X302925Y399166D01*
X302836Y399586D01*
X302758Y400008D01*
X302689Y400432D01*
X302632Y400858D01*
X302584Y401285D01*
X302547Y401713D01*
X302521Y402141D01*
X302505Y402571D01*
X302500Y403000D01*
X302500Y693000D02*
X302505Y693429D01*
X302521Y693859D01*
X302547Y694287D01*
X302584Y694715D01*
X302632Y695142D01*
X302689Y695568D01*
X302758Y695992D01*
X302836Y696414D01*
X302925Y696834D01*
X303024Y697252D01*
X303134Y697667D01*
X303254Y698080D01*
X303383Y698489D01*
X303523Y698896D01*
X303673Y699298D01*
X303832Y699697D01*
X304001Y700092D01*
X304180Y700482D01*
X304369Y700868D01*
X304566Y701249D01*
X304773Y701626D01*
X304990Y701997D01*
X305215Y702362D01*
X305449Y702722D01*
X305692Y703077D01*
X305944Y703425D01*
X306204Y703767D01*
X306472Y704102D01*
X306749Y704431D01*
X307033Y704752D01*
X307326Y705067D01*
X307626Y705374D01*
X307933Y705674D01*
X308248Y705967D01*
X308569Y706251D01*
X308898Y706528D01*
X309233Y706796D01*
X309575Y707056D01*
X309923Y707308D01*
X310278Y707551D01*
X310638Y707785D01*
X311003Y708010D01*
X311374Y708227D01*
X311751Y708434D01*
X312132Y708631D01*
X312518Y708820D01*
X312908Y708999D01*
X313303Y709168D01*
X313702Y709327D01*
X314104Y709477D01*
X314511Y709617D01*
X314920Y709746D01*
X315333Y709866D01*
X315748Y709976D01*
X316166Y710075D01*
X316586Y710164D01*
X317008Y710242D01*
X317432Y710311D01*
X317858Y710368D01*
X318285Y710416D01*
X318713Y710453D01*
X319141Y710479D01*
X319571Y710495D01*
X320000Y710500D01*
X320429Y710495D01*
X320859Y710479D01*
X321287Y710453D01*
X321715Y710416D01*
X322142Y710368D01*
X322568Y710311D01*
X322992Y710242D01*
X323414Y710164D01*
X323834Y710075D01*
X324252Y709976D01*
X324667Y709866D01*
X325080Y709746D01*
X325489Y709617D01*
X325896Y709477D01*
X326298Y709327D01*
X326697Y709168D01*
X327092Y708999D01*
X327482Y708820D01*
X327868Y708631D01*
X328249Y708434D01*
X328626Y708227D01*
X328997Y708010D01*
X329362Y707785D01*
X329722Y707551D01*
X330077Y707308D01*
X330425Y707056D01*
X330767Y706796D01*
X331102Y706528D01*
X331431Y706251D01*
X331752Y705967D01*
X332067Y705674D01*
X332374Y705374D01*
X332674Y705067D01*
X332967Y704752D01*
X333251Y704431D01*
X333528Y704102D01*
X333796Y703767D01*
X334056Y703425D01*
X334308Y703077D01*
X334551Y702722D01*
X334785Y702362D01*
X335010Y701997D01*
X335227Y701626D01*
X335434Y701249D01*
X335631Y700868D01*
X335820Y700482D01*
X335999Y700092D01*
X336168Y699697D01*
X336327Y699298D01*
X336477Y698896D01*
X336617Y698489D01*
X336746Y698080D01*
X336866Y697667D01*
X336976Y697252D01*
X337075Y696834D01*
X337164Y696414D01*
X337242Y695992D01*
X337311Y695568D01*
X337368Y695142D01*
X337416Y694715D01*
X337453Y694287D01*
X337479Y693859D01*
X337495Y693429D01*
X337500Y693000D01*
X337495Y692571D01*
X337479Y692141D01*
X337453Y691713D01*
X337416Y691285D01*
X337368Y690858D01*
X337311Y690432D01*
X337242Y690008D01*
X337164Y689586D01*
X337075Y689166D01*
X336976Y688748D01*
X336866Y688333D01*
X336746Y687920D01*
X336617Y687511D01*
X336477Y687104D01*
X336327Y686702D01*
X336168Y686303D01*
X335999Y685908D01*
X335820Y685518D01*
X335631Y685132D01*
X335434Y684751D01*
X335227Y684374D01*
X335010Y684003D01*
X334785Y683638D01*
X334551Y683278D01*
X334308Y682923D01*
X334056Y682575D01*
X333796Y682233D01*
X333528Y681898D01*
X333251Y681569D01*
X332967Y681248D01*
X332674Y680933D01*
X332374Y680626D01*
X332067Y680326D01*
X331752Y680033D01*
X331431Y679749D01*
X331102Y679472D01*
X330767Y679204D01*
X330425Y678944D01*
X330077Y678692D01*
X329722Y678449D01*
X329362Y678215D01*
X328997Y677990D01*
X328626Y677773D01*
X328249Y677566D01*
X327868Y677369D01*
X327482Y677180D01*
X327092Y677001D01*
X326697Y676832D01*
X326298Y676673D01*
X325896Y676523D01*
X325489Y676383D01*
X325080Y676254D01*
X324667Y676134D01*
X324252Y676024D01*
X323834Y675925D01*
X323414Y675836D01*
X322992Y675758D01*
X322568Y675689D01*
X322142Y675632D01*
X321715Y675584D01*
X321287Y675547D01*
X320859Y675521D01*
X320429Y675505D01*
X320000Y675500D01*
X319571Y675505D01*
X319141Y675521D01*
X318713Y675547D01*
X318285Y675584D01*
X317858Y675632D01*
X317432Y675689D01*
X317008Y675758D01*
X316586Y675836D01*
X316166Y675925D01*
X315748Y676024D01*
X315333Y676134D01*
X314920Y676254D01*
X314511Y676383D01*
X314104Y676523D01*
X313702Y676673D01*
X313303Y676832D01*
X312908Y677001D01*
X312518Y677180D01*
X312132Y677369D01*
X311751Y677566D01*
X311374Y677773D01*
X311003Y677990D01*
X310638Y678215D01*
X310278Y678449D01*
X309923Y678692D01*
X309575Y678944D01*
X309233Y679204D01*
X308898Y679472D01*
X308569Y679749D01*
X308248Y680033D01*
X307933Y680326D01*
X307626Y680626D01*
X307326Y680933D01*
X307033Y681248D01*
X306749Y681569D01*
X306472Y681898D01*
X306204Y682233D01*
X305944Y682575D01*
X305692Y682923D01*
X305449Y683278D01*
X305215Y683638D01*
X304990Y684003D01*
X304773Y684374D01*
X304566Y684751D01*
X304369Y685132D01*
X304180Y685518D01*
X304001Y685908D01*
X303832Y686303D01*
X303673Y686702D01*
X303523Y687104D01*
X303383Y687511D01*
X303254Y687920D01*
X303134Y688333D01*
X303024Y688748D01*
X302925Y689166D01*
X302836Y689586D01*
X302758Y690008D01*
X302689Y690432D01*
X302632Y690858D01*
X302584Y691285D01*
X302547Y691713D01*
X302521Y692141D01*
X302505Y692571D01*
X302500Y693000D01*
X162500Y693000D02*
X162505Y693429D01*
X162521Y693859D01*
X162547Y694287D01*
X162584Y694715D01*
X162632Y695142D01*
X162689Y695568D01*
X162758Y695992D01*
X162836Y696414D01*
X162925Y696834D01*
X163024Y697252D01*
X163134Y697667D01*
X163254Y698080D01*
X163383Y698489D01*
X163523Y698896D01*
X163673Y699298D01*
X163832Y699697D01*
X164001Y700092D01*
X164180Y700482D01*
X164369Y700868D01*
X164566Y701249D01*
X164773Y701626D01*
X164990Y701997D01*
X165215Y702362D01*
X165449Y702722D01*
X165692Y703077D01*
X165944Y703425D01*
X166204Y703767D01*
X166472Y704102D01*
X166749Y704431D01*
X167033Y704752D01*
X167326Y705067D01*
X167626Y705374D01*
X167933Y705674D01*
X168248Y705967D01*
X168569Y706251D01*
X168898Y706528D01*
X169233Y706796D01*
X169575Y707056D01*
X169923Y707308D01*
X170278Y707551D01*
X170638Y707785D01*
X171003Y708010D01*
X171374Y708227D01*
X171751Y708434D01*
X172132Y708631D01*
X172518Y708820D01*
X172908Y708999D01*
X173303Y709168D01*
X173702Y709327D01*
X174104Y709477D01*
X174511Y709617D01*
X174920Y709746D01*
X175333Y709866D01*
X175748Y709976D01*
X176166Y710075D01*
X176586Y710164D01*
X177008Y710242D01*
X177432Y710311D01*
X177858Y710368D01*
X178285Y710416D01*
X178713Y710453D01*
X179141Y710479D01*
X179571Y710495D01*
X180000Y710500D01*
X180429Y710495D01*
X180859Y710479D01*
X181287Y710453D01*
X181715Y710416D01*
X182142Y710368D01*
X182568Y710311D01*
X182992Y710242D01*
X183414Y710164D01*
X183834Y710075D01*
X184252Y709976D01*
X184667Y709866D01*
X185080Y709746D01*
X185489Y709617D01*
X185896Y709477D01*
X186298Y709327D01*
X186697Y709168D01*
X187092Y708999D01*
X187482Y708820D01*
X187868Y708631D01*
X188249Y708434D01*
X188626Y708227D01*
X188997Y708010D01*
X189362Y707785D01*
X189722Y707551D01*
X190077Y707308D01*
X190425Y707056D01*
X190767Y706796D01*
X191102Y706528D01*
X191431Y706251D01*
X191752Y705967D01*
X192067Y705674D01*
X192374Y705374D01*
X192674Y705067D01*
X192967Y704752D01*
X193251Y704431D01*
X193528Y704102D01*
X193796Y703767D01*
X194056Y703425D01*
X194308Y703077D01*
X194551Y702722D01*
X194785Y702362D01*
X195010Y701997D01*
X195227Y701626D01*
X195434Y701249D01*
X195631Y700868D01*
X195820Y700482D01*
X195999Y700092D01*
X196168Y699697D01*
X196327Y699298D01*
X196477Y698896D01*
X196617Y698489D01*
X196746Y698080D01*
X196866Y697667D01*
X196976Y697252D01*
X197075Y696834D01*
X197164Y696414D01*
X197242Y695992D01*
X197311Y695568D01*
X197368Y695142D01*
X197416Y694715D01*
X197453Y694287D01*
X197479Y693859D01*
X197495Y693429D01*
X197500Y693000D01*
X197495Y692571D01*
X197479Y692141D01*
X197453Y691713D01*
X197416Y691285D01*
X197368Y690858D01*
X197311Y690432D01*
X197242Y690008D01*
X197164Y689586D01*
X197075Y689166D01*
X196976Y688748D01*
X196866Y688333D01*
X196746Y687920D01*
X196617Y687511D01*
X196477Y687104D01*
X196327Y686702D01*
X196168Y686303D01*
X195999Y685908D01*
X195820Y685518D01*
X195631Y685132D01*
X195434Y684751D01*
X195227Y684374D01*
X195010Y684003D01*
X194785Y683638D01*
X194551Y683278D01*
X194308Y682923D01*
X194056Y682575D01*
X193796Y682233D01*
X193528Y681898D01*
X193251Y681569D01*
X192967Y681248D01*
X192674Y680933D01*
X192374Y680626D01*
X192067Y680326D01*
X191752Y680033D01*
X191431Y679749D01*
X191102Y679472D01*
X190767Y679204D01*
X190425Y678944D01*
X190077Y678692D01*
X189722Y678449D01*
X189362Y678215D01*
X188997Y677990D01*
X188626Y677773D01*
X188249Y677566D01*
X187868Y677369D01*
X187482Y677180D01*
X187092Y677001D01*
X186697Y676832D01*
X186298Y676673D01*
X185896Y676523D01*
X185489Y676383D01*
X185080Y676254D01*
X184667Y676134D01*
X184252Y676024D01*
X183834Y675925D01*
X183414Y675836D01*
X182992Y675758D01*
X182568Y675689D01*
X182142Y675632D01*
X181715Y675584D01*
X181287Y675547D01*
X180859Y675521D01*
X180429Y675505D01*
X180000Y675500D01*
X179571Y675505D01*
X179141Y675521D01*
X178713Y675547D01*
X178285Y675584D01*
X177858Y675632D01*
X177432Y675689D01*
X177008Y675758D01*
X176586Y675836D01*
X176166Y675925D01*
X175748Y676024D01*
X175333Y676134D01*
X174920Y676254D01*
X174511Y676383D01*
X174104Y676523D01*
X173702Y676673D01*
X173303Y676832D01*
X172908Y677001D01*
X172518Y677180D01*
X172132Y677369D01*
X171751Y677566D01*
X171374Y677773D01*
X171003Y677990D01*
X170638Y678215D01*
X170278Y678449D01*
X169923Y678692D01*
X169575Y678944D01*
X169233Y679204D01*
X168898Y679472D01*
X168569Y679749D01*
X168248Y680033D01*
X167933Y680326D01*
X167626Y680626D01*
X167326Y680933D01*
X167033Y681248D01*
X166749Y681569D01*
X166472Y681898D01*
X166204Y682233D01*
X165944Y682575D01*
X165692Y682923D01*
X165449Y683278D01*
X165215Y683638D01*
X164990Y684003D01*
X164773Y684374D01*
X164566Y684751D01*
X164369Y685132D01*
X164180Y685518D01*
X164001Y685908D01*
X163832Y686303D01*
X163673Y686702D01*
X163523Y687104D01*
X163383Y687511D01*
X163254Y687920D01*
X163134Y688333D01*
X163024Y688748D01*
X162925Y689166D01*
X162836Y689586D01*
X162758Y690008D01*
X162689Y690432D01*
X162632Y690858D01*
X162584Y691285D01*
X162547Y691713D01*
X162521Y692141D01*
X162505Y692571D01*
X162500Y693000D01*
X437500Y693000D02*
X437505Y693429D01*
X437521Y693859D01*
X437547Y694287D01*
X437584Y694715D01*
X437632Y695142D01*
X437689Y695568D01*
X437758Y695992D01*
X437836Y696414D01*
X437925Y696834D01*
X438024Y697252D01*
X438134Y697667D01*
X438254Y698080D01*
X438383Y698489D01*
X438523Y698896D01*
X438673Y699298D01*
X438832Y699697D01*
X439001Y700092D01*
X439180Y700482D01*
X439369Y700868D01*
X439566Y701249D01*
X439773Y701626D01*
X439990Y701997D01*
X440215Y702362D01*
X440449Y702722D01*
X440692Y703077D01*
X440944Y703425D01*
X441204Y703767D01*
X441472Y704102D01*
X441749Y704431D01*
X442033Y704752D01*
X442326Y705067D01*
X442626Y705374D01*
X442933Y705674D01*
X443248Y705967D01*
X443569Y706251D01*
X443898Y706528D01*
X444233Y706796D01*
X444575Y707056D01*
X444923Y707308D01*
X445278Y707551D01*
X445638Y707785D01*
X446003Y708010D01*
X446374Y708227D01*
X446751Y708434D01*
X447132Y708631D01*
X447518Y708820D01*
X447908Y708999D01*
X448303Y709168D01*
X448702Y709327D01*
X449104Y709477D01*
X449511Y709617D01*
X449920Y709746D01*
X450333Y709866D01*
X450748Y709976D01*
X451166Y710075D01*
X451586Y710164D01*
X452008Y710242D01*
X452432Y710311D01*
X452858Y710368D01*
X453285Y710416D01*
X453713Y710453D01*
X454141Y710479D01*
X454571Y710495D01*
X455000Y710500D01*
X455429Y710495D01*
X455859Y710479D01*
X456287Y710453D01*
X456715Y710416D01*
X457142Y710368D01*
X457568Y710311D01*
X457992Y710242D01*
X458414Y710164D01*
X458834Y710075D01*
X459252Y709976D01*
X459667Y709866D01*
X460080Y709746D01*
X460489Y709617D01*
X460896Y709477D01*
X461298Y709327D01*
X461697Y709168D01*
X462092Y708999D01*
X462482Y708820D01*
X462868Y708631D01*
X463249Y708434D01*
X463626Y708227D01*
X463997Y708010D01*
X464362Y707785D01*
X464722Y707551D01*
X465077Y707308D01*
X465425Y707056D01*
X465767Y706796D01*
X466102Y706528D01*
X466431Y706251D01*
X466752Y705967D01*
X467067Y705674D01*
X467374Y705374D01*
X467674Y705067D01*
X467967Y704752D01*
X468251Y704431D01*
X468528Y704102D01*
X468796Y703767D01*
X469056Y703425D01*
X469308Y703077D01*
X469551Y702722D01*
X469785Y702362D01*
X470010Y701997D01*
X470227Y701626D01*
X470434Y701249D01*
X470631Y700868D01*
X470820Y700482D01*
X470999Y700092D01*
X471168Y699697D01*
X471327Y699298D01*
X471477Y698896D01*
X471617Y698489D01*
X471746Y698080D01*
X471866Y697667D01*
X471976Y697252D01*
X472075Y696834D01*
X472164Y696414D01*
X472242Y695992D01*
X472311Y695568D01*
X472368Y695142D01*
X472416Y694715D01*
X472453Y694287D01*
X472479Y693859D01*
X472495Y693429D01*
X472500Y693000D01*
X472495Y692571D01*
X472479Y692141D01*
X472453Y691713D01*
X472416Y691285D01*
X472368Y690858D01*
X472311Y690432D01*
X472242Y690008D01*
X472164Y689586D01*
X472075Y689166D01*
X471976Y688748D01*
X471866Y688333D01*
X471746Y687920D01*
X471617Y687511D01*
X471477Y687104D01*
X471327Y686702D01*
X471168Y686303D01*
X470999Y685908D01*
X470820Y685518D01*
X470631Y685132D01*
X470434Y684751D01*
X470227Y684374D01*
X470010Y684003D01*
X469785Y683638D01*
X469551Y683278D01*
X469308Y682923D01*
X469056Y682575D01*
X468796Y682233D01*
X468528Y681898D01*
X468251Y681569D01*
X467967Y681248D01*
X467674Y680933D01*
X467374Y680626D01*
X467067Y680326D01*
X466752Y680033D01*
X466431Y679749D01*
X466102Y679472D01*
X465767Y679204D01*
X465425Y678944D01*
X465077Y678692D01*
X464722Y678449D01*
X464362Y678215D01*
X463997Y677990D01*
X463626Y677773D01*
X463249Y677566D01*
X462868Y677369D01*
X462482Y677180D01*
X462092Y677001D01*
X461697Y676832D01*
X461298Y676673D01*
X460896Y676523D01*
X460489Y676383D01*
X460080Y676254D01*
X459667Y676134D01*
X459252Y676024D01*
X458834Y675925D01*
X458414Y675836D01*
X457992Y675758D01*
X457568Y675689D01*
X457142Y675632D01*
X456715Y675584D01*
X456287Y675547D01*
X455859Y675521D01*
X455429Y675505D01*
X455000Y675500D01*
X454571Y675505D01*
X454141Y675521D01*
X453713Y675547D01*
X453285Y675584D01*
X452858Y675632D01*
X452432Y675689D01*
X452008Y675758D01*
X451586Y675836D01*
X451166Y675925D01*
X450748Y676024D01*
X450333Y676134D01*
X449920Y676254D01*
X449511Y676383D01*
X449104Y676523D01*
X448702Y676673D01*
X448303Y676832D01*
X447908Y677001D01*
X447518Y677180D01*
X447132Y677369D01*
X446751Y677566D01*
X446374Y677773D01*
X446003Y677990D01*
X445638Y678215D01*
X445278Y678449D01*
X444923Y678692D01*
X444575Y678944D01*
X444233Y679204D01*
X443898Y679472D01*
X443569Y679749D01*
X443248Y680033D01*
X442933Y680326D01*
X442626Y680626D01*
X442326Y680933D01*
X442033Y681248D01*
X441749Y681569D01*
X441472Y681898D01*
X441204Y682233D01*
X440944Y682575D01*
X440692Y682923D01*
X440449Y683278D01*
X440215Y683638D01*
X439990Y684003D01*
X439773Y684374D01*
X439566Y684751D01*
X439369Y685132D01*
X439180Y685518D01*
X439001Y685908D01*
X438832Y686303D01*
X438673Y686702D01*
X438523Y687104D01*
X438383Y687511D01*
X438254Y687920D01*
X438134Y688333D01*
X438024Y688748D01*
X437925Y689166D01*
X437836Y689586D01*
X437758Y690008D01*
X437689Y690432D01*
X437632Y690858D01*
X437584Y691285D01*
X437547Y691713D01*
X437521Y692141D01*
X437505Y692571D01*
X437500Y693000D01*
X577500Y693000D02*
X577505Y693429D01*
X577521Y693859D01*
X577547Y694287D01*
X577584Y694715D01*
X577632Y695142D01*
X577689Y695568D01*
X577758Y695992D01*
X577836Y696414D01*
X577925Y696834D01*
X578024Y697252D01*
X578134Y697667D01*
X578254Y698080D01*
X578383Y698489D01*
X578523Y698896D01*
X578673Y699298D01*
X578832Y699697D01*
X579001Y700092D01*
X579180Y700482D01*
X579369Y700868D01*
X579566Y701249D01*
X579773Y701626D01*
X579990Y701997D01*
X580215Y702362D01*
X580449Y702722D01*
X580692Y703077D01*
X580944Y703425D01*
X581204Y703767D01*
X581472Y704102D01*
X581749Y704431D01*
X582033Y704752D01*
X582326Y705067D01*
X582626Y705374D01*
X582933Y705674D01*
X583248Y705967D01*
X583569Y706251D01*
X583898Y706528D01*
X584233Y706796D01*
X584575Y707056D01*
X584923Y707308D01*
X585278Y707551D01*
X585638Y707785D01*
X586003Y708010D01*
X586374Y708227D01*
X586751Y708434D01*
X587132Y708631D01*
X587518Y708820D01*
X587908Y708999D01*
X588303Y709168D01*
X588702Y709327D01*
X589104Y709477D01*
X589511Y709617D01*
X589920Y709746D01*
X590333Y709866D01*
X590748Y709976D01*
X591166Y710075D01*
X591586Y710164D01*
X592008Y710242D01*
X592432Y710311D01*
X592858Y710368D01*
X593285Y710416D01*
X593713Y710453D01*
X594141Y710479D01*
X594571Y710495D01*
X595000Y710500D01*
X595429Y710495D01*
X595859Y710479D01*
X596287Y710453D01*
X596715Y710416D01*
X597142Y710368D01*
X597568Y710311D01*
X597992Y710242D01*
X598414Y710164D01*
X598834Y710075D01*
X599252Y709976D01*
X599667Y709866D01*
X600080Y709746D01*
X600489Y709617D01*
X600896Y709477D01*
X601298Y709327D01*
X601697Y709168D01*
X602092Y708999D01*
X602482Y708820D01*
X602868Y708631D01*
X603249Y708434D01*
X603626Y708227D01*
X603997Y708010D01*
X604362Y707785D01*
X604722Y707551D01*
X605077Y707308D01*
X605425Y707056D01*
X605767Y706796D01*
X606102Y706528D01*
X606431Y706251D01*
X606752Y705967D01*
X607067Y705674D01*
X607374Y705374D01*
X607674Y705067D01*
X607967Y704752D01*
X608251Y704431D01*
X608528Y704102D01*
X608796Y703767D01*
X609056Y703425D01*
X609308Y703077D01*
X609551Y702722D01*
X609785Y702362D01*
X610010Y701997D01*
X610227Y701626D01*
X610434Y701249D01*
X610631Y700868D01*
X610820Y700482D01*
X610999Y700092D01*
X611168Y699697D01*
X611327Y699298D01*
X611477Y698896D01*
X611617Y698489D01*
X611746Y698080D01*
X611866Y697667D01*
X611976Y697252D01*
X612075Y696834D01*
X612164Y696414D01*
X612242Y695992D01*
X612311Y695568D01*
X612368Y695142D01*
X612416Y694715D01*
X612453Y694287D01*
X612479Y693859D01*
X612495Y693429D01*
X612500Y693000D01*
X612495Y692571D01*
X612479Y692141D01*
X612453Y691713D01*
X612416Y691285D01*
X612368Y690858D01*
X612311Y690432D01*
X612242Y690008D01*
X612164Y689586D01*
X612075Y689166D01*
X611976Y688748D01*
X611866Y688333D01*
X611746Y687920D01*
X611617Y687511D01*
X611477Y687104D01*
X611327Y686702D01*
X611168Y686303D01*
X610999Y685908D01*
X610820Y685518D01*
X610631Y685132D01*
X610434Y684751D01*
X610227Y684374D01*
X610010Y684003D01*
X609785Y683638D01*
X609551Y683278D01*
X609308Y682923D01*
X609056Y682575D01*
X608796Y682233D01*
X608528Y681898D01*
X608251Y681569D01*
X607967Y681248D01*
X607674Y680933D01*
X607374Y680626D01*
X607067Y680326D01*
X606752Y680033D01*
X606431Y679749D01*
X606102Y679472D01*
X605767Y679204D01*
X605425Y678944D01*
X605077Y678692D01*
X604722Y678449D01*
X604362Y678215D01*
X603997Y677990D01*
X603626Y677773D01*
X603249Y677566D01*
X602868Y677369D01*
X602482Y677180D01*
X602092Y677001D01*
X601697Y676832D01*
X601298Y676673D01*
X600896Y676523D01*
X600489Y676383D01*
X600080Y676254D01*
X599667Y676134D01*
X599252Y676024D01*
X598834Y675925D01*
X598414Y675836D01*
X597992Y675758D01*
X597568Y675689D01*
X597142Y675632D01*
X596715Y675584D01*
X596287Y675547D01*
X595859Y675521D01*
X595429Y675505D01*
X595000Y675500D01*
X594571Y675505D01*
X594141Y675521D01*
X593713Y675547D01*
X593285Y675584D01*
X592858Y675632D01*
X592432Y675689D01*
X592008Y675758D01*
X591586Y675836D01*
X591166Y675925D01*
X590748Y676024D01*
X590333Y676134D01*
X589920Y676254D01*
X589511Y676383D01*
X589104Y676523D01*
X588702Y676673D01*
X588303Y676832D01*
X587908Y677001D01*
X587518Y677180D01*
X587132Y677369D01*
X586751Y677566D01*
X586374Y677773D01*
X586003Y677990D01*
X585638Y678215D01*
X585278Y678449D01*
X584923Y678692D01*
X584575Y678944D01*
X584233Y679204D01*
X583898Y679472D01*
X583569Y679749D01*
X583248Y680033D01*
X582933Y680326D01*
X582626Y680626D01*
X582326Y680933D01*
X582033Y681248D01*
X581749Y681569D01*
X581472Y681898D01*
X581204Y682233D01*
X580944Y682575D01*
X580692Y682923D01*
X580449Y683278D01*
X580215Y683638D01*
X579990Y684003D01*
X579773Y684374D01*
X579566Y684751D01*
X579369Y685132D01*
X579180Y685518D01*
X579001Y685908D01*
X578832Y686303D01*
X578673Y686702D01*
X578523Y687104D01*
X578383Y687511D01*
X578254Y687920D01*
X578134Y688333D01*
X578024Y688748D01*
X577925Y689166D01*
X577836Y689586D01*
X577758Y690008D01*
X577689Y690432D01*
X577632Y690858D01*
X577584Y691285D01*
X577547Y691713D01*
X577521Y692141D01*
X577505Y692571D01*
X577500Y693000D01*
X577500Y403000D02*
X577505Y403429D01*
X577521Y403859D01*
X577547Y404287D01*
X577584Y404715D01*
X577632Y405142D01*
X577689Y405568D01*
X577758Y405992D01*
X577836Y406414D01*
X577925Y406834D01*
X578024Y407252D01*
X578134Y407667D01*
X578254Y408080D01*
X578383Y408489D01*
X578523Y408896D01*
X578673Y409298D01*
X578832Y409697D01*
X579001Y410092D01*
X579180Y410482D01*
X579369Y410868D01*
X579566Y411249D01*
X579773Y411626D01*
X579990Y411997D01*
X580215Y412362D01*
X580449Y412722D01*
X580692Y413077D01*
X580944Y413425D01*
X581204Y413767D01*
X581472Y414102D01*
X581749Y414431D01*
X582033Y414752D01*
X582326Y415067D01*
X582626Y415374D01*
X582933Y415674D01*
X583248Y415967D01*
X583569Y416251D01*
X583898Y416528D01*
X584233Y416796D01*
X584575Y417056D01*
X584923Y417308D01*
X585278Y417551D01*
X585638Y417785D01*
X586003Y418010D01*
X586374Y418227D01*
X586751Y418434D01*
X587132Y418631D01*
X587518Y418820D01*
X587908Y418999D01*
X588303Y419168D01*
X588702Y419327D01*
X589104Y419477D01*
X589511Y419617D01*
X589920Y419746D01*
X590333Y419866D01*
X590748Y419976D01*
X591166Y420075D01*
X591586Y420164D01*
X592008Y420242D01*
X592432Y420311D01*
X592858Y420368D01*
X593285Y420416D01*
X593713Y420453D01*
X594141Y420479D01*
X594571Y420495D01*
X595000Y420500D01*
X595429Y420495D01*
X595859Y420479D01*
X596287Y420453D01*
X596715Y420416D01*
X597142Y420368D01*
X597568Y420311D01*
X597992Y420242D01*
X598414Y420164D01*
X598834Y420075D01*
X599252Y419976D01*
X599667Y419866D01*
X600080Y419746D01*
X600489Y419617D01*
X600896Y419477D01*
X601298Y419327D01*
X601697Y419168D01*
X602092Y418999D01*
X602482Y418820D01*
X602868Y418631D01*
X603249Y418434D01*
X603626Y418227D01*
X603997Y418010D01*
X604362Y417785D01*
X604722Y417551D01*
X605077Y417308D01*
X605425Y417056D01*
X605767Y416796D01*
X606102Y416528D01*
X606431Y416251D01*
X606752Y415967D01*
X607067Y415674D01*
X607374Y415374D01*
X607674Y415067D01*
X607967Y414752D01*
X608251Y414431D01*
X608528Y414102D01*
X608796Y413767D01*
X609056Y413425D01*
X609308Y413077D01*
X609551Y412722D01*
X609785Y412362D01*
X610010Y411997D01*
X610227Y411626D01*
X610434Y411249D01*
X610631Y410868D01*
X610820Y410482D01*
X610999Y410092D01*
X611168Y409697D01*
X611327Y409298D01*
X611477Y408896D01*
X611617Y408489D01*
X611746Y408080D01*
X611866Y407667D01*
X611976Y407252D01*
X612075Y406834D01*
X612164Y406414D01*
X612242Y405992D01*
X612311Y405568D01*
X612368Y405142D01*
X612416Y404715D01*
X612453Y404287D01*
X612479Y403859D01*
X612495Y403429D01*
X612500Y403000D01*
X612495Y402571D01*
X612479Y402141D01*
X612453Y401713D01*
X612416Y401285D01*
X612368Y400858D01*
X612311Y400432D01*
X612242Y400008D01*
X612164Y399586D01*
X612075Y399166D01*
X611976Y398748D01*
X611866Y398333D01*
X611746Y397920D01*
X611617Y397511D01*
X611477Y397104D01*
X611327Y396702D01*
X611168Y396303D01*
X610999Y395908D01*
X610820Y395518D01*
X610631Y395132D01*
X610434Y394751D01*
X610227Y394374D01*
X610010Y394003D01*
X609785Y393638D01*
X609551Y393278D01*
X609308Y392923D01*
X609056Y392575D01*
X608796Y392233D01*
X608528Y391898D01*
X608251Y391569D01*
X607967Y391248D01*
X607674Y390933D01*
X607374Y390626D01*
X607067Y390326D01*
X606752Y390033D01*
X606431Y389749D01*
X606102Y389472D01*
X605767Y389204D01*
X605425Y388944D01*
X605077Y388692D01*
X604722Y388449D01*
X604362Y388215D01*
X603997Y387990D01*
X603626Y387773D01*
X603249Y387566D01*
X602868Y387369D01*
X602482Y387180D01*
X602092Y387001D01*
X601697Y386832D01*
X601298Y386673D01*
X600896Y386523D01*
X600489Y386383D01*
X600080Y386254D01*
X599667Y386134D01*
X599252Y386024D01*
X598834Y385925D01*
X598414Y385836D01*
X597992Y385758D01*
X597568Y385689D01*
X597142Y385632D01*
X596715Y385584D01*
X596287Y385547D01*
X595859Y385521D01*
X595429Y385505D01*
X595000Y385500D01*
X594571Y385505D01*
X594141Y385521D01*
X593713Y385547D01*
X593285Y385584D01*
X592858Y385632D01*
X592432Y385689D01*
X592008Y385758D01*
X591586Y385836D01*
X591166Y385925D01*
X590748Y386024D01*
X590333Y386134D01*
X589920Y386254D01*
X589511Y386383D01*
X589104Y386523D01*
X588702Y386673D01*
X588303Y386832D01*
X587908Y387001D01*
X587518Y387180D01*
X587132Y387369D01*
X586751Y387566D01*
X586374Y387773D01*
X586003Y387990D01*
X585638Y388215D01*
X585278Y388449D01*
X584923Y388692D01*
X584575Y388944D01*
X584233Y389204D01*
X583898Y389472D01*
X583569Y389749D01*
X583248Y390033D01*
X582933Y390326D01*
X582626Y390626D01*
X582326Y390933D01*
X582033Y391248D01*
X581749Y391569D01*
X581472Y391898D01*
X581204Y392233D01*
X580944Y392575D01*
X580692Y392923D01*
X580449Y393278D01*
X580215Y393638D01*
X579990Y394003D01*
X579773Y394374D01*
X579566Y394751D01*
X579369Y395132D01*
X579180Y395518D01*
X579001Y395908D01*
X578832Y396303D01*
X578673Y396702D01*
X578523Y397104D01*
X578383Y397511D01*
X578254Y397920D01*
X578134Y398333D01*
X578024Y398748D01*
X577925Y399166D01*
X577836Y399586D01*
X577758Y400008D01*
X577689Y400432D01*
X577632Y400858D01*
X577584Y401285D01*
X577547Y401713D01*
X577521Y402141D01*
X577505Y402571D01*
X577500Y403000D01*
X437500Y403000D02*
X437505Y403429D01*
X437521Y403859D01*
X437547Y404287D01*
X437584Y404715D01*
X437632Y405142D01*
X437689Y405568D01*
X437758Y405992D01*
X437836Y406414D01*
X437925Y406834D01*
X438024Y407252D01*
X438134Y407667D01*
X438254Y408080D01*
X438383Y408489D01*
X438523Y408896D01*
X438673Y409298D01*
X438832Y409697D01*
X439001Y410092D01*
X439180Y410482D01*
X439369Y410868D01*
X439566Y411249D01*
X439773Y411626D01*
X439990Y411997D01*
X440215Y412362D01*
X440449Y412722D01*
X440692Y413077D01*
X440944Y413425D01*
X441204Y413767D01*
X441472Y414102D01*
X441749Y414431D01*
X442033Y414752D01*
X442326Y415067D01*
X442626Y415374D01*
X442933Y415674D01*
X443248Y415967D01*
X443569Y416251D01*
X443898Y416528D01*
X444233Y416796D01*
X444575Y417056D01*
X444923Y417308D01*
X445278Y417551D01*
X445638Y417785D01*
X446003Y418010D01*
X446374Y418227D01*
X446751Y418434D01*
X447132Y418631D01*
X447518Y418820D01*
X447908Y418999D01*
X448303Y419168D01*
X448702Y419327D01*
X449104Y419477D01*
X449511Y419617D01*
X449920Y419746D01*
X450333Y419866D01*
X450748Y419976D01*
X451166Y420075D01*
X451586Y420164D01*
X452008Y420242D01*
X452432Y420311D01*
X452858Y420368D01*
X453285Y420416D01*
X453713Y420453D01*
X454141Y420479D01*
X454571Y420495D01*
X455000Y420500D01*
X455429Y420495D01*
X455859Y420479D01*
X456287Y420453D01*
X456715Y420416D01*
X457142Y420368D01*
X457568Y420311D01*
X457992Y420242D01*
X458414Y420164D01*
X458834Y420075D01*
X459252Y419976D01*
X459667Y419866D01*
X460080Y419746D01*
X460489Y419617D01*
X460896Y419477D01*
X461298Y419327D01*
X461697Y419168D01*
X462092Y418999D01*
X462482Y418820D01*
X462868Y418631D01*
X463249Y418434D01*
X463626Y418227D01*
X463997Y418010D01*
X464362Y417785D01*
X464722Y417551D01*
X465077Y417308D01*
X465425Y417056D01*
X465767Y416796D01*
X466102Y416528D01*
X466431Y416251D01*
X466752Y415967D01*
X467067Y415674D01*
X467374Y415374D01*
X467674Y415067D01*
X467967Y414752D01*
X468251Y414431D01*
X468528Y414102D01*
X468796Y413767D01*
X469056Y413425D01*
X469308Y413077D01*
X469551Y412722D01*
X469785Y412362D01*
X470010Y411997D01*
X470227Y411626D01*
X470434Y411249D01*
X470631Y410868D01*
X470820Y410482D01*
X470999Y410092D01*
X471168Y409697D01*
X471327Y409298D01*
X471477Y408896D01*
X471617Y408489D01*
X471746Y408080D01*
X471866Y407667D01*
X471976Y407252D01*
X472075Y406834D01*
X472164Y406414D01*
X472242Y405992D01*
X472311Y405568D01*
X472368Y405142D01*
X472416Y404715D01*
X472453Y404287D01*
X472479Y403859D01*
X472495Y403429D01*
X472500Y403000D01*
X472495Y402571D01*
X472479Y402141D01*
X472453Y401713D01*
X472416Y401285D01*
X472368Y400858D01*
X472311Y400432D01*
X472242Y400008D01*
X472164Y399586D01*
X472075Y399166D01*
X471976Y398748D01*
X471866Y398333D01*
X471746Y397920D01*
X471617Y397511D01*
X471477Y397104D01*
X471327Y396702D01*
X471168Y396303D01*
X470999Y395908D01*
X470820Y395518D01*
X470631Y395132D01*
X470434Y394751D01*
X470227Y394374D01*
X470010Y394003D01*
X469785Y393638D01*
X469551Y393278D01*
X469308Y392923D01*
X469056Y392575D01*
X468796Y392233D01*
X468528Y391898D01*
X468251Y391569D01*
X467967Y391248D01*
X467674Y390933D01*
X467374Y390626D01*
X467067Y390326D01*
X466752Y390033D01*
X466431Y389749D01*
X466102Y389472D01*
X465767Y389204D01*
X465425Y388944D01*
X465077Y388692D01*
X464722Y388449D01*
X464362Y388215D01*
X463997Y387990D01*
X463626Y387773D01*
X463249Y387566D01*
X462868Y387369D01*
X462482Y387180D01*
X462092Y387001D01*
X461697Y386832D01*
X461298Y386673D01*
X460896Y386523D01*
X460489Y386383D01*
X460080Y386254D01*
X459667Y386134D01*
X459252Y386024D01*
X458834Y385925D01*
X458414Y385836D01*
X457992Y385758D01*
X457568Y385689D01*
X457142Y385632D01*
X456715Y385584D01*
X456287Y385547D01*
X455859Y385521D01*
X455429Y385505D01*
X455000Y385500D01*
X454571Y385505D01*
X454141Y385521D01*
X453713Y385547D01*
X453285Y385584D01*
X452858Y385632D01*
X452432Y385689D01*
X452008Y385758D01*
X451586Y385836D01*
X451166Y385925D01*
X450748Y386024D01*
X450333Y386134D01*
X449920Y386254D01*
X449511Y386383D01*
X449104Y386523D01*
X448702Y386673D01*
X448303Y386832D01*
X447908Y387001D01*
X447518Y387180D01*
X447132Y387369D01*
X446751Y387566D01*
X446374Y387773D01*
X446003Y387990D01*
X445638Y388215D01*
X445278Y388449D01*
X444923Y388692D01*
X444575Y388944D01*
X444233Y389204D01*
X443898Y389472D01*
X443569Y389749D01*
X443248Y390033D01*
X442933Y390326D01*
X442626Y390626D01*
X442326Y390933D01*
X442033Y391248D01*
X441749Y391569D01*
X441472Y391898D01*
X441204Y392233D01*
X440944Y392575D01*
X440692Y392923D01*
X440449Y393278D01*
X440215Y393638D01*
X439990Y394003D01*
X439773Y394374D01*
X439566Y394751D01*
X439369Y395132D01*
X439180Y395518D01*
X439001Y395908D01*
X438832Y396303D01*
X438673Y396702D01*
X438523Y397104D01*
X438383Y397511D01*
X438254Y397920D01*
X438134Y398333D01*
X438024Y398748D01*
X437925Y399166D01*
X437836Y399586D01*
X437758Y400008D01*
X437689Y400432D01*
X437632Y400858D01*
X437584Y401285D01*
X437547Y401713D01*
X437521Y402141D01*
X437505Y402571D01*
X437500Y403000D01*
X887500Y403000D02*
X887505Y403429D01*
X887521Y403859D01*
X887547Y404287D01*
X887584Y404715D01*
X887632Y405142D01*
X887689Y405568D01*
X887758Y405992D01*
X887836Y406414D01*
X887925Y406834D01*
X888024Y407252D01*
X888134Y407667D01*
X888254Y408080D01*
X888383Y408489D01*
X888523Y408896D01*
X888673Y409298D01*
X888832Y409697D01*
X889001Y410092D01*
X889180Y410482D01*
X889369Y410868D01*
X889566Y411249D01*
X889773Y411626D01*
X889990Y411997D01*
X890215Y412362D01*
X890449Y412722D01*
X890692Y413077D01*
X890944Y413425D01*
X891204Y413767D01*
X891472Y414102D01*
X891749Y414431D01*
X892033Y414752D01*
X892326Y415067D01*
X892626Y415374D01*
X892933Y415674D01*
X893248Y415967D01*
X893569Y416251D01*
X893898Y416528D01*
X894233Y416796D01*
X894575Y417056D01*
X894923Y417308D01*
X895278Y417551D01*
X895638Y417785D01*
X896003Y418010D01*
X896374Y418227D01*
X896751Y418434D01*
X897132Y418631D01*
X897518Y418820D01*
X897908Y418999D01*
X898303Y419168D01*
X898702Y419327D01*
X899104Y419477D01*
X899511Y419617D01*
X899920Y419746D01*
X900333Y419866D01*
X900748Y419976D01*
X901166Y420075D01*
X901586Y420164D01*
X902008Y420242D01*
X902432Y420311D01*
X902858Y420368D01*
X903285Y420416D01*
X903713Y420453D01*
X904141Y420479D01*
X904571Y420495D01*
X905000Y420500D01*
X905429Y420495D01*
X905859Y420479D01*
X906287Y420453D01*
X906715Y420416D01*
X907142Y420368D01*
X907568Y420311D01*
X907992Y420242D01*
X908414Y420164D01*
X908834Y420075D01*
X909252Y419976D01*
X909667Y419866D01*
X910080Y419746D01*
X910489Y419617D01*
X910896Y419477D01*
X911298Y419327D01*
X911697Y419168D01*
X912092Y418999D01*
X912482Y418820D01*
X912868Y418631D01*
X913249Y418434D01*
X913626Y418227D01*
X913997Y418010D01*
X914362Y417785D01*
X914722Y417551D01*
X915077Y417308D01*
X915425Y417056D01*
X915767Y416796D01*
X916102Y416528D01*
X916431Y416251D01*
X916752Y415967D01*
X917067Y415674D01*
X917374Y415374D01*
X917674Y415067D01*
X917967Y414752D01*
X918251Y414431D01*
X918528Y414102D01*
X918796Y413767D01*
X919056Y413425D01*
X919308Y413077D01*
X919551Y412722D01*
X919785Y412362D01*
X920010Y411997D01*
X920227Y411626D01*
X920434Y411249D01*
X920631Y410868D01*
X920820Y410482D01*
X920999Y410092D01*
X921168Y409697D01*
X921327Y409298D01*
X921477Y408896D01*
X921617Y408489D01*
X921746Y408080D01*
X921866Y407667D01*
X921976Y407252D01*
X922075Y406834D01*
X922164Y406414D01*
X922242Y405992D01*
X922311Y405568D01*
X922368Y405142D01*
X922416Y404715D01*
X922453Y404287D01*
X922479Y403859D01*
X922495Y403429D01*
X922500Y403000D01*
X922495Y402571D01*
X922479Y402141D01*
X922453Y401713D01*
X922416Y401285D01*
X922368Y400858D01*
X922311Y400432D01*
X922242Y400008D01*
X922164Y399586D01*
X922075Y399166D01*
X921976Y398748D01*
X921866Y398333D01*
X921746Y397920D01*
X921617Y397511D01*
X921477Y397104D01*
X921327Y396702D01*
X921168Y396303D01*
X920999Y395908D01*
X920820Y395518D01*
X920631Y395132D01*
X920434Y394751D01*
X920227Y394374D01*
X920010Y394003D01*
X919785Y393638D01*
X919551Y393278D01*
X919308Y392923D01*
X919056Y392575D01*
X918796Y392233D01*
X918528Y391898D01*
X918251Y391569D01*
X917967Y391248D01*
X917674Y390933D01*
X917374Y390626D01*
X917067Y390326D01*
X916752Y390033D01*
X916431Y389749D01*
X916102Y389472D01*
X915767Y389204D01*
X915425Y388944D01*
X915077Y388692D01*
X914722Y388449D01*
X914362Y388215D01*
X913997Y387990D01*
X913626Y387773D01*
X913249Y387566D01*
X912868Y387369D01*
X912482Y387180D01*
X912092Y387001D01*
X911697Y386832D01*
X911298Y386673D01*
X910896Y386523D01*
X910489Y386383D01*
X910080Y386254D01*
X909667Y386134D01*
X909252Y386024D01*
X908834Y385925D01*
X908414Y385836D01*
X907992Y385758D01*
X907568Y385689D01*
X907142Y385632D01*
X906715Y385584D01*
X906287Y385547D01*
X905859Y385521D01*
X905429Y385505D01*
X905000Y385500D01*
X904571Y385505D01*
X904141Y385521D01*
X903713Y385547D01*
X903285Y385584D01*
X902858Y385632D01*
X902432Y385689D01*
X902008Y385758D01*
X901586Y385836D01*
X901166Y385925D01*
X900748Y386024D01*
X900333Y386134D01*
X899920Y386254D01*
X899511Y386383D01*
X899104Y386523D01*
X898702Y386673D01*
X898303Y386832D01*
X897908Y387001D01*
X897518Y387180D01*
X897132Y387369D01*
X896751Y387566D01*
X896374Y387773D01*
X896003Y387990D01*
X895638Y388215D01*
X895278Y388449D01*
X894923Y388692D01*
X894575Y388944D01*
X894233Y389204D01*
X893898Y389472D01*
X893569Y389749D01*
X893248Y390033D01*
X892933Y390326D01*
X892626Y390626D01*
X892326Y390933D01*
X892033Y391248D01*
X891749Y391569D01*
X891472Y391898D01*
X891204Y392233D01*
X890944Y392575D01*
X890692Y392923D01*
X890449Y393278D01*
X890215Y393638D01*
X889990Y394003D01*
X889773Y394374D01*
X889566Y394751D01*
X889369Y395132D01*
X889180Y395518D01*
X889001Y395908D01*
X888832Y396303D01*
X888673Y396702D01*
X888523Y397104D01*
X888383Y397511D01*
X888254Y397920D01*
X888134Y398333D01*
X888024Y398748D01*
X887925Y399166D01*
X887836Y399586D01*
X887758Y400008D01*
X887689Y400432D01*
X887632Y400858D01*
X887584Y401285D01*
X887547Y401713D01*
X887521Y402141D01*
X887505Y402571D01*
X887500Y403000D01*
X887500Y693000D02*
X887505Y693429D01*
X887521Y693859D01*
X887547Y694287D01*
X887584Y694715D01*
X887632Y695142D01*
X887689Y695568D01*
X887758Y695992D01*
X887836Y696414D01*
X887925Y696834D01*
X888024Y697252D01*
X888134Y697667D01*
X888254Y698080D01*
X888383Y698489D01*
X888523Y698896D01*
X888673Y699298D01*
X888832Y699697D01*
X889001Y700092D01*
X889180Y700482D01*
X889369Y700868D01*
X889566Y701249D01*
X889773Y701626D01*
X889990Y701997D01*
X890215Y702362D01*
X890449Y702722D01*
X890692Y703077D01*
X890944Y703425D01*
X891204Y703767D01*
X891472Y704102D01*
X891749Y704431D01*
X892033Y704752D01*
X892326Y705067D01*
X892626Y705374D01*
X892933Y705674D01*
X893248Y705967D01*
X893569Y706251D01*
X893898Y706528D01*
X894233Y706796D01*
X894575Y707056D01*
X894923Y707308D01*
X895278Y707551D01*
X895638Y707785D01*
X896003Y708010D01*
X896374Y708227D01*
X896751Y708434D01*
X897132Y708631D01*
X897518Y708820D01*
X897908Y708999D01*
X898303Y709168D01*
X898702Y709327D01*
X899104Y709477D01*
X899511Y709617D01*
X899920Y709746D01*
X900333Y709866D01*
X900748Y709976D01*
X901166Y710075D01*
X901586Y710164D01*
X902008Y710242D01*
X902432Y710311D01*
X902858Y710368D01*
X903285Y710416D01*
X903713Y710453D01*
X904141Y710479D01*
X904571Y710495D01*
X905000Y710500D01*
X905429Y710495D01*
X905859Y710479D01*
X906287Y710453D01*
X906715Y710416D01*
X907142Y710368D01*
X907568Y710311D01*
X907992Y710242D01*
X908414Y710164D01*
X908834Y710075D01*
X909252Y709976D01*
X909667Y709866D01*
X910080Y709746D01*
X910489Y709617D01*
X910896Y709477D01*
X911298Y709327D01*
X911697Y709168D01*
X912092Y708999D01*
X912482Y708820D01*
X912868Y708631D01*
X913249Y708434D01*
X913626Y708227D01*
X913997Y708010D01*
X914362Y707785D01*
X914722Y707551D01*
X915077Y707308D01*
X915425Y707056D01*
X915767Y706796D01*
X916102Y706528D01*
X916431Y706251D01*
X916752Y705967D01*
X917067Y705674D01*
X917374Y705374D01*
X917674Y705067D01*
X917967Y704752D01*
X918251Y704431D01*
X918528Y704102D01*
X918796Y703767D01*
X919056Y703425D01*
X919308Y703077D01*
X919551Y702722D01*
X919785Y702362D01*
X920010Y701997D01*
X920227Y701626D01*
X920434Y701249D01*
X920631Y700868D01*
X920820Y700482D01*
X920999Y700092D01*
X921168Y699697D01*
X921327Y699298D01*
X921477Y698896D01*
X921617Y698489D01*
X921746Y698080D01*
X921866Y697667D01*
X921976Y697252D01*
X922075Y696834D01*
X922164Y696414D01*
X922242Y695992D01*
X922311Y695568D01*
X922368Y695142D01*
X922416Y694715D01*
X922453Y694287D01*
X922479Y693859D01*
X922495Y693429D01*
X922500Y693000D01*
X922495Y692571D01*
X922479Y692141D01*
X922453Y691713D01*
X922416Y691285D01*
X922368Y690858D01*
X922311Y690432D01*
X922242Y690008D01*
X922164Y689586D01*
X922075Y689166D01*
X921976Y688748D01*
X921866Y688333D01*
X921746Y687920D01*
X921617Y687511D01*
X921477Y687104D01*
X921327Y686702D01*
X921168Y686303D01*
X920999Y685908D01*
X920820Y685518D01*
X920631Y685132D01*
X920434Y684751D01*
X920227Y684374D01*
X920010Y684003D01*
X919785Y683638D01*
X919551Y683278D01*
X919308Y682923D01*
X919056Y682575D01*
X918796Y682233D01*
X918528Y681898D01*
X918251Y681569D01*
X917967Y681248D01*
X917674Y680933D01*
X917374Y680626D01*
X917067Y680326D01*
X916752Y680033D01*
X916431Y679749D01*
X916102Y679472D01*
X915767Y679204D01*
X915425Y678944D01*
X915077Y678692D01*
X914722Y678449D01*
X914362Y678215D01*
X913997Y677990D01*
X913626Y677773D01*
X913249Y677566D01*
X912868Y677369D01*
X912482Y677180D01*
X912092Y677001D01*
X911697Y676832D01*
X911298Y676673D01*
X910896Y676523D01*
X910489Y676383D01*
X910080Y676254D01*
X909667Y676134D01*
X909252Y676024D01*
X908834Y675925D01*
X908414Y675836D01*
X907992Y675758D01*
X907568Y675689D01*
X907142Y675632D01*
X906715Y675584D01*
X906287Y675547D01*
X905859Y675521D01*
X905429Y675505D01*
X905000Y675500D01*
X904571Y675505D01*
X904141Y675521D01*
X903713Y675547D01*
X903285Y675584D01*
X902858Y675632D01*
X902432Y675689D01*
X902008Y675758D01*
X901586Y675836D01*
X901166Y675925D01*
X900748Y676024D01*
X900333Y676134D01*
X899920Y676254D01*
X899511Y676383D01*
X899104Y676523D01*
X898702Y676673D01*
X898303Y676832D01*
X897908Y677001D01*
X897518Y677180D01*
X897132Y677369D01*
X896751Y677566D01*
X896374Y677773D01*
X896003Y677990D01*
X895638Y678215D01*
X895278Y678449D01*
X894923Y678692D01*
X894575Y678944D01*
X894233Y679204D01*
X893898Y679472D01*
X893569Y679749D01*
X893248Y680033D01*
X892933Y680326D01*
X892626Y680626D01*
X892326Y680933D01*
X892033Y681248D01*
X891749Y681569D01*
X891472Y681898D01*
X891204Y682233D01*
X890944Y682575D01*
X890692Y682923D01*
X890449Y683278D01*
X890215Y683638D01*
X889990Y684003D01*
X889773Y684374D01*
X889566Y684751D01*
X889369Y685132D01*
X889180Y685518D01*
X889001Y685908D01*
X888832Y686303D01*
X888673Y686702D01*
X888523Y687104D01*
X888383Y687511D01*
X888254Y687920D01*
X888134Y688333D01*
X888024Y688748D01*
X887925Y689166D01*
X887836Y689586D01*
X887758Y690008D01*
X887689Y690432D01*
X887632Y690858D01*
X887584Y691285D01*
X887547Y691713D01*
X887521Y692141D01*
X887505Y692571D01*
X887500Y693000D01*
X1027500Y693000D02*
X1027505Y693429D01*
X1027521Y693859D01*
X1027547Y694287D01*
X1027584Y694715D01*
X1027632Y695142D01*
X1027689Y695568D01*
X1027758Y695992D01*
X1027836Y696414D01*
X1027925Y696834D01*
X1028024Y697252D01*
X1028134Y697667D01*
X1028254Y698080D01*
X1028383Y698489D01*
X1028523Y698896D01*
X1028673Y699298D01*
X1028832Y699697D01*
X1029001Y700092D01*
X1029180Y700482D01*
X1029369Y700868D01*
X1029566Y701249D01*
X1029773Y701626D01*
X1029990Y701997D01*
X1030215Y702362D01*
X1030449Y702722D01*
X1030692Y703077D01*
X1030944Y703425D01*
X1031204Y703767D01*
X1031472Y704102D01*
X1031749Y704431D01*
X1032033Y704752D01*
X1032326Y705067D01*
X1032626Y705374D01*
X1032933Y705674D01*
X1033248Y705967D01*
X1033569Y706251D01*
X1033898Y706528D01*
X1034233Y706796D01*
X1034575Y707056D01*
X1034923Y707308D01*
X1035278Y707551D01*
X1035638Y707785D01*
X1036003Y708010D01*
X1036374Y708227D01*
X1036751Y708434D01*
X1037132Y708631D01*
X1037518Y708820D01*
X1037908Y708999D01*
X1038303Y709168D01*
X1038702Y709327D01*
X1039104Y709477D01*
X1039511Y709617D01*
X1039920Y709746D01*
X1040333Y709866D01*
X1040748Y709976D01*
X1041166Y710075D01*
X1041586Y710164D01*
X1042008Y710242D01*
X1042432Y710311D01*
X1042858Y710368D01*
X1043285Y710416D01*
X1043713Y710453D01*
X1044141Y710479D01*
X1044571Y710495D01*
X1045000Y710500D01*
X1045429Y710495D01*
X1045859Y710479D01*
X1046287Y710453D01*
X1046715Y710416D01*
X1047142Y710368D01*
X1047568Y710311D01*
X1047992Y710242D01*
X1048414Y710164D01*
X1048834Y710075D01*
X1049252Y709976D01*
X1049667Y709866D01*
X1050080Y709746D01*
X1050489Y709617D01*
X1050896Y709477D01*
X1051298Y709327D01*
X1051697Y709168D01*
X1052092Y708999D01*
X1052482Y708820D01*
X1052868Y708631D01*
X1053249Y708434D01*
X1053626Y708227D01*
X1053997Y708010D01*
X1054362Y707785D01*
X1054722Y707551D01*
X1055077Y707308D01*
X1055425Y707056D01*
X1055767Y706796D01*
X1056102Y706528D01*
X1056431Y706251D01*
X1056752Y705967D01*
X1057067Y705674D01*
X1057374Y705374D01*
X1057674Y705067D01*
X1057967Y704752D01*
X1058251Y704431D01*
X1058528Y704102D01*
X1058796Y703767D01*
X1059056Y703425D01*
X1059308Y703077D01*
X1059551Y702722D01*
X1059785Y702362D01*
X1060010Y701997D01*
X1060227Y701626D01*
X1060434Y701249D01*
X1060631Y700868D01*
X1060820Y700482D01*
X1060999Y700092D01*
X1061168Y699697D01*
X1061327Y699298D01*
X1061477Y698896D01*
X1061617Y698489D01*
X1061746Y698080D01*
X1061866Y697667D01*
X1061976Y697252D01*
X1062075Y696834D01*
X1062164Y696414D01*
X1062242Y695992D01*
X1062311Y695568D01*
X1062368Y695142D01*
X1062416Y694715D01*
X1062453Y694287D01*
X1062479Y693859D01*
X1062495Y693429D01*
X1062500Y693000D01*
X1062495Y692571D01*
X1062479Y692141D01*
X1062453Y691713D01*
X1062416Y691285D01*
X1062368Y690858D01*
X1062311Y690432D01*
X1062242Y690008D01*
X1062164Y689586D01*
X1062075Y689166D01*
X1061976Y688748D01*
X1061866Y688333D01*
X1061746Y687920D01*
X1061617Y687511D01*
X1061477Y687104D01*
X1061327Y686702D01*
X1061168Y686303D01*
X1060999Y685908D01*
X1060820Y685518D01*
X1060631Y685132D01*
X1060434Y684751D01*
X1060227Y684374D01*
X1060010Y684003D01*
X1059785Y683638D01*
X1059551Y683278D01*
X1059308Y682923D01*
X1059056Y682575D01*
X1058796Y682233D01*
X1058528Y681898D01*
X1058251Y681569D01*
X1057967Y681248D01*
X1057674Y680933D01*
X1057374Y680626D01*
X1057067Y680326D01*
X1056752Y680033D01*
X1056431Y679749D01*
X1056102Y679472D01*
X1055767Y679204D01*
X1055425Y678944D01*
X1055077Y678692D01*
X1054722Y678449D01*
X1054362Y678215D01*
X1053997Y677990D01*
X1053626Y677773D01*
X1053249Y677566D01*
X1052868Y677369D01*
X1052482Y677180D01*
X1052092Y677001D01*
X1051697Y676832D01*
X1051298Y676673D01*
X1050896Y676523D01*
X1050489Y676383D01*
X1050080Y676254D01*
X1049667Y676134D01*
X1049252Y676024D01*
X1048834Y675925D01*
X1048414Y675836D01*
X1047992Y675758D01*
X1047568Y675689D01*
X1047142Y675632D01*
X1046715Y675584D01*
X1046287Y675547D01*
X1045859Y675521D01*
X1045429Y675505D01*
X1045000Y675500D01*
X1044571Y675505D01*
X1044141Y675521D01*
X1043713Y675547D01*
X1043285Y675584D01*
X1042858Y675632D01*
X1042432Y675689D01*
X1042008Y675758D01*
X1041586Y675836D01*
X1041166Y675925D01*
X1040748Y676024D01*
X1040333Y676134D01*
X1039920Y676254D01*
X1039511Y676383D01*
X1039104Y676523D01*
X1038702Y676673D01*
X1038303Y676832D01*
X1037908Y677001D01*
X1037518Y677180D01*
X1037132Y677369D01*
X1036751Y677566D01*
X1036374Y677773D01*
X1036003Y677990D01*
X1035638Y678215D01*
X1035278Y678449D01*
X1034923Y678692D01*
X1034575Y678944D01*
X1034233Y679204D01*
X1033898Y679472D01*
X1033569Y679749D01*
X1033248Y680033D01*
X1032933Y680326D01*
X1032626Y680626D01*
X1032326Y680933D01*
X1032033Y681248D01*
X1031749Y681569D01*
X1031472Y681898D01*
X1031204Y682233D01*
X1030944Y682575D01*
X1030692Y682923D01*
X1030449Y683278D01*
X1030215Y683638D01*
X1029990Y684003D01*
X1029773Y684374D01*
X1029566Y684751D01*
X1029369Y685132D01*
X1029180Y685518D01*
X1029001Y685908D01*
X1028832Y686303D01*
X1028673Y686702D01*
X1028523Y687104D01*
X1028383Y687511D01*
X1028254Y687920D01*
X1028134Y688333D01*
X1028024Y688748D01*
X1027925Y689166D01*
X1027836Y689586D01*
X1027758Y690008D01*
X1027689Y690432D01*
X1027632Y690858D01*
X1027584Y691285D01*
X1027547Y691713D01*
X1027521Y692141D01*
X1027505Y692571D01*
X1027500Y693000D01*
X1027500Y403000D02*
X1027505Y403429D01*
X1027521Y403859D01*
X1027547Y404287D01*
X1027584Y404715D01*
X1027632Y405142D01*
X1027689Y405568D01*
X1027758Y405992D01*
X1027836Y406414D01*
X1027925Y406834D01*
X1028024Y407252D01*
X1028134Y407667D01*
X1028254Y408080D01*
X1028383Y408489D01*
X1028523Y408896D01*
X1028673Y409298D01*
X1028832Y409697D01*
X1029001Y410092D01*
X1029180Y410482D01*
X1029369Y410868D01*
X1029566Y411249D01*
X1029773Y411626D01*
X1029990Y411997D01*
X1030215Y412362D01*
X1030449Y412722D01*
X1030692Y413077D01*
X1030944Y413425D01*
X1031204Y413767D01*
X1031472Y414102D01*
X1031749Y414431D01*
X1032033Y414752D01*
X1032326Y415067D01*
X1032626Y415374D01*
X1032933Y415674D01*
X1033248Y415967D01*
X1033569Y416251D01*
X1033898Y416528D01*
X1034233Y416796D01*
X1034575Y417056D01*
X1034923Y417308D01*
X1035278Y417551D01*
X1035638Y417785D01*
X1036003Y418010D01*
X1036374Y418227D01*
X1036751Y418434D01*
X1037132Y418631D01*
X1037518Y418820D01*
X1037908Y418999D01*
X1038303Y419168D01*
X1038702Y419327D01*
X1039104Y419477D01*
X1039511Y419617D01*
X1039920Y419746D01*
X1040333Y419866D01*
X1040748Y419976D01*
X1041166Y420075D01*
X1041586Y420164D01*
X1042008Y420242D01*
X1042432Y420311D01*
X1042858Y420368D01*
X1043285Y420416D01*
X1043713Y420453D01*
X1044141Y420479D01*
X1044571Y420495D01*
X1045000Y420500D01*
X1045429Y420495D01*
X1045859Y420479D01*
X1046287Y420453D01*
X1046715Y420416D01*
X1047142Y420368D01*
X1047568Y420311D01*
X1047992Y420242D01*
X1048414Y420164D01*
X1048834Y420075D01*
X1049252Y419976D01*
X1049667Y419866D01*
X1050080Y419746D01*
X1050489Y419617D01*
X1050896Y419477D01*
X1051298Y419327D01*
X1051697Y419168D01*
X1052092Y418999D01*
X1052482Y418820D01*
X1052868Y418631D01*
X1053249Y418434D01*
X1053626Y418227D01*
X1053997Y418010D01*
X1054362Y417785D01*
X1054722Y417551D01*
X1055077Y417308D01*
X1055425Y417056D01*
X1055767Y416796D01*
X1056102Y416528D01*
X1056431Y416251D01*
X1056752Y415967D01*
X1057067Y415674D01*
X1057374Y415374D01*
X1057674Y415067D01*
X1057967Y414752D01*
X1058251Y414431D01*
X1058528Y414102D01*
X1058796Y413767D01*
X1059056Y413425D01*
X1059308Y413077D01*
X1059551Y412722D01*
X1059785Y412362D01*
X1060010Y411997D01*
X1060227Y411626D01*
X1060434Y411249D01*
X1060631Y410868D01*
X1060820Y410482D01*
X1060999Y410092D01*
X1061168Y409697D01*
X1061327Y409298D01*
X1061477Y408896D01*
X1061617Y408489D01*
X1061746Y408080D01*
X1061866Y407667D01*
X1061976Y407252D01*
X1062075Y406834D01*
X1062164Y406414D01*
X1062242Y405992D01*
X1062311Y405568D01*
X1062368Y405142D01*
X1062416Y404715D01*
X1062453Y404287D01*
X1062479Y403859D01*
X1062495Y403429D01*
X1062500Y403000D01*
X1062495Y402571D01*
X1062479Y402141D01*
X1062453Y401713D01*
X1062416Y401285D01*
X1062368Y400858D01*
X1062311Y400432D01*
X1062242Y400008D01*
X1062164Y399586D01*
X1062075Y399166D01*
X1061976Y398748D01*
X1061866Y398333D01*
X1061746Y397920D01*
X1061617Y397511D01*
X1061477Y397104D01*
X1061327Y396702D01*
X1061168Y396303D01*
X1060999Y395908D01*
X1060820Y395518D01*
X1060631Y395132D01*
X1060434Y394751D01*
X1060227Y394374D01*
X1060010Y394003D01*
X1059785Y393638D01*
X1059551Y393278D01*
X1059308Y392923D01*
X1059056Y392575D01*
X1058796Y392233D01*
X1058528Y391898D01*
X1058251Y391569D01*
X1057967Y391248D01*
X1057674Y390933D01*
X1057374Y390626D01*
X1057067Y390326D01*
X1056752Y390033D01*
X1056431Y389749D01*
X1056102Y389472D01*
X1055767Y389204D01*
X1055425Y388944D01*
X1055077Y388692D01*
X1054722Y388449D01*
X1054362Y388215D01*
X1053997Y387990D01*
X1053626Y387773D01*
X1053249Y387566D01*
X1052868Y387369D01*
X1052482Y387180D01*
X1052092Y387001D01*
X1051697Y386832D01*
X1051298Y386673D01*
X1050896Y386523D01*
X1050489Y386383D01*
X1050080Y386254D01*
X1049667Y386134D01*
X1049252Y386024D01*
X1048834Y385925D01*
X1048414Y385836D01*
X1047992Y385758D01*
X1047568Y385689D01*
X1047142Y385632D01*
X1046715Y385584D01*
X1046287Y385547D01*
X1045859Y385521D01*
X1045429Y385505D01*
X1045000Y385500D01*
X1044571Y385505D01*
X1044141Y385521D01*
X1043713Y385547D01*
X1043285Y385584D01*
X1042858Y385632D01*
X1042432Y385689D01*
X1042008Y385758D01*
X1041586Y385836D01*
X1041166Y385925D01*
X1040748Y386024D01*
X1040333Y386134D01*
X1039920Y386254D01*
X1039511Y386383D01*
X1039104Y386523D01*
X1038702Y386673D01*
X1038303Y386832D01*
X1037908Y387001D01*
X1037518Y387180D01*
X1037132Y387369D01*
X1036751Y387566D01*
X1036374Y387773D01*
X1036003Y387990D01*
X1035638Y388215D01*
X1035278Y388449D01*
X1034923Y388692D01*
X1034575Y388944D01*
X1034233Y389204D01*
X1033898Y389472D01*
X1033569Y389749D01*
X1033248Y390033D01*
X1032933Y390326D01*
X1032626Y390626D01*
X1032326Y390933D01*
X1032033Y391248D01*
X1031749Y391569D01*
X1031472Y391898D01*
X1031204Y392233D01*
X1030944Y392575D01*
X1030692Y392923D01*
X1030449Y393278D01*
X1030215Y393638D01*
X1029990Y394003D01*
X1029773Y394374D01*
X1029566Y394751D01*
X1029369Y395132D01*
X1029180Y395518D01*
X1029001Y395908D01*
X1028832Y396303D01*
X1028673Y396702D01*
X1028523Y397104D01*
X1028383Y397511D01*
X1028254Y397920D01*
X1028134Y398333D01*
X1028024Y398748D01*
X1027925Y399166D01*
X1027836Y399586D01*
X1027758Y400008D01*
X1027689Y400432D01*
X1027632Y400858D01*
X1027584Y401285D01*
X1027547Y401713D01*
X1027521Y402141D01*
X1027505Y402571D01*
X1027500Y403000D01*
X1162500Y403000D02*
X1162505Y403429D01*
X1162521Y403859D01*
X1162547Y404287D01*
X1162584Y404715D01*
X1162632Y405142D01*
X1162689Y405568D01*
X1162758Y405992D01*
X1162836Y406414D01*
X1162925Y406834D01*
X1163024Y407252D01*
X1163134Y407667D01*
X1163254Y408080D01*
X1163383Y408489D01*
X1163523Y408896D01*
X1163673Y409298D01*
X1163832Y409697D01*
X1164001Y410092D01*
X1164180Y410482D01*
X1164369Y410868D01*
X1164566Y411249D01*
X1164773Y411626D01*
X1164990Y411997D01*
X1165215Y412362D01*
X1165449Y412722D01*
X1165692Y413077D01*
X1165944Y413425D01*
X1166204Y413767D01*
X1166472Y414102D01*
X1166749Y414431D01*
X1167033Y414752D01*
X1167326Y415067D01*
X1167626Y415374D01*
X1167933Y415674D01*
X1168248Y415967D01*
X1168569Y416251D01*
X1168898Y416528D01*
X1169233Y416796D01*
X1169575Y417056D01*
X1169923Y417308D01*
X1170278Y417551D01*
X1170638Y417785D01*
X1171003Y418010D01*
X1171374Y418227D01*
X1171751Y418434D01*
X1172132Y418631D01*
X1172518Y418820D01*
X1172908Y418999D01*
X1173303Y419168D01*
X1173702Y419327D01*
X1174104Y419477D01*
X1174511Y419617D01*
X1174920Y419746D01*
X1175333Y419866D01*
X1175748Y419976D01*
X1176166Y420075D01*
X1176586Y420164D01*
X1177008Y420242D01*
X1177432Y420311D01*
X1177858Y420368D01*
X1178285Y420416D01*
X1178713Y420453D01*
X1179141Y420479D01*
X1179571Y420495D01*
X1180000Y420500D01*
X1180429Y420495D01*
X1180859Y420479D01*
X1181287Y420453D01*
X1181715Y420416D01*
X1182142Y420368D01*
X1182568Y420311D01*
X1182992Y420242D01*
X1183414Y420164D01*
X1183834Y420075D01*
X1184252Y419976D01*
X1184667Y419866D01*
X1185080Y419746D01*
X1185489Y419617D01*
X1185896Y419477D01*
X1186298Y419327D01*
X1186697Y419168D01*
X1187092Y418999D01*
X1187482Y418820D01*
X1187868Y418631D01*
X1188249Y418434D01*
X1188626Y418227D01*
X1188997Y418010D01*
X1189362Y417785D01*
X1189722Y417551D01*
X1190077Y417308D01*
X1190425Y417056D01*
X1190767Y416796D01*
X1191102Y416528D01*
X1191431Y416251D01*
X1191752Y415967D01*
X1192067Y415674D01*
X1192374Y415374D01*
X1192674Y415067D01*
X1192967Y414752D01*
X1193251Y414431D01*
X1193528Y414102D01*
X1193796Y413767D01*
X1194056Y413425D01*
X1194308Y413077D01*
X1194551Y412722D01*
X1194785Y412362D01*
X1195010Y411997D01*
X1195227Y411626D01*
X1195434Y411249D01*
X1195631Y410868D01*
X1195820Y410482D01*
X1195999Y410092D01*
X1196168Y409697D01*
X1196327Y409298D01*
X1196477Y408896D01*
X1196617Y408489D01*
X1196746Y408080D01*
X1196866Y407667D01*
X1196976Y407252D01*
X1197075Y406834D01*
X1197164Y406414D01*
X1197242Y405992D01*
X1197311Y405568D01*
X1197368Y405142D01*
X1197416Y404715D01*
X1197453Y404287D01*
X1197479Y403859D01*
X1197495Y403429D01*
X1197500Y403000D01*
X1197495Y402571D01*
X1197479Y402141D01*
X1197453Y401713D01*
X1197416Y401285D01*
X1197368Y400858D01*
X1197311Y400432D01*
X1197242Y400008D01*
X1197164Y399586D01*
X1197075Y399166D01*
X1196976Y398748D01*
X1196866Y398333D01*
X1196746Y397920D01*
X1196617Y397511D01*
X1196477Y397104D01*
X1196327Y396702D01*
X1196168Y396303D01*
X1195999Y395908D01*
X1195820Y395518D01*
X1195631Y395132D01*
X1195434Y394751D01*
X1195227Y394374D01*
X1195010Y394003D01*
X1194785Y393638D01*
X1194551Y393278D01*
X1194308Y392923D01*
X1194056Y392575D01*
X1193796Y392233D01*
X1193528Y391898D01*
X1193251Y391569D01*
X1192967Y391248D01*
X1192674Y390933D01*
X1192374Y390626D01*
X1192067Y390326D01*
X1191752Y390033D01*
X1191431Y389749D01*
X1191102Y389472D01*
X1190767Y389204D01*
X1190425Y388944D01*
X1190077Y388692D01*
X1189722Y388449D01*
X1189362Y388215D01*
X1188997Y387990D01*
X1188626Y387773D01*
X1188249Y387566D01*
X1187868Y387369D01*
X1187482Y387180D01*
X1187092Y387001D01*
X1186697Y386832D01*
X1186298Y386673D01*
X1185896Y386523D01*
X1185489Y386383D01*
X1185080Y386254D01*
X1184667Y386134D01*
X1184252Y386024D01*
X1183834Y385925D01*
X1183414Y385836D01*
X1182992Y385758D01*
X1182568Y385689D01*
X1182142Y385632D01*
X1181715Y385584D01*
X1181287Y385547D01*
X1180859Y385521D01*
X1180429Y385505D01*
X1180000Y385500D01*
X1179571Y385505D01*
X1179141Y385521D01*
X1178713Y385547D01*
X1178285Y385584D01*
X1177858Y385632D01*
X1177432Y385689D01*
X1177008Y385758D01*
X1176586Y385836D01*
X1176166Y385925D01*
X1175748Y386024D01*
X1175333Y386134D01*
X1174920Y386254D01*
X1174511Y386383D01*
X1174104Y386523D01*
X1173702Y386673D01*
X1173303Y386832D01*
X1172908Y387001D01*
X1172518Y387180D01*
X1172132Y387369D01*
X1171751Y387566D01*
X1171374Y387773D01*
X1171003Y387990D01*
X1170638Y388215D01*
X1170278Y388449D01*
X1169923Y388692D01*
X1169575Y388944D01*
X1169233Y389204D01*
X1168898Y389472D01*
X1168569Y389749D01*
X1168248Y390033D01*
X1167933Y390326D01*
X1167626Y390626D01*
X1167326Y390933D01*
X1167033Y391248D01*
X1166749Y391569D01*
X1166472Y391898D01*
X1166204Y392233D01*
X1165944Y392575D01*
X1165692Y392923D01*
X1165449Y393278D01*
X1165215Y393638D01*
X1164990Y394003D01*
X1164773Y394374D01*
X1164566Y394751D01*
X1164369Y395132D01*
X1164180Y395518D01*
X1164001Y395908D01*
X1163832Y396303D01*
X1163673Y396702D01*
X1163523Y397104D01*
X1163383Y397511D01*
X1163254Y397920D01*
X1163134Y398333D01*
X1163024Y398748D01*
X1162925Y399166D01*
X1162836Y399586D01*
X1162758Y400008D01*
X1162689Y400432D01*
X1162632Y400858D01*
X1162584Y401285D01*
X1162547Y401713D01*
X1162521Y402141D01*
X1162505Y402571D01*
X1162500Y403000D01*
X1302500Y403000D02*
X1302505Y403429D01*
X1302521Y403859D01*
X1302547Y404287D01*
X1302584Y404715D01*
X1302632Y405142D01*
X1302689Y405568D01*
X1302758Y405992D01*
X1302836Y406414D01*
X1302925Y406834D01*
X1303024Y407252D01*
X1303134Y407667D01*
X1303254Y408080D01*
X1303383Y408489D01*
X1303523Y408896D01*
X1303673Y409298D01*
X1303832Y409697D01*
X1304001Y410092D01*
X1304180Y410482D01*
X1304369Y410868D01*
X1304566Y411249D01*
X1304773Y411626D01*
X1304990Y411997D01*
X1305215Y412362D01*
X1305449Y412722D01*
X1305692Y413077D01*
X1305944Y413425D01*
X1306204Y413767D01*
X1306472Y414102D01*
X1306749Y414431D01*
X1307033Y414752D01*
X1307326Y415067D01*
X1307626Y415374D01*
X1307933Y415674D01*
X1308248Y415967D01*
X1308569Y416251D01*
X1308898Y416528D01*
X1309233Y416796D01*
X1309575Y417056D01*
X1309923Y417308D01*
X1310278Y417551D01*
X1310638Y417785D01*
X1311003Y418010D01*
X1311374Y418227D01*
X1311751Y418434D01*
X1312132Y418631D01*
X1312518Y418820D01*
X1312908Y418999D01*
X1313303Y419168D01*
X1313702Y419327D01*
X1314104Y419477D01*
X1314511Y419617D01*
X1314920Y419746D01*
X1315333Y419866D01*
X1315748Y419976D01*
X1316166Y420075D01*
X1316586Y420164D01*
X1317008Y420242D01*
X1317432Y420311D01*
X1317858Y420368D01*
X1318285Y420416D01*
X1318713Y420453D01*
X1319141Y420479D01*
X1319571Y420495D01*
X1320000Y420500D01*
X1320429Y420495D01*
X1320859Y420479D01*
X1321287Y420453D01*
X1321715Y420416D01*
X1322142Y420368D01*
X1322568Y420311D01*
X1322992Y420242D01*
X1323414Y420164D01*
X1323834Y420075D01*
X1324252Y419976D01*
X1324667Y419866D01*
X1325080Y419746D01*
X1325489Y419617D01*
X1325896Y419477D01*
X1326298Y419327D01*
X1326697Y419168D01*
X1327092Y418999D01*
X1327482Y418820D01*
X1327868Y418631D01*
X1328249Y418434D01*
X1328626Y418227D01*
X1328997Y418010D01*
X1329362Y417785D01*
X1329722Y417551D01*
X1330077Y417308D01*
X1330425Y417056D01*
X1330767Y416796D01*
X1331102Y416528D01*
X1331431Y416251D01*
X1331752Y415967D01*
X1332067Y415674D01*
X1332374Y415374D01*
X1332674Y415067D01*
X1332967Y414752D01*
X1333251Y414431D01*
X1333528Y414102D01*
X1333796Y413767D01*
X1334056Y413425D01*
X1334308Y413077D01*
X1334551Y412722D01*
X1334785Y412362D01*
X1335010Y411997D01*
X1335227Y411626D01*
X1335434Y411249D01*
X1335631Y410868D01*
X1335820Y410482D01*
X1335999Y410092D01*
X1336168Y409697D01*
X1336327Y409298D01*
X1336477Y408896D01*
X1336617Y408489D01*
X1336746Y408080D01*
X1336866Y407667D01*
X1336976Y407252D01*
X1337075Y406834D01*
X1337164Y406414D01*
X1337242Y405992D01*
X1337311Y405568D01*
X1337368Y405142D01*
X1337416Y404715D01*
X1337453Y404287D01*
X1337479Y403859D01*
X1337495Y403429D01*
X1337500Y403000D01*
X1337495Y402571D01*
X1337479Y402141D01*
X1337453Y401713D01*
X1337416Y401285D01*
X1337368Y400858D01*
X1337311Y400432D01*
X1337242Y400008D01*
X1337164Y399586D01*
X1337075Y399166D01*
X1336976Y398748D01*
X1336866Y398333D01*
X1336746Y397920D01*
X1336617Y397511D01*
X1336477Y397104D01*
X1336327Y396702D01*
X1336168Y396303D01*
X1335999Y395908D01*
X1335820Y395518D01*
X1335631Y395132D01*
X1335434Y394751D01*
X1335227Y394374D01*
X1335010Y394003D01*
X1334785Y393638D01*
X1334551Y393278D01*
X1334308Y392923D01*
X1334056Y392575D01*
X1333796Y392233D01*
X1333528Y391898D01*
X1333251Y391569D01*
X1332967Y391248D01*
X1332674Y390933D01*
X1332374Y390626D01*
X1332067Y390326D01*
X1331752Y390033D01*
X1331431Y389749D01*
X1331102Y389472D01*
X1330767Y389204D01*
X1330425Y388944D01*
X1330077Y388692D01*
X1329722Y388449D01*
X1329362Y388215D01*
X1328997Y387990D01*
X1328626Y387773D01*
X1328249Y387566D01*
X1327868Y387369D01*
X1327482Y387180D01*
X1327092Y387001D01*
X1326697Y386832D01*
X1326298Y386673D01*
X1325896Y386523D01*
X1325489Y386383D01*
X1325080Y386254D01*
X1324667Y386134D01*
X1324252Y386024D01*
X1323834Y385925D01*
X1323414Y385836D01*
X1322992Y385758D01*
X1322568Y385689D01*
X1322142Y385632D01*
X1321715Y385584D01*
X1321287Y385547D01*
X1320859Y385521D01*
X1320429Y385505D01*
X1320000Y385500D01*
X1319571Y385505D01*
X1319141Y385521D01*
X1318713Y385547D01*
X1318285Y385584D01*
X1317858Y385632D01*
X1317432Y385689D01*
X1317008Y385758D01*
X1316586Y385836D01*
X1316166Y385925D01*
X1315748Y386024D01*
X1315333Y386134D01*
X1314920Y386254D01*
X1314511Y386383D01*
X1314104Y386523D01*
X1313702Y386673D01*
X1313303Y386832D01*
X1312908Y387001D01*
X1312518Y387180D01*
X1312132Y387369D01*
X1311751Y387566D01*
X1311374Y387773D01*
X1311003Y387990D01*
X1310638Y388215D01*
X1310278Y388449D01*
X1309923Y388692D01*
X1309575Y388944D01*
X1309233Y389204D01*
X1308898Y389472D01*
X1308569Y389749D01*
X1308248Y390033D01*
X1307933Y390326D01*
X1307626Y390626D01*
X1307326Y390933D01*
X1307033Y391248D01*
X1306749Y391569D01*
X1306472Y391898D01*
X1306204Y392233D01*
X1305944Y392575D01*
X1305692Y392923D01*
X1305449Y393278D01*
X1305215Y393638D01*
X1304990Y394003D01*
X1304773Y394374D01*
X1304566Y394751D01*
X1304369Y395132D01*
X1304180Y395518D01*
X1304001Y395908D01*
X1303832Y396303D01*
X1303673Y396702D01*
X1303523Y397104D01*
X1303383Y397511D01*
X1303254Y397920D01*
X1303134Y398333D01*
X1303024Y398748D01*
X1302925Y399166D01*
X1302836Y399586D01*
X1302758Y400008D01*
X1302689Y400432D01*
X1302632Y400858D01*
X1302584Y401285D01*
X1302547Y401713D01*
X1302521Y402141D01*
X1302505Y402571D01*
X1302500Y403000D01*
X1302500Y693000D02*
X1302505Y693429D01*
X1302521Y693859D01*
X1302547Y694287D01*
X1302584Y694715D01*
X1302632Y695142D01*
X1302689Y695568D01*
X1302758Y695992D01*
X1302836Y696414D01*
X1302925Y696834D01*
X1303024Y697252D01*
X1303134Y697667D01*
X1303254Y698080D01*
X1303383Y698489D01*
X1303523Y698896D01*
X1303673Y699298D01*
X1303832Y699697D01*
X1304001Y700092D01*
X1304180Y700482D01*
X1304369Y700868D01*
X1304566Y701249D01*
X1304773Y701626D01*
X1304990Y701997D01*
X1305215Y702362D01*
X1305449Y702722D01*
X1305692Y703077D01*
X1305944Y703425D01*
X1306204Y703767D01*
X1306472Y704102D01*
X1306749Y704431D01*
X1307033Y704752D01*
X1307326Y705067D01*
X1307626Y705374D01*
X1307933Y705674D01*
X1308248Y705967D01*
X1308569Y706251D01*
X1308898Y706528D01*
X1309233Y706796D01*
X1309575Y707056D01*
X1309923Y707308D01*
X1310278Y707551D01*
X1310638Y707785D01*
X1311003Y708010D01*
X1311374Y708227D01*
X1311751Y708434D01*
X1312132Y708631D01*
X1312518Y708820D01*
X1312908Y708999D01*
X1313303Y709168D01*
X1313702Y709327D01*
X1314104Y709477D01*
X1314511Y709617D01*
X1314920Y709746D01*
X1315333Y709866D01*
X1315748Y709976D01*
X1316166Y710075D01*
X1316586Y710164D01*
X1317008Y710242D01*
X1317432Y710311D01*
X1317858Y710368D01*
X1318285Y710416D01*
X1318713Y710453D01*
X1319141Y710479D01*
X1319571Y710495D01*
X1320000Y710500D01*
X1320429Y710495D01*
X1320859Y710479D01*
X1321287Y710453D01*
X1321715Y710416D01*
X1322142Y710368D01*
X1322568Y710311D01*
X1322992Y710242D01*
X1323414Y710164D01*
X1323834Y710075D01*
X1324252Y709976D01*
X1324667Y709866D01*
X1325080Y709746D01*
X1325489Y709617D01*
X1325896Y709477D01*
X1326298Y709327D01*
X1326697Y709168D01*
X1327092Y708999D01*
X1327482Y708820D01*
X1327868Y708631D01*
X1328249Y708434D01*
X1328626Y708227D01*
X1328997Y708010D01*
X1329362Y707785D01*
X1329722Y707551D01*
X1330077Y707308D01*
X1330425Y707056D01*
X1330767Y706796D01*
X1331102Y706528D01*
X1331431Y706251D01*
X1331752Y705967D01*
X1332067Y705674D01*
X1332374Y705374D01*
X1332674Y705067D01*
X1332967Y704752D01*
X1333251Y704431D01*
X1333528Y704102D01*
X1333796Y703767D01*
X1334056Y703425D01*
X1334308Y703077D01*
X1334551Y702722D01*
X1334785Y702362D01*
X1335010Y701997D01*
X1335227Y701626D01*
X1335434Y701249D01*
X1335631Y700868D01*
X1335820Y700482D01*
X1335999Y700092D01*
X1336168Y699697D01*
X1336327Y699298D01*
X1336477Y698896D01*
X1336617Y698489D01*
X1336746Y698080D01*
X1336866Y697667D01*
X1336976Y697252D01*
X1337075Y696834D01*
X1337164Y696414D01*
X1337242Y695992D01*
X1337311Y695568D01*
X1337368Y695142D01*
X1337416Y694715D01*
X1337453Y694287D01*
X1337479Y693859D01*
X1337495Y693429D01*
X1337500Y693000D01*
X1337495Y692571D01*
X1337479Y692141D01*
X1337453Y691713D01*
X1337416Y691285D01*
X1337368Y690858D01*
X1337311Y690432D01*
X1337242Y690008D01*
X1337164Y689586D01*
X1337075Y689166D01*
X1336976Y688748D01*
X1336866Y688333D01*
X1336746Y687920D01*
X1336617Y687511D01*
X1336477Y687104D01*
X1336327Y686702D01*
X1336168Y686303D01*
X1335999Y685908D01*
X1335820Y685518D01*
X1335631Y685132D01*
X1335434Y684751D01*
X1335227Y684374D01*
X1335010Y684003D01*
X1334785Y683638D01*
X1334551Y683278D01*
X1334308Y682923D01*
X1334056Y682575D01*
X1333796Y682233D01*
X1333528Y681898D01*
X1333251Y681569D01*
X1332967Y681248D01*
X1332674Y680933D01*
X1332374Y680626D01*
X1332067Y680326D01*
X1331752Y680033D01*
X1331431Y679749D01*
X1331102Y679472D01*
X1330767Y679204D01*
X1330425Y678944D01*
X1330077Y678692D01*
X1329722Y678449D01*
X1329362Y678215D01*
X1328997Y677990D01*
X1328626Y677773D01*
X1328249Y677566D01*
X1327868Y677369D01*
X1327482Y677180D01*
X1327092Y677001D01*
X1326697Y676832D01*
X1326298Y676673D01*
X1325896Y676523D01*
X1325489Y676383D01*
X1325080Y676254D01*
X1324667Y676134D01*
X1324252Y676024D01*
X1323834Y675925D01*
X1323414Y675836D01*
X1322992Y675758D01*
X1322568Y675689D01*
X1322142Y675632D01*
X1321715Y675584D01*
X1321287Y675547D01*
X1320859Y675521D01*
X1320429Y675505D01*
X1320000Y675500D01*
X1319571Y675505D01*
X1319141Y675521D01*
X1318713Y675547D01*
X1318285Y675584D01*
X1317858Y675632D01*
X1317432Y675689D01*
X1317008Y675758D01*
X1316586Y675836D01*
X1316166Y675925D01*
X1315748Y676024D01*
X1315333Y676134D01*
X1314920Y676254D01*
X1314511Y676383D01*
X1314104Y676523D01*
X1313702Y676673D01*
X1313303Y676832D01*
X1312908Y677001D01*
X1312518Y677180D01*
X1312132Y677369D01*
X1311751Y677566D01*
X1311374Y677773D01*
X1311003Y677990D01*
X1310638Y678215D01*
X1310278Y678449D01*
X1309923Y678692D01*
X1309575Y678944D01*
X1309233Y679204D01*
X1308898Y679472D01*
X1308569Y679749D01*
X1308248Y680033D01*
X1307933Y680326D01*
X1307626Y680626D01*
X1307326Y680933D01*
X1307033Y681248D01*
X1306749Y681569D01*
X1306472Y681898D01*
X1306204Y682233D01*
X1305944Y682575D01*
X1305692Y682923D01*
X1305449Y683278D01*
X1305215Y683638D01*
X1304990Y684003D01*
X1304773Y684374D01*
X1304566Y684751D01*
X1304369Y685132D01*
X1304180Y685518D01*
X1304001Y685908D01*
X1303832Y686303D01*
X1303673Y686702D01*
X1303523Y687104D01*
X1303383Y687511D01*
X1303254Y687920D01*
X1303134Y688333D01*
X1303024Y688748D01*
X1302925Y689166D01*
X1302836Y689586D01*
X1302758Y690008D01*
X1302689Y690432D01*
X1302632Y690858D01*
X1302584Y691285D01*
X1302547Y691713D01*
X1302521Y692141D01*
X1302505Y692571D01*
X1302500Y693000D01*
X1162500Y693000D02*
X1162505Y693429D01*
X1162521Y693859D01*
X1162547Y694287D01*
X1162584Y694715D01*
X1162632Y695142D01*
X1162689Y695568D01*
X1162758Y695992D01*
X1162836Y696414D01*
X1162925Y696834D01*
X1163024Y697252D01*
X1163134Y697667D01*
X1163254Y698080D01*
X1163383Y698489D01*
X1163523Y698896D01*
X1163673Y699298D01*
X1163832Y699697D01*
X1164001Y700092D01*
X1164180Y700482D01*
X1164369Y700868D01*
X1164566Y701249D01*
X1164773Y701626D01*
X1164990Y701997D01*
X1165215Y702362D01*
X1165449Y702722D01*
X1165692Y703077D01*
X1165944Y703425D01*
X1166204Y703767D01*
X1166472Y704102D01*
X1166749Y704431D01*
X1167033Y704752D01*
X1167326Y705067D01*
X1167626Y705374D01*
X1167933Y705674D01*
X1168248Y705967D01*
X1168569Y706251D01*
X1168898Y706528D01*
X1169233Y706796D01*
X1169575Y707056D01*
X1169923Y707308D01*
X1170278Y707551D01*
X1170638Y707785D01*
X1171003Y708010D01*
X1171374Y708227D01*
X1171751Y708434D01*
X1172132Y708631D01*
X1172518Y708820D01*
X1172908Y708999D01*
X1173303Y709168D01*
X1173702Y709327D01*
X1174104Y709477D01*
X1174511Y709617D01*
X1174920Y709746D01*
X1175333Y709866D01*
X1175748Y709976D01*
X1176166Y710075D01*
X1176586Y710164D01*
X1177008Y710242D01*
X1177432Y710311D01*
X1177858Y710368D01*
X1178285Y710416D01*
X1178713Y710453D01*
X1179141Y710479D01*
X1179571Y710495D01*
X1180000Y710500D01*
X1180429Y710495D01*
X1180859Y710479D01*
X1181287Y710453D01*
X1181715Y710416D01*
X1182142Y710368D01*
X1182568Y710311D01*
X1182992Y710242D01*
X1183414Y710164D01*
X1183834Y710075D01*
X1184252Y709976D01*
X1184667Y709866D01*
X1185080Y709746D01*
X1185489Y709617D01*
X1185896Y709477D01*
X1186298Y709327D01*
X1186697Y709168D01*
X1187092Y708999D01*
X1187482Y708820D01*
X1187868Y708631D01*
X1188249Y708434D01*
X1188626Y708227D01*
X1188997Y708010D01*
X1189362Y707785D01*
X1189722Y707551D01*
X1190077Y707308D01*
X1190425Y707056D01*
X1190767Y706796D01*
X1191102Y706528D01*
X1191431Y706251D01*
X1191752Y705967D01*
X1192067Y705674D01*
X1192374Y705374D01*
X1192674Y705067D01*
X1192967Y704752D01*
X1193251Y704431D01*
X1193528Y704102D01*
X1193796Y703767D01*
X1194056Y703425D01*
X1194308Y703077D01*
X1194551Y702722D01*
X1194785Y702362D01*
X1195010Y701997D01*
X1195227Y701626D01*
X1195434Y701249D01*
X1195631Y700868D01*
X1195820Y700482D01*
X1195999Y700092D01*
X1196168Y699697D01*
X1196327Y699298D01*
X1196477Y698896D01*
X1196617Y698489D01*
X1196746Y698080D01*
X1196866Y697667D01*
X1196976Y697252D01*
X1197075Y696834D01*
X1197164Y696414D01*
X1197242Y695992D01*
X1197311Y695568D01*
X1197368Y695142D01*
X1197416Y694715D01*
X1197453Y694287D01*
X1197479Y693859D01*
X1197495Y693429D01*
X1197500Y693000D01*
X1197495Y692571D01*
X1197479Y692141D01*
X1197453Y691713D01*
X1197416Y691285D01*
X1197368Y690858D01*
X1197311Y690432D01*
X1197242Y690008D01*
X1197164Y689586D01*
X1197075Y689166D01*
X1196976Y688748D01*
X1196866Y688333D01*
X1196746Y687920D01*
X1196617Y687511D01*
X1196477Y687104D01*
X1196327Y686702D01*
X1196168Y686303D01*
X1195999Y685908D01*
X1195820Y685518D01*
X1195631Y685132D01*
X1195434Y684751D01*
X1195227Y684374D01*
X1195010Y684003D01*
X1194785Y683638D01*
X1194551Y683278D01*
X1194308Y682923D01*
X1194056Y682575D01*
X1193796Y682233D01*
X1193528Y681898D01*
X1193251Y681569D01*
X1192967Y681248D01*
X1192674Y680933D01*
X1192374Y680626D01*
X1192067Y680326D01*
X1191752Y680033D01*
X1191431Y679749D01*
X1191102Y679472D01*
X1190767Y679204D01*
X1190425Y678944D01*
X1190077Y678692D01*
X1189722Y678449D01*
X1189362Y678215D01*
X1188997Y677990D01*
X1188626Y677773D01*
X1188249Y677566D01*
X1187868Y677369D01*
X1187482Y677180D01*
X1187092Y677001D01*
X1186697Y676832D01*
X1186298Y676673D01*
X1185896Y676523D01*
X1185489Y676383D01*
X1185080Y676254D01*
X1184667Y676134D01*
X1184252Y676024D01*
X1183834Y675925D01*
X1183414Y675836D01*
X1182992Y675758D01*
X1182568Y675689D01*
X1182142Y675632D01*
X1181715Y675584D01*
X1181287Y675547D01*
X1180859Y675521D01*
X1180429Y675505D01*
X1180000Y675500D01*
X1179571Y675505D01*
X1179141Y675521D01*
X1178713Y675547D01*
X1178285Y675584D01*
X1177858Y675632D01*
X1177432Y675689D01*
X1177008Y675758D01*
X1176586Y675836D01*
X1176166Y675925D01*
X1175748Y676024D01*
X1175333Y676134D01*
X1174920Y676254D01*
X1174511Y676383D01*
X1174104Y676523D01*
X1173702Y676673D01*
X1173303Y676832D01*
X1172908Y677001D01*
X1172518Y677180D01*
X1172132Y677369D01*
X1171751Y677566D01*
X1171374Y677773D01*
X1171003Y677990D01*
X1170638Y678215D01*
X1170278Y678449D01*
X1169923Y678692D01*
X1169575Y678944D01*
X1169233Y679204D01*
X1168898Y679472D01*
X1168569Y679749D01*
X1168248Y680033D01*
X1167933Y680326D01*
X1167626Y680626D01*
X1167326Y680933D01*
X1167033Y681248D01*
X1166749Y681569D01*
X1166472Y681898D01*
X1166204Y682233D01*
X1165944Y682575D01*
X1165692Y682923D01*
X1165449Y683278D01*
X1165215Y683638D01*
X1164990Y684003D01*
X1164773Y684374D01*
X1164566Y684751D01*
X1164369Y685132D01*
X1164180Y685518D01*
X1164001Y685908D01*
X1163832Y686303D01*
X1163673Y686702D01*
X1163523Y687104D01*
X1163383Y687511D01*
X1163254Y687920D01*
X1163134Y688333D01*
X1163024Y688748D01*
X1162925Y689166D01*
X1162836Y689586D01*
X1162758Y690008D01*
X1162689Y690432D01*
X1162632Y690858D01*
X1162584Y691285D01*
X1162547Y691713D01*
X1162521Y692141D01*
X1162505Y692571D01*
X1162500Y693000D01*
X797560Y768350D02*
X797560Y971550D01*
X739140Y971550D02*
X739140Y768350D01*
X797560Y768350D01*
X797560Y971550D02*
X778510Y971550D01*
X758190Y971550D02*
X739140Y971550D01*
X758190Y971550D02*
X758193Y971303D01*
X758202Y971055D01*
X758217Y970808D01*
X758238Y970562D01*
X758265Y970316D01*
X758298Y970071D01*
X758337Y969826D01*
X758382Y969583D01*
X758433Y969341D01*
X758490Y969100D01*
X758552Y968861D01*
X758621Y968623D01*
X758695Y968387D01*
X758775Y968153D01*
X758860Y967921D01*
X758952Y967691D01*
X759048Y967463D01*
X759151Y967238D01*
X759258Y967015D01*
X759372Y966795D01*
X759490Y966578D01*
X759614Y966363D01*
X759743Y966152D01*
X759877Y965944D01*
X760016Y965739D01*
X760160Y965538D01*
X760308Y965340D01*
X760462Y965146D01*
X760620Y964956D01*
X760783Y964770D01*
X760950Y964588D01*
X761122Y964410D01*
X761298Y964236D01*
X761478Y964066D01*
X761663Y963901D01*
X761851Y963741D01*
X762043Y963585D01*
X762239Y963433D01*
X762438Y963287D01*
X762641Y963145D01*
X762848Y963009D01*
X763057Y962877D01*
X763270Y962751D01*
X763486Y962630D01*
X763704Y962514D01*
X763926Y962404D01*
X764150Y962299D01*
X764376Y962199D01*
X764605Y962105D01*
X764836Y962017D01*
X765070Y961934D01*
X765305Y961857D01*
X765542Y961786D01*
X765780Y961720D01*
X766020Y961661D01*
X766262Y961607D01*
X766505Y961559D01*
X766748Y961517D01*
X766993Y961481D01*
X767239Y961451D01*
X767485Y961427D01*
X767732Y961409D01*
X767979Y961397D01*
X768226Y961391D01*
X768474Y961391D01*
X768721Y961397D01*
X768968Y961409D01*
X769215Y961427D01*
X769461Y961451D01*
X769707Y961481D01*
X769952Y961517D01*
X770195Y961559D01*
X770438Y961607D01*
X770680Y961661D01*
X770920Y961720D01*
X771158Y961786D01*
X771395Y961857D01*
X771630Y961934D01*
X771864Y962017D01*
X772095Y962105D01*
X772324Y962199D01*
X772550Y962299D01*
X772774Y962404D01*
X772996Y962514D01*
X773214Y962630D01*
X773430Y962751D01*
X773643Y962877D01*
X773852Y963009D01*
X774059Y963145D01*
X774262Y963287D01*
X774461Y963433D01*
X774657Y963585D01*
X774849Y963741D01*
X775037Y963901D01*
X775222Y964066D01*
X775402Y964236D01*
X775578Y964410D01*
X775750Y964588D01*
X775917Y964770D01*
X776080Y964956D01*
X776238Y965146D01*
X776392Y965340D01*
X776540Y965538D01*
X776684Y965739D01*
X776823Y965944D01*
X776957Y966152D01*
X777086Y966363D01*
X777210Y966578D01*
X777328Y966795D01*
X777442Y967015D01*
X777549Y967238D01*
X777652Y967463D01*
X777748Y967691D01*
X777840Y967921D01*
X777925Y968153D01*
X778005Y968387D01*
X778079Y968623D01*
X778148Y968861D01*
X778210Y969100D01*
X778267Y969341D01*
X778318Y969583D01*
X778363Y969826D01*
X778402Y970071D01*
X778435Y970316D01*
X778462Y970562D01*
X778483Y970808D01*
X778498Y971055D01*
X778507Y971303D01*
X778510Y971550D01*
D11*
X743588Y975995D02*
X739775Y975995D01*
X741682Y975995D02*
X741682Y987435D01*
X743588Y987435D02*
X739775Y987435D01*
X753291Y987435D02*
X755197Y985528D01*
X753291Y987435D02*
X749478Y987435D01*
X747571Y985528D01*
X747571Y977902D01*
X749478Y975995D01*
X753291Y975995D01*
X755197Y977902D01*
X759265Y983622D02*
X763078Y987435D01*
X763078Y975995D01*
X759265Y975995D02*
X766891Y975995D01*
D12*
X602742Y832358D02*
X591048Y832358D01*
X591048Y838205D01*
X592997Y840154D01*
X596895Y840154D01*
X598844Y838205D01*
X598844Y832358D01*
X598844Y836256D02*
X602742Y840154D01*
X594946Y844052D02*
X591048Y847950D01*
X602742Y847950D01*
X602742Y844052D02*
X602742Y851848D01*
X838698Y673608D02*
X850392Y673608D01*
X838698Y673608D02*
X838698Y679455D01*
X840647Y681404D01*
X844545Y681404D01*
X846494Y679455D01*
X846494Y673608D01*
X846494Y677506D02*
X850392Y681404D01*
X850392Y685302D02*
X850392Y693098D01*
X850392Y685302D02*
X842596Y693098D01*
X840647Y693098D01*
X838698Y691149D01*
X838698Y687251D01*
X840647Y685302D01*
X812292Y673608D02*
X800598Y673608D01*
X800598Y679455D01*
X802547Y681404D01*
X806445Y681404D01*
X808394Y679455D01*
X808394Y673608D01*
X808394Y677506D02*
X812292Y681404D01*
X802547Y685302D02*
X800598Y687251D01*
X800598Y691149D01*
X802547Y693098D01*
X804496Y693098D01*
X806445Y691149D01*
X806445Y689200D01*
X806445Y691149D02*
X808394Y693098D01*
X810343Y693098D01*
X812292Y691149D01*
X812292Y687251D01*
X810343Y685302D01*
X774192Y673608D02*
X762498Y673608D01*
X762498Y679455D01*
X764447Y681404D01*
X768345Y681404D01*
X770294Y679455D01*
X770294Y673608D01*
X770294Y677506D02*
X774192Y681404D01*
X774192Y691149D02*
X762498Y691149D01*
X768345Y685302D01*
X768345Y693098D01*
X736092Y673608D02*
X724398Y673608D01*
X724398Y679455D01*
X726347Y681404D01*
X730245Y681404D01*
X732194Y679455D01*
X732194Y673608D01*
X732194Y677506D02*
X736092Y681404D01*
X724398Y685302D02*
X724398Y693098D01*
X724398Y685302D02*
X730245Y685302D01*
X728296Y689200D01*
X728296Y691149D01*
X730245Y693098D01*
X734143Y693098D01*
X736092Y691149D01*
X736092Y687251D01*
X734143Y685302D01*
X697992Y673608D02*
X686298Y673608D01*
X686298Y679455D01*
X688247Y681404D01*
X692145Y681404D01*
X694094Y679455D01*
X694094Y673608D01*
X694094Y677506D02*
X697992Y681404D01*
X688247Y689200D02*
X686298Y693098D01*
X688247Y689200D02*
X692145Y685302D01*
X696043Y685302D01*
X697992Y687251D01*
X697992Y691149D01*
X696043Y693098D01*
X694094Y693098D01*
X692145Y691149D01*
X692145Y685302D01*
X659892Y673608D02*
X648198Y673608D01*
X648198Y679455D01*
X650147Y681404D01*
X654045Y681404D01*
X655994Y679455D01*
X655994Y673608D01*
X655994Y677506D02*
X659892Y681404D01*
X648198Y685302D02*
X648198Y693098D01*
X650147Y693098D01*
X657943Y685302D01*
X659892Y685302D01*
X494792Y832358D02*
X483098Y832358D01*
X483098Y838205D01*
X485047Y840154D01*
X488945Y840154D01*
X490894Y838205D01*
X490894Y832358D01*
X490894Y836256D02*
X494792Y840154D01*
X485047Y844052D02*
X483098Y846001D01*
X483098Y849899D01*
X485047Y851848D01*
X486996Y851848D01*
X488945Y849899D01*
X490894Y851848D01*
X492843Y851848D01*
X494792Y849899D01*
X494792Y846001D01*
X492843Y844052D01*
X490894Y844052D01*
X488945Y846001D01*
X486996Y844052D01*
X485047Y844052D01*
X488945Y846001D02*
X488945Y849899D01*
X521198Y832358D02*
X532892Y832358D01*
X521198Y832358D02*
X521198Y838205D01*
X523147Y840154D01*
X527045Y840154D01*
X528994Y838205D01*
X528994Y832358D01*
X528994Y836256D02*
X532892Y840154D01*
X530943Y844052D02*
X532892Y846001D01*
X532892Y849899D01*
X530943Y851848D01*
X523147Y851848D01*
X521198Y849899D01*
X521198Y846001D01*
X523147Y844052D01*
X525096Y844052D01*
X527045Y846001D01*
X527045Y851848D01*
X559298Y832358D02*
X570992Y832358D01*
X559298Y832358D02*
X559298Y838205D01*
X561247Y840154D01*
X565145Y840154D01*
X567094Y838205D01*
X567094Y832358D01*
X567094Y836256D02*
X570992Y840154D01*
X563196Y844052D02*
X559298Y847950D01*
X570992Y847950D01*
X570992Y844052D02*
X570992Y851848D01*
X569043Y855746D02*
X561247Y855746D01*
X559298Y857695D01*
X559298Y861593D01*
X561247Y863542D01*
X569043Y863542D01*
X570992Y861593D01*
X570992Y857695D01*
X569043Y855746D01*
X561247Y863542D01*
D10*
X192850Y493400D02*
X180150Y493400D01*
X192850Y493400D02*
X199200Y487050D01*
X205550Y493400D01*
X218250Y493400D01*
X224600Y487050D01*
X180150Y493400D02*
X173800Y487050D01*
X224600Y487050D02*
X230950Y493400D01*
X243650Y493400D01*
X250000Y487050D01*
X256350Y493400D02*
X269050Y493400D01*
X275400Y487050D01*
X281750Y493400D01*
X294450Y493400D01*
X300800Y487050D01*
X256350Y493400D02*
X250000Y487050D01*
X300800Y487050D02*
X307150Y493400D01*
X319850Y493400D01*
X326200Y487050D01*
X326200Y448950D01*
X199200Y448950D02*
X192850Y442600D01*
X218250Y442600D02*
X224600Y448950D01*
X218250Y442600D02*
X205550Y442600D01*
X199200Y448950D01*
X173800Y448950D02*
X173800Y487050D01*
X173800Y448950D02*
X180150Y442600D01*
X192850Y442600D01*
X243650Y442600D02*
X250000Y448950D01*
X243650Y442600D02*
X230950Y442600D01*
X224600Y448950D01*
X269050Y442600D02*
X275400Y448950D01*
X294450Y442600D02*
X300800Y448950D01*
X294450Y442600D02*
X281750Y442600D01*
X275400Y448950D01*
X256350Y442600D02*
X250000Y448950D01*
X256350Y442600D02*
X269050Y442600D01*
X319850Y442600D02*
X326200Y448950D01*
X319850Y442600D02*
X307150Y442600D01*
X300800Y448950D01*
D11*
X185868Y438165D02*
X182055Y434352D01*
X185868Y438165D02*
X185868Y426725D01*
X182055Y426725D02*
X189682Y426725D01*
X182062Y507378D02*
X180155Y509285D01*
X176342Y509285D01*
X174435Y507378D01*
X174435Y505472D01*
X176342Y503565D01*
X180155Y503565D01*
X182062Y501658D01*
X182062Y499752D01*
X180155Y497845D01*
X176342Y497845D01*
X174435Y499752D01*
X186129Y501658D02*
X186129Y509285D01*
X186129Y501658D02*
X189942Y497845D01*
X193755Y501658D01*
X193755Y509285D01*
X197823Y505472D02*
X201636Y509285D01*
X201636Y497845D01*
X197823Y497845D02*
X205449Y497845D01*
X301435Y505472D02*
X305248Y509285D01*
X305248Y497845D01*
X301435Y497845D02*
X309062Y497845D01*
X313129Y497845D02*
X320755Y497845D01*
X313129Y497845D02*
X320755Y505472D01*
X320755Y507378D01*
X318849Y509285D01*
X315036Y509285D01*
X313129Y507378D01*
D10*
X685800Y260350D02*
X698500Y260350D01*
X685800Y260350D02*
X679450Y266700D01*
X679450Y279400D02*
X685800Y285750D01*
X679450Y266700D02*
X673100Y260350D01*
X660400Y260350D01*
X654050Y266700D01*
X654050Y279400D02*
X660400Y285750D01*
X673100Y285750D01*
X679450Y279400D01*
X704850Y279400D02*
X704850Y266700D01*
X698500Y260350D01*
X704850Y279400D02*
X698500Y285750D01*
X685800Y285750D01*
X654050Y266700D02*
X647700Y260350D01*
X635000Y260350D01*
X628650Y266700D01*
X628650Y279400D02*
X635000Y285750D01*
X647700Y285750D01*
X654050Y279400D01*
X622300Y260350D02*
X609600Y260350D01*
X603250Y266700D01*
X603250Y279400D02*
X609600Y285750D01*
X603250Y266700D02*
X596900Y260350D01*
X584200Y260350D01*
X577850Y266700D01*
X577850Y279400D01*
X584200Y285750D01*
X596900Y285750D01*
X603250Y279400D01*
X622300Y260350D02*
X628650Y266700D01*
X628650Y279400D02*
X622300Y285750D01*
X609600Y285750D01*
D11*
X676123Y255915D02*
X678030Y254008D01*
X676123Y255915D02*
X672310Y255915D01*
X670403Y254008D01*
X670403Y252102D01*
X672310Y250195D01*
X676123Y250195D01*
X678030Y248288D01*
X678030Y246382D01*
X676123Y244475D01*
X672310Y244475D01*
X670403Y246382D01*
X682097Y248288D02*
X682097Y255915D01*
X682097Y248288D02*
X685910Y244475D01*
X689724Y248288D01*
X689724Y255915D01*
X693791Y255915D02*
X701417Y255915D01*
X693791Y255915D02*
X693791Y250195D01*
X697604Y252102D01*
X699511Y252102D01*
X701417Y250195D01*
X701417Y246382D01*
X699511Y244475D01*
X695698Y244475D01*
X693791Y246382D01*
X687441Y297822D02*
X691254Y301635D01*
X691254Y290195D01*
X687441Y290195D02*
X695068Y290195D01*
X593468Y255915D02*
X585841Y255915D01*
X585841Y250195D01*
X589654Y252102D01*
X591561Y252102D01*
X593468Y250195D01*
X593468Y246382D01*
X591561Y244475D01*
X587748Y244475D01*
X585841Y246382D01*
D10*
X905150Y493400D02*
X917850Y493400D01*
X924200Y487050D01*
X930550Y493400D01*
X943250Y493400D01*
X949600Y487050D01*
X905150Y493400D02*
X898800Y487050D01*
X949600Y487050D02*
X955950Y493400D01*
X968650Y493400D01*
X975000Y487050D01*
X981350Y493400D02*
X994050Y493400D01*
X1000400Y487050D01*
X1006750Y493400D01*
X1019450Y493400D01*
X1025800Y487050D01*
X981350Y493400D02*
X975000Y487050D01*
X1025800Y487050D02*
X1032150Y493400D01*
X1044850Y493400D01*
X1051200Y487050D01*
X1051200Y448950D01*
X924200Y448950D02*
X917850Y442600D01*
X943250Y442600D02*
X949600Y448950D01*
X943250Y442600D02*
X930550Y442600D01*
X924200Y448950D01*
X898800Y448950D02*
X898800Y487050D01*
X898800Y448950D02*
X905150Y442600D01*
X917850Y442600D01*
X968650Y442600D02*
X975000Y448950D01*
X968650Y442600D02*
X955950Y442600D01*
X949600Y448950D01*
X994050Y442600D02*
X1000400Y448950D01*
X1019450Y442600D02*
X1025800Y448950D01*
X1019450Y442600D02*
X1006750Y442600D01*
X1000400Y448950D01*
X981350Y442600D02*
X975000Y448950D01*
X981350Y442600D02*
X994050Y442600D01*
X1044850Y442600D02*
X1051200Y448950D01*
X1044850Y442600D02*
X1032150Y442600D01*
X1025800Y448950D01*
D11*
X910868Y438165D02*
X907055Y434352D01*
X910868Y438165D02*
X910868Y426725D01*
X907055Y426725D02*
X914682Y426725D01*
X907062Y507378D02*
X905155Y509285D01*
X901342Y509285D01*
X899435Y507378D01*
X899435Y505472D01*
X901342Y503565D01*
X905155Y503565D01*
X907062Y501658D01*
X907062Y499752D01*
X905155Y497845D01*
X901342Y497845D01*
X899435Y499752D01*
X911129Y501658D02*
X911129Y509285D01*
X911129Y501658D02*
X914942Y497845D01*
X918755Y501658D01*
X918755Y509285D01*
X922823Y507378D02*
X924730Y509285D01*
X928543Y509285D01*
X930449Y507378D01*
X930449Y505472D01*
X928543Y503565D01*
X926636Y503565D01*
X928543Y503565D02*
X930449Y501658D01*
X930449Y499752D01*
X928543Y497845D01*
X924730Y497845D01*
X922823Y499752D01*
X1026435Y505472D02*
X1030248Y509285D01*
X1030248Y497845D01*
X1026435Y497845D02*
X1034062Y497845D01*
X1038129Y497845D02*
X1045755Y497845D01*
X1038129Y497845D02*
X1045755Y505472D01*
X1045755Y507378D01*
X1043849Y509285D01*
X1040036Y509285D01*
X1038129Y507378D01*
D10*
X1180150Y493400D02*
X1192850Y493400D01*
X1199200Y487050D01*
X1205550Y493400D01*
X1218250Y493400D01*
X1224600Y487050D01*
X1180150Y493400D02*
X1173800Y487050D01*
X1224600Y487050D02*
X1230950Y493400D01*
X1243650Y493400D01*
X1250000Y487050D01*
X1256350Y493400D02*
X1269050Y493400D01*
X1275400Y487050D01*
X1281750Y493400D01*
X1294450Y493400D01*
X1300800Y487050D01*
X1256350Y493400D02*
X1250000Y487050D01*
X1300800Y487050D02*
X1307150Y493400D01*
X1319850Y493400D01*
X1326200Y487050D01*
X1326200Y448950D01*
X1199200Y448950D02*
X1192850Y442600D01*
X1218250Y442600D02*
X1224600Y448950D01*
X1218250Y442600D02*
X1205550Y442600D01*
X1199200Y448950D01*
X1173800Y448950D02*
X1173800Y487050D01*
X1173800Y448950D02*
X1180150Y442600D01*
X1192850Y442600D01*
X1243650Y442600D02*
X1250000Y448950D01*
X1243650Y442600D02*
X1230950Y442600D01*
X1224600Y448950D01*
X1269050Y442600D02*
X1275400Y448950D01*
X1294450Y442600D02*
X1300800Y448950D01*
X1294450Y442600D02*
X1281750Y442600D01*
X1275400Y448950D01*
X1256350Y442600D02*
X1250000Y448950D01*
X1256350Y442600D02*
X1269050Y442600D01*
X1319850Y442600D02*
X1326200Y448950D01*
X1319850Y442600D02*
X1307150Y442600D01*
X1300800Y448950D01*
D11*
X1185868Y438165D02*
X1182055Y434352D01*
X1185868Y438165D02*
X1185868Y426725D01*
X1182055Y426725D02*
X1189682Y426725D01*
X1182062Y507378D02*
X1180155Y509285D01*
X1176342Y509285D01*
X1174435Y507378D01*
X1174435Y505472D01*
X1176342Y503565D01*
X1180155Y503565D01*
X1182062Y501658D01*
X1182062Y499752D01*
X1180155Y497845D01*
X1176342Y497845D01*
X1174435Y499752D01*
X1186129Y501658D02*
X1186129Y509285D01*
X1186129Y501658D02*
X1189942Y497845D01*
X1193755Y501658D01*
X1193755Y509285D01*
X1203543Y509285D02*
X1203543Y497845D01*
X1197823Y503565D02*
X1203543Y509285D01*
X1205449Y503565D02*
X1197823Y503565D01*
X1301435Y505472D02*
X1305248Y509285D01*
X1305248Y497845D01*
X1301435Y497845D02*
X1309062Y497845D01*
X1313129Y497845D02*
X1320755Y497845D01*
X1313129Y497845D02*
X1320755Y505472D01*
X1320755Y507378D01*
X1318849Y509285D01*
X1315036Y509285D01*
X1313129Y507378D01*
D10*
X467850Y493400D02*
X455150Y493400D01*
X467850Y493400D02*
X474200Y487050D01*
X480550Y493400D01*
X493250Y493400D01*
X499600Y487050D01*
X455150Y493400D02*
X448800Y487050D01*
X499600Y487050D02*
X505950Y493400D01*
X518650Y493400D01*
X525000Y487050D01*
X531350Y493400D02*
X544050Y493400D01*
X550400Y487050D01*
X556750Y493400D01*
X569450Y493400D01*
X575800Y487050D01*
X531350Y493400D02*
X525000Y487050D01*
X575800Y487050D02*
X582150Y493400D01*
X594850Y493400D01*
X601200Y487050D01*
X601200Y448950D01*
X474200Y448950D02*
X467850Y442600D01*
X493250Y442600D02*
X499600Y448950D01*
X493250Y442600D02*
X480550Y442600D01*
X474200Y448950D01*
X448800Y448950D02*
X448800Y487050D01*
X448800Y448950D02*
X455150Y442600D01*
X467850Y442600D01*
X518650Y442600D02*
X525000Y448950D01*
X518650Y442600D02*
X505950Y442600D01*
X499600Y448950D01*
X544050Y442600D02*
X550400Y448950D01*
X569450Y442600D02*
X575800Y448950D01*
X569450Y442600D02*
X556750Y442600D01*
X550400Y448950D01*
X531350Y442600D02*
X525000Y448950D01*
X531350Y442600D02*
X544050Y442600D01*
X594850Y442600D02*
X601200Y448950D01*
X594850Y442600D02*
X582150Y442600D01*
X575800Y448950D01*
D11*
X460868Y438165D02*
X457055Y434352D01*
X460868Y438165D02*
X460868Y426725D01*
X457055Y426725D02*
X464682Y426725D01*
X457062Y507378D02*
X455155Y509285D01*
X451342Y509285D01*
X449435Y507378D01*
X449435Y505472D01*
X451342Y503565D01*
X455155Y503565D01*
X457062Y501658D01*
X457062Y499752D01*
X455155Y497845D01*
X451342Y497845D01*
X449435Y499752D01*
X461129Y501658D02*
X461129Y509285D01*
X461129Y501658D02*
X464942Y497845D01*
X468755Y501658D01*
X468755Y509285D01*
X472823Y497845D02*
X480449Y497845D01*
X472823Y497845D02*
X480449Y505472D01*
X480449Y507378D01*
X478543Y509285D01*
X474730Y509285D01*
X472823Y507378D01*
X576435Y505472D02*
X580248Y509285D01*
X580248Y497845D01*
X576435Y497845D02*
X584062Y497845D01*
X588129Y497845D02*
X595755Y497845D01*
X588129Y497845D02*
X595755Y505472D01*
X595755Y507378D01*
X593849Y509285D01*
X590036Y509285D01*
X588129Y507378D01*
D12*
X1251458Y762508D02*
X1251458Y774202D01*
X1257305Y774202D01*
X1259254Y772253D01*
X1259254Y768355D01*
X1257305Y766406D01*
X1251458Y766406D01*
X1255356Y766406D02*
X1259254Y762508D01*
X1263152Y770304D02*
X1267050Y774202D01*
X1267050Y762508D01*
X1263152Y762508D02*
X1270948Y762508D01*
X1280693Y762508D02*
X1280693Y774202D01*
X1274846Y768355D01*
X1282642Y768355D01*
X972058Y762508D02*
X972058Y774202D01*
X977905Y774202D01*
X979854Y772253D01*
X979854Y768355D01*
X977905Y766406D01*
X972058Y766406D01*
X975956Y766406D02*
X979854Y762508D01*
X983752Y770304D02*
X987650Y774202D01*
X987650Y762508D01*
X983752Y762508D02*
X991548Y762508D01*
X995446Y772253D02*
X997395Y774202D01*
X1001293Y774202D01*
X1003242Y772253D01*
X1003242Y770304D01*
X1001293Y768355D01*
X999344Y768355D01*
X1001293Y768355D02*
X1003242Y766406D01*
X1003242Y764457D01*
X1001293Y762508D01*
X997395Y762508D01*
X995446Y764457D01*
X451358Y762508D02*
X451358Y774202D01*
X457205Y774202D01*
X459154Y772253D01*
X459154Y768355D01*
X457205Y766406D01*
X451358Y766406D01*
X455256Y766406D02*
X459154Y762508D01*
X463052Y770304D02*
X466950Y774202D01*
X466950Y762508D01*
X463052Y762508D02*
X470848Y762508D01*
X474746Y762508D02*
X482542Y762508D01*
X474746Y762508D02*
X482542Y770304D01*
X482542Y772253D01*
X480593Y774202D01*
X476695Y774202D01*
X474746Y772253D01*
X235458Y774202D02*
X235458Y762508D01*
X235458Y774202D02*
X241305Y774202D01*
X243254Y772253D01*
X243254Y768355D01*
X241305Y766406D01*
X235458Y766406D01*
X239356Y766406D02*
X243254Y762508D01*
X247152Y770304D02*
X251050Y774202D01*
X251050Y762508D01*
X247152Y762508D02*
X254948Y762508D01*
X258846Y770304D02*
X262744Y774202D01*
X262744Y762508D01*
X258846Y762508D02*
X266642Y762508D01*
D10*
X1413510Y937260D02*
X1413610Y937258D01*
X1413709Y937252D01*
X1413809Y937242D01*
X1413907Y937229D01*
X1414006Y937211D01*
X1414103Y937190D01*
X1414199Y937165D01*
X1414295Y937136D01*
X1414389Y937103D01*
X1414482Y937067D01*
X1414573Y937027D01*
X1414663Y936983D01*
X1414751Y936936D01*
X1414837Y936886D01*
X1414921Y936832D01*
X1415003Y936775D01*
X1415082Y936715D01*
X1415160Y936651D01*
X1415234Y936585D01*
X1415306Y936516D01*
X1415375Y936444D01*
X1415441Y936370D01*
X1415505Y936292D01*
X1415565Y936213D01*
X1415622Y936131D01*
X1415676Y936047D01*
X1415726Y935961D01*
X1415773Y935873D01*
X1415817Y935783D01*
X1415857Y935692D01*
X1415893Y935599D01*
X1415926Y935505D01*
X1415955Y935409D01*
X1415980Y935313D01*
X1416001Y935216D01*
X1416019Y935117D01*
X1416032Y935019D01*
X1416042Y934919D01*
X1416048Y934820D01*
X1416050Y934720D01*
X1398270Y937260D02*
X1398170Y937258D01*
X1398071Y937252D01*
X1397971Y937242D01*
X1397873Y937229D01*
X1397774Y937211D01*
X1397677Y937190D01*
X1397581Y937165D01*
X1397485Y937136D01*
X1397391Y937103D01*
X1397298Y937067D01*
X1397207Y937027D01*
X1397117Y936983D01*
X1397029Y936936D01*
X1396943Y936886D01*
X1396859Y936832D01*
X1396777Y936775D01*
X1396698Y936715D01*
X1396620Y936651D01*
X1396546Y936585D01*
X1396474Y936516D01*
X1396405Y936444D01*
X1396339Y936370D01*
X1396275Y936292D01*
X1396215Y936213D01*
X1396158Y936131D01*
X1396104Y936047D01*
X1396054Y935961D01*
X1396007Y935873D01*
X1395963Y935783D01*
X1395923Y935692D01*
X1395887Y935599D01*
X1395854Y935505D01*
X1395825Y935409D01*
X1395800Y935313D01*
X1395779Y935216D01*
X1395761Y935117D01*
X1395748Y935019D01*
X1395738Y934919D01*
X1395732Y934820D01*
X1395730Y934720D01*
X1395730Y889000D02*
X1395732Y888900D01*
X1395738Y888801D01*
X1395748Y888701D01*
X1395761Y888603D01*
X1395779Y888504D01*
X1395800Y888407D01*
X1395825Y888311D01*
X1395854Y888215D01*
X1395887Y888121D01*
X1395923Y888028D01*
X1395963Y887937D01*
X1396007Y887847D01*
X1396054Y887759D01*
X1396104Y887673D01*
X1396158Y887589D01*
X1396215Y887507D01*
X1396275Y887428D01*
X1396339Y887350D01*
X1396405Y887276D01*
X1396474Y887204D01*
X1396546Y887135D01*
X1396620Y887069D01*
X1396698Y887005D01*
X1396777Y886945D01*
X1396859Y886888D01*
X1396943Y886834D01*
X1397029Y886784D01*
X1397117Y886737D01*
X1397207Y886693D01*
X1397298Y886653D01*
X1397391Y886617D01*
X1397485Y886584D01*
X1397581Y886555D01*
X1397677Y886530D01*
X1397774Y886509D01*
X1397873Y886491D01*
X1397971Y886478D01*
X1398071Y886468D01*
X1398170Y886462D01*
X1398270Y886460D01*
X1413510Y886460D02*
X1413610Y886462D01*
X1413709Y886468D01*
X1413809Y886478D01*
X1413907Y886491D01*
X1414006Y886509D01*
X1414103Y886530D01*
X1414199Y886555D01*
X1414295Y886584D01*
X1414389Y886617D01*
X1414482Y886653D01*
X1414573Y886693D01*
X1414663Y886737D01*
X1414751Y886784D01*
X1414837Y886834D01*
X1414921Y886888D01*
X1415003Y886945D01*
X1415082Y887005D01*
X1415160Y887069D01*
X1415234Y887135D01*
X1415306Y887204D01*
X1415375Y887276D01*
X1415441Y887350D01*
X1415505Y887428D01*
X1415565Y887507D01*
X1415622Y887589D01*
X1415676Y887673D01*
X1415726Y887759D01*
X1415773Y887847D01*
X1415817Y887937D01*
X1415857Y888028D01*
X1415893Y888121D01*
X1415926Y888215D01*
X1415955Y888311D01*
X1415980Y888407D01*
X1416001Y888504D01*
X1416019Y888603D01*
X1416032Y888701D01*
X1416042Y888801D01*
X1416048Y888900D01*
X1416050Y889000D01*
X1413510Y937260D02*
X1398270Y937260D01*
X1416050Y934720D02*
X1416050Y930910D01*
X1414780Y929640D01*
X1395730Y930910D02*
X1395730Y934720D01*
X1395730Y930910D02*
X1397000Y929640D01*
X1414780Y894080D02*
X1416050Y892810D01*
X1414780Y894080D02*
X1414780Y929640D01*
X1397000Y894080D02*
X1395730Y892810D01*
X1397000Y894080D02*
X1397000Y929640D01*
X1416050Y892810D02*
X1416050Y889000D01*
X1395730Y889000D02*
X1395730Y892810D01*
X1398270Y886460D02*
X1413510Y886460D01*
D12*
X1419344Y910404D02*
X1428242Y910404D01*
X1428242Y916336D01*
X1428242Y919525D02*
X1419344Y919525D01*
X1428242Y919525D02*
X1428242Y923974D01*
X1426759Y925457D01*
X1420827Y925457D01*
X1419344Y923974D01*
X1419344Y919525D01*
X1419344Y928647D02*
X1428242Y928647D01*
X1419344Y928647D02*
X1419344Y933095D01*
X1420827Y934578D01*
X1423793Y934578D01*
X1425276Y933095D01*
X1425276Y928647D01*
X1425276Y931613D02*
X1428242Y934578D01*
D13*
X1405890Y884555D03*
X1405890Y939165D03*
D12*
X1368776Y837702D02*
X1368776Y826008D01*
X1368776Y837702D02*
X1374623Y837702D01*
X1376572Y835753D01*
X1376572Y831855D01*
X1374623Y829906D01*
X1368776Y829906D01*
X1372674Y829906D02*
X1376572Y826008D01*
X1380470Y833804D02*
X1384368Y837702D01*
X1384368Y826008D01*
X1380470Y826008D02*
X1388266Y826008D01*
X1392164Y837702D02*
X1399960Y837702D01*
X1392164Y837702D02*
X1392164Y831855D01*
X1396062Y833804D01*
X1398011Y833804D01*
X1399960Y831855D01*
X1399960Y827957D01*
X1398011Y826008D01*
X1394113Y826008D01*
X1392164Y827957D01*
X603318Y767852D02*
X603318Y756158D01*
X599420Y767852D02*
X607216Y767852D01*
X611114Y763954D02*
X615012Y767852D01*
X615012Y756158D01*
X611114Y756158D02*
X618910Y756158D01*
X850968Y615452D02*
X850968Y603758D01*
X847070Y615452D02*
X854866Y615452D01*
X858764Y603758D02*
X866560Y603758D01*
X858764Y603758D02*
X866560Y611554D01*
X866560Y613503D01*
X864611Y615452D01*
X860713Y615452D01*
X858764Y613503D01*
X812868Y615452D02*
X812868Y603758D01*
X808970Y615452D02*
X816766Y615452D01*
X820664Y613503D02*
X822613Y615452D01*
X826511Y615452D01*
X828460Y613503D01*
X828460Y611554D01*
X826511Y609605D01*
X824562Y609605D01*
X826511Y609605D02*
X828460Y607656D01*
X828460Y605707D01*
X826511Y603758D01*
X822613Y603758D01*
X820664Y605707D01*
X774768Y603758D02*
X774768Y615452D01*
X770870Y615452D02*
X778666Y615452D01*
X788411Y615452D02*
X788411Y603758D01*
X782564Y609605D02*
X788411Y615452D01*
X790360Y609605D02*
X782564Y609605D01*
X736668Y603758D02*
X736668Y615452D01*
X732770Y615452D02*
X740566Y615452D01*
X744464Y615452D02*
X752260Y615452D01*
X744464Y615452D02*
X744464Y609605D01*
X748362Y611554D01*
X750311Y611554D01*
X752260Y609605D01*
X752260Y605707D01*
X750311Y603758D01*
X746413Y603758D01*
X744464Y605707D01*
X698568Y603758D02*
X698568Y615452D01*
X694670Y615452D02*
X702466Y615452D01*
X710262Y613503D02*
X714160Y615452D01*
X710262Y613503D02*
X706364Y609605D01*
X706364Y605707D01*
X708313Y603758D01*
X712211Y603758D01*
X714160Y605707D01*
X714160Y607656D01*
X712211Y609605D01*
X706364Y609605D01*
X660468Y603758D02*
X660468Y615452D01*
X656570Y615452D02*
X664366Y615452D01*
X668264Y615452D02*
X676060Y615452D01*
X676060Y613503D01*
X668264Y605707D01*
X668264Y603758D01*
X489018Y756158D02*
X489018Y767852D01*
X485120Y767852D02*
X492916Y767852D01*
X496814Y765903D02*
X498763Y767852D01*
X502661Y767852D01*
X504610Y765903D01*
X504610Y763954D01*
X502661Y762005D01*
X504610Y760056D01*
X504610Y758107D01*
X502661Y756158D01*
X498763Y756158D01*
X496814Y758107D01*
X496814Y760056D01*
X498763Y762005D01*
X496814Y763954D01*
X496814Y765903D01*
X498763Y762005D02*
X502661Y762005D01*
X527118Y756158D02*
X527118Y767852D01*
X523220Y767852D02*
X531016Y767852D01*
X534914Y758107D02*
X536863Y756158D01*
X540761Y756158D01*
X542710Y758107D01*
X542710Y765903D01*
X540761Y767852D01*
X536863Y767852D01*
X534914Y765903D01*
X534914Y763954D01*
X536863Y762005D01*
X542710Y762005D01*
X553524Y756158D02*
X553524Y767852D01*
X549626Y767852D02*
X557422Y767852D01*
X561320Y763954D02*
X565218Y767852D01*
X565218Y756158D01*
X561320Y756158D02*
X569116Y756158D01*
X573014Y758107D02*
X573014Y765903D01*
X574963Y767852D01*
X578861Y767852D01*
X580810Y765903D01*
X580810Y758107D01*
X578861Y756158D01*
X574963Y756158D01*
X573014Y758107D01*
X580810Y765903D01*
X1232398Y744024D02*
X1244092Y744024D01*
X1232398Y740126D02*
X1232398Y747922D01*
X1236296Y751820D02*
X1232398Y755718D01*
X1244092Y755718D01*
X1244092Y751820D02*
X1244092Y759616D01*
X1244092Y769361D02*
X1232398Y769361D01*
X1238245Y763514D01*
X1238245Y771310D01*
X964692Y744024D02*
X952998Y744024D01*
X952998Y740126D02*
X952998Y747922D01*
X956896Y751820D02*
X952998Y755718D01*
X964692Y755718D01*
X964692Y751820D02*
X964692Y759616D01*
X954947Y763514D02*
X952998Y765463D01*
X952998Y769361D01*
X954947Y771310D01*
X956896Y771310D01*
X958845Y769361D01*
X958845Y767412D01*
X958845Y769361D02*
X960794Y771310D01*
X962743Y771310D01*
X964692Y769361D01*
X964692Y765463D01*
X962743Y763514D01*
X443992Y744024D02*
X432298Y744024D01*
X432298Y740126D02*
X432298Y747922D01*
X436196Y751820D02*
X432298Y755718D01*
X443992Y755718D01*
X443992Y751820D02*
X443992Y759616D01*
X443992Y763514D02*
X443992Y771310D01*
X443992Y763514D02*
X436196Y771310D01*
X434247Y771310D01*
X432298Y769361D01*
X432298Y765463D01*
X434247Y763514D01*
X228092Y744024D02*
X216398Y744024D01*
X216398Y740126D02*
X216398Y747922D01*
X220296Y751820D02*
X216398Y755718D01*
X228092Y755718D01*
X228092Y751820D02*
X228092Y759616D01*
X220296Y763514D02*
X216398Y767412D01*
X228092Y767412D01*
X228092Y763514D02*
X228092Y771310D01*
D10*
X127000Y831850D02*
X127000Y844550D01*
X133350Y850900D01*
X146050Y850900D02*
X152400Y844550D01*
X133350Y850900D02*
X127000Y857250D01*
X127000Y869950D01*
X133350Y876300D01*
X146050Y876300D02*
X152400Y869950D01*
X152400Y857250D01*
X146050Y850900D01*
X146050Y825500D02*
X133350Y825500D01*
X127000Y831850D01*
X146050Y825500D02*
X152400Y831850D01*
X152400Y844550D01*
X133350Y876300D02*
X127000Y882650D01*
X127000Y895350D01*
X133350Y901700D01*
X146050Y901700D02*
X152400Y895350D01*
X152400Y882650D01*
X146050Y876300D01*
X127000Y908050D02*
X127000Y920750D01*
X133350Y927100D01*
X146050Y927100D02*
X152400Y920750D01*
X133350Y927100D02*
X127000Y933450D01*
X127000Y946150D01*
X133350Y952500D01*
X146050Y952500D01*
X152400Y946150D01*
X152400Y933450D01*
X146050Y927100D01*
X127000Y908050D02*
X133350Y901700D01*
X146050Y901700D02*
X152400Y908050D01*
X152400Y920750D01*
D11*
X113022Y833762D02*
X111115Y831855D01*
X111115Y828042D01*
X113022Y826135D01*
X114929Y826135D01*
X116835Y828042D01*
X116835Y831855D01*
X118742Y833762D01*
X120648Y833762D01*
X122555Y831855D01*
X122555Y828042D01*
X120648Y826135D01*
X118742Y837829D02*
X111115Y837829D01*
X118742Y837829D02*
X122555Y841642D01*
X118742Y845455D01*
X111115Y845455D01*
X111115Y849523D02*
X111115Y857149D01*
X113022Y857149D01*
X120648Y849523D01*
X122555Y849523D01*
X156835Y836298D02*
X160649Y832485D01*
X156835Y836298D02*
X168275Y836298D01*
X168275Y832485D02*
X168275Y840112D01*
X111115Y934085D02*
X111115Y941712D01*
X111115Y934085D02*
X116835Y934085D01*
X114929Y937898D01*
X114929Y939805D01*
X116835Y941712D01*
X120648Y941712D01*
X122555Y939805D01*
X122555Y935992D01*
X120648Y934085D01*
D12*
X642625Y338592D02*
X644574Y336643D01*
X642625Y338592D02*
X638727Y338592D01*
X636778Y336643D01*
X636778Y328847D01*
X638727Y326898D01*
X642625Y326898D01*
X644574Y328847D01*
X648472Y326898D02*
X656268Y326898D01*
X648472Y326898D02*
X656268Y334694D01*
X656268Y336643D01*
X654319Y338592D01*
X650421Y338592D01*
X648472Y336643D01*
X644574Y360773D02*
X642625Y362722D01*
X638727Y362722D01*
X636778Y360773D01*
X636778Y352977D01*
X638727Y351028D01*
X642625Y351028D01*
X644574Y352977D01*
X648472Y360773D02*
X650421Y362722D01*
X654319Y362722D01*
X656268Y360773D01*
X656268Y358824D01*
X654319Y356875D01*
X652370Y356875D01*
X654319Y356875D02*
X656268Y354926D01*
X656268Y352977D01*
X654319Y351028D01*
X650421Y351028D01*
X648472Y352977D01*
X248148Y910067D02*
X250097Y912016D01*
X248148Y910067D02*
X248148Y906169D01*
X250097Y904220D01*
X257893Y904220D01*
X259842Y906169D01*
X259842Y910067D01*
X257893Y912016D01*
X259842Y921761D02*
X248148Y921761D01*
X253995Y915914D01*
X253995Y923710D01*
X279898Y910067D02*
X281847Y912016D01*
X279898Y910067D02*
X279898Y906169D01*
X281847Y904220D01*
X289643Y904220D01*
X291592Y906169D01*
X291592Y910067D01*
X289643Y912016D01*
X279898Y915914D02*
X279898Y923710D01*
X279898Y915914D02*
X285745Y915914D01*
X283796Y919812D01*
X283796Y921761D01*
X285745Y923710D01*
X289643Y923710D01*
X291592Y921761D01*
X291592Y917863D01*
X289643Y915914D01*
X154847Y884604D02*
X152898Y882655D01*
X152898Y878757D01*
X154847Y876808D01*
X162643Y876808D01*
X164592Y878757D01*
X164592Y882655D01*
X162643Y884604D01*
X154847Y892400D02*
X152898Y896298D01*
X154847Y892400D02*
X158745Y888502D01*
X162643Y888502D01*
X164592Y890451D01*
X164592Y894349D01*
X162643Y896298D01*
X160694Y896298D01*
X158745Y894349D01*
X158745Y888502D01*
X178298Y882655D02*
X180247Y884604D01*
X178298Y882655D02*
X178298Y878757D01*
X180247Y876808D01*
X188043Y876808D01*
X189992Y878757D01*
X189992Y882655D01*
X188043Y884604D01*
X178298Y888502D02*
X178298Y896298D01*
X180247Y896298D01*
X188043Y888502D01*
X189992Y888502D01*
X192947Y842166D02*
X190998Y840217D01*
X190998Y836319D01*
X192947Y834370D01*
X200743Y834370D01*
X202692Y836319D01*
X202692Y840217D01*
X200743Y842166D01*
X192947Y846064D02*
X190998Y848013D01*
X190998Y851911D01*
X192947Y853860D01*
X194896Y853860D01*
X196845Y851911D01*
X198794Y853860D01*
X200743Y853860D01*
X202692Y851911D01*
X202692Y848013D01*
X200743Y846064D01*
X198794Y846064D01*
X196845Y848013D01*
X194896Y846064D01*
X192947Y846064D01*
X196845Y848013D02*
X196845Y851911D01*
X216398Y840217D02*
X218347Y842166D01*
X216398Y840217D02*
X216398Y836319D01*
X218347Y834370D01*
X226143Y834370D01*
X228092Y836319D01*
X228092Y840217D01*
X226143Y842166D01*
X226143Y846064D02*
X228092Y848013D01*
X228092Y851911D01*
X226143Y853860D01*
X218347Y853860D01*
X216398Y851911D01*
X216398Y848013D01*
X218347Y846064D01*
X220296Y846064D01*
X222245Y848013D01*
X222245Y853860D01*
D11*
X927100Y971550D02*
X1346200Y971550D01*
X1358900Y971550D01*
X1358900Y958850D01*
X1358900Y920750D01*
X1358900Y844550D01*
X1358900Y806450D01*
X1358900Y793750D01*
X1346200Y793750D01*
X939800Y793750D01*
X927100Y793750D01*
X927100Y806450D01*
X927100Y908050D01*
X927100Y971550D01*
X927100Y908050D02*
X914400Y908050D01*
X914400Y857250D01*
X977900Y857250D02*
X977900Y908050D01*
X927100Y908050D01*
X914400Y857250D02*
X977900Y857250D01*
D12*
X991108Y883158D02*
X991108Y890954D01*
X995006Y894852D01*
X998904Y890954D01*
X998904Y883158D01*
X998904Y889005D02*
X991108Y889005D01*
X1002802Y883158D02*
X1002802Y894852D01*
X1008649Y894852D01*
X1010598Y892903D01*
X1010598Y889005D01*
X1008649Y887056D01*
X1002802Y887056D01*
X1006700Y887056D02*
X1010598Y883158D01*
X1014496Y883158D02*
X1014496Y894852D01*
X1014496Y883158D02*
X1020343Y883158D01*
X1022292Y885107D01*
X1022292Y892903D01*
X1020343Y894852D01*
X1014496Y894852D01*
X1026190Y894852D02*
X1026190Y885107D01*
X1028139Y883158D01*
X1032037Y883158D01*
X1033986Y885107D01*
X1033986Y894852D01*
X1037884Y883158D02*
X1041782Y883158D01*
X1039833Y883158D02*
X1039833Y894852D01*
X1037884Y894852D02*
X1041782Y894852D01*
X1045680Y894852D02*
X1045680Y883158D01*
X1053476Y883158D02*
X1045680Y894852D01*
X1053476Y894852D02*
X1053476Y883158D01*
X1059323Y894852D02*
X1063221Y894852D01*
X1059323Y894852D02*
X1057374Y892903D01*
X1057374Y885107D01*
X1059323Y883158D01*
X1063221Y883158D01*
X1065170Y885107D01*
X1065170Y892903D01*
X1063221Y894852D01*
X1069068Y881209D02*
X1076864Y881209D01*
X1080762Y883158D02*
X1080762Y894852D01*
X1088558Y883158D01*
X1088558Y894852D01*
X1092456Y890954D02*
X1092456Y883158D01*
X1092456Y890954D02*
X1096354Y894852D01*
X1100252Y890954D01*
X1100252Y883158D01*
X1100252Y889005D02*
X1092456Y889005D01*
X1104150Y883158D02*
X1104150Y894852D01*
X1111946Y883158D01*
X1111946Y894852D01*
X1117793Y894852D02*
X1121691Y894852D01*
X1117793Y894852D02*
X1115844Y892903D01*
X1115844Y885107D01*
X1117793Y883158D01*
X1121691Y883158D01*
X1123640Y885107D01*
X1123640Y892903D01*
X1121691Y894852D01*
X1127538Y890954D02*
X1131436Y894852D01*
X1131436Y883158D01*
X1127538Y883158D02*
X1135334Y883158D01*
D11*
X1150439Y882650D02*
X1150444Y883091D01*
X1150461Y883531D01*
X1150488Y883971D01*
X1150525Y884410D01*
X1150574Y884849D01*
X1150633Y885285D01*
X1150703Y885721D01*
X1150784Y886154D01*
X1150875Y886585D01*
X1150977Y887014D01*
X1151090Y887440D01*
X1151212Y887864D01*
X1151346Y888284D01*
X1151489Y888701D01*
X1151643Y889114D01*
X1151806Y889523D01*
X1151980Y889929D01*
X1152163Y890329D01*
X1152357Y890725D01*
X1152560Y891117D01*
X1152772Y891503D01*
X1152994Y891884D01*
X1153226Y892259D01*
X1153466Y892629D01*
X1153715Y892992D01*
X1153974Y893349D01*
X1154241Y893700D01*
X1154516Y894044D01*
X1154800Y894382D01*
X1155092Y894712D01*
X1155392Y895035D01*
X1155700Y895350D01*
X1156015Y895658D01*
X1156338Y895958D01*
X1156668Y896250D01*
X1157006Y896534D01*
X1157350Y896809D01*
X1157701Y897076D01*
X1158058Y897335D01*
X1158421Y897584D01*
X1158791Y897824D01*
X1159166Y898056D01*
X1159547Y898278D01*
X1159933Y898490D01*
X1160325Y898693D01*
X1160721Y898887D01*
X1161121Y899070D01*
X1161527Y899244D01*
X1161936Y899407D01*
X1162349Y899561D01*
X1162766Y899704D01*
X1163186Y899838D01*
X1163610Y899960D01*
X1164036Y900073D01*
X1164465Y900175D01*
X1164896Y900266D01*
X1165329Y900347D01*
X1165765Y900417D01*
X1166201Y900476D01*
X1166640Y900525D01*
X1167079Y900562D01*
X1167519Y900589D01*
X1167959Y900606D01*
X1168400Y900611D01*
X1168841Y900606D01*
X1169281Y900589D01*
X1169721Y900562D01*
X1170160Y900525D01*
X1170599Y900476D01*
X1171035Y900417D01*
X1171471Y900347D01*
X1171904Y900266D01*
X1172335Y900175D01*
X1172764Y900073D01*
X1173190Y899960D01*
X1173614Y899838D01*
X1174034Y899704D01*
X1174451Y899561D01*
X1174864Y899407D01*
X1175273Y899244D01*
X1175679Y899070D01*
X1176079Y898887D01*
X1176475Y898693D01*
X1176867Y898490D01*
X1177253Y898278D01*
X1177634Y898056D01*
X1178009Y897824D01*
X1178379Y897584D01*
X1178742Y897335D01*
X1179099Y897076D01*
X1179450Y896809D01*
X1179794Y896534D01*
X1180132Y896250D01*
X1180462Y895958D01*
X1180785Y895658D01*
X1181100Y895350D01*
X1181408Y895035D01*
X1181708Y894712D01*
X1182000Y894382D01*
X1182284Y894044D01*
X1182559Y893700D01*
X1182826Y893349D01*
X1183085Y892992D01*
X1183334Y892629D01*
X1183574Y892259D01*
X1183806Y891884D01*
X1184028Y891503D01*
X1184240Y891117D01*
X1184443Y890725D01*
X1184637Y890329D01*
X1184820Y889929D01*
X1184994Y889523D01*
X1185157Y889114D01*
X1185311Y888701D01*
X1185454Y888284D01*
X1185588Y887864D01*
X1185710Y887440D01*
X1185823Y887014D01*
X1185925Y886585D01*
X1186016Y886154D01*
X1186097Y885721D01*
X1186167Y885285D01*
X1186226Y884849D01*
X1186275Y884410D01*
X1186312Y883971D01*
X1186339Y883531D01*
X1186356Y883091D01*
X1186361Y882650D01*
X1186356Y882209D01*
X1186339Y881769D01*
X1186312Y881329D01*
X1186275Y880890D01*
X1186226Y880451D01*
X1186167Y880015D01*
X1186097Y879579D01*
X1186016Y879146D01*
X1185925Y878715D01*
X1185823Y878286D01*
X1185710Y877860D01*
X1185588Y877436D01*
X1185454Y877016D01*
X1185311Y876599D01*
X1185157Y876186D01*
X1184994Y875777D01*
X1184820Y875371D01*
X1184637Y874971D01*
X1184443Y874575D01*
X1184240Y874183D01*
X1184028Y873797D01*
X1183806Y873416D01*
X1183574Y873041D01*
X1183334Y872671D01*
X1183085Y872308D01*
X1182826Y871951D01*
X1182559Y871600D01*
X1182284Y871256D01*
X1182000Y870918D01*
X1181708Y870588D01*
X1181408Y870265D01*
X1181100Y869950D01*
X1180785Y869642D01*
X1180462Y869342D01*
X1180132Y869050D01*
X1179794Y868766D01*
X1179450Y868491D01*
X1179099Y868224D01*
X1178742Y867965D01*
X1178379Y867716D01*
X1178009Y867476D01*
X1177634Y867244D01*
X1177253Y867022D01*
X1176867Y866810D01*
X1176475Y866607D01*
X1176079Y866413D01*
X1175679Y866230D01*
X1175273Y866056D01*
X1174864Y865893D01*
X1174451Y865739D01*
X1174034Y865596D01*
X1173614Y865462D01*
X1173190Y865340D01*
X1172764Y865227D01*
X1172335Y865125D01*
X1171904Y865034D01*
X1171471Y864953D01*
X1171035Y864883D01*
X1170599Y864824D01*
X1170160Y864775D01*
X1169721Y864738D01*
X1169281Y864711D01*
X1168841Y864694D01*
X1168400Y864689D01*
X1167959Y864694D01*
X1167519Y864711D01*
X1167079Y864738D01*
X1166640Y864775D01*
X1166201Y864824D01*
X1165765Y864883D01*
X1165329Y864953D01*
X1164896Y865034D01*
X1164465Y865125D01*
X1164036Y865227D01*
X1163610Y865340D01*
X1163186Y865462D01*
X1162766Y865596D01*
X1162349Y865739D01*
X1161936Y865893D01*
X1161527Y866056D01*
X1161121Y866230D01*
X1160721Y866413D01*
X1160325Y866607D01*
X1159933Y866810D01*
X1159547Y867022D01*
X1159166Y867244D01*
X1158791Y867476D01*
X1158421Y867716D01*
X1158058Y867965D01*
X1157701Y868224D01*
X1157350Y868491D01*
X1157006Y868766D01*
X1156668Y869050D01*
X1156338Y869342D01*
X1156015Y869642D01*
X1155700Y869950D01*
X1155392Y870265D01*
X1155092Y870588D01*
X1154800Y870918D01*
X1154516Y871256D01*
X1154241Y871600D01*
X1153974Y871951D01*
X1153715Y872308D01*
X1153466Y872671D01*
X1153226Y873041D01*
X1152994Y873416D01*
X1152772Y873797D01*
X1152560Y874183D01*
X1152357Y874575D01*
X1152163Y874971D01*
X1151980Y875371D01*
X1151806Y875777D01*
X1151643Y876186D01*
X1151489Y876599D01*
X1151346Y877016D01*
X1151212Y877436D01*
X1151090Y877860D01*
X1150977Y878286D01*
X1150875Y878715D01*
X1150784Y879146D01*
X1150703Y879579D01*
X1150633Y880015D01*
X1150574Y880451D01*
X1150525Y880890D01*
X1150488Y881329D01*
X1150461Y881769D01*
X1150444Y882209D01*
X1150439Y882650D01*
D14*
X1190111Y865568D02*
X1197483Y865568D01*
X1190111Y865568D02*
X1190111Y869254D01*
X1191339Y870483D01*
X1193797Y870483D01*
X1195026Y869254D01*
X1195026Y865568D01*
X1195026Y868025D02*
X1197483Y870483D01*
X1197483Y874281D02*
X1197483Y876738D01*
X1197483Y874281D02*
X1196254Y873052D01*
X1193797Y873052D01*
X1192568Y874281D01*
X1192568Y876738D01*
X1193797Y877967D01*
X1195026Y877967D01*
X1195026Y873052D01*
X1197483Y880536D02*
X1197483Y884222D01*
X1196254Y885451D01*
X1195026Y884222D01*
X1195026Y881765D01*
X1193797Y880536D01*
X1192568Y881765D01*
X1192568Y885451D01*
X1197483Y889249D02*
X1197483Y891707D01*
X1197483Y889249D02*
X1196254Y888020D01*
X1193797Y888020D01*
X1192568Y889249D01*
X1192568Y891707D01*
X1193797Y892935D01*
X1195026Y892935D01*
X1195026Y888020D01*
X1196254Y896733D02*
X1191339Y896733D01*
X1196254Y896733D02*
X1197483Y897962D01*
X1192568Y897962D02*
X1192568Y895505D01*
X968716Y828937D02*
X965581Y825802D01*
X968716Y828937D02*
X968716Y819531D01*
X965581Y819531D02*
X971852Y819531D01*
D15*
X950722Y867936D02*
X945129Y867936D01*
X946994Y869800D01*
X945129Y871664D01*
X950722Y871664D01*
X946994Y873549D02*
X946994Y874481D01*
X950722Y874481D01*
X950722Y873549D02*
X950722Y875413D01*
X945129Y874481D02*
X944197Y874481D01*
X946994Y877291D02*
X950722Y877291D01*
X946994Y877291D02*
X946994Y880087D01*
X947926Y881019D01*
X950722Y881019D01*
X946994Y882904D02*
X946994Y883836D01*
X950722Y883836D01*
X950722Y882904D02*
X950722Y884768D01*
X945129Y883836D02*
X944197Y883836D01*
X947926Y886646D02*
X947926Y890375D01*
X950722Y892259D02*
X945129Y892259D01*
X945129Y895055D01*
X946061Y895988D01*
X946994Y895988D01*
X947926Y895055D01*
X948858Y895988D01*
X949790Y895988D01*
X950722Y895055D01*
X950722Y892259D01*
X947926Y892259D02*
X947926Y895055D01*
X954273Y874484D02*
X958934Y874484D01*
X959866Y875416D01*
X959866Y877281D01*
X958934Y878213D01*
X954273Y878213D01*
X954273Y882894D02*
X955205Y883826D01*
X954273Y882894D02*
X954273Y881030D01*
X955205Y880097D01*
X956138Y880097D01*
X957070Y881030D01*
X957070Y882894D01*
X958002Y883826D01*
X958934Y883826D01*
X959866Y882894D01*
X959866Y881030D01*
X958934Y880097D01*
X959866Y885711D02*
X954273Y885711D01*
X954273Y888507D01*
X955205Y889439D01*
X956138Y889439D01*
X957070Y888507D01*
X958002Y889439D01*
X958934Y889439D01*
X959866Y888507D01*
X959866Y885711D01*
X957070Y885711D02*
X957070Y888507D01*
D11*
X1308100Y920750D02*
X1358900Y920750D01*
X1308100Y920750D02*
X1308100Y844550D01*
X1358900Y844550D01*
X1338200Y857250D02*
X1338202Y857446D01*
X1338210Y857643D01*
X1338222Y857839D01*
X1338239Y858034D01*
X1338260Y858229D01*
X1338287Y858424D01*
X1338318Y858618D01*
X1338354Y858811D01*
X1338394Y859003D01*
X1338440Y859194D01*
X1338490Y859384D01*
X1338544Y859572D01*
X1338604Y859759D01*
X1338668Y859945D01*
X1338736Y860129D01*
X1338809Y860311D01*
X1338886Y860492D01*
X1338968Y860670D01*
X1339054Y860847D01*
X1339145Y861021D01*
X1339239Y861193D01*
X1339338Y861363D01*
X1339441Y861530D01*
X1339548Y861695D01*
X1339659Y861856D01*
X1339774Y862016D01*
X1339893Y862172D01*
X1340016Y862325D01*
X1340142Y862475D01*
X1340272Y862622D01*
X1340406Y862766D01*
X1340543Y862907D01*
X1340684Y863044D01*
X1340828Y863178D01*
X1340975Y863308D01*
X1341125Y863434D01*
X1341278Y863557D01*
X1341434Y863676D01*
X1341594Y863791D01*
X1341755Y863902D01*
X1341920Y864009D01*
X1342087Y864112D01*
X1342257Y864211D01*
X1342429Y864305D01*
X1342603Y864396D01*
X1342780Y864482D01*
X1342958Y864564D01*
X1343139Y864641D01*
X1343321Y864714D01*
X1343505Y864782D01*
X1343691Y864846D01*
X1343878Y864906D01*
X1344066Y864960D01*
X1344256Y865010D01*
X1344447Y865056D01*
X1344639Y865096D01*
X1344832Y865132D01*
X1345026Y865163D01*
X1345221Y865190D01*
X1345416Y865211D01*
X1345611Y865228D01*
X1345807Y865240D01*
X1346004Y865248D01*
X1346200Y865250D01*
X1346396Y865248D01*
X1346593Y865240D01*
X1346789Y865228D01*
X1346984Y865211D01*
X1347179Y865190D01*
X1347374Y865163D01*
X1347568Y865132D01*
X1347761Y865096D01*
X1347953Y865056D01*
X1348144Y865010D01*
X1348334Y864960D01*
X1348522Y864906D01*
X1348709Y864846D01*
X1348895Y864782D01*
X1349079Y864714D01*
X1349261Y864641D01*
X1349442Y864564D01*
X1349620Y864482D01*
X1349797Y864396D01*
X1349971Y864305D01*
X1350143Y864211D01*
X1350313Y864112D01*
X1350480Y864009D01*
X1350645Y863902D01*
X1350806Y863791D01*
X1350966Y863676D01*
X1351122Y863557D01*
X1351275Y863434D01*
X1351425Y863308D01*
X1351572Y863178D01*
X1351716Y863044D01*
X1351857Y862907D01*
X1351994Y862766D01*
X1352128Y862622D01*
X1352258Y862475D01*
X1352384Y862325D01*
X1352507Y862172D01*
X1352626Y862016D01*
X1352741Y861856D01*
X1352852Y861695D01*
X1352959Y861530D01*
X1353062Y861363D01*
X1353161Y861193D01*
X1353255Y861021D01*
X1353346Y860847D01*
X1353432Y860670D01*
X1353514Y860492D01*
X1353591Y860311D01*
X1353664Y860129D01*
X1353732Y859945D01*
X1353796Y859759D01*
X1353856Y859572D01*
X1353910Y859384D01*
X1353960Y859194D01*
X1354006Y859003D01*
X1354046Y858811D01*
X1354082Y858618D01*
X1354113Y858424D01*
X1354140Y858229D01*
X1354161Y858034D01*
X1354178Y857839D01*
X1354190Y857643D01*
X1354198Y857446D01*
X1354200Y857250D01*
X1354198Y857054D01*
X1354190Y856857D01*
X1354178Y856661D01*
X1354161Y856466D01*
X1354140Y856271D01*
X1354113Y856076D01*
X1354082Y855882D01*
X1354046Y855689D01*
X1354006Y855497D01*
X1353960Y855306D01*
X1353910Y855116D01*
X1353856Y854928D01*
X1353796Y854741D01*
X1353732Y854555D01*
X1353664Y854371D01*
X1353591Y854189D01*
X1353514Y854008D01*
X1353432Y853830D01*
X1353346Y853653D01*
X1353255Y853479D01*
X1353161Y853307D01*
X1353062Y853137D01*
X1352959Y852970D01*
X1352852Y852805D01*
X1352741Y852644D01*
X1352626Y852484D01*
X1352507Y852328D01*
X1352384Y852175D01*
X1352258Y852025D01*
X1352128Y851878D01*
X1351994Y851734D01*
X1351857Y851593D01*
X1351716Y851456D01*
X1351572Y851322D01*
X1351425Y851192D01*
X1351275Y851066D01*
X1351122Y850943D01*
X1350966Y850824D01*
X1350806Y850709D01*
X1350645Y850598D01*
X1350480Y850491D01*
X1350313Y850388D01*
X1350143Y850289D01*
X1349971Y850195D01*
X1349797Y850104D01*
X1349620Y850018D01*
X1349442Y849936D01*
X1349261Y849859D01*
X1349079Y849786D01*
X1348895Y849718D01*
X1348709Y849654D01*
X1348522Y849594D01*
X1348334Y849540D01*
X1348144Y849490D01*
X1347953Y849444D01*
X1347761Y849404D01*
X1347568Y849368D01*
X1347374Y849337D01*
X1347179Y849310D01*
X1346984Y849289D01*
X1346789Y849272D01*
X1346593Y849260D01*
X1346396Y849252D01*
X1346200Y849250D01*
X1346004Y849252D01*
X1345807Y849260D01*
X1345611Y849272D01*
X1345416Y849289D01*
X1345221Y849310D01*
X1345026Y849337D01*
X1344832Y849368D01*
X1344639Y849404D01*
X1344447Y849444D01*
X1344256Y849490D01*
X1344066Y849540D01*
X1343878Y849594D01*
X1343691Y849654D01*
X1343505Y849718D01*
X1343321Y849786D01*
X1343139Y849859D01*
X1342958Y849936D01*
X1342780Y850018D01*
X1342603Y850104D01*
X1342429Y850195D01*
X1342257Y850289D01*
X1342087Y850388D01*
X1341920Y850491D01*
X1341755Y850598D01*
X1341594Y850709D01*
X1341434Y850824D01*
X1341278Y850943D01*
X1341125Y851066D01*
X1340975Y851192D01*
X1340828Y851322D01*
X1340684Y851456D01*
X1340543Y851593D01*
X1340406Y851734D01*
X1340272Y851878D01*
X1340142Y852025D01*
X1340016Y852175D01*
X1339893Y852328D01*
X1339774Y852484D01*
X1339659Y852644D01*
X1339548Y852805D01*
X1339441Y852970D01*
X1339338Y853137D01*
X1339239Y853307D01*
X1339145Y853479D01*
X1339054Y853653D01*
X1338968Y853830D01*
X1338886Y854008D01*
X1338809Y854189D01*
X1338736Y854371D01*
X1338668Y854555D01*
X1338604Y854741D01*
X1338544Y854928D01*
X1338490Y855116D01*
X1338440Y855306D01*
X1338394Y855497D01*
X1338354Y855689D01*
X1338318Y855882D01*
X1338287Y856076D01*
X1338260Y856271D01*
X1338239Y856466D01*
X1338222Y856661D01*
X1338210Y856857D01*
X1338202Y857054D01*
X1338200Y857250D01*
X1338200Y882650D02*
X1338202Y882846D01*
X1338210Y883043D01*
X1338222Y883239D01*
X1338239Y883434D01*
X1338260Y883629D01*
X1338287Y883824D01*
X1338318Y884018D01*
X1338354Y884211D01*
X1338394Y884403D01*
X1338440Y884594D01*
X1338490Y884784D01*
X1338544Y884972D01*
X1338604Y885159D01*
X1338668Y885345D01*
X1338736Y885529D01*
X1338809Y885711D01*
X1338886Y885892D01*
X1338968Y886070D01*
X1339054Y886247D01*
X1339145Y886421D01*
X1339239Y886593D01*
X1339338Y886763D01*
X1339441Y886930D01*
X1339548Y887095D01*
X1339659Y887256D01*
X1339774Y887416D01*
X1339893Y887572D01*
X1340016Y887725D01*
X1340142Y887875D01*
X1340272Y888022D01*
X1340406Y888166D01*
X1340543Y888307D01*
X1340684Y888444D01*
X1340828Y888578D01*
X1340975Y888708D01*
X1341125Y888834D01*
X1341278Y888957D01*
X1341434Y889076D01*
X1341594Y889191D01*
X1341755Y889302D01*
X1341920Y889409D01*
X1342087Y889512D01*
X1342257Y889611D01*
X1342429Y889705D01*
X1342603Y889796D01*
X1342780Y889882D01*
X1342958Y889964D01*
X1343139Y890041D01*
X1343321Y890114D01*
X1343505Y890182D01*
X1343691Y890246D01*
X1343878Y890306D01*
X1344066Y890360D01*
X1344256Y890410D01*
X1344447Y890456D01*
X1344639Y890496D01*
X1344832Y890532D01*
X1345026Y890563D01*
X1345221Y890590D01*
X1345416Y890611D01*
X1345611Y890628D01*
X1345807Y890640D01*
X1346004Y890648D01*
X1346200Y890650D01*
X1346396Y890648D01*
X1346593Y890640D01*
X1346789Y890628D01*
X1346984Y890611D01*
X1347179Y890590D01*
X1347374Y890563D01*
X1347568Y890532D01*
X1347761Y890496D01*
X1347953Y890456D01*
X1348144Y890410D01*
X1348334Y890360D01*
X1348522Y890306D01*
X1348709Y890246D01*
X1348895Y890182D01*
X1349079Y890114D01*
X1349261Y890041D01*
X1349442Y889964D01*
X1349620Y889882D01*
X1349797Y889796D01*
X1349971Y889705D01*
X1350143Y889611D01*
X1350313Y889512D01*
X1350480Y889409D01*
X1350645Y889302D01*
X1350806Y889191D01*
X1350966Y889076D01*
X1351122Y888957D01*
X1351275Y888834D01*
X1351425Y888708D01*
X1351572Y888578D01*
X1351716Y888444D01*
X1351857Y888307D01*
X1351994Y888166D01*
X1352128Y888022D01*
X1352258Y887875D01*
X1352384Y887725D01*
X1352507Y887572D01*
X1352626Y887416D01*
X1352741Y887256D01*
X1352852Y887095D01*
X1352959Y886930D01*
X1353062Y886763D01*
X1353161Y886593D01*
X1353255Y886421D01*
X1353346Y886247D01*
X1353432Y886070D01*
X1353514Y885892D01*
X1353591Y885711D01*
X1353664Y885529D01*
X1353732Y885345D01*
X1353796Y885159D01*
X1353856Y884972D01*
X1353910Y884784D01*
X1353960Y884594D01*
X1354006Y884403D01*
X1354046Y884211D01*
X1354082Y884018D01*
X1354113Y883824D01*
X1354140Y883629D01*
X1354161Y883434D01*
X1354178Y883239D01*
X1354190Y883043D01*
X1354198Y882846D01*
X1354200Y882650D01*
X1354198Y882454D01*
X1354190Y882257D01*
X1354178Y882061D01*
X1354161Y881866D01*
X1354140Y881671D01*
X1354113Y881476D01*
X1354082Y881282D01*
X1354046Y881089D01*
X1354006Y880897D01*
X1353960Y880706D01*
X1353910Y880516D01*
X1353856Y880328D01*
X1353796Y880141D01*
X1353732Y879955D01*
X1353664Y879771D01*
X1353591Y879589D01*
X1353514Y879408D01*
X1353432Y879230D01*
X1353346Y879053D01*
X1353255Y878879D01*
X1353161Y878707D01*
X1353062Y878537D01*
X1352959Y878370D01*
X1352852Y878205D01*
X1352741Y878044D01*
X1352626Y877884D01*
X1352507Y877728D01*
X1352384Y877575D01*
X1352258Y877425D01*
X1352128Y877278D01*
X1351994Y877134D01*
X1351857Y876993D01*
X1351716Y876856D01*
X1351572Y876722D01*
X1351425Y876592D01*
X1351275Y876466D01*
X1351122Y876343D01*
X1350966Y876224D01*
X1350806Y876109D01*
X1350645Y875998D01*
X1350480Y875891D01*
X1350313Y875788D01*
X1350143Y875689D01*
X1349971Y875595D01*
X1349797Y875504D01*
X1349620Y875418D01*
X1349442Y875336D01*
X1349261Y875259D01*
X1349079Y875186D01*
X1348895Y875118D01*
X1348709Y875054D01*
X1348522Y874994D01*
X1348334Y874940D01*
X1348144Y874890D01*
X1347953Y874844D01*
X1347761Y874804D01*
X1347568Y874768D01*
X1347374Y874737D01*
X1347179Y874710D01*
X1346984Y874689D01*
X1346789Y874672D01*
X1346593Y874660D01*
X1346396Y874652D01*
X1346200Y874650D01*
X1346004Y874652D01*
X1345807Y874660D01*
X1345611Y874672D01*
X1345416Y874689D01*
X1345221Y874710D01*
X1345026Y874737D01*
X1344832Y874768D01*
X1344639Y874804D01*
X1344447Y874844D01*
X1344256Y874890D01*
X1344066Y874940D01*
X1343878Y874994D01*
X1343691Y875054D01*
X1343505Y875118D01*
X1343321Y875186D01*
X1343139Y875259D01*
X1342958Y875336D01*
X1342780Y875418D01*
X1342603Y875504D01*
X1342429Y875595D01*
X1342257Y875689D01*
X1342087Y875788D01*
X1341920Y875891D01*
X1341755Y875998D01*
X1341594Y876109D01*
X1341434Y876224D01*
X1341278Y876343D01*
X1341125Y876466D01*
X1340975Y876592D01*
X1340828Y876722D01*
X1340684Y876856D01*
X1340543Y876993D01*
X1340406Y877134D01*
X1340272Y877278D01*
X1340142Y877425D01*
X1340016Y877575D01*
X1339893Y877728D01*
X1339774Y877884D01*
X1339659Y878044D01*
X1339548Y878205D01*
X1339441Y878370D01*
X1339338Y878537D01*
X1339239Y878707D01*
X1339145Y878879D01*
X1339054Y879053D01*
X1338968Y879230D01*
X1338886Y879408D01*
X1338809Y879589D01*
X1338736Y879771D01*
X1338668Y879955D01*
X1338604Y880141D01*
X1338544Y880328D01*
X1338490Y880516D01*
X1338440Y880706D01*
X1338394Y880897D01*
X1338354Y881089D01*
X1338318Y881282D01*
X1338287Y881476D01*
X1338260Y881671D01*
X1338239Y881866D01*
X1338222Y882061D01*
X1338210Y882257D01*
X1338202Y882454D01*
X1338200Y882650D01*
X1338200Y908050D02*
X1338202Y908246D01*
X1338210Y908443D01*
X1338222Y908639D01*
X1338239Y908834D01*
X1338260Y909029D01*
X1338287Y909224D01*
X1338318Y909418D01*
X1338354Y909611D01*
X1338394Y909803D01*
X1338440Y909994D01*
X1338490Y910184D01*
X1338544Y910372D01*
X1338604Y910559D01*
X1338668Y910745D01*
X1338736Y910929D01*
X1338809Y911111D01*
X1338886Y911292D01*
X1338968Y911470D01*
X1339054Y911647D01*
X1339145Y911821D01*
X1339239Y911993D01*
X1339338Y912163D01*
X1339441Y912330D01*
X1339548Y912495D01*
X1339659Y912656D01*
X1339774Y912816D01*
X1339893Y912972D01*
X1340016Y913125D01*
X1340142Y913275D01*
X1340272Y913422D01*
X1340406Y913566D01*
X1340543Y913707D01*
X1340684Y913844D01*
X1340828Y913978D01*
X1340975Y914108D01*
X1341125Y914234D01*
X1341278Y914357D01*
X1341434Y914476D01*
X1341594Y914591D01*
X1341755Y914702D01*
X1341920Y914809D01*
X1342087Y914912D01*
X1342257Y915011D01*
X1342429Y915105D01*
X1342603Y915196D01*
X1342780Y915282D01*
X1342958Y915364D01*
X1343139Y915441D01*
X1343321Y915514D01*
X1343505Y915582D01*
X1343691Y915646D01*
X1343878Y915706D01*
X1344066Y915760D01*
X1344256Y915810D01*
X1344447Y915856D01*
X1344639Y915896D01*
X1344832Y915932D01*
X1345026Y915963D01*
X1345221Y915990D01*
X1345416Y916011D01*
X1345611Y916028D01*
X1345807Y916040D01*
X1346004Y916048D01*
X1346200Y916050D01*
X1346396Y916048D01*
X1346593Y916040D01*
X1346789Y916028D01*
X1346984Y916011D01*
X1347179Y915990D01*
X1347374Y915963D01*
X1347568Y915932D01*
X1347761Y915896D01*
X1347953Y915856D01*
X1348144Y915810D01*
X1348334Y915760D01*
X1348522Y915706D01*
X1348709Y915646D01*
X1348895Y915582D01*
X1349079Y915514D01*
X1349261Y915441D01*
X1349442Y915364D01*
X1349620Y915282D01*
X1349797Y915196D01*
X1349971Y915105D01*
X1350143Y915011D01*
X1350313Y914912D01*
X1350480Y914809D01*
X1350645Y914702D01*
X1350806Y914591D01*
X1350966Y914476D01*
X1351122Y914357D01*
X1351275Y914234D01*
X1351425Y914108D01*
X1351572Y913978D01*
X1351716Y913844D01*
X1351857Y913707D01*
X1351994Y913566D01*
X1352128Y913422D01*
X1352258Y913275D01*
X1352384Y913125D01*
X1352507Y912972D01*
X1352626Y912816D01*
X1352741Y912656D01*
X1352852Y912495D01*
X1352959Y912330D01*
X1353062Y912163D01*
X1353161Y911993D01*
X1353255Y911821D01*
X1353346Y911647D01*
X1353432Y911470D01*
X1353514Y911292D01*
X1353591Y911111D01*
X1353664Y910929D01*
X1353732Y910745D01*
X1353796Y910559D01*
X1353856Y910372D01*
X1353910Y910184D01*
X1353960Y909994D01*
X1354006Y909803D01*
X1354046Y909611D01*
X1354082Y909418D01*
X1354113Y909224D01*
X1354140Y909029D01*
X1354161Y908834D01*
X1354178Y908639D01*
X1354190Y908443D01*
X1354198Y908246D01*
X1354200Y908050D01*
X1354198Y907854D01*
X1354190Y907657D01*
X1354178Y907461D01*
X1354161Y907266D01*
X1354140Y907071D01*
X1354113Y906876D01*
X1354082Y906682D01*
X1354046Y906489D01*
X1354006Y906297D01*
X1353960Y906106D01*
X1353910Y905916D01*
X1353856Y905728D01*
X1353796Y905541D01*
X1353732Y905355D01*
X1353664Y905171D01*
X1353591Y904989D01*
X1353514Y904808D01*
X1353432Y904630D01*
X1353346Y904453D01*
X1353255Y904279D01*
X1353161Y904107D01*
X1353062Y903937D01*
X1352959Y903770D01*
X1352852Y903605D01*
X1352741Y903444D01*
X1352626Y903284D01*
X1352507Y903128D01*
X1352384Y902975D01*
X1352258Y902825D01*
X1352128Y902678D01*
X1351994Y902534D01*
X1351857Y902393D01*
X1351716Y902256D01*
X1351572Y902122D01*
X1351425Y901992D01*
X1351275Y901866D01*
X1351122Y901743D01*
X1350966Y901624D01*
X1350806Y901509D01*
X1350645Y901398D01*
X1350480Y901291D01*
X1350313Y901188D01*
X1350143Y901089D01*
X1349971Y900995D01*
X1349797Y900904D01*
X1349620Y900818D01*
X1349442Y900736D01*
X1349261Y900659D01*
X1349079Y900586D01*
X1348895Y900518D01*
X1348709Y900454D01*
X1348522Y900394D01*
X1348334Y900340D01*
X1348144Y900290D01*
X1347953Y900244D01*
X1347761Y900204D01*
X1347568Y900168D01*
X1347374Y900137D01*
X1347179Y900110D01*
X1346984Y900089D01*
X1346789Y900072D01*
X1346593Y900060D01*
X1346396Y900052D01*
X1346200Y900050D01*
X1346004Y900052D01*
X1345807Y900060D01*
X1345611Y900072D01*
X1345416Y900089D01*
X1345221Y900110D01*
X1345026Y900137D01*
X1344832Y900168D01*
X1344639Y900204D01*
X1344447Y900244D01*
X1344256Y900290D01*
X1344066Y900340D01*
X1343878Y900394D01*
X1343691Y900454D01*
X1343505Y900518D01*
X1343321Y900586D01*
X1343139Y900659D01*
X1342958Y900736D01*
X1342780Y900818D01*
X1342603Y900904D01*
X1342429Y900995D01*
X1342257Y901089D01*
X1342087Y901188D01*
X1341920Y901291D01*
X1341755Y901398D01*
X1341594Y901509D01*
X1341434Y901624D01*
X1341278Y901743D01*
X1341125Y901866D01*
X1340975Y901992D01*
X1340828Y902122D01*
X1340684Y902256D01*
X1340543Y902393D01*
X1340406Y902534D01*
X1340272Y902678D01*
X1340142Y902825D01*
X1340016Y902975D01*
X1339893Y903128D01*
X1339774Y903284D01*
X1339659Y903444D01*
X1339548Y903605D01*
X1339441Y903770D01*
X1339338Y903937D01*
X1339239Y904107D01*
X1339145Y904279D01*
X1339054Y904453D01*
X1338968Y904630D01*
X1338886Y904808D01*
X1338809Y904989D01*
X1338736Y905171D01*
X1338668Y905355D01*
X1338604Y905541D01*
X1338544Y905728D01*
X1338490Y905916D01*
X1338440Y906106D01*
X1338394Y906297D01*
X1338354Y906489D01*
X1338318Y906682D01*
X1338287Y906876D01*
X1338260Y907071D01*
X1338239Y907266D01*
X1338222Y907461D01*
X1338210Y907657D01*
X1338202Y907854D01*
X1338200Y908050D01*
X1312800Y908050D02*
X1312802Y908246D01*
X1312810Y908443D01*
X1312822Y908639D01*
X1312839Y908834D01*
X1312860Y909029D01*
X1312887Y909224D01*
X1312918Y909418D01*
X1312954Y909611D01*
X1312994Y909803D01*
X1313040Y909994D01*
X1313090Y910184D01*
X1313144Y910372D01*
X1313204Y910559D01*
X1313268Y910745D01*
X1313336Y910929D01*
X1313409Y911111D01*
X1313486Y911292D01*
X1313568Y911470D01*
X1313654Y911647D01*
X1313745Y911821D01*
X1313839Y911993D01*
X1313938Y912163D01*
X1314041Y912330D01*
X1314148Y912495D01*
X1314259Y912656D01*
X1314374Y912816D01*
X1314493Y912972D01*
X1314616Y913125D01*
X1314742Y913275D01*
X1314872Y913422D01*
X1315006Y913566D01*
X1315143Y913707D01*
X1315284Y913844D01*
X1315428Y913978D01*
X1315575Y914108D01*
X1315725Y914234D01*
X1315878Y914357D01*
X1316034Y914476D01*
X1316194Y914591D01*
X1316355Y914702D01*
X1316520Y914809D01*
X1316687Y914912D01*
X1316857Y915011D01*
X1317029Y915105D01*
X1317203Y915196D01*
X1317380Y915282D01*
X1317558Y915364D01*
X1317739Y915441D01*
X1317921Y915514D01*
X1318105Y915582D01*
X1318291Y915646D01*
X1318478Y915706D01*
X1318666Y915760D01*
X1318856Y915810D01*
X1319047Y915856D01*
X1319239Y915896D01*
X1319432Y915932D01*
X1319626Y915963D01*
X1319821Y915990D01*
X1320016Y916011D01*
X1320211Y916028D01*
X1320407Y916040D01*
X1320604Y916048D01*
X1320800Y916050D01*
X1320996Y916048D01*
X1321193Y916040D01*
X1321389Y916028D01*
X1321584Y916011D01*
X1321779Y915990D01*
X1321974Y915963D01*
X1322168Y915932D01*
X1322361Y915896D01*
X1322553Y915856D01*
X1322744Y915810D01*
X1322934Y915760D01*
X1323122Y915706D01*
X1323309Y915646D01*
X1323495Y915582D01*
X1323679Y915514D01*
X1323861Y915441D01*
X1324042Y915364D01*
X1324220Y915282D01*
X1324397Y915196D01*
X1324571Y915105D01*
X1324743Y915011D01*
X1324913Y914912D01*
X1325080Y914809D01*
X1325245Y914702D01*
X1325406Y914591D01*
X1325566Y914476D01*
X1325722Y914357D01*
X1325875Y914234D01*
X1326025Y914108D01*
X1326172Y913978D01*
X1326316Y913844D01*
X1326457Y913707D01*
X1326594Y913566D01*
X1326728Y913422D01*
X1326858Y913275D01*
X1326984Y913125D01*
X1327107Y912972D01*
X1327226Y912816D01*
X1327341Y912656D01*
X1327452Y912495D01*
X1327559Y912330D01*
X1327662Y912163D01*
X1327761Y911993D01*
X1327855Y911821D01*
X1327946Y911647D01*
X1328032Y911470D01*
X1328114Y911292D01*
X1328191Y911111D01*
X1328264Y910929D01*
X1328332Y910745D01*
X1328396Y910559D01*
X1328456Y910372D01*
X1328510Y910184D01*
X1328560Y909994D01*
X1328606Y909803D01*
X1328646Y909611D01*
X1328682Y909418D01*
X1328713Y909224D01*
X1328740Y909029D01*
X1328761Y908834D01*
X1328778Y908639D01*
X1328790Y908443D01*
X1328798Y908246D01*
X1328800Y908050D01*
X1328798Y907854D01*
X1328790Y907657D01*
X1328778Y907461D01*
X1328761Y907266D01*
X1328740Y907071D01*
X1328713Y906876D01*
X1328682Y906682D01*
X1328646Y906489D01*
X1328606Y906297D01*
X1328560Y906106D01*
X1328510Y905916D01*
X1328456Y905728D01*
X1328396Y905541D01*
X1328332Y905355D01*
X1328264Y905171D01*
X1328191Y904989D01*
X1328114Y904808D01*
X1328032Y904630D01*
X1327946Y904453D01*
X1327855Y904279D01*
X1327761Y904107D01*
X1327662Y903937D01*
X1327559Y903770D01*
X1327452Y903605D01*
X1327341Y903444D01*
X1327226Y903284D01*
X1327107Y903128D01*
X1326984Y902975D01*
X1326858Y902825D01*
X1326728Y902678D01*
X1326594Y902534D01*
X1326457Y902393D01*
X1326316Y902256D01*
X1326172Y902122D01*
X1326025Y901992D01*
X1325875Y901866D01*
X1325722Y901743D01*
X1325566Y901624D01*
X1325406Y901509D01*
X1325245Y901398D01*
X1325080Y901291D01*
X1324913Y901188D01*
X1324743Y901089D01*
X1324571Y900995D01*
X1324397Y900904D01*
X1324220Y900818D01*
X1324042Y900736D01*
X1323861Y900659D01*
X1323679Y900586D01*
X1323495Y900518D01*
X1323309Y900454D01*
X1323122Y900394D01*
X1322934Y900340D01*
X1322744Y900290D01*
X1322553Y900244D01*
X1322361Y900204D01*
X1322168Y900168D01*
X1321974Y900137D01*
X1321779Y900110D01*
X1321584Y900089D01*
X1321389Y900072D01*
X1321193Y900060D01*
X1320996Y900052D01*
X1320800Y900050D01*
X1320604Y900052D01*
X1320407Y900060D01*
X1320211Y900072D01*
X1320016Y900089D01*
X1319821Y900110D01*
X1319626Y900137D01*
X1319432Y900168D01*
X1319239Y900204D01*
X1319047Y900244D01*
X1318856Y900290D01*
X1318666Y900340D01*
X1318478Y900394D01*
X1318291Y900454D01*
X1318105Y900518D01*
X1317921Y900586D01*
X1317739Y900659D01*
X1317558Y900736D01*
X1317380Y900818D01*
X1317203Y900904D01*
X1317029Y900995D01*
X1316857Y901089D01*
X1316687Y901188D01*
X1316520Y901291D01*
X1316355Y901398D01*
X1316194Y901509D01*
X1316034Y901624D01*
X1315878Y901743D01*
X1315725Y901866D01*
X1315575Y901992D01*
X1315428Y902122D01*
X1315284Y902256D01*
X1315143Y902393D01*
X1315006Y902534D01*
X1314872Y902678D01*
X1314742Y902825D01*
X1314616Y902975D01*
X1314493Y903128D01*
X1314374Y903284D01*
X1314259Y903444D01*
X1314148Y903605D01*
X1314041Y903770D01*
X1313938Y903937D01*
X1313839Y904107D01*
X1313745Y904279D01*
X1313654Y904453D01*
X1313568Y904630D01*
X1313486Y904808D01*
X1313409Y904989D01*
X1313336Y905171D01*
X1313268Y905355D01*
X1313204Y905541D01*
X1313144Y905728D01*
X1313090Y905916D01*
X1313040Y906106D01*
X1312994Y906297D01*
X1312954Y906489D01*
X1312918Y906682D01*
X1312887Y906876D01*
X1312860Y907071D01*
X1312839Y907266D01*
X1312822Y907461D01*
X1312810Y907657D01*
X1312802Y907854D01*
X1312800Y908050D01*
X1338200Y882650D02*
X1338202Y882846D01*
X1338210Y883043D01*
X1338222Y883239D01*
X1338239Y883434D01*
X1338260Y883629D01*
X1338287Y883824D01*
X1338318Y884018D01*
X1338354Y884211D01*
X1338394Y884403D01*
X1338440Y884594D01*
X1338490Y884784D01*
X1338544Y884972D01*
X1338604Y885159D01*
X1338668Y885345D01*
X1338736Y885529D01*
X1338809Y885711D01*
X1338886Y885892D01*
X1338968Y886070D01*
X1339054Y886247D01*
X1339145Y886421D01*
X1339239Y886593D01*
X1339338Y886763D01*
X1339441Y886930D01*
X1339548Y887095D01*
X1339659Y887256D01*
X1339774Y887416D01*
X1339893Y887572D01*
X1340016Y887725D01*
X1340142Y887875D01*
X1340272Y888022D01*
X1340406Y888166D01*
X1340543Y888307D01*
X1340684Y888444D01*
X1340828Y888578D01*
X1340975Y888708D01*
X1341125Y888834D01*
X1341278Y888957D01*
X1341434Y889076D01*
X1341594Y889191D01*
X1341755Y889302D01*
X1341920Y889409D01*
X1342087Y889512D01*
X1342257Y889611D01*
X1342429Y889705D01*
X1342603Y889796D01*
X1342780Y889882D01*
X1342958Y889964D01*
X1343139Y890041D01*
X1343321Y890114D01*
X1343505Y890182D01*
X1343691Y890246D01*
X1343878Y890306D01*
X1344066Y890360D01*
X1344256Y890410D01*
X1344447Y890456D01*
X1344639Y890496D01*
X1344832Y890532D01*
X1345026Y890563D01*
X1345221Y890590D01*
X1345416Y890611D01*
X1345611Y890628D01*
X1345807Y890640D01*
X1346004Y890648D01*
X1346200Y890650D01*
X1346396Y890648D01*
X1346593Y890640D01*
X1346789Y890628D01*
X1346984Y890611D01*
X1347179Y890590D01*
X1347374Y890563D01*
X1347568Y890532D01*
X1347761Y890496D01*
X1347953Y890456D01*
X1348144Y890410D01*
X1348334Y890360D01*
X1348522Y890306D01*
X1348709Y890246D01*
X1348895Y890182D01*
X1349079Y890114D01*
X1349261Y890041D01*
X1349442Y889964D01*
X1349620Y889882D01*
X1349797Y889796D01*
X1349971Y889705D01*
X1350143Y889611D01*
X1350313Y889512D01*
X1350480Y889409D01*
X1350645Y889302D01*
X1350806Y889191D01*
X1350966Y889076D01*
X1351122Y888957D01*
X1351275Y888834D01*
X1351425Y888708D01*
X1351572Y888578D01*
X1351716Y888444D01*
X1351857Y888307D01*
X1351994Y888166D01*
X1352128Y888022D01*
X1352258Y887875D01*
X1352384Y887725D01*
X1352507Y887572D01*
X1352626Y887416D01*
X1352741Y887256D01*
X1352852Y887095D01*
X1352959Y886930D01*
X1353062Y886763D01*
X1353161Y886593D01*
X1353255Y886421D01*
X1353346Y886247D01*
X1353432Y886070D01*
X1353514Y885892D01*
X1353591Y885711D01*
X1353664Y885529D01*
X1353732Y885345D01*
X1353796Y885159D01*
X1353856Y884972D01*
X1353910Y884784D01*
X1353960Y884594D01*
X1354006Y884403D01*
X1354046Y884211D01*
X1354082Y884018D01*
X1354113Y883824D01*
X1354140Y883629D01*
X1354161Y883434D01*
X1354178Y883239D01*
X1354190Y883043D01*
X1354198Y882846D01*
X1354200Y882650D01*
X1354198Y882454D01*
X1354190Y882257D01*
X1354178Y882061D01*
X1354161Y881866D01*
X1354140Y881671D01*
X1354113Y881476D01*
X1354082Y881282D01*
X1354046Y881089D01*
X1354006Y880897D01*
X1353960Y880706D01*
X1353910Y880516D01*
X1353856Y880328D01*
X1353796Y880141D01*
X1353732Y879955D01*
X1353664Y879771D01*
X1353591Y879589D01*
X1353514Y879408D01*
X1353432Y879230D01*
X1353346Y879053D01*
X1353255Y878879D01*
X1353161Y878707D01*
X1353062Y878537D01*
X1352959Y878370D01*
X1352852Y878205D01*
X1352741Y878044D01*
X1352626Y877884D01*
X1352507Y877728D01*
X1352384Y877575D01*
X1352258Y877425D01*
X1352128Y877278D01*
X1351994Y877134D01*
X1351857Y876993D01*
X1351716Y876856D01*
X1351572Y876722D01*
X1351425Y876592D01*
X1351275Y876466D01*
X1351122Y876343D01*
X1350966Y876224D01*
X1350806Y876109D01*
X1350645Y875998D01*
X1350480Y875891D01*
X1350313Y875788D01*
X1350143Y875689D01*
X1349971Y875595D01*
X1349797Y875504D01*
X1349620Y875418D01*
X1349442Y875336D01*
X1349261Y875259D01*
X1349079Y875186D01*
X1348895Y875118D01*
X1348709Y875054D01*
X1348522Y874994D01*
X1348334Y874940D01*
X1348144Y874890D01*
X1347953Y874844D01*
X1347761Y874804D01*
X1347568Y874768D01*
X1347374Y874737D01*
X1347179Y874710D01*
X1346984Y874689D01*
X1346789Y874672D01*
X1346593Y874660D01*
X1346396Y874652D01*
X1346200Y874650D01*
X1346004Y874652D01*
X1345807Y874660D01*
X1345611Y874672D01*
X1345416Y874689D01*
X1345221Y874710D01*
X1345026Y874737D01*
X1344832Y874768D01*
X1344639Y874804D01*
X1344447Y874844D01*
X1344256Y874890D01*
X1344066Y874940D01*
X1343878Y874994D01*
X1343691Y875054D01*
X1343505Y875118D01*
X1343321Y875186D01*
X1343139Y875259D01*
X1342958Y875336D01*
X1342780Y875418D01*
X1342603Y875504D01*
X1342429Y875595D01*
X1342257Y875689D01*
X1342087Y875788D01*
X1341920Y875891D01*
X1341755Y875998D01*
X1341594Y876109D01*
X1341434Y876224D01*
X1341278Y876343D01*
X1341125Y876466D01*
X1340975Y876592D01*
X1340828Y876722D01*
X1340684Y876856D01*
X1340543Y876993D01*
X1340406Y877134D01*
X1340272Y877278D01*
X1340142Y877425D01*
X1340016Y877575D01*
X1339893Y877728D01*
X1339774Y877884D01*
X1339659Y878044D01*
X1339548Y878205D01*
X1339441Y878370D01*
X1339338Y878537D01*
X1339239Y878707D01*
X1339145Y878879D01*
X1339054Y879053D01*
X1338968Y879230D01*
X1338886Y879408D01*
X1338809Y879589D01*
X1338736Y879771D01*
X1338668Y879955D01*
X1338604Y880141D01*
X1338544Y880328D01*
X1338490Y880516D01*
X1338440Y880706D01*
X1338394Y880897D01*
X1338354Y881089D01*
X1338318Y881282D01*
X1338287Y881476D01*
X1338260Y881671D01*
X1338239Y881866D01*
X1338222Y882061D01*
X1338210Y882257D01*
X1338202Y882454D01*
X1338200Y882650D01*
X1312800Y882650D02*
X1312802Y882846D01*
X1312810Y883043D01*
X1312822Y883239D01*
X1312839Y883434D01*
X1312860Y883629D01*
X1312887Y883824D01*
X1312918Y884018D01*
X1312954Y884211D01*
X1312994Y884403D01*
X1313040Y884594D01*
X1313090Y884784D01*
X1313144Y884972D01*
X1313204Y885159D01*
X1313268Y885345D01*
X1313336Y885529D01*
X1313409Y885711D01*
X1313486Y885892D01*
X1313568Y886070D01*
X1313654Y886247D01*
X1313745Y886421D01*
X1313839Y886593D01*
X1313938Y886763D01*
X1314041Y886930D01*
X1314148Y887095D01*
X1314259Y887256D01*
X1314374Y887416D01*
X1314493Y887572D01*
X1314616Y887725D01*
X1314742Y887875D01*
X1314872Y888022D01*
X1315006Y888166D01*
X1315143Y888307D01*
X1315284Y888444D01*
X1315428Y888578D01*
X1315575Y888708D01*
X1315725Y888834D01*
X1315878Y888957D01*
X1316034Y889076D01*
X1316194Y889191D01*
X1316355Y889302D01*
X1316520Y889409D01*
X1316687Y889512D01*
X1316857Y889611D01*
X1317029Y889705D01*
X1317203Y889796D01*
X1317380Y889882D01*
X1317558Y889964D01*
X1317739Y890041D01*
X1317921Y890114D01*
X1318105Y890182D01*
X1318291Y890246D01*
X1318478Y890306D01*
X1318666Y890360D01*
X1318856Y890410D01*
X1319047Y890456D01*
X1319239Y890496D01*
X1319432Y890532D01*
X1319626Y890563D01*
X1319821Y890590D01*
X1320016Y890611D01*
X1320211Y890628D01*
X1320407Y890640D01*
X1320604Y890648D01*
X1320800Y890650D01*
X1320996Y890648D01*
X1321193Y890640D01*
X1321389Y890628D01*
X1321584Y890611D01*
X1321779Y890590D01*
X1321974Y890563D01*
X1322168Y890532D01*
X1322361Y890496D01*
X1322553Y890456D01*
X1322744Y890410D01*
X1322934Y890360D01*
X1323122Y890306D01*
X1323309Y890246D01*
X1323495Y890182D01*
X1323679Y890114D01*
X1323861Y890041D01*
X1324042Y889964D01*
X1324220Y889882D01*
X1324397Y889796D01*
X1324571Y889705D01*
X1324743Y889611D01*
X1324913Y889512D01*
X1325080Y889409D01*
X1325245Y889302D01*
X1325406Y889191D01*
X1325566Y889076D01*
X1325722Y888957D01*
X1325875Y888834D01*
X1326025Y888708D01*
X1326172Y888578D01*
X1326316Y888444D01*
X1326457Y888307D01*
X1326594Y888166D01*
X1326728Y888022D01*
X1326858Y887875D01*
X1326984Y887725D01*
X1327107Y887572D01*
X1327226Y887416D01*
X1327341Y887256D01*
X1327452Y887095D01*
X1327559Y886930D01*
X1327662Y886763D01*
X1327761Y886593D01*
X1327855Y886421D01*
X1327946Y886247D01*
X1328032Y886070D01*
X1328114Y885892D01*
X1328191Y885711D01*
X1328264Y885529D01*
X1328332Y885345D01*
X1328396Y885159D01*
X1328456Y884972D01*
X1328510Y884784D01*
X1328560Y884594D01*
X1328606Y884403D01*
X1328646Y884211D01*
X1328682Y884018D01*
X1328713Y883824D01*
X1328740Y883629D01*
X1328761Y883434D01*
X1328778Y883239D01*
X1328790Y883043D01*
X1328798Y882846D01*
X1328800Y882650D01*
X1328798Y882454D01*
X1328790Y882257D01*
X1328778Y882061D01*
X1328761Y881866D01*
X1328740Y881671D01*
X1328713Y881476D01*
X1328682Y881282D01*
X1328646Y881089D01*
X1328606Y880897D01*
X1328560Y880706D01*
X1328510Y880516D01*
X1328456Y880328D01*
X1328396Y880141D01*
X1328332Y879955D01*
X1328264Y879771D01*
X1328191Y879589D01*
X1328114Y879408D01*
X1328032Y879230D01*
X1327946Y879053D01*
X1327855Y878879D01*
X1327761Y878707D01*
X1327662Y878537D01*
X1327559Y878370D01*
X1327452Y878205D01*
X1327341Y878044D01*
X1327226Y877884D01*
X1327107Y877728D01*
X1326984Y877575D01*
X1326858Y877425D01*
X1326728Y877278D01*
X1326594Y877134D01*
X1326457Y876993D01*
X1326316Y876856D01*
X1326172Y876722D01*
X1326025Y876592D01*
X1325875Y876466D01*
X1325722Y876343D01*
X1325566Y876224D01*
X1325406Y876109D01*
X1325245Y875998D01*
X1325080Y875891D01*
X1324913Y875788D01*
X1324743Y875689D01*
X1324571Y875595D01*
X1324397Y875504D01*
X1324220Y875418D01*
X1324042Y875336D01*
X1323861Y875259D01*
X1323679Y875186D01*
X1323495Y875118D01*
X1323309Y875054D01*
X1323122Y874994D01*
X1322934Y874940D01*
X1322744Y874890D01*
X1322553Y874844D01*
X1322361Y874804D01*
X1322168Y874768D01*
X1321974Y874737D01*
X1321779Y874710D01*
X1321584Y874689D01*
X1321389Y874672D01*
X1321193Y874660D01*
X1320996Y874652D01*
X1320800Y874650D01*
X1320604Y874652D01*
X1320407Y874660D01*
X1320211Y874672D01*
X1320016Y874689D01*
X1319821Y874710D01*
X1319626Y874737D01*
X1319432Y874768D01*
X1319239Y874804D01*
X1319047Y874844D01*
X1318856Y874890D01*
X1318666Y874940D01*
X1318478Y874994D01*
X1318291Y875054D01*
X1318105Y875118D01*
X1317921Y875186D01*
X1317739Y875259D01*
X1317558Y875336D01*
X1317380Y875418D01*
X1317203Y875504D01*
X1317029Y875595D01*
X1316857Y875689D01*
X1316687Y875788D01*
X1316520Y875891D01*
X1316355Y875998D01*
X1316194Y876109D01*
X1316034Y876224D01*
X1315878Y876343D01*
X1315725Y876466D01*
X1315575Y876592D01*
X1315428Y876722D01*
X1315284Y876856D01*
X1315143Y876993D01*
X1315006Y877134D01*
X1314872Y877278D01*
X1314742Y877425D01*
X1314616Y877575D01*
X1314493Y877728D01*
X1314374Y877884D01*
X1314259Y878044D01*
X1314148Y878205D01*
X1314041Y878370D01*
X1313938Y878537D01*
X1313839Y878707D01*
X1313745Y878879D01*
X1313654Y879053D01*
X1313568Y879230D01*
X1313486Y879408D01*
X1313409Y879589D01*
X1313336Y879771D01*
X1313268Y879955D01*
X1313204Y880141D01*
X1313144Y880328D01*
X1313090Y880516D01*
X1313040Y880706D01*
X1312994Y880897D01*
X1312954Y881089D01*
X1312918Y881282D01*
X1312887Y881476D01*
X1312860Y881671D01*
X1312839Y881866D01*
X1312822Y882061D01*
X1312810Y882257D01*
X1312802Y882454D01*
X1312800Y882650D01*
X1312800Y857250D02*
X1312802Y857446D01*
X1312810Y857643D01*
X1312822Y857839D01*
X1312839Y858034D01*
X1312860Y858229D01*
X1312887Y858424D01*
X1312918Y858618D01*
X1312954Y858811D01*
X1312994Y859003D01*
X1313040Y859194D01*
X1313090Y859384D01*
X1313144Y859572D01*
X1313204Y859759D01*
X1313268Y859945D01*
X1313336Y860129D01*
X1313409Y860311D01*
X1313486Y860492D01*
X1313568Y860670D01*
X1313654Y860847D01*
X1313745Y861021D01*
X1313839Y861193D01*
X1313938Y861363D01*
X1314041Y861530D01*
X1314148Y861695D01*
X1314259Y861856D01*
X1314374Y862016D01*
X1314493Y862172D01*
X1314616Y862325D01*
X1314742Y862475D01*
X1314872Y862622D01*
X1315006Y862766D01*
X1315143Y862907D01*
X1315284Y863044D01*
X1315428Y863178D01*
X1315575Y863308D01*
X1315725Y863434D01*
X1315878Y863557D01*
X1316034Y863676D01*
X1316194Y863791D01*
X1316355Y863902D01*
X1316520Y864009D01*
X1316687Y864112D01*
X1316857Y864211D01*
X1317029Y864305D01*
X1317203Y864396D01*
X1317380Y864482D01*
X1317558Y864564D01*
X1317739Y864641D01*
X1317921Y864714D01*
X1318105Y864782D01*
X1318291Y864846D01*
X1318478Y864906D01*
X1318666Y864960D01*
X1318856Y865010D01*
X1319047Y865056D01*
X1319239Y865096D01*
X1319432Y865132D01*
X1319626Y865163D01*
X1319821Y865190D01*
X1320016Y865211D01*
X1320211Y865228D01*
X1320407Y865240D01*
X1320604Y865248D01*
X1320800Y865250D01*
X1320996Y865248D01*
X1321193Y865240D01*
X1321389Y865228D01*
X1321584Y865211D01*
X1321779Y865190D01*
X1321974Y865163D01*
X1322168Y865132D01*
X1322361Y865096D01*
X1322553Y865056D01*
X1322744Y865010D01*
X1322934Y864960D01*
X1323122Y864906D01*
X1323309Y864846D01*
X1323495Y864782D01*
X1323679Y864714D01*
X1323861Y864641D01*
X1324042Y864564D01*
X1324220Y864482D01*
X1324397Y864396D01*
X1324571Y864305D01*
X1324743Y864211D01*
X1324913Y864112D01*
X1325080Y864009D01*
X1325245Y863902D01*
X1325406Y863791D01*
X1325566Y863676D01*
X1325722Y863557D01*
X1325875Y863434D01*
X1326025Y863308D01*
X1326172Y863178D01*
X1326316Y863044D01*
X1326457Y862907D01*
X1326594Y862766D01*
X1326728Y862622D01*
X1326858Y862475D01*
X1326984Y862325D01*
X1327107Y862172D01*
X1327226Y862016D01*
X1327341Y861856D01*
X1327452Y861695D01*
X1327559Y861530D01*
X1327662Y861363D01*
X1327761Y861193D01*
X1327855Y861021D01*
X1327946Y860847D01*
X1328032Y860670D01*
X1328114Y860492D01*
X1328191Y860311D01*
X1328264Y860129D01*
X1328332Y859945D01*
X1328396Y859759D01*
X1328456Y859572D01*
X1328510Y859384D01*
X1328560Y859194D01*
X1328606Y859003D01*
X1328646Y858811D01*
X1328682Y858618D01*
X1328713Y858424D01*
X1328740Y858229D01*
X1328761Y858034D01*
X1328778Y857839D01*
X1328790Y857643D01*
X1328798Y857446D01*
X1328800Y857250D01*
X1328798Y857054D01*
X1328790Y856857D01*
X1328778Y856661D01*
X1328761Y856466D01*
X1328740Y856271D01*
X1328713Y856076D01*
X1328682Y855882D01*
X1328646Y855689D01*
X1328606Y855497D01*
X1328560Y855306D01*
X1328510Y855116D01*
X1328456Y854928D01*
X1328396Y854741D01*
X1328332Y854555D01*
X1328264Y854371D01*
X1328191Y854189D01*
X1328114Y854008D01*
X1328032Y853830D01*
X1327946Y853653D01*
X1327855Y853479D01*
X1327761Y853307D01*
X1327662Y853137D01*
X1327559Y852970D01*
X1327452Y852805D01*
X1327341Y852644D01*
X1327226Y852484D01*
X1327107Y852328D01*
X1326984Y852175D01*
X1326858Y852025D01*
X1326728Y851878D01*
X1326594Y851734D01*
X1326457Y851593D01*
X1326316Y851456D01*
X1326172Y851322D01*
X1326025Y851192D01*
X1325875Y851066D01*
X1325722Y850943D01*
X1325566Y850824D01*
X1325406Y850709D01*
X1325245Y850598D01*
X1325080Y850491D01*
X1324913Y850388D01*
X1324743Y850289D01*
X1324571Y850195D01*
X1324397Y850104D01*
X1324220Y850018D01*
X1324042Y849936D01*
X1323861Y849859D01*
X1323679Y849786D01*
X1323495Y849718D01*
X1323309Y849654D01*
X1323122Y849594D01*
X1322934Y849540D01*
X1322744Y849490D01*
X1322553Y849444D01*
X1322361Y849404D01*
X1322168Y849368D01*
X1321974Y849337D01*
X1321779Y849310D01*
X1321584Y849289D01*
X1321389Y849272D01*
X1321193Y849260D01*
X1320996Y849252D01*
X1320800Y849250D01*
X1320604Y849252D01*
X1320407Y849260D01*
X1320211Y849272D01*
X1320016Y849289D01*
X1319821Y849310D01*
X1319626Y849337D01*
X1319432Y849368D01*
X1319239Y849404D01*
X1319047Y849444D01*
X1318856Y849490D01*
X1318666Y849540D01*
X1318478Y849594D01*
X1318291Y849654D01*
X1318105Y849718D01*
X1317921Y849786D01*
X1317739Y849859D01*
X1317558Y849936D01*
X1317380Y850018D01*
X1317203Y850104D01*
X1317029Y850195D01*
X1316857Y850289D01*
X1316687Y850388D01*
X1316520Y850491D01*
X1316355Y850598D01*
X1316194Y850709D01*
X1316034Y850824D01*
X1315878Y850943D01*
X1315725Y851066D01*
X1315575Y851192D01*
X1315428Y851322D01*
X1315284Y851456D01*
X1315143Y851593D01*
X1315006Y851734D01*
X1314872Y851878D01*
X1314742Y852025D01*
X1314616Y852175D01*
X1314493Y852328D01*
X1314374Y852484D01*
X1314259Y852644D01*
X1314148Y852805D01*
X1314041Y852970D01*
X1313938Y853137D01*
X1313839Y853307D01*
X1313745Y853479D01*
X1313654Y853653D01*
X1313568Y853830D01*
X1313486Y854008D01*
X1313409Y854189D01*
X1313336Y854371D01*
X1313268Y854555D01*
X1313204Y854741D01*
X1313144Y854928D01*
X1313090Y855116D01*
X1313040Y855306D01*
X1312994Y855497D01*
X1312954Y855689D01*
X1312918Y855882D01*
X1312887Y856076D01*
X1312860Y856271D01*
X1312839Y856466D01*
X1312822Y856661D01*
X1312810Y856857D01*
X1312802Y857054D01*
X1312800Y857250D01*
D14*
X1295781Y892512D02*
X1295781Y894969D01*
X1295781Y893740D02*
X1303153Y893740D01*
X1303153Y892512D02*
X1303153Y894969D01*
X1303153Y886293D02*
X1301925Y885065D01*
X1303153Y886293D02*
X1303153Y888751D01*
X1301925Y889980D01*
X1297010Y889980D01*
X1295781Y888751D01*
X1295781Y886293D01*
X1297010Y885065D01*
X1303153Y878809D02*
X1301925Y877581D01*
X1303153Y878809D02*
X1303153Y881267D01*
X1301925Y882495D01*
X1300696Y882495D01*
X1299467Y881267D01*
X1299467Y878809D01*
X1298238Y877581D01*
X1297010Y877581D01*
X1295781Y878809D01*
X1295781Y881267D01*
X1297010Y882495D01*
X1295781Y875011D02*
X1303153Y875011D01*
X1303153Y871325D01*
X1301925Y870096D01*
X1299467Y870096D01*
X1298238Y871325D01*
X1298238Y875011D01*
X1352852Y837819D02*
X1355987Y834684D01*
X1346581Y834684D01*
X1346581Y837819D02*
X1346581Y831548D01*
D16*
X938276Y870119D02*
X937768Y870119D01*
X937768Y869950D02*
X937768Y870289D01*
X937768Y870418D02*
X938276Y870418D01*
X938022Y870418D02*
X937937Y870502D01*
X937937Y870672D01*
X938022Y870757D01*
X938276Y870757D01*
X937937Y870886D02*
X937937Y870970D01*
X938276Y870970D01*
X938276Y870886D02*
X938276Y871055D01*
X937768Y870970D02*
X937683Y870970D01*
X938276Y871197D02*
X938276Y871452D01*
X938191Y871536D01*
X938107Y871452D01*
X938107Y871282D01*
X938022Y871197D01*
X937937Y871282D01*
X937937Y871536D01*
X937768Y872133D02*
X937768Y872218D01*
X938276Y872218D01*
X938276Y872302D02*
X938276Y872133D01*
X937937Y872445D02*
X937937Y872529D01*
X938276Y872529D01*
X938276Y872445D02*
X938276Y872614D01*
X937768Y872529D02*
X937683Y872529D01*
X937768Y872756D02*
X938276Y872756D01*
X938276Y873011D01*
X938191Y873095D01*
X938022Y873095D01*
X937937Y873011D01*
X937937Y872756D01*
X937937Y873224D02*
X938276Y873224D01*
X938107Y873224D02*
X937937Y873394D01*
X937937Y873478D01*
X937937Y873699D02*
X937937Y873868D01*
X938022Y873953D01*
X938276Y873953D01*
X938276Y873699D01*
X938191Y873614D01*
X938107Y873699D01*
X938107Y873953D01*
X938276Y874082D02*
X937937Y874082D01*
X937937Y874251D02*
X938107Y874082D01*
X937937Y874251D02*
X937937Y874336D01*
X937937Y874472D02*
X938191Y874472D01*
X938276Y874556D01*
X938276Y874810D01*
X938361Y874810D02*
X937937Y874810D01*
X938361Y874810D02*
X938445Y874726D01*
X938445Y874641D01*
X938191Y875407D02*
X937937Y875407D01*
X938191Y875407D02*
X938276Y875492D01*
X938191Y875576D01*
X938276Y875661D01*
X938191Y875746D01*
X937937Y875746D01*
X937937Y875959D02*
X937937Y876129D01*
X938022Y876214D01*
X938276Y876214D01*
X938276Y875959D01*
X938191Y875875D01*
X938107Y875959D01*
X938107Y876214D01*
X938276Y876343D02*
X938276Y876597D01*
X938191Y876681D01*
X938107Y876597D01*
X938107Y876427D01*
X938022Y876343D01*
X937937Y876427D01*
X937937Y876681D01*
X937937Y877363D02*
X937937Y877617D01*
X937937Y877363D02*
X938022Y877278D01*
X938191Y877278D01*
X938276Y877363D01*
X938276Y877617D01*
X938276Y877746D02*
X937937Y877746D01*
X937937Y877915D02*
X938107Y877746D01*
X937937Y877915D02*
X937937Y878000D01*
X938276Y878220D02*
X938276Y878390D01*
X938276Y878220D02*
X938191Y878136D01*
X938022Y878136D01*
X937937Y878220D01*
X937937Y878390D01*
X938022Y878474D01*
X938107Y878474D01*
X938107Y878136D01*
X937937Y878688D02*
X937937Y878857D01*
X938022Y878942D01*
X938276Y878942D01*
X938276Y878688D01*
X938191Y878603D01*
X938107Y878688D01*
X938107Y878942D01*
X938191Y879156D02*
X937852Y879156D01*
X938191Y879156D02*
X938276Y879241D01*
X937937Y879241D02*
X937937Y879071D01*
X938276Y879468D02*
X938276Y879637D01*
X938276Y879468D02*
X938191Y879383D01*
X938022Y879383D01*
X937937Y879468D01*
X937937Y879637D01*
X938022Y879722D01*
X938107Y879722D01*
X938107Y879383D01*
X938276Y880190D02*
X937768Y880190D01*
X938276Y880190D02*
X938276Y879935D01*
X938191Y879851D01*
X938022Y879851D01*
X937937Y879935D01*
X937937Y880190D01*
X937768Y880786D02*
X938276Y880786D01*
X938276Y881040D01*
X938191Y881125D01*
X938022Y881125D01*
X937937Y881040D01*
X937937Y880786D01*
X937937Y881254D02*
X938191Y881254D01*
X938276Y881339D01*
X938276Y881593D01*
X938361Y881593D02*
X937937Y881593D01*
X938361Y881593D02*
X938445Y881508D01*
X938445Y881423D01*
X937768Y882189D02*
X937768Y882528D01*
X937768Y882189D02*
X938276Y882189D01*
X938276Y882528D01*
X938022Y882359D02*
X938022Y882189D01*
X938276Y882657D02*
X938276Y882911D01*
X938191Y882996D01*
X938107Y882911D01*
X938107Y882742D01*
X938022Y882657D01*
X937937Y882742D01*
X937937Y882996D01*
X937937Y883125D02*
X938445Y883125D01*
X937937Y883125D02*
X937937Y883379D01*
X938022Y883464D01*
X938191Y883464D01*
X938276Y883379D01*
X938276Y883125D01*
X938276Y883593D02*
X938191Y883593D01*
X938191Y883677D01*
X938276Y883677D01*
X938276Y883593D01*
X938276Y884294D02*
X937768Y884294D01*
X937937Y884464D01*
X937768Y884633D01*
X938276Y884633D01*
X937937Y884847D02*
X937937Y885016D01*
X938022Y885101D01*
X938276Y885101D01*
X938276Y884847D01*
X938191Y884762D01*
X938107Y884847D01*
X938107Y885101D01*
X938276Y885230D02*
X937937Y885230D01*
X937937Y885399D02*
X938107Y885230D01*
X937937Y885399D02*
X937937Y885484D01*
X937937Y885704D02*
X937937Y885958D01*
X937937Y885704D02*
X938022Y885620D01*
X938191Y885620D01*
X938276Y885704D01*
X938276Y885958D01*
X938276Y886172D02*
X938276Y886341D01*
X938191Y886426D01*
X938022Y886426D01*
X937937Y886341D01*
X937937Y886172D01*
X938022Y886087D01*
X938191Y886087D01*
X938276Y886172D01*
X938022Y886555D02*
X938022Y886894D01*
X937768Y887023D02*
X938276Y887023D01*
X938276Y887362D01*
X938191Y887491D02*
X937937Y887491D01*
X938191Y887491D02*
X938276Y887575D01*
X938276Y887829D01*
X937937Y887829D01*
X937937Y887958D02*
X937937Y888043D01*
X938276Y888043D01*
X938276Y887958D02*
X938276Y888128D01*
X937768Y888043D02*
X937683Y888043D01*
X938276Y888270D02*
X938276Y888524D01*
X938191Y888609D01*
X938107Y888524D01*
X938107Y888355D01*
X938022Y888270D01*
X937937Y888355D01*
X937937Y888609D01*
X937768Y889460D02*
X937852Y889545D01*
X937768Y889460D02*
X937768Y889290D01*
X937852Y889206D01*
X937937Y889206D01*
X938022Y889290D01*
X938022Y889460D01*
X938107Y889545D01*
X938191Y889545D01*
X938276Y889460D01*
X938276Y889290D01*
X938191Y889206D01*
X938276Y889673D02*
X937937Y889673D01*
X937768Y889843D01*
X937937Y890012D01*
X938276Y890012D01*
X938022Y890012D02*
X938022Y889673D01*
X937768Y890141D02*
X938276Y890141D01*
X938276Y890480D01*
X937852Y890948D02*
X937768Y890863D01*
X937768Y890694D01*
X937852Y890609D01*
X938191Y890609D01*
X938276Y890694D01*
X938276Y890863D01*
X938191Y890948D01*
X937768Y891077D02*
X937768Y891416D01*
X937768Y891077D02*
X938276Y891077D01*
X938276Y891416D01*
X938022Y891246D02*
X938022Y891077D01*
X937768Y891544D02*
X938276Y891544D01*
X938276Y891799D01*
X938191Y891883D01*
X937852Y891883D01*
X937768Y891799D01*
X937768Y891544D01*
X937768Y892097D02*
X937768Y892266D01*
X937768Y892097D02*
X937852Y892012D01*
X938191Y892012D01*
X938276Y892097D01*
X938276Y892266D01*
X938191Y892351D01*
X937852Y892351D01*
X937768Y892266D01*
X937768Y893117D02*
X938276Y893117D01*
X937768Y892948D02*
X937768Y893287D01*
X937768Y893500D02*
X937768Y893670D01*
X937768Y893500D02*
X937852Y893415D01*
X938191Y893415D01*
X938276Y893500D01*
X938276Y893670D01*
X938191Y893754D01*
X937852Y893754D01*
X937768Y893670D01*
X937768Y893883D02*
X938107Y893883D01*
X938276Y894053D01*
X938107Y894222D01*
X937768Y894222D01*
X937937Y894351D02*
X938276Y894351D01*
X937937Y894351D02*
X937768Y894520D01*
X937937Y894690D01*
X938276Y894690D01*
X938022Y894690D02*
X938022Y894351D01*
X938276Y894819D02*
X937768Y894819D01*
X937768Y895073D01*
X937852Y895158D01*
X938022Y895158D01*
X938107Y895073D01*
X938107Y894819D01*
X938107Y894988D02*
X938276Y895158D01*
X938276Y895286D02*
X938191Y895286D01*
X938191Y895371D01*
X938276Y895371D01*
X938276Y895286D01*
X938530Y869950D02*
X939038Y869950D01*
X938530Y869950D02*
X938530Y870204D01*
X938614Y870289D01*
X938784Y870289D01*
X938869Y870204D01*
X938869Y869950D01*
X938530Y870418D02*
X938530Y870502D01*
X939038Y870502D01*
X939038Y870418D02*
X939038Y870587D01*
X939038Y870814D02*
X939038Y870984D01*
X939038Y870814D02*
X938953Y870730D01*
X938784Y870730D01*
X938699Y870814D01*
X938699Y870984D01*
X938784Y871069D01*
X938869Y871069D01*
X938869Y870730D01*
X938699Y871282D02*
X938699Y871452D01*
X938784Y871536D01*
X939038Y871536D01*
X939038Y871282D01*
X938953Y871197D01*
X938869Y871282D01*
X938869Y871536D01*
X939038Y871665D02*
X939038Y871919D01*
X938953Y872004D01*
X938869Y871919D01*
X938869Y871750D01*
X938784Y871665D01*
X938699Y871750D01*
X938699Y872004D01*
X939038Y872218D02*
X939038Y872387D01*
X939038Y872218D02*
X938953Y872133D01*
X938784Y872133D01*
X938699Y872218D01*
X938699Y872387D01*
X938784Y872472D01*
X938869Y872472D01*
X938869Y872133D01*
X939038Y873068D02*
X938699Y873068D01*
X938869Y873068D02*
X938699Y873238D01*
X938699Y873323D01*
X939038Y873543D02*
X939038Y873712D01*
X939038Y873543D02*
X938953Y873458D01*
X938784Y873458D01*
X938699Y873543D01*
X938699Y873712D01*
X938784Y873797D01*
X938869Y873797D01*
X938869Y873458D01*
X938699Y873926D02*
X939207Y873926D01*
X938699Y873926D02*
X938699Y874180D01*
X938784Y874265D01*
X938953Y874265D01*
X939038Y874180D01*
X939038Y873926D01*
X939038Y874478D02*
X939038Y874648D01*
X938953Y874733D01*
X938784Y874733D01*
X938699Y874648D01*
X938699Y874478D01*
X938784Y874394D01*
X938953Y874394D01*
X939038Y874478D01*
X939038Y874861D02*
X938699Y874861D01*
X938869Y874861D02*
X938699Y875031D01*
X938699Y875116D01*
X938614Y875336D02*
X938953Y875336D01*
X939038Y875421D01*
X938699Y875421D02*
X938699Y875251D01*
X938699Y876115D02*
X938699Y876285D01*
X938784Y876370D01*
X939038Y876370D01*
X939038Y876115D01*
X938953Y876031D01*
X938869Y876115D01*
X938869Y876370D01*
X939038Y876498D02*
X938699Y876498D01*
X938699Y876753D01*
X938784Y876837D01*
X939038Y876837D01*
X938953Y876966D02*
X938699Y876966D01*
X938953Y876966D02*
X939038Y877051D01*
X939038Y877305D01*
X939123Y877305D02*
X938699Y877305D01*
X939123Y877305D02*
X939207Y877220D01*
X939207Y877136D01*
X939038Y877986D02*
X939038Y878156D01*
X939038Y877986D02*
X938953Y877902D01*
X938784Y877902D01*
X938699Y877986D01*
X938699Y878156D01*
X938784Y878241D01*
X938869Y878241D01*
X938869Y877902D01*
X939038Y878369D02*
X938699Y878369D01*
X938869Y878369D02*
X938699Y878539D01*
X938699Y878624D01*
X938699Y878759D02*
X939038Y878759D01*
X938869Y878759D02*
X938699Y878929D01*
X938699Y879013D01*
X939038Y879234D02*
X939038Y879403D01*
X938953Y879488D01*
X938784Y879488D01*
X938699Y879403D01*
X938699Y879234D01*
X938784Y879149D01*
X938953Y879149D01*
X939038Y879234D01*
X939038Y879617D02*
X938699Y879617D01*
X938699Y879786D02*
X938869Y879617D01*
X938699Y879786D02*
X938699Y879871D01*
X939038Y880007D02*
X939038Y880261D01*
X938953Y880345D01*
X938869Y880261D01*
X938869Y880091D01*
X938784Y880007D01*
X938699Y880091D01*
X938699Y880345D01*
X939038Y881027D02*
X939038Y881196D01*
X938953Y881281D01*
X938784Y881281D01*
X938699Y881196D01*
X938699Y881027D01*
X938784Y880942D01*
X938953Y880942D01*
X939038Y881027D01*
X939038Y881410D02*
X938699Y881410D01*
X938699Y881579D02*
X938869Y881410D01*
X938699Y881579D02*
X938699Y881664D01*
X939038Y882267D02*
X939038Y882522D01*
X938953Y882606D01*
X938869Y882522D01*
X938869Y882352D01*
X938784Y882267D01*
X938699Y882352D01*
X938699Y882606D01*
X938699Y882735D02*
X938953Y882735D01*
X939038Y882820D01*
X939038Y883074D01*
X938699Y883074D01*
X939207Y883372D02*
X939207Y883457D01*
X939123Y883542D01*
X938699Y883542D01*
X938699Y883288D01*
X938784Y883203D01*
X938953Y883203D01*
X939038Y883288D01*
X939038Y883542D01*
X939207Y883840D02*
X939207Y883925D01*
X939123Y884010D01*
X938699Y884010D01*
X938699Y883755D01*
X938784Y883671D01*
X938953Y883671D01*
X939038Y883755D01*
X939038Y884010D01*
X939038Y884223D02*
X939038Y884393D01*
X939038Y884223D02*
X938953Y884138D01*
X938784Y884138D01*
X938699Y884223D01*
X938699Y884393D01*
X938784Y884477D01*
X938869Y884477D01*
X938869Y884138D01*
X939038Y884606D02*
X939038Y884860D01*
X938953Y884945D01*
X938869Y884860D01*
X938869Y884691D01*
X938784Y884606D01*
X938699Y884691D01*
X938699Y884945D01*
X938614Y885159D02*
X938953Y885159D01*
X939038Y885243D01*
X938699Y885243D02*
X938699Y885074D01*
X938699Y885386D02*
X938699Y885470D01*
X939038Y885470D01*
X939038Y885386D02*
X939038Y885555D01*
X938530Y885470D02*
X938445Y885470D01*
X939038Y885782D02*
X939038Y885952D01*
X938953Y886036D01*
X938784Y886036D01*
X938699Y885952D01*
X938699Y885782D01*
X938784Y885697D01*
X938953Y885697D01*
X939038Y885782D01*
X939038Y886165D02*
X938699Y886165D01*
X938699Y886419D01*
X938784Y886504D01*
X939038Y886504D01*
X939038Y886633D02*
X939038Y886887D01*
X938953Y886972D01*
X938869Y886887D01*
X938869Y886718D01*
X938784Y886633D01*
X938699Y886718D01*
X938699Y886972D01*
X938614Y887653D02*
X938953Y887653D01*
X939038Y887738D01*
X938699Y887738D02*
X938699Y887568D01*
X939038Y887965D02*
X939038Y888134D01*
X938953Y888219D01*
X938784Y888219D01*
X938699Y888134D01*
X938699Y887965D01*
X938784Y887880D01*
X938953Y887880D01*
X939038Y887965D01*
X938699Y888348D02*
X938699Y888433D01*
X938784Y888433D01*
X938784Y888348D01*
X938699Y888348D01*
X938953Y888348D02*
X938953Y888433D01*
X939038Y888433D01*
X939038Y888348D01*
X938953Y888348D01*
X938614Y889050D02*
X938530Y889050D01*
X938614Y889050D02*
X938784Y889219D01*
X938614Y889389D01*
X938530Y889389D01*
X938784Y889219D02*
X939038Y889219D01*
X938869Y889517D02*
X938530Y889517D01*
X938869Y889517D02*
X939038Y889687D01*
X938869Y889856D01*
X938530Y889856D01*
X938699Y889985D02*
X938530Y890155D01*
X939038Y890155D01*
X939038Y890324D02*
X939038Y889985D01*
X939038Y890453D02*
X938530Y890453D01*
X938784Y890453D02*
X938784Y890792D01*
X938530Y890792D02*
X939038Y890792D01*
X939038Y891260D02*
X938530Y890921D01*
X938530Y891260D02*
X939038Y890921D01*
X939038Y891643D02*
X938953Y891727D01*
X939038Y891643D02*
X939038Y891473D01*
X938953Y891388D01*
X938614Y891388D01*
X938530Y891473D01*
X938530Y891643D01*
X938614Y891727D01*
X938784Y891727D01*
X938869Y891643D01*
X938869Y891473D01*
X938699Y891473D01*
X938699Y891643D01*
X938869Y891643D01*
X938530Y892110D02*
X938614Y892195D01*
X938530Y892110D02*
X938530Y891941D01*
X938614Y891856D01*
X938953Y891856D01*
X939038Y891941D01*
X939038Y892110D01*
X938953Y892195D01*
X939038Y892324D02*
X938699Y892324D01*
X938530Y892493D01*
X938699Y892663D01*
X939038Y892663D01*
X938784Y892663D02*
X938784Y892324D01*
X939038Y892792D02*
X938530Y892792D01*
X939038Y893131D01*
X938530Y893131D01*
X938530Y893429D02*
X939038Y893429D01*
X938530Y893259D02*
X938530Y893598D01*
X938530Y893727D02*
X938869Y893727D01*
X939038Y893897D01*
X938869Y894066D01*
X938530Y894066D01*
X938953Y894195D02*
X939038Y894195D01*
X938953Y894195D02*
X938953Y894280D01*
X939038Y894280D01*
X939038Y894195D01*
X939038Y894429D02*
X938530Y894429D01*
X939038Y894768D01*
X938530Y894768D01*
X938530Y894897D02*
X938530Y895235D01*
X938530Y894897D02*
X939038Y894897D01*
X939038Y895235D01*
X938784Y895066D02*
X938784Y894897D01*
X939038Y895534D02*
X938530Y895534D01*
X938530Y895703D02*
X938530Y895364D01*
X939292Y870119D02*
X939800Y870119D01*
X939292Y869950D02*
X939292Y870289D01*
X939292Y870418D02*
X939800Y870418D01*
X939546Y870418D02*
X939461Y870502D01*
X939461Y870672D01*
X939546Y870757D01*
X939800Y870757D01*
X939461Y870970D02*
X939461Y871140D01*
X939546Y871224D01*
X939800Y871224D01*
X939800Y870970D01*
X939715Y870886D01*
X939631Y870970D01*
X939631Y871224D01*
X939800Y871353D02*
X939461Y871353D01*
X939461Y871607D01*
X939546Y871692D01*
X939800Y871692D01*
X939800Y871821D02*
X939292Y871821D01*
X939631Y871821D02*
X939800Y872075D01*
X939631Y871821D02*
X939461Y872075D01*
X939800Y872211D02*
X939800Y872465D01*
X939715Y872550D01*
X939631Y872465D01*
X939631Y872296D01*
X939546Y872211D01*
X939461Y872296D01*
X939461Y872550D01*
X939461Y873146D02*
X939715Y873146D01*
X939800Y873231D01*
X939800Y873485D01*
X939885Y873485D02*
X939461Y873485D01*
X939885Y873485D02*
X939969Y873400D01*
X939969Y873316D01*
X939800Y873699D02*
X939800Y873868D01*
X939715Y873953D01*
X939546Y873953D01*
X939461Y873868D01*
X939461Y873699D01*
X939546Y873614D01*
X939715Y873614D01*
X939800Y873699D01*
X939715Y874082D02*
X939461Y874082D01*
X939715Y874082D02*
X939800Y874167D01*
X939800Y874421D01*
X939461Y874421D01*
X939715Y874550D02*
X939800Y874550D01*
X939546Y874550D02*
X939207Y874550D01*
X939715Y874705D02*
X939800Y874705D01*
X939546Y874705D02*
X939207Y874705D01*
X939715Y874861D02*
X939800Y874861D01*
X939546Y874861D02*
X939207Y874861D01*
D17*
X927100Y958850D02*
X952500Y958850D01*
X939800Y971550D02*
X939800Y946150D01*
X927100Y806450D02*
X952500Y806450D01*
X939800Y819150D02*
X939800Y793750D01*
X1346200Y793750D02*
X1346200Y819150D01*
X1333500Y806450D02*
X1358900Y806450D01*
X1346200Y946150D02*
X1346200Y971550D01*
X1333500Y958850D02*
X1358900Y958850D01*
D11*
X1332350Y46150D02*
X1332350Y20750D01*
X1332350Y46150D02*
X1332350Y71550D01*
X1322825Y71550D01*
X1316475Y71550D01*
X1306950Y71550D01*
X824350Y71550D01*
X824350Y20750D01*
X1332350Y20750D01*
X1332350Y46150D02*
X1306950Y46150D01*
X1306950Y71550D01*
X1322825Y71550D02*
X1322825Y74725D01*
X1316475Y74725D01*
X1316475Y71550D01*
D12*
X1313978Y83874D02*
X1317028Y86925D01*
X1317028Y77773D01*
X1313978Y77773D02*
X1320079Y77773D01*
D10*
X393700Y946150D02*
X381000Y946150D01*
X374650Y952500D01*
X374650Y965200D02*
X381000Y971550D01*
X374650Y952500D02*
X368300Y946150D01*
X355600Y946150D01*
X349250Y952500D01*
X349250Y965200D02*
X355600Y971550D01*
X368300Y971550D01*
X374650Y965200D01*
X400050Y965200D02*
X400050Y952500D01*
X393700Y946150D01*
X400050Y965200D02*
X393700Y971550D01*
X381000Y971550D01*
X349250Y952500D02*
X342900Y946150D01*
X330200Y946150D01*
X323850Y952500D01*
X323850Y965200D02*
X330200Y971550D01*
X342900Y971550D01*
X349250Y965200D01*
X317500Y946150D02*
X304800Y946150D01*
X298450Y952500D01*
X298450Y965200D02*
X304800Y971550D01*
X298450Y952500D02*
X292100Y946150D01*
X279400Y946150D01*
X273050Y952500D01*
X273050Y965200D01*
X279400Y971550D01*
X292100Y971550D01*
X298450Y965200D01*
X317500Y946150D02*
X323850Y952500D01*
X323850Y965200D02*
X317500Y971550D01*
X304800Y971550D01*
D11*
X371323Y941715D02*
X373230Y939808D01*
X371323Y941715D02*
X367510Y941715D01*
X365603Y939808D01*
X365603Y937902D01*
X367510Y935995D01*
X371323Y935995D01*
X373230Y934088D01*
X373230Y932182D01*
X371323Y930275D01*
X367510Y930275D01*
X365603Y932182D01*
X377297Y934088D02*
X377297Y941715D01*
X377297Y934088D02*
X381110Y930275D01*
X384924Y934088D01*
X384924Y941715D01*
X392804Y939808D02*
X396617Y941715D01*
X392804Y939808D02*
X388991Y935995D01*
X388991Y932182D01*
X390898Y930275D01*
X394711Y930275D01*
X396617Y932182D01*
X396617Y934088D01*
X394711Y935995D01*
X388991Y935995D01*
X382641Y983622D02*
X386454Y987435D01*
X386454Y975995D01*
X382641Y975995D02*
X390268Y975995D01*
X288668Y941715D02*
X281041Y941715D01*
X281041Y935995D01*
X284854Y937902D01*
X286761Y937902D01*
X288668Y935995D01*
X288668Y932182D01*
X286761Y930275D01*
X282948Y930275D01*
X281041Y932182D01*
D10*
X321800Y84410D02*
X321800Y-15590D01*
X414800Y-15590D01*
X414800Y84410D01*
X321800Y84410D01*
X108440Y84410D02*
X108440Y-15590D01*
X201440Y-15590D01*
X201440Y84410D01*
X108440Y84410D01*
X146050Y292100D02*
X158750Y292100D01*
X165100Y285750D01*
X165100Y273050D02*
X158750Y266700D01*
X165100Y285750D02*
X171450Y292100D01*
X184150Y292100D01*
X190500Y285750D01*
X190500Y273050D02*
X184150Y266700D01*
X171450Y266700D01*
X165100Y273050D01*
X139700Y273050D02*
X139700Y285750D01*
X146050Y292100D01*
X139700Y273050D02*
X146050Y266700D01*
X158750Y266700D01*
X190500Y285750D02*
X196850Y292100D01*
X209550Y292100D01*
X215900Y285750D01*
X215900Y273050D02*
X209550Y266700D01*
X196850Y266700D01*
X190500Y273050D01*
X215900Y273050D02*
X215900Y285750D01*
D11*
X147962Y306078D02*
X146055Y307985D01*
X142242Y307985D01*
X140335Y306078D01*
X140335Y304172D01*
X142242Y302265D01*
X146055Y302265D01*
X147962Y300358D01*
X147962Y298452D01*
X146055Y296545D01*
X142242Y296545D01*
X140335Y298452D01*
X152029Y300358D02*
X152029Y307985D01*
X152029Y300358D02*
X155842Y296545D01*
X159655Y300358D01*
X159655Y307985D01*
X163723Y304172D02*
X167536Y307985D01*
X167536Y296545D01*
X163723Y296545D02*
X171349Y296545D01*
X175417Y298452D02*
X175417Y306078D01*
X177324Y307985D01*
X181137Y307985D01*
X183043Y306078D01*
X183043Y298452D01*
X181137Y296545D01*
X177324Y296545D01*
X175417Y298452D01*
X183043Y306078D01*
X131448Y285125D02*
X127635Y281312D01*
X131448Y285125D02*
X131448Y273685D01*
X127635Y273685D02*
X135262Y273685D01*
D12*
X152898Y946155D02*
X154847Y948104D01*
X152898Y946155D02*
X152898Y942257D01*
X154847Y940308D01*
X162643Y940308D01*
X164592Y942257D01*
X164592Y946155D01*
X162643Y948104D01*
X156796Y952002D02*
X152898Y955900D01*
X164592Y955900D01*
X164592Y952002D02*
X164592Y959798D01*
X178298Y946155D02*
X180247Y948104D01*
X178298Y946155D02*
X178298Y942257D01*
X180247Y940308D01*
X188043Y940308D01*
X189992Y942257D01*
X189992Y946155D01*
X188043Y948104D01*
X182196Y952002D02*
X178298Y955900D01*
X189992Y955900D01*
X189992Y952002D02*
X189992Y959798D01*
X188043Y963696D02*
X180247Y963696D01*
X178298Y965645D01*
X178298Y969543D01*
X180247Y971492D01*
X188043Y971492D01*
X189992Y969543D01*
X189992Y965645D01*
X188043Y963696D01*
X180247Y971492D01*
X1400526Y723402D02*
X1400526Y711708D01*
X1400526Y723402D02*
X1406373Y723402D01*
X1408322Y721453D01*
X1408322Y717555D01*
X1406373Y715606D01*
X1400526Y715606D01*
X1404424Y715606D02*
X1408322Y711708D01*
X1412220Y719504D02*
X1416118Y723402D01*
X1416118Y711708D01*
X1412220Y711708D02*
X1420016Y711708D01*
X1427812Y721453D02*
X1431710Y723402D01*
X1427812Y721453D02*
X1423914Y717555D01*
X1423914Y713657D01*
X1425863Y711708D01*
X1429761Y711708D01*
X1431710Y713657D01*
X1431710Y715606D01*
X1429761Y717555D01*
X1423914Y717555D01*
X1400526Y737108D02*
X1400526Y748802D01*
X1406373Y748802D01*
X1408322Y746853D01*
X1408322Y742955D01*
X1406373Y741006D01*
X1400526Y741006D01*
X1404424Y741006D02*
X1408322Y737108D01*
X1412220Y744904D02*
X1416118Y748802D01*
X1416118Y737108D01*
X1412220Y737108D02*
X1420016Y737108D01*
X1423914Y748802D02*
X1431710Y748802D01*
X1431710Y746853D01*
X1423914Y739057D01*
X1423914Y737108D01*
X1400526Y762508D02*
X1400526Y774202D01*
X1406373Y774202D01*
X1408322Y772253D01*
X1408322Y768355D01*
X1406373Y766406D01*
X1400526Y766406D01*
X1404424Y766406D02*
X1408322Y762508D01*
X1412220Y770304D02*
X1416118Y774202D01*
X1416118Y762508D01*
X1412220Y762508D02*
X1420016Y762508D01*
X1423914Y764457D02*
X1425863Y762508D01*
X1429761Y762508D01*
X1431710Y764457D01*
X1431710Y772253D01*
X1429761Y774202D01*
X1425863Y774202D01*
X1423914Y772253D01*
X1423914Y770304D01*
X1425863Y768355D01*
X1431710Y768355D01*
X752602Y237206D02*
X740908Y237206D01*
X740908Y243053D01*
X742857Y245002D01*
X746755Y245002D01*
X748704Y243053D01*
X748704Y237206D01*
X748704Y241104D02*
X752602Y245002D01*
X744806Y248900D02*
X740908Y252798D01*
X752602Y252798D01*
X752602Y248900D02*
X752602Y256696D01*
X742857Y260594D02*
X740908Y262543D01*
X740908Y266441D01*
X742857Y268390D01*
X744806Y268390D01*
X746755Y266441D01*
X748704Y268390D01*
X750653Y268390D01*
X752602Y266441D01*
X752602Y262543D01*
X750653Y260594D01*
X748704Y260594D01*
X746755Y262543D01*
X744806Y260594D01*
X742857Y260594D01*
X746755Y262543D02*
X746755Y266441D01*
X380492Y790926D02*
X368798Y790926D01*
X368798Y796773D01*
X370747Y798722D01*
X374645Y798722D01*
X376594Y796773D01*
X376594Y790926D01*
X376594Y794824D02*
X380492Y798722D01*
X380492Y802620D02*
X380492Y810416D01*
X380492Y802620D02*
X372696Y810416D01*
X370747Y810416D01*
X368798Y808467D01*
X368798Y804569D01*
X370747Y802620D01*
X370747Y814314D02*
X378543Y814314D01*
X370747Y814314D02*
X368798Y816263D01*
X368798Y820161D01*
X370747Y822110D01*
X378543Y822110D01*
X380492Y820161D01*
X380492Y816263D01*
X378543Y814314D01*
X370747Y822110D01*
X464058Y933958D02*
X464058Y945652D01*
X469905Y945652D01*
X471854Y943703D01*
X471854Y939805D01*
X469905Y937856D01*
X464058Y937856D01*
X467956Y937856D02*
X471854Y933958D01*
X475752Y933958D02*
X483548Y933958D01*
X475752Y933958D02*
X483548Y941754D01*
X483548Y943703D01*
X481599Y945652D01*
X477701Y945652D01*
X475752Y943703D01*
X487446Y941754D02*
X491344Y945652D01*
X491344Y933958D01*
X487446Y933958D02*
X495242Y933958D01*
X1340358Y774202D02*
X1340358Y762508D01*
X1340358Y774202D02*
X1346205Y774202D01*
X1348154Y772253D01*
X1348154Y768355D01*
X1346205Y766406D01*
X1340358Y766406D01*
X1344256Y766406D02*
X1348154Y762508D01*
X1352052Y762508D02*
X1359848Y762508D01*
X1352052Y762508D02*
X1359848Y770304D01*
X1359848Y772253D01*
X1357899Y774202D01*
X1354001Y774202D01*
X1352052Y772253D01*
X1363746Y762508D02*
X1371542Y762508D01*
X1363746Y762508D02*
X1371542Y770304D01*
X1371542Y772253D01*
X1369593Y774202D01*
X1365695Y774202D01*
X1363746Y772253D01*
X1060958Y774202D02*
X1060958Y762508D01*
X1060958Y774202D02*
X1066805Y774202D01*
X1068754Y772253D01*
X1068754Y768355D01*
X1066805Y766406D01*
X1060958Y766406D01*
X1064856Y766406D02*
X1068754Y762508D01*
X1072652Y762508D02*
X1080448Y762508D01*
X1072652Y762508D02*
X1080448Y770304D01*
X1080448Y772253D01*
X1078499Y774202D01*
X1074601Y774202D01*
X1072652Y772253D01*
X1084346Y772253D02*
X1086295Y774202D01*
X1090193Y774202D01*
X1092142Y772253D01*
X1092142Y770304D01*
X1090193Y768355D01*
X1088244Y768355D01*
X1090193Y768355D02*
X1092142Y766406D01*
X1092142Y764457D01*
X1090193Y762508D01*
X1086295Y762508D01*
X1084346Y764457D01*
X659892Y759176D02*
X648198Y759176D01*
X648198Y765023D01*
X650147Y766972D01*
X654045Y766972D01*
X655994Y765023D01*
X655994Y759176D01*
X655994Y763074D02*
X659892Y766972D01*
X659892Y770870D02*
X659892Y778666D01*
X659892Y770870D02*
X652096Y778666D01*
X650147Y778666D01*
X648198Y776717D01*
X648198Y772819D01*
X650147Y770870D01*
X648198Y788411D02*
X659892Y788411D01*
X654045Y782564D02*
X648198Y788411D01*
X654045Y790360D02*
X654045Y782564D01*
X324358Y774202D02*
X324358Y762508D01*
X324358Y774202D02*
X330205Y774202D01*
X332154Y772253D01*
X332154Y768355D01*
X330205Y766406D01*
X324358Y766406D01*
X328256Y766406D02*
X332154Y762508D01*
X336052Y762508D02*
X343848Y762508D01*
X336052Y762508D02*
X343848Y770304D01*
X343848Y772253D01*
X341899Y774202D01*
X338001Y774202D01*
X336052Y772253D01*
X347746Y774202D02*
X355542Y774202D01*
X347746Y774202D02*
X347746Y768355D01*
X351644Y770304D01*
X353593Y770304D01*
X355542Y768355D01*
X355542Y764457D01*
X353593Y762508D01*
X349695Y762508D01*
X347746Y764457D01*
X1321298Y744024D02*
X1332992Y744024D01*
X1321298Y740126D02*
X1321298Y747922D01*
X1325196Y751820D02*
X1321298Y755718D01*
X1332992Y755718D01*
X1332992Y751820D02*
X1332992Y759616D01*
X1321298Y763514D02*
X1321298Y771310D01*
X1321298Y763514D02*
X1327145Y763514D01*
X1325196Y767412D01*
X1325196Y769361D01*
X1327145Y771310D01*
X1331043Y771310D01*
X1332992Y769361D01*
X1332992Y765463D01*
X1331043Y763514D01*
X1053592Y744024D02*
X1041898Y744024D01*
X1041898Y740126D02*
X1041898Y747922D01*
X1045796Y751820D02*
X1041898Y755718D01*
X1053592Y755718D01*
X1053592Y751820D02*
X1053592Y759616D01*
X1043847Y767412D02*
X1041898Y771310D01*
X1043847Y767412D02*
X1047745Y763514D01*
X1051643Y763514D01*
X1053592Y765463D01*
X1053592Y769361D01*
X1051643Y771310D01*
X1049694Y771310D01*
X1047745Y769361D01*
X1047745Y763514D01*
X659892Y772756D02*
X648198Y772756D01*
X648198Y768858D02*
X648198Y776654D01*
X652096Y780552D02*
X648198Y784450D01*
X659892Y784450D01*
X659892Y780552D02*
X659892Y788348D01*
X648198Y792246D02*
X648198Y800042D01*
X650147Y800042D01*
X657943Y792246D01*
X659892Y792246D01*
X316992Y744024D02*
X305298Y744024D01*
X305298Y740126D02*
X305298Y747922D01*
X309196Y751820D02*
X305298Y755718D01*
X316992Y755718D01*
X316992Y751820D02*
X316992Y759616D01*
X307247Y763514D02*
X305298Y765463D01*
X305298Y769361D01*
X307247Y771310D01*
X309196Y771310D01*
X311145Y769361D01*
X313094Y771310D01*
X315043Y771310D01*
X316992Y769361D01*
X316992Y765463D01*
X315043Y763514D01*
X313094Y763514D01*
X311145Y765463D01*
X309196Y763514D01*
X307247Y763514D01*
X311145Y765463D02*
X311145Y769361D01*
X152883Y329702D02*
X154832Y327753D01*
X152883Y329702D02*
X148985Y329702D01*
X147036Y327753D01*
X147036Y319957D01*
X148985Y318008D01*
X152883Y318008D01*
X154832Y319957D01*
X158730Y325804D02*
X162628Y329702D01*
X162628Y318008D01*
X158730Y318008D02*
X166526Y318008D01*
X170424Y325804D02*
X174322Y329702D01*
X174322Y318008D01*
X170424Y318008D02*
X178220Y318008D01*
X154832Y302353D02*
X152883Y304302D01*
X148985Y304302D01*
X147036Y302353D01*
X147036Y294557D01*
X148985Y292608D01*
X152883Y292608D01*
X154832Y294557D01*
X158730Y300404D02*
X162628Y304302D01*
X162628Y292608D01*
X158730Y292608D02*
X166526Y292608D01*
X170424Y292608D02*
X178220Y292608D01*
X170424Y292608D02*
X178220Y300404D01*
X178220Y302353D01*
X176271Y304302D01*
X172373Y304302D01*
X170424Y302353D01*
M02*
