G04 EAGLE Gerber X2 export*
%TF.Part,Single*%
%TF.FileFunction,Paste,Top*%
%TF.FilePolarity,Positive*%
%TF.GenerationSoftware,Autodesk,EAGLE,9.0.1*%
%TF.CreationDate,2018-07-01T13:53:45Z*%
G75*
%MOMM*%
%FSLAX34Y34*%
%LPD*%
%AMOC8*
5,1,8,0,0,1.08239X$1,22.5*%
G01*
%ADD10R,1.100000X1.000000*%
%ADD11R,1.000000X1.100000*%
%ADD12R,1.000000X1.400000*%
%ADD13R,1.400000X1.000000*%
%ADD14R,1.300000X1.500000*%
%ADD15R,1.500000X1.300000*%
%ADD16R,0.300000X0.900000*%


D10*
X609600Y829700D03*
X609600Y846700D03*
X857250Y670950D03*
X857250Y687950D03*
X819150Y670950D03*
X819150Y687950D03*
X781050Y670950D03*
X781050Y687950D03*
X742950Y670950D03*
X742950Y687950D03*
X704850Y670950D03*
X704850Y687950D03*
X666750Y670950D03*
X666750Y687950D03*
X501650Y829700D03*
X501650Y846700D03*
X539750Y829700D03*
X539750Y846700D03*
X577850Y829700D03*
X577850Y846700D03*
D11*
X1248800Y755650D03*
X1265800Y755650D03*
X969400Y755650D03*
X986400Y755650D03*
X448700Y755650D03*
X465700Y755650D03*
X232800Y755650D03*
X249800Y755650D03*
X1405500Y844550D03*
X1388500Y844550D03*
D12*
X603250Y776400D03*
X593750Y798400D03*
X612750Y798400D03*
X850900Y624000D03*
X841400Y646000D03*
X860400Y646000D03*
X812800Y624000D03*
X803300Y646000D03*
X822300Y646000D03*
X774700Y624000D03*
X765200Y646000D03*
X784200Y646000D03*
X736600Y624000D03*
X727100Y646000D03*
X746100Y646000D03*
X698500Y624000D03*
X689000Y646000D03*
X708000Y646000D03*
X660400Y624000D03*
X650900Y646000D03*
X669900Y646000D03*
X488950Y776400D03*
X479450Y798400D03*
X498450Y798400D03*
X527050Y776400D03*
X517550Y798400D03*
X536550Y798400D03*
X565150Y776400D03*
X555650Y798400D03*
X574650Y798400D03*
D13*
X1223850Y755650D03*
X1201850Y746150D03*
X1201850Y765150D03*
X944450Y755650D03*
X922450Y746150D03*
X922450Y765150D03*
X423750Y755650D03*
X401750Y746150D03*
X401750Y765150D03*
X207850Y755650D03*
X185850Y746150D03*
X185850Y765150D03*
D14*
X639470Y313690D03*
X658470Y313690D03*
X639470Y337820D03*
X658470Y337820D03*
D15*
X234950Y923900D03*
X234950Y904900D03*
X266700Y923900D03*
X266700Y904900D03*
X177800Y879500D03*
X177800Y898500D03*
X203200Y879500D03*
X203200Y898500D03*
X177800Y854050D03*
X177800Y835050D03*
X203200Y854050D03*
X203200Y835050D03*
D16*
X340800Y80310D03*
X345800Y80310D03*
X350800Y80310D03*
X355800Y80310D03*
X360800Y80310D03*
X365800Y80310D03*
X370800Y80310D03*
X375800Y80310D03*
X380800Y80310D03*
X385800Y80310D03*
X390800Y80310D03*
X395800Y80310D03*
X127440Y80310D03*
X132440Y80310D03*
X137440Y80310D03*
X142440Y80310D03*
X147440Y80310D03*
X152440Y80310D03*
X157440Y80310D03*
X162440Y80310D03*
X167440Y80310D03*
X172440Y80310D03*
X177440Y80310D03*
X182440Y80310D03*
D15*
X177800Y943000D03*
X177800Y962000D03*
X203200Y943000D03*
X203200Y962000D03*
D11*
X1437250Y730250D03*
X1420250Y730250D03*
X1437250Y755650D03*
X1420250Y755650D03*
X1437250Y781050D03*
X1420250Y781050D03*
D10*
X734060Y273930D03*
X734060Y256930D03*
X361950Y827650D03*
X361950Y810650D03*
D11*
X461400Y927100D03*
X478400Y927100D03*
X1337700Y755650D03*
X1354700Y755650D03*
X1058300Y755650D03*
X1075300Y755650D03*
D10*
X641350Y795900D03*
X641350Y778900D03*
D11*
X321700Y755650D03*
X338700Y755650D03*
D13*
X1312750Y755650D03*
X1290750Y746150D03*
X1290750Y765150D03*
X1033350Y755650D03*
X1011350Y746150D03*
X1011350Y765150D03*
X668450Y787400D03*
X690450Y796900D03*
X690450Y777900D03*
X296750Y755650D03*
X274750Y746150D03*
X274750Y765150D03*
D14*
X178410Y342900D03*
X159410Y342900D03*
X178410Y317500D03*
X159410Y317500D03*
M02*
