G04 EAGLE Gerber X2 export*
%TF.Part,Single*%
%TF.FileFunction,Other,Best?ckungsdruck*%
%TF.FilePolarity,Positive*%
%TF.GenerationSoftware,Autodesk,EAGLE,9.0.1*%
%TF.CreationDate,2018-07-07T15:44:29Z*%
G75*
%MOMM*%
%FSLAX34Y34*%
%LPD*%
%AMOC8*
5,1,8,0,0,1.08239X$1,22.5*%
G01*
%ADD10C,0.000000*%


D10*
X0Y0D02*
X1500000Y0D01*
X1500000Y1000000D01*
X0Y1000000D01*
X0Y0D01*
X163500Y693000D02*
X163505Y693405D01*
X163520Y693810D01*
X163545Y694214D01*
X163579Y694617D01*
X163624Y695020D01*
X163679Y695421D01*
X163743Y695821D01*
X163817Y696219D01*
X163901Y696615D01*
X163994Y697009D01*
X164098Y697401D01*
X164210Y697790D01*
X164333Y698176D01*
X164465Y698559D01*
X164606Y698938D01*
X164756Y699314D01*
X164916Y699686D01*
X165084Y700055D01*
X165262Y700419D01*
X165448Y700778D01*
X165644Y701133D01*
X165847Y701483D01*
X166060Y701827D01*
X166281Y702167D01*
X166510Y702501D01*
X166747Y702829D01*
X166992Y703151D01*
X167245Y703467D01*
X167506Y703777D01*
X167774Y704081D01*
X168050Y704377D01*
X168333Y704667D01*
X168623Y704950D01*
X168919Y705226D01*
X169223Y705494D01*
X169533Y705755D01*
X169849Y706008D01*
X170171Y706253D01*
X170499Y706490D01*
X170833Y706719D01*
X171173Y706940D01*
X171517Y707153D01*
X171867Y707356D01*
X172222Y707552D01*
X172581Y707738D01*
X172945Y707916D01*
X173314Y708084D01*
X173686Y708244D01*
X174062Y708394D01*
X174441Y708535D01*
X174824Y708667D01*
X175210Y708790D01*
X175599Y708902D01*
X175991Y709006D01*
X176385Y709099D01*
X176781Y709183D01*
X177179Y709257D01*
X177579Y709321D01*
X177980Y709376D01*
X178383Y709421D01*
X178786Y709455D01*
X179190Y709480D01*
X179595Y709495D01*
X180000Y709500D01*
X180405Y709495D01*
X180810Y709480D01*
X181214Y709455D01*
X181617Y709421D01*
X182020Y709376D01*
X182421Y709321D01*
X182821Y709257D01*
X183219Y709183D01*
X183615Y709099D01*
X184009Y709006D01*
X184401Y708902D01*
X184790Y708790D01*
X185176Y708667D01*
X185559Y708535D01*
X185938Y708394D01*
X186314Y708244D01*
X186686Y708084D01*
X187055Y707916D01*
X187419Y707738D01*
X187778Y707552D01*
X188133Y707356D01*
X188483Y707153D01*
X188827Y706940D01*
X189167Y706719D01*
X189501Y706490D01*
X189829Y706253D01*
X190151Y706008D01*
X190467Y705755D01*
X190777Y705494D01*
X191081Y705226D01*
X191377Y704950D01*
X191667Y704667D01*
X191950Y704377D01*
X192226Y704081D01*
X192494Y703777D01*
X192755Y703467D01*
X193008Y703151D01*
X193253Y702829D01*
X193490Y702501D01*
X193719Y702167D01*
X193940Y701827D01*
X194153Y701483D01*
X194356Y701133D01*
X194552Y700778D01*
X194738Y700419D01*
X194916Y700055D01*
X195084Y699686D01*
X195244Y699314D01*
X195394Y698938D01*
X195535Y698559D01*
X195667Y698176D01*
X195790Y697790D01*
X195902Y697401D01*
X196006Y697009D01*
X196099Y696615D01*
X196183Y696219D01*
X196257Y695821D01*
X196321Y695421D01*
X196376Y695020D01*
X196421Y694617D01*
X196455Y694214D01*
X196480Y693810D01*
X196495Y693405D01*
X196500Y693000D01*
X196495Y692595D01*
X196480Y692190D01*
X196455Y691786D01*
X196421Y691383D01*
X196376Y690980D01*
X196321Y690579D01*
X196257Y690179D01*
X196183Y689781D01*
X196099Y689385D01*
X196006Y688991D01*
X195902Y688599D01*
X195790Y688210D01*
X195667Y687824D01*
X195535Y687441D01*
X195394Y687062D01*
X195244Y686686D01*
X195084Y686314D01*
X194916Y685945D01*
X194738Y685581D01*
X194552Y685222D01*
X194356Y684867D01*
X194153Y684517D01*
X193940Y684173D01*
X193719Y683833D01*
X193490Y683499D01*
X193253Y683171D01*
X193008Y682849D01*
X192755Y682533D01*
X192494Y682223D01*
X192226Y681919D01*
X191950Y681623D01*
X191667Y681333D01*
X191377Y681050D01*
X191081Y680774D01*
X190777Y680506D01*
X190467Y680245D01*
X190151Y679992D01*
X189829Y679747D01*
X189501Y679510D01*
X189167Y679281D01*
X188827Y679060D01*
X188483Y678847D01*
X188133Y678644D01*
X187778Y678448D01*
X187419Y678262D01*
X187055Y678084D01*
X186686Y677916D01*
X186314Y677756D01*
X185938Y677606D01*
X185559Y677465D01*
X185176Y677333D01*
X184790Y677210D01*
X184401Y677098D01*
X184009Y676994D01*
X183615Y676901D01*
X183219Y676817D01*
X182821Y676743D01*
X182421Y676679D01*
X182020Y676624D01*
X181617Y676579D01*
X181214Y676545D01*
X180810Y676520D01*
X180405Y676505D01*
X180000Y676500D01*
X179595Y676505D01*
X179190Y676520D01*
X178786Y676545D01*
X178383Y676579D01*
X177980Y676624D01*
X177579Y676679D01*
X177179Y676743D01*
X176781Y676817D01*
X176385Y676901D01*
X175991Y676994D01*
X175599Y677098D01*
X175210Y677210D01*
X174824Y677333D01*
X174441Y677465D01*
X174062Y677606D01*
X173686Y677756D01*
X173314Y677916D01*
X172945Y678084D01*
X172581Y678262D01*
X172222Y678448D01*
X171867Y678644D01*
X171517Y678847D01*
X171173Y679060D01*
X170833Y679281D01*
X170499Y679510D01*
X170171Y679747D01*
X169849Y679992D01*
X169533Y680245D01*
X169223Y680506D01*
X168919Y680774D01*
X168623Y681050D01*
X168333Y681333D01*
X168050Y681623D01*
X167774Y681919D01*
X167506Y682223D01*
X167245Y682533D01*
X166992Y682849D01*
X166747Y683171D01*
X166510Y683499D01*
X166281Y683833D01*
X166060Y684173D01*
X165847Y684517D01*
X165644Y684867D01*
X165448Y685222D01*
X165262Y685581D01*
X165084Y685945D01*
X164916Y686314D01*
X164756Y686686D01*
X164606Y687062D01*
X164465Y687441D01*
X164333Y687824D01*
X164210Y688210D01*
X164098Y688599D01*
X163994Y688991D01*
X163901Y689385D01*
X163817Y689781D01*
X163743Y690179D01*
X163679Y690579D01*
X163624Y690980D01*
X163579Y691383D01*
X163545Y691786D01*
X163520Y692190D01*
X163505Y692595D01*
X163500Y693000D01*
X303500Y693000D02*
X303505Y693405D01*
X303520Y693810D01*
X303545Y694214D01*
X303579Y694617D01*
X303624Y695020D01*
X303679Y695421D01*
X303743Y695821D01*
X303817Y696219D01*
X303901Y696615D01*
X303994Y697009D01*
X304098Y697401D01*
X304210Y697790D01*
X304333Y698176D01*
X304465Y698559D01*
X304606Y698938D01*
X304756Y699314D01*
X304916Y699686D01*
X305084Y700055D01*
X305262Y700419D01*
X305448Y700778D01*
X305644Y701133D01*
X305847Y701483D01*
X306060Y701827D01*
X306281Y702167D01*
X306510Y702501D01*
X306747Y702829D01*
X306992Y703151D01*
X307245Y703467D01*
X307506Y703777D01*
X307774Y704081D01*
X308050Y704377D01*
X308333Y704667D01*
X308623Y704950D01*
X308919Y705226D01*
X309223Y705494D01*
X309533Y705755D01*
X309849Y706008D01*
X310171Y706253D01*
X310499Y706490D01*
X310833Y706719D01*
X311173Y706940D01*
X311517Y707153D01*
X311867Y707356D01*
X312222Y707552D01*
X312581Y707738D01*
X312945Y707916D01*
X313314Y708084D01*
X313686Y708244D01*
X314062Y708394D01*
X314441Y708535D01*
X314824Y708667D01*
X315210Y708790D01*
X315599Y708902D01*
X315991Y709006D01*
X316385Y709099D01*
X316781Y709183D01*
X317179Y709257D01*
X317579Y709321D01*
X317980Y709376D01*
X318383Y709421D01*
X318786Y709455D01*
X319190Y709480D01*
X319595Y709495D01*
X320000Y709500D01*
X320405Y709495D01*
X320810Y709480D01*
X321214Y709455D01*
X321617Y709421D01*
X322020Y709376D01*
X322421Y709321D01*
X322821Y709257D01*
X323219Y709183D01*
X323615Y709099D01*
X324009Y709006D01*
X324401Y708902D01*
X324790Y708790D01*
X325176Y708667D01*
X325559Y708535D01*
X325938Y708394D01*
X326314Y708244D01*
X326686Y708084D01*
X327055Y707916D01*
X327419Y707738D01*
X327778Y707552D01*
X328133Y707356D01*
X328483Y707153D01*
X328827Y706940D01*
X329167Y706719D01*
X329501Y706490D01*
X329829Y706253D01*
X330151Y706008D01*
X330467Y705755D01*
X330777Y705494D01*
X331081Y705226D01*
X331377Y704950D01*
X331667Y704667D01*
X331950Y704377D01*
X332226Y704081D01*
X332494Y703777D01*
X332755Y703467D01*
X333008Y703151D01*
X333253Y702829D01*
X333490Y702501D01*
X333719Y702167D01*
X333940Y701827D01*
X334153Y701483D01*
X334356Y701133D01*
X334552Y700778D01*
X334738Y700419D01*
X334916Y700055D01*
X335084Y699686D01*
X335244Y699314D01*
X335394Y698938D01*
X335535Y698559D01*
X335667Y698176D01*
X335790Y697790D01*
X335902Y697401D01*
X336006Y697009D01*
X336099Y696615D01*
X336183Y696219D01*
X336257Y695821D01*
X336321Y695421D01*
X336376Y695020D01*
X336421Y694617D01*
X336455Y694214D01*
X336480Y693810D01*
X336495Y693405D01*
X336500Y693000D01*
X336495Y692595D01*
X336480Y692190D01*
X336455Y691786D01*
X336421Y691383D01*
X336376Y690980D01*
X336321Y690579D01*
X336257Y690179D01*
X336183Y689781D01*
X336099Y689385D01*
X336006Y688991D01*
X335902Y688599D01*
X335790Y688210D01*
X335667Y687824D01*
X335535Y687441D01*
X335394Y687062D01*
X335244Y686686D01*
X335084Y686314D01*
X334916Y685945D01*
X334738Y685581D01*
X334552Y685222D01*
X334356Y684867D01*
X334153Y684517D01*
X333940Y684173D01*
X333719Y683833D01*
X333490Y683499D01*
X333253Y683171D01*
X333008Y682849D01*
X332755Y682533D01*
X332494Y682223D01*
X332226Y681919D01*
X331950Y681623D01*
X331667Y681333D01*
X331377Y681050D01*
X331081Y680774D01*
X330777Y680506D01*
X330467Y680245D01*
X330151Y679992D01*
X329829Y679747D01*
X329501Y679510D01*
X329167Y679281D01*
X328827Y679060D01*
X328483Y678847D01*
X328133Y678644D01*
X327778Y678448D01*
X327419Y678262D01*
X327055Y678084D01*
X326686Y677916D01*
X326314Y677756D01*
X325938Y677606D01*
X325559Y677465D01*
X325176Y677333D01*
X324790Y677210D01*
X324401Y677098D01*
X324009Y676994D01*
X323615Y676901D01*
X323219Y676817D01*
X322821Y676743D01*
X322421Y676679D01*
X322020Y676624D01*
X321617Y676579D01*
X321214Y676545D01*
X320810Y676520D01*
X320405Y676505D01*
X320000Y676500D01*
X319595Y676505D01*
X319190Y676520D01*
X318786Y676545D01*
X318383Y676579D01*
X317980Y676624D01*
X317579Y676679D01*
X317179Y676743D01*
X316781Y676817D01*
X316385Y676901D01*
X315991Y676994D01*
X315599Y677098D01*
X315210Y677210D01*
X314824Y677333D01*
X314441Y677465D01*
X314062Y677606D01*
X313686Y677756D01*
X313314Y677916D01*
X312945Y678084D01*
X312581Y678262D01*
X312222Y678448D01*
X311867Y678644D01*
X311517Y678847D01*
X311173Y679060D01*
X310833Y679281D01*
X310499Y679510D01*
X310171Y679747D01*
X309849Y679992D01*
X309533Y680245D01*
X309223Y680506D01*
X308919Y680774D01*
X308623Y681050D01*
X308333Y681333D01*
X308050Y681623D01*
X307774Y681919D01*
X307506Y682223D01*
X307245Y682533D01*
X306992Y682849D01*
X306747Y683171D01*
X306510Y683499D01*
X306281Y683833D01*
X306060Y684173D01*
X305847Y684517D01*
X305644Y684867D01*
X305448Y685222D01*
X305262Y685581D01*
X305084Y685945D01*
X304916Y686314D01*
X304756Y686686D01*
X304606Y687062D01*
X304465Y687441D01*
X304333Y687824D01*
X304210Y688210D01*
X304098Y688599D01*
X303994Y688991D01*
X303901Y689385D01*
X303817Y689781D01*
X303743Y690179D01*
X303679Y690579D01*
X303624Y690980D01*
X303579Y691383D01*
X303545Y691786D01*
X303520Y692190D01*
X303505Y692595D01*
X303500Y693000D01*
X163500Y403000D02*
X163505Y403405D01*
X163520Y403810D01*
X163545Y404214D01*
X163579Y404617D01*
X163624Y405020D01*
X163679Y405421D01*
X163743Y405821D01*
X163817Y406219D01*
X163901Y406615D01*
X163994Y407009D01*
X164098Y407401D01*
X164210Y407790D01*
X164333Y408176D01*
X164465Y408559D01*
X164606Y408938D01*
X164756Y409314D01*
X164916Y409686D01*
X165084Y410055D01*
X165262Y410419D01*
X165448Y410778D01*
X165644Y411133D01*
X165847Y411483D01*
X166060Y411827D01*
X166281Y412167D01*
X166510Y412501D01*
X166747Y412829D01*
X166992Y413151D01*
X167245Y413467D01*
X167506Y413777D01*
X167774Y414081D01*
X168050Y414377D01*
X168333Y414667D01*
X168623Y414950D01*
X168919Y415226D01*
X169223Y415494D01*
X169533Y415755D01*
X169849Y416008D01*
X170171Y416253D01*
X170499Y416490D01*
X170833Y416719D01*
X171173Y416940D01*
X171517Y417153D01*
X171867Y417356D01*
X172222Y417552D01*
X172581Y417738D01*
X172945Y417916D01*
X173314Y418084D01*
X173686Y418244D01*
X174062Y418394D01*
X174441Y418535D01*
X174824Y418667D01*
X175210Y418790D01*
X175599Y418902D01*
X175991Y419006D01*
X176385Y419099D01*
X176781Y419183D01*
X177179Y419257D01*
X177579Y419321D01*
X177980Y419376D01*
X178383Y419421D01*
X178786Y419455D01*
X179190Y419480D01*
X179595Y419495D01*
X180000Y419500D01*
X180405Y419495D01*
X180810Y419480D01*
X181214Y419455D01*
X181617Y419421D01*
X182020Y419376D01*
X182421Y419321D01*
X182821Y419257D01*
X183219Y419183D01*
X183615Y419099D01*
X184009Y419006D01*
X184401Y418902D01*
X184790Y418790D01*
X185176Y418667D01*
X185559Y418535D01*
X185938Y418394D01*
X186314Y418244D01*
X186686Y418084D01*
X187055Y417916D01*
X187419Y417738D01*
X187778Y417552D01*
X188133Y417356D01*
X188483Y417153D01*
X188827Y416940D01*
X189167Y416719D01*
X189501Y416490D01*
X189829Y416253D01*
X190151Y416008D01*
X190467Y415755D01*
X190777Y415494D01*
X191081Y415226D01*
X191377Y414950D01*
X191667Y414667D01*
X191950Y414377D01*
X192226Y414081D01*
X192494Y413777D01*
X192755Y413467D01*
X193008Y413151D01*
X193253Y412829D01*
X193490Y412501D01*
X193719Y412167D01*
X193940Y411827D01*
X194153Y411483D01*
X194356Y411133D01*
X194552Y410778D01*
X194738Y410419D01*
X194916Y410055D01*
X195084Y409686D01*
X195244Y409314D01*
X195394Y408938D01*
X195535Y408559D01*
X195667Y408176D01*
X195790Y407790D01*
X195902Y407401D01*
X196006Y407009D01*
X196099Y406615D01*
X196183Y406219D01*
X196257Y405821D01*
X196321Y405421D01*
X196376Y405020D01*
X196421Y404617D01*
X196455Y404214D01*
X196480Y403810D01*
X196495Y403405D01*
X196500Y403000D01*
X196495Y402595D01*
X196480Y402190D01*
X196455Y401786D01*
X196421Y401383D01*
X196376Y400980D01*
X196321Y400579D01*
X196257Y400179D01*
X196183Y399781D01*
X196099Y399385D01*
X196006Y398991D01*
X195902Y398599D01*
X195790Y398210D01*
X195667Y397824D01*
X195535Y397441D01*
X195394Y397062D01*
X195244Y396686D01*
X195084Y396314D01*
X194916Y395945D01*
X194738Y395581D01*
X194552Y395222D01*
X194356Y394867D01*
X194153Y394517D01*
X193940Y394173D01*
X193719Y393833D01*
X193490Y393499D01*
X193253Y393171D01*
X193008Y392849D01*
X192755Y392533D01*
X192494Y392223D01*
X192226Y391919D01*
X191950Y391623D01*
X191667Y391333D01*
X191377Y391050D01*
X191081Y390774D01*
X190777Y390506D01*
X190467Y390245D01*
X190151Y389992D01*
X189829Y389747D01*
X189501Y389510D01*
X189167Y389281D01*
X188827Y389060D01*
X188483Y388847D01*
X188133Y388644D01*
X187778Y388448D01*
X187419Y388262D01*
X187055Y388084D01*
X186686Y387916D01*
X186314Y387756D01*
X185938Y387606D01*
X185559Y387465D01*
X185176Y387333D01*
X184790Y387210D01*
X184401Y387098D01*
X184009Y386994D01*
X183615Y386901D01*
X183219Y386817D01*
X182821Y386743D01*
X182421Y386679D01*
X182020Y386624D01*
X181617Y386579D01*
X181214Y386545D01*
X180810Y386520D01*
X180405Y386505D01*
X180000Y386500D01*
X179595Y386505D01*
X179190Y386520D01*
X178786Y386545D01*
X178383Y386579D01*
X177980Y386624D01*
X177579Y386679D01*
X177179Y386743D01*
X176781Y386817D01*
X176385Y386901D01*
X175991Y386994D01*
X175599Y387098D01*
X175210Y387210D01*
X174824Y387333D01*
X174441Y387465D01*
X174062Y387606D01*
X173686Y387756D01*
X173314Y387916D01*
X172945Y388084D01*
X172581Y388262D01*
X172222Y388448D01*
X171867Y388644D01*
X171517Y388847D01*
X171173Y389060D01*
X170833Y389281D01*
X170499Y389510D01*
X170171Y389747D01*
X169849Y389992D01*
X169533Y390245D01*
X169223Y390506D01*
X168919Y390774D01*
X168623Y391050D01*
X168333Y391333D01*
X168050Y391623D01*
X167774Y391919D01*
X167506Y392223D01*
X167245Y392533D01*
X166992Y392849D01*
X166747Y393171D01*
X166510Y393499D01*
X166281Y393833D01*
X166060Y394173D01*
X165847Y394517D01*
X165644Y394867D01*
X165448Y395222D01*
X165262Y395581D01*
X165084Y395945D01*
X164916Y396314D01*
X164756Y396686D01*
X164606Y397062D01*
X164465Y397441D01*
X164333Y397824D01*
X164210Y398210D01*
X164098Y398599D01*
X163994Y398991D01*
X163901Y399385D01*
X163817Y399781D01*
X163743Y400179D01*
X163679Y400579D01*
X163624Y400980D01*
X163579Y401383D01*
X163545Y401786D01*
X163520Y402190D01*
X163505Y402595D01*
X163500Y403000D01*
X303500Y403000D02*
X303505Y403405D01*
X303520Y403810D01*
X303545Y404214D01*
X303579Y404617D01*
X303624Y405020D01*
X303679Y405421D01*
X303743Y405821D01*
X303817Y406219D01*
X303901Y406615D01*
X303994Y407009D01*
X304098Y407401D01*
X304210Y407790D01*
X304333Y408176D01*
X304465Y408559D01*
X304606Y408938D01*
X304756Y409314D01*
X304916Y409686D01*
X305084Y410055D01*
X305262Y410419D01*
X305448Y410778D01*
X305644Y411133D01*
X305847Y411483D01*
X306060Y411827D01*
X306281Y412167D01*
X306510Y412501D01*
X306747Y412829D01*
X306992Y413151D01*
X307245Y413467D01*
X307506Y413777D01*
X307774Y414081D01*
X308050Y414377D01*
X308333Y414667D01*
X308623Y414950D01*
X308919Y415226D01*
X309223Y415494D01*
X309533Y415755D01*
X309849Y416008D01*
X310171Y416253D01*
X310499Y416490D01*
X310833Y416719D01*
X311173Y416940D01*
X311517Y417153D01*
X311867Y417356D01*
X312222Y417552D01*
X312581Y417738D01*
X312945Y417916D01*
X313314Y418084D01*
X313686Y418244D01*
X314062Y418394D01*
X314441Y418535D01*
X314824Y418667D01*
X315210Y418790D01*
X315599Y418902D01*
X315991Y419006D01*
X316385Y419099D01*
X316781Y419183D01*
X317179Y419257D01*
X317579Y419321D01*
X317980Y419376D01*
X318383Y419421D01*
X318786Y419455D01*
X319190Y419480D01*
X319595Y419495D01*
X320000Y419500D01*
X320405Y419495D01*
X320810Y419480D01*
X321214Y419455D01*
X321617Y419421D01*
X322020Y419376D01*
X322421Y419321D01*
X322821Y419257D01*
X323219Y419183D01*
X323615Y419099D01*
X324009Y419006D01*
X324401Y418902D01*
X324790Y418790D01*
X325176Y418667D01*
X325559Y418535D01*
X325938Y418394D01*
X326314Y418244D01*
X326686Y418084D01*
X327055Y417916D01*
X327419Y417738D01*
X327778Y417552D01*
X328133Y417356D01*
X328483Y417153D01*
X328827Y416940D01*
X329167Y416719D01*
X329501Y416490D01*
X329829Y416253D01*
X330151Y416008D01*
X330467Y415755D01*
X330777Y415494D01*
X331081Y415226D01*
X331377Y414950D01*
X331667Y414667D01*
X331950Y414377D01*
X332226Y414081D01*
X332494Y413777D01*
X332755Y413467D01*
X333008Y413151D01*
X333253Y412829D01*
X333490Y412501D01*
X333719Y412167D01*
X333940Y411827D01*
X334153Y411483D01*
X334356Y411133D01*
X334552Y410778D01*
X334738Y410419D01*
X334916Y410055D01*
X335084Y409686D01*
X335244Y409314D01*
X335394Y408938D01*
X335535Y408559D01*
X335667Y408176D01*
X335790Y407790D01*
X335902Y407401D01*
X336006Y407009D01*
X336099Y406615D01*
X336183Y406219D01*
X336257Y405821D01*
X336321Y405421D01*
X336376Y405020D01*
X336421Y404617D01*
X336455Y404214D01*
X336480Y403810D01*
X336495Y403405D01*
X336500Y403000D01*
X336495Y402595D01*
X336480Y402190D01*
X336455Y401786D01*
X336421Y401383D01*
X336376Y400980D01*
X336321Y400579D01*
X336257Y400179D01*
X336183Y399781D01*
X336099Y399385D01*
X336006Y398991D01*
X335902Y398599D01*
X335790Y398210D01*
X335667Y397824D01*
X335535Y397441D01*
X335394Y397062D01*
X335244Y396686D01*
X335084Y396314D01*
X334916Y395945D01*
X334738Y395581D01*
X334552Y395222D01*
X334356Y394867D01*
X334153Y394517D01*
X333940Y394173D01*
X333719Y393833D01*
X333490Y393499D01*
X333253Y393171D01*
X333008Y392849D01*
X332755Y392533D01*
X332494Y392223D01*
X332226Y391919D01*
X331950Y391623D01*
X331667Y391333D01*
X331377Y391050D01*
X331081Y390774D01*
X330777Y390506D01*
X330467Y390245D01*
X330151Y389992D01*
X329829Y389747D01*
X329501Y389510D01*
X329167Y389281D01*
X328827Y389060D01*
X328483Y388847D01*
X328133Y388644D01*
X327778Y388448D01*
X327419Y388262D01*
X327055Y388084D01*
X326686Y387916D01*
X326314Y387756D01*
X325938Y387606D01*
X325559Y387465D01*
X325176Y387333D01*
X324790Y387210D01*
X324401Y387098D01*
X324009Y386994D01*
X323615Y386901D01*
X323219Y386817D01*
X322821Y386743D01*
X322421Y386679D01*
X322020Y386624D01*
X321617Y386579D01*
X321214Y386545D01*
X320810Y386520D01*
X320405Y386505D01*
X320000Y386500D01*
X319595Y386505D01*
X319190Y386520D01*
X318786Y386545D01*
X318383Y386579D01*
X317980Y386624D01*
X317579Y386679D01*
X317179Y386743D01*
X316781Y386817D01*
X316385Y386901D01*
X315991Y386994D01*
X315599Y387098D01*
X315210Y387210D01*
X314824Y387333D01*
X314441Y387465D01*
X314062Y387606D01*
X313686Y387756D01*
X313314Y387916D01*
X312945Y388084D01*
X312581Y388262D01*
X312222Y388448D01*
X311867Y388644D01*
X311517Y388847D01*
X311173Y389060D01*
X310833Y389281D01*
X310499Y389510D01*
X310171Y389747D01*
X309849Y389992D01*
X309533Y390245D01*
X309223Y390506D01*
X308919Y390774D01*
X308623Y391050D01*
X308333Y391333D01*
X308050Y391623D01*
X307774Y391919D01*
X307506Y392223D01*
X307245Y392533D01*
X306992Y392849D01*
X306747Y393171D01*
X306510Y393499D01*
X306281Y393833D01*
X306060Y394173D01*
X305847Y394517D01*
X305644Y394867D01*
X305448Y395222D01*
X305262Y395581D01*
X305084Y395945D01*
X304916Y396314D01*
X304756Y396686D01*
X304606Y397062D01*
X304465Y397441D01*
X304333Y397824D01*
X304210Y398210D01*
X304098Y398599D01*
X303994Y398991D01*
X303901Y399385D01*
X303817Y399781D01*
X303743Y400179D01*
X303679Y400579D01*
X303624Y400980D01*
X303579Y401383D01*
X303545Y401786D01*
X303520Y402190D01*
X303505Y402595D01*
X303500Y403000D01*
X438500Y403000D02*
X438505Y403405D01*
X438520Y403810D01*
X438545Y404214D01*
X438579Y404617D01*
X438624Y405020D01*
X438679Y405421D01*
X438743Y405821D01*
X438817Y406219D01*
X438901Y406615D01*
X438994Y407009D01*
X439098Y407401D01*
X439210Y407790D01*
X439333Y408176D01*
X439465Y408559D01*
X439606Y408938D01*
X439756Y409314D01*
X439916Y409686D01*
X440084Y410055D01*
X440262Y410419D01*
X440448Y410778D01*
X440644Y411133D01*
X440847Y411483D01*
X441060Y411827D01*
X441281Y412167D01*
X441510Y412501D01*
X441747Y412829D01*
X441992Y413151D01*
X442245Y413467D01*
X442506Y413777D01*
X442774Y414081D01*
X443050Y414377D01*
X443333Y414667D01*
X443623Y414950D01*
X443919Y415226D01*
X444223Y415494D01*
X444533Y415755D01*
X444849Y416008D01*
X445171Y416253D01*
X445499Y416490D01*
X445833Y416719D01*
X446173Y416940D01*
X446517Y417153D01*
X446867Y417356D01*
X447222Y417552D01*
X447581Y417738D01*
X447945Y417916D01*
X448314Y418084D01*
X448686Y418244D01*
X449062Y418394D01*
X449441Y418535D01*
X449824Y418667D01*
X450210Y418790D01*
X450599Y418902D01*
X450991Y419006D01*
X451385Y419099D01*
X451781Y419183D01*
X452179Y419257D01*
X452579Y419321D01*
X452980Y419376D01*
X453383Y419421D01*
X453786Y419455D01*
X454190Y419480D01*
X454595Y419495D01*
X455000Y419500D01*
X455405Y419495D01*
X455810Y419480D01*
X456214Y419455D01*
X456617Y419421D01*
X457020Y419376D01*
X457421Y419321D01*
X457821Y419257D01*
X458219Y419183D01*
X458615Y419099D01*
X459009Y419006D01*
X459401Y418902D01*
X459790Y418790D01*
X460176Y418667D01*
X460559Y418535D01*
X460938Y418394D01*
X461314Y418244D01*
X461686Y418084D01*
X462055Y417916D01*
X462419Y417738D01*
X462778Y417552D01*
X463133Y417356D01*
X463483Y417153D01*
X463827Y416940D01*
X464167Y416719D01*
X464501Y416490D01*
X464829Y416253D01*
X465151Y416008D01*
X465467Y415755D01*
X465777Y415494D01*
X466081Y415226D01*
X466377Y414950D01*
X466667Y414667D01*
X466950Y414377D01*
X467226Y414081D01*
X467494Y413777D01*
X467755Y413467D01*
X468008Y413151D01*
X468253Y412829D01*
X468490Y412501D01*
X468719Y412167D01*
X468940Y411827D01*
X469153Y411483D01*
X469356Y411133D01*
X469552Y410778D01*
X469738Y410419D01*
X469916Y410055D01*
X470084Y409686D01*
X470244Y409314D01*
X470394Y408938D01*
X470535Y408559D01*
X470667Y408176D01*
X470790Y407790D01*
X470902Y407401D01*
X471006Y407009D01*
X471099Y406615D01*
X471183Y406219D01*
X471257Y405821D01*
X471321Y405421D01*
X471376Y405020D01*
X471421Y404617D01*
X471455Y404214D01*
X471480Y403810D01*
X471495Y403405D01*
X471500Y403000D01*
X471495Y402595D01*
X471480Y402190D01*
X471455Y401786D01*
X471421Y401383D01*
X471376Y400980D01*
X471321Y400579D01*
X471257Y400179D01*
X471183Y399781D01*
X471099Y399385D01*
X471006Y398991D01*
X470902Y398599D01*
X470790Y398210D01*
X470667Y397824D01*
X470535Y397441D01*
X470394Y397062D01*
X470244Y396686D01*
X470084Y396314D01*
X469916Y395945D01*
X469738Y395581D01*
X469552Y395222D01*
X469356Y394867D01*
X469153Y394517D01*
X468940Y394173D01*
X468719Y393833D01*
X468490Y393499D01*
X468253Y393171D01*
X468008Y392849D01*
X467755Y392533D01*
X467494Y392223D01*
X467226Y391919D01*
X466950Y391623D01*
X466667Y391333D01*
X466377Y391050D01*
X466081Y390774D01*
X465777Y390506D01*
X465467Y390245D01*
X465151Y389992D01*
X464829Y389747D01*
X464501Y389510D01*
X464167Y389281D01*
X463827Y389060D01*
X463483Y388847D01*
X463133Y388644D01*
X462778Y388448D01*
X462419Y388262D01*
X462055Y388084D01*
X461686Y387916D01*
X461314Y387756D01*
X460938Y387606D01*
X460559Y387465D01*
X460176Y387333D01*
X459790Y387210D01*
X459401Y387098D01*
X459009Y386994D01*
X458615Y386901D01*
X458219Y386817D01*
X457821Y386743D01*
X457421Y386679D01*
X457020Y386624D01*
X456617Y386579D01*
X456214Y386545D01*
X455810Y386520D01*
X455405Y386505D01*
X455000Y386500D01*
X454595Y386505D01*
X454190Y386520D01*
X453786Y386545D01*
X453383Y386579D01*
X452980Y386624D01*
X452579Y386679D01*
X452179Y386743D01*
X451781Y386817D01*
X451385Y386901D01*
X450991Y386994D01*
X450599Y387098D01*
X450210Y387210D01*
X449824Y387333D01*
X449441Y387465D01*
X449062Y387606D01*
X448686Y387756D01*
X448314Y387916D01*
X447945Y388084D01*
X447581Y388262D01*
X447222Y388448D01*
X446867Y388644D01*
X446517Y388847D01*
X446173Y389060D01*
X445833Y389281D01*
X445499Y389510D01*
X445171Y389747D01*
X444849Y389992D01*
X444533Y390245D01*
X444223Y390506D01*
X443919Y390774D01*
X443623Y391050D01*
X443333Y391333D01*
X443050Y391623D01*
X442774Y391919D01*
X442506Y392223D01*
X442245Y392533D01*
X441992Y392849D01*
X441747Y393171D01*
X441510Y393499D01*
X441281Y393833D01*
X441060Y394173D01*
X440847Y394517D01*
X440644Y394867D01*
X440448Y395222D01*
X440262Y395581D01*
X440084Y395945D01*
X439916Y396314D01*
X439756Y396686D01*
X439606Y397062D01*
X439465Y397441D01*
X439333Y397824D01*
X439210Y398210D01*
X439098Y398599D01*
X438994Y398991D01*
X438901Y399385D01*
X438817Y399781D01*
X438743Y400179D01*
X438679Y400579D01*
X438624Y400980D01*
X438579Y401383D01*
X438545Y401786D01*
X438520Y402190D01*
X438505Y402595D01*
X438500Y403000D01*
X578500Y403000D02*
X578505Y403405D01*
X578520Y403810D01*
X578545Y404214D01*
X578579Y404617D01*
X578624Y405020D01*
X578679Y405421D01*
X578743Y405821D01*
X578817Y406219D01*
X578901Y406615D01*
X578994Y407009D01*
X579098Y407401D01*
X579210Y407790D01*
X579333Y408176D01*
X579465Y408559D01*
X579606Y408938D01*
X579756Y409314D01*
X579916Y409686D01*
X580084Y410055D01*
X580262Y410419D01*
X580448Y410778D01*
X580644Y411133D01*
X580847Y411483D01*
X581060Y411827D01*
X581281Y412167D01*
X581510Y412501D01*
X581747Y412829D01*
X581992Y413151D01*
X582245Y413467D01*
X582506Y413777D01*
X582774Y414081D01*
X583050Y414377D01*
X583333Y414667D01*
X583623Y414950D01*
X583919Y415226D01*
X584223Y415494D01*
X584533Y415755D01*
X584849Y416008D01*
X585171Y416253D01*
X585499Y416490D01*
X585833Y416719D01*
X586173Y416940D01*
X586517Y417153D01*
X586867Y417356D01*
X587222Y417552D01*
X587581Y417738D01*
X587945Y417916D01*
X588314Y418084D01*
X588686Y418244D01*
X589062Y418394D01*
X589441Y418535D01*
X589824Y418667D01*
X590210Y418790D01*
X590599Y418902D01*
X590991Y419006D01*
X591385Y419099D01*
X591781Y419183D01*
X592179Y419257D01*
X592579Y419321D01*
X592980Y419376D01*
X593383Y419421D01*
X593786Y419455D01*
X594190Y419480D01*
X594595Y419495D01*
X595000Y419500D01*
X595405Y419495D01*
X595810Y419480D01*
X596214Y419455D01*
X596617Y419421D01*
X597020Y419376D01*
X597421Y419321D01*
X597821Y419257D01*
X598219Y419183D01*
X598615Y419099D01*
X599009Y419006D01*
X599401Y418902D01*
X599790Y418790D01*
X600176Y418667D01*
X600559Y418535D01*
X600938Y418394D01*
X601314Y418244D01*
X601686Y418084D01*
X602055Y417916D01*
X602419Y417738D01*
X602778Y417552D01*
X603133Y417356D01*
X603483Y417153D01*
X603827Y416940D01*
X604167Y416719D01*
X604501Y416490D01*
X604829Y416253D01*
X605151Y416008D01*
X605467Y415755D01*
X605777Y415494D01*
X606081Y415226D01*
X606377Y414950D01*
X606667Y414667D01*
X606950Y414377D01*
X607226Y414081D01*
X607494Y413777D01*
X607755Y413467D01*
X608008Y413151D01*
X608253Y412829D01*
X608490Y412501D01*
X608719Y412167D01*
X608940Y411827D01*
X609153Y411483D01*
X609356Y411133D01*
X609552Y410778D01*
X609738Y410419D01*
X609916Y410055D01*
X610084Y409686D01*
X610244Y409314D01*
X610394Y408938D01*
X610535Y408559D01*
X610667Y408176D01*
X610790Y407790D01*
X610902Y407401D01*
X611006Y407009D01*
X611099Y406615D01*
X611183Y406219D01*
X611257Y405821D01*
X611321Y405421D01*
X611376Y405020D01*
X611421Y404617D01*
X611455Y404214D01*
X611480Y403810D01*
X611495Y403405D01*
X611500Y403000D01*
X611495Y402595D01*
X611480Y402190D01*
X611455Y401786D01*
X611421Y401383D01*
X611376Y400980D01*
X611321Y400579D01*
X611257Y400179D01*
X611183Y399781D01*
X611099Y399385D01*
X611006Y398991D01*
X610902Y398599D01*
X610790Y398210D01*
X610667Y397824D01*
X610535Y397441D01*
X610394Y397062D01*
X610244Y396686D01*
X610084Y396314D01*
X609916Y395945D01*
X609738Y395581D01*
X609552Y395222D01*
X609356Y394867D01*
X609153Y394517D01*
X608940Y394173D01*
X608719Y393833D01*
X608490Y393499D01*
X608253Y393171D01*
X608008Y392849D01*
X607755Y392533D01*
X607494Y392223D01*
X607226Y391919D01*
X606950Y391623D01*
X606667Y391333D01*
X606377Y391050D01*
X606081Y390774D01*
X605777Y390506D01*
X605467Y390245D01*
X605151Y389992D01*
X604829Y389747D01*
X604501Y389510D01*
X604167Y389281D01*
X603827Y389060D01*
X603483Y388847D01*
X603133Y388644D01*
X602778Y388448D01*
X602419Y388262D01*
X602055Y388084D01*
X601686Y387916D01*
X601314Y387756D01*
X600938Y387606D01*
X600559Y387465D01*
X600176Y387333D01*
X599790Y387210D01*
X599401Y387098D01*
X599009Y386994D01*
X598615Y386901D01*
X598219Y386817D01*
X597821Y386743D01*
X597421Y386679D01*
X597020Y386624D01*
X596617Y386579D01*
X596214Y386545D01*
X595810Y386520D01*
X595405Y386505D01*
X595000Y386500D01*
X594595Y386505D01*
X594190Y386520D01*
X593786Y386545D01*
X593383Y386579D01*
X592980Y386624D01*
X592579Y386679D01*
X592179Y386743D01*
X591781Y386817D01*
X591385Y386901D01*
X590991Y386994D01*
X590599Y387098D01*
X590210Y387210D01*
X589824Y387333D01*
X589441Y387465D01*
X589062Y387606D01*
X588686Y387756D01*
X588314Y387916D01*
X587945Y388084D01*
X587581Y388262D01*
X587222Y388448D01*
X586867Y388644D01*
X586517Y388847D01*
X586173Y389060D01*
X585833Y389281D01*
X585499Y389510D01*
X585171Y389747D01*
X584849Y389992D01*
X584533Y390245D01*
X584223Y390506D01*
X583919Y390774D01*
X583623Y391050D01*
X583333Y391333D01*
X583050Y391623D01*
X582774Y391919D01*
X582506Y392223D01*
X582245Y392533D01*
X581992Y392849D01*
X581747Y393171D01*
X581510Y393499D01*
X581281Y393833D01*
X581060Y394173D01*
X580847Y394517D01*
X580644Y394867D01*
X580448Y395222D01*
X580262Y395581D01*
X580084Y395945D01*
X579916Y396314D01*
X579756Y396686D01*
X579606Y397062D01*
X579465Y397441D01*
X579333Y397824D01*
X579210Y398210D01*
X579098Y398599D01*
X578994Y398991D01*
X578901Y399385D01*
X578817Y399781D01*
X578743Y400179D01*
X578679Y400579D01*
X578624Y400980D01*
X578579Y401383D01*
X578545Y401786D01*
X578520Y402190D01*
X578505Y402595D01*
X578500Y403000D01*
X888500Y403000D02*
X888505Y403405D01*
X888520Y403810D01*
X888545Y404214D01*
X888579Y404617D01*
X888624Y405020D01*
X888679Y405421D01*
X888743Y405821D01*
X888817Y406219D01*
X888901Y406615D01*
X888994Y407009D01*
X889098Y407401D01*
X889210Y407790D01*
X889333Y408176D01*
X889465Y408559D01*
X889606Y408938D01*
X889756Y409314D01*
X889916Y409686D01*
X890084Y410055D01*
X890262Y410419D01*
X890448Y410778D01*
X890644Y411133D01*
X890847Y411483D01*
X891060Y411827D01*
X891281Y412167D01*
X891510Y412501D01*
X891747Y412829D01*
X891992Y413151D01*
X892245Y413467D01*
X892506Y413777D01*
X892774Y414081D01*
X893050Y414377D01*
X893333Y414667D01*
X893623Y414950D01*
X893919Y415226D01*
X894223Y415494D01*
X894533Y415755D01*
X894849Y416008D01*
X895171Y416253D01*
X895499Y416490D01*
X895833Y416719D01*
X896173Y416940D01*
X896517Y417153D01*
X896867Y417356D01*
X897222Y417552D01*
X897581Y417738D01*
X897945Y417916D01*
X898314Y418084D01*
X898686Y418244D01*
X899062Y418394D01*
X899441Y418535D01*
X899824Y418667D01*
X900210Y418790D01*
X900599Y418902D01*
X900991Y419006D01*
X901385Y419099D01*
X901781Y419183D01*
X902179Y419257D01*
X902579Y419321D01*
X902980Y419376D01*
X903383Y419421D01*
X903786Y419455D01*
X904190Y419480D01*
X904595Y419495D01*
X905000Y419500D01*
X905405Y419495D01*
X905810Y419480D01*
X906214Y419455D01*
X906617Y419421D01*
X907020Y419376D01*
X907421Y419321D01*
X907821Y419257D01*
X908219Y419183D01*
X908615Y419099D01*
X909009Y419006D01*
X909401Y418902D01*
X909790Y418790D01*
X910176Y418667D01*
X910559Y418535D01*
X910938Y418394D01*
X911314Y418244D01*
X911686Y418084D01*
X912055Y417916D01*
X912419Y417738D01*
X912778Y417552D01*
X913133Y417356D01*
X913483Y417153D01*
X913827Y416940D01*
X914167Y416719D01*
X914501Y416490D01*
X914829Y416253D01*
X915151Y416008D01*
X915467Y415755D01*
X915777Y415494D01*
X916081Y415226D01*
X916377Y414950D01*
X916667Y414667D01*
X916950Y414377D01*
X917226Y414081D01*
X917494Y413777D01*
X917755Y413467D01*
X918008Y413151D01*
X918253Y412829D01*
X918490Y412501D01*
X918719Y412167D01*
X918940Y411827D01*
X919153Y411483D01*
X919356Y411133D01*
X919552Y410778D01*
X919738Y410419D01*
X919916Y410055D01*
X920084Y409686D01*
X920244Y409314D01*
X920394Y408938D01*
X920535Y408559D01*
X920667Y408176D01*
X920790Y407790D01*
X920902Y407401D01*
X921006Y407009D01*
X921099Y406615D01*
X921183Y406219D01*
X921257Y405821D01*
X921321Y405421D01*
X921376Y405020D01*
X921421Y404617D01*
X921455Y404214D01*
X921480Y403810D01*
X921495Y403405D01*
X921500Y403000D01*
X921495Y402595D01*
X921480Y402190D01*
X921455Y401786D01*
X921421Y401383D01*
X921376Y400980D01*
X921321Y400579D01*
X921257Y400179D01*
X921183Y399781D01*
X921099Y399385D01*
X921006Y398991D01*
X920902Y398599D01*
X920790Y398210D01*
X920667Y397824D01*
X920535Y397441D01*
X920394Y397062D01*
X920244Y396686D01*
X920084Y396314D01*
X919916Y395945D01*
X919738Y395581D01*
X919552Y395222D01*
X919356Y394867D01*
X919153Y394517D01*
X918940Y394173D01*
X918719Y393833D01*
X918490Y393499D01*
X918253Y393171D01*
X918008Y392849D01*
X917755Y392533D01*
X917494Y392223D01*
X917226Y391919D01*
X916950Y391623D01*
X916667Y391333D01*
X916377Y391050D01*
X916081Y390774D01*
X915777Y390506D01*
X915467Y390245D01*
X915151Y389992D01*
X914829Y389747D01*
X914501Y389510D01*
X914167Y389281D01*
X913827Y389060D01*
X913483Y388847D01*
X913133Y388644D01*
X912778Y388448D01*
X912419Y388262D01*
X912055Y388084D01*
X911686Y387916D01*
X911314Y387756D01*
X910938Y387606D01*
X910559Y387465D01*
X910176Y387333D01*
X909790Y387210D01*
X909401Y387098D01*
X909009Y386994D01*
X908615Y386901D01*
X908219Y386817D01*
X907821Y386743D01*
X907421Y386679D01*
X907020Y386624D01*
X906617Y386579D01*
X906214Y386545D01*
X905810Y386520D01*
X905405Y386505D01*
X905000Y386500D01*
X904595Y386505D01*
X904190Y386520D01*
X903786Y386545D01*
X903383Y386579D01*
X902980Y386624D01*
X902579Y386679D01*
X902179Y386743D01*
X901781Y386817D01*
X901385Y386901D01*
X900991Y386994D01*
X900599Y387098D01*
X900210Y387210D01*
X899824Y387333D01*
X899441Y387465D01*
X899062Y387606D01*
X898686Y387756D01*
X898314Y387916D01*
X897945Y388084D01*
X897581Y388262D01*
X897222Y388448D01*
X896867Y388644D01*
X896517Y388847D01*
X896173Y389060D01*
X895833Y389281D01*
X895499Y389510D01*
X895171Y389747D01*
X894849Y389992D01*
X894533Y390245D01*
X894223Y390506D01*
X893919Y390774D01*
X893623Y391050D01*
X893333Y391333D01*
X893050Y391623D01*
X892774Y391919D01*
X892506Y392223D01*
X892245Y392533D01*
X891992Y392849D01*
X891747Y393171D01*
X891510Y393499D01*
X891281Y393833D01*
X891060Y394173D01*
X890847Y394517D01*
X890644Y394867D01*
X890448Y395222D01*
X890262Y395581D01*
X890084Y395945D01*
X889916Y396314D01*
X889756Y396686D01*
X889606Y397062D01*
X889465Y397441D01*
X889333Y397824D01*
X889210Y398210D01*
X889098Y398599D01*
X888994Y398991D01*
X888901Y399385D01*
X888817Y399781D01*
X888743Y400179D01*
X888679Y400579D01*
X888624Y400980D01*
X888579Y401383D01*
X888545Y401786D01*
X888520Y402190D01*
X888505Y402595D01*
X888500Y403000D01*
X1163500Y403000D02*
X1163505Y403405D01*
X1163520Y403810D01*
X1163545Y404214D01*
X1163579Y404617D01*
X1163624Y405020D01*
X1163679Y405421D01*
X1163743Y405821D01*
X1163817Y406219D01*
X1163901Y406615D01*
X1163994Y407009D01*
X1164098Y407401D01*
X1164210Y407790D01*
X1164333Y408176D01*
X1164465Y408559D01*
X1164606Y408938D01*
X1164756Y409314D01*
X1164916Y409686D01*
X1165084Y410055D01*
X1165262Y410419D01*
X1165448Y410778D01*
X1165644Y411133D01*
X1165847Y411483D01*
X1166060Y411827D01*
X1166281Y412167D01*
X1166510Y412501D01*
X1166747Y412829D01*
X1166992Y413151D01*
X1167245Y413467D01*
X1167506Y413777D01*
X1167774Y414081D01*
X1168050Y414377D01*
X1168333Y414667D01*
X1168623Y414950D01*
X1168919Y415226D01*
X1169223Y415494D01*
X1169533Y415755D01*
X1169849Y416008D01*
X1170171Y416253D01*
X1170499Y416490D01*
X1170833Y416719D01*
X1171173Y416940D01*
X1171517Y417153D01*
X1171867Y417356D01*
X1172222Y417552D01*
X1172581Y417738D01*
X1172945Y417916D01*
X1173314Y418084D01*
X1173686Y418244D01*
X1174062Y418394D01*
X1174441Y418535D01*
X1174824Y418667D01*
X1175210Y418790D01*
X1175599Y418902D01*
X1175991Y419006D01*
X1176385Y419099D01*
X1176781Y419183D01*
X1177179Y419257D01*
X1177579Y419321D01*
X1177980Y419376D01*
X1178383Y419421D01*
X1178786Y419455D01*
X1179190Y419480D01*
X1179595Y419495D01*
X1180000Y419500D01*
X1180405Y419495D01*
X1180810Y419480D01*
X1181214Y419455D01*
X1181617Y419421D01*
X1182020Y419376D01*
X1182421Y419321D01*
X1182821Y419257D01*
X1183219Y419183D01*
X1183615Y419099D01*
X1184009Y419006D01*
X1184401Y418902D01*
X1184790Y418790D01*
X1185176Y418667D01*
X1185559Y418535D01*
X1185938Y418394D01*
X1186314Y418244D01*
X1186686Y418084D01*
X1187055Y417916D01*
X1187419Y417738D01*
X1187778Y417552D01*
X1188133Y417356D01*
X1188483Y417153D01*
X1188827Y416940D01*
X1189167Y416719D01*
X1189501Y416490D01*
X1189829Y416253D01*
X1190151Y416008D01*
X1190467Y415755D01*
X1190777Y415494D01*
X1191081Y415226D01*
X1191377Y414950D01*
X1191667Y414667D01*
X1191950Y414377D01*
X1192226Y414081D01*
X1192494Y413777D01*
X1192755Y413467D01*
X1193008Y413151D01*
X1193253Y412829D01*
X1193490Y412501D01*
X1193719Y412167D01*
X1193940Y411827D01*
X1194153Y411483D01*
X1194356Y411133D01*
X1194552Y410778D01*
X1194738Y410419D01*
X1194916Y410055D01*
X1195084Y409686D01*
X1195244Y409314D01*
X1195394Y408938D01*
X1195535Y408559D01*
X1195667Y408176D01*
X1195790Y407790D01*
X1195902Y407401D01*
X1196006Y407009D01*
X1196099Y406615D01*
X1196183Y406219D01*
X1196257Y405821D01*
X1196321Y405421D01*
X1196376Y405020D01*
X1196421Y404617D01*
X1196455Y404214D01*
X1196480Y403810D01*
X1196495Y403405D01*
X1196500Y403000D01*
X1196495Y402595D01*
X1196480Y402190D01*
X1196455Y401786D01*
X1196421Y401383D01*
X1196376Y400980D01*
X1196321Y400579D01*
X1196257Y400179D01*
X1196183Y399781D01*
X1196099Y399385D01*
X1196006Y398991D01*
X1195902Y398599D01*
X1195790Y398210D01*
X1195667Y397824D01*
X1195535Y397441D01*
X1195394Y397062D01*
X1195244Y396686D01*
X1195084Y396314D01*
X1194916Y395945D01*
X1194738Y395581D01*
X1194552Y395222D01*
X1194356Y394867D01*
X1194153Y394517D01*
X1193940Y394173D01*
X1193719Y393833D01*
X1193490Y393499D01*
X1193253Y393171D01*
X1193008Y392849D01*
X1192755Y392533D01*
X1192494Y392223D01*
X1192226Y391919D01*
X1191950Y391623D01*
X1191667Y391333D01*
X1191377Y391050D01*
X1191081Y390774D01*
X1190777Y390506D01*
X1190467Y390245D01*
X1190151Y389992D01*
X1189829Y389747D01*
X1189501Y389510D01*
X1189167Y389281D01*
X1188827Y389060D01*
X1188483Y388847D01*
X1188133Y388644D01*
X1187778Y388448D01*
X1187419Y388262D01*
X1187055Y388084D01*
X1186686Y387916D01*
X1186314Y387756D01*
X1185938Y387606D01*
X1185559Y387465D01*
X1185176Y387333D01*
X1184790Y387210D01*
X1184401Y387098D01*
X1184009Y386994D01*
X1183615Y386901D01*
X1183219Y386817D01*
X1182821Y386743D01*
X1182421Y386679D01*
X1182020Y386624D01*
X1181617Y386579D01*
X1181214Y386545D01*
X1180810Y386520D01*
X1180405Y386505D01*
X1180000Y386500D01*
X1179595Y386505D01*
X1179190Y386520D01*
X1178786Y386545D01*
X1178383Y386579D01*
X1177980Y386624D01*
X1177579Y386679D01*
X1177179Y386743D01*
X1176781Y386817D01*
X1176385Y386901D01*
X1175991Y386994D01*
X1175599Y387098D01*
X1175210Y387210D01*
X1174824Y387333D01*
X1174441Y387465D01*
X1174062Y387606D01*
X1173686Y387756D01*
X1173314Y387916D01*
X1172945Y388084D01*
X1172581Y388262D01*
X1172222Y388448D01*
X1171867Y388644D01*
X1171517Y388847D01*
X1171173Y389060D01*
X1170833Y389281D01*
X1170499Y389510D01*
X1170171Y389747D01*
X1169849Y389992D01*
X1169533Y390245D01*
X1169223Y390506D01*
X1168919Y390774D01*
X1168623Y391050D01*
X1168333Y391333D01*
X1168050Y391623D01*
X1167774Y391919D01*
X1167506Y392223D01*
X1167245Y392533D01*
X1166992Y392849D01*
X1166747Y393171D01*
X1166510Y393499D01*
X1166281Y393833D01*
X1166060Y394173D01*
X1165847Y394517D01*
X1165644Y394867D01*
X1165448Y395222D01*
X1165262Y395581D01*
X1165084Y395945D01*
X1164916Y396314D01*
X1164756Y396686D01*
X1164606Y397062D01*
X1164465Y397441D01*
X1164333Y397824D01*
X1164210Y398210D01*
X1164098Y398599D01*
X1163994Y398991D01*
X1163901Y399385D01*
X1163817Y399781D01*
X1163743Y400179D01*
X1163679Y400579D01*
X1163624Y400980D01*
X1163579Y401383D01*
X1163545Y401786D01*
X1163520Y402190D01*
X1163505Y402595D01*
X1163500Y403000D01*
X1028500Y403000D02*
X1028505Y403405D01*
X1028520Y403810D01*
X1028545Y404214D01*
X1028579Y404617D01*
X1028624Y405020D01*
X1028679Y405421D01*
X1028743Y405821D01*
X1028817Y406219D01*
X1028901Y406615D01*
X1028994Y407009D01*
X1029098Y407401D01*
X1029210Y407790D01*
X1029333Y408176D01*
X1029465Y408559D01*
X1029606Y408938D01*
X1029756Y409314D01*
X1029916Y409686D01*
X1030084Y410055D01*
X1030262Y410419D01*
X1030448Y410778D01*
X1030644Y411133D01*
X1030847Y411483D01*
X1031060Y411827D01*
X1031281Y412167D01*
X1031510Y412501D01*
X1031747Y412829D01*
X1031992Y413151D01*
X1032245Y413467D01*
X1032506Y413777D01*
X1032774Y414081D01*
X1033050Y414377D01*
X1033333Y414667D01*
X1033623Y414950D01*
X1033919Y415226D01*
X1034223Y415494D01*
X1034533Y415755D01*
X1034849Y416008D01*
X1035171Y416253D01*
X1035499Y416490D01*
X1035833Y416719D01*
X1036173Y416940D01*
X1036517Y417153D01*
X1036867Y417356D01*
X1037222Y417552D01*
X1037581Y417738D01*
X1037945Y417916D01*
X1038314Y418084D01*
X1038686Y418244D01*
X1039062Y418394D01*
X1039441Y418535D01*
X1039824Y418667D01*
X1040210Y418790D01*
X1040599Y418902D01*
X1040991Y419006D01*
X1041385Y419099D01*
X1041781Y419183D01*
X1042179Y419257D01*
X1042579Y419321D01*
X1042980Y419376D01*
X1043383Y419421D01*
X1043786Y419455D01*
X1044190Y419480D01*
X1044595Y419495D01*
X1045000Y419500D01*
X1045405Y419495D01*
X1045810Y419480D01*
X1046214Y419455D01*
X1046617Y419421D01*
X1047020Y419376D01*
X1047421Y419321D01*
X1047821Y419257D01*
X1048219Y419183D01*
X1048615Y419099D01*
X1049009Y419006D01*
X1049401Y418902D01*
X1049790Y418790D01*
X1050176Y418667D01*
X1050559Y418535D01*
X1050938Y418394D01*
X1051314Y418244D01*
X1051686Y418084D01*
X1052055Y417916D01*
X1052419Y417738D01*
X1052778Y417552D01*
X1053133Y417356D01*
X1053483Y417153D01*
X1053827Y416940D01*
X1054167Y416719D01*
X1054501Y416490D01*
X1054829Y416253D01*
X1055151Y416008D01*
X1055467Y415755D01*
X1055777Y415494D01*
X1056081Y415226D01*
X1056377Y414950D01*
X1056667Y414667D01*
X1056950Y414377D01*
X1057226Y414081D01*
X1057494Y413777D01*
X1057755Y413467D01*
X1058008Y413151D01*
X1058253Y412829D01*
X1058490Y412501D01*
X1058719Y412167D01*
X1058940Y411827D01*
X1059153Y411483D01*
X1059356Y411133D01*
X1059552Y410778D01*
X1059738Y410419D01*
X1059916Y410055D01*
X1060084Y409686D01*
X1060244Y409314D01*
X1060394Y408938D01*
X1060535Y408559D01*
X1060667Y408176D01*
X1060790Y407790D01*
X1060902Y407401D01*
X1061006Y407009D01*
X1061099Y406615D01*
X1061183Y406219D01*
X1061257Y405821D01*
X1061321Y405421D01*
X1061376Y405020D01*
X1061421Y404617D01*
X1061455Y404214D01*
X1061480Y403810D01*
X1061495Y403405D01*
X1061500Y403000D01*
X1061495Y402595D01*
X1061480Y402190D01*
X1061455Y401786D01*
X1061421Y401383D01*
X1061376Y400980D01*
X1061321Y400579D01*
X1061257Y400179D01*
X1061183Y399781D01*
X1061099Y399385D01*
X1061006Y398991D01*
X1060902Y398599D01*
X1060790Y398210D01*
X1060667Y397824D01*
X1060535Y397441D01*
X1060394Y397062D01*
X1060244Y396686D01*
X1060084Y396314D01*
X1059916Y395945D01*
X1059738Y395581D01*
X1059552Y395222D01*
X1059356Y394867D01*
X1059153Y394517D01*
X1058940Y394173D01*
X1058719Y393833D01*
X1058490Y393499D01*
X1058253Y393171D01*
X1058008Y392849D01*
X1057755Y392533D01*
X1057494Y392223D01*
X1057226Y391919D01*
X1056950Y391623D01*
X1056667Y391333D01*
X1056377Y391050D01*
X1056081Y390774D01*
X1055777Y390506D01*
X1055467Y390245D01*
X1055151Y389992D01*
X1054829Y389747D01*
X1054501Y389510D01*
X1054167Y389281D01*
X1053827Y389060D01*
X1053483Y388847D01*
X1053133Y388644D01*
X1052778Y388448D01*
X1052419Y388262D01*
X1052055Y388084D01*
X1051686Y387916D01*
X1051314Y387756D01*
X1050938Y387606D01*
X1050559Y387465D01*
X1050176Y387333D01*
X1049790Y387210D01*
X1049401Y387098D01*
X1049009Y386994D01*
X1048615Y386901D01*
X1048219Y386817D01*
X1047821Y386743D01*
X1047421Y386679D01*
X1047020Y386624D01*
X1046617Y386579D01*
X1046214Y386545D01*
X1045810Y386520D01*
X1045405Y386505D01*
X1045000Y386500D01*
X1044595Y386505D01*
X1044190Y386520D01*
X1043786Y386545D01*
X1043383Y386579D01*
X1042980Y386624D01*
X1042579Y386679D01*
X1042179Y386743D01*
X1041781Y386817D01*
X1041385Y386901D01*
X1040991Y386994D01*
X1040599Y387098D01*
X1040210Y387210D01*
X1039824Y387333D01*
X1039441Y387465D01*
X1039062Y387606D01*
X1038686Y387756D01*
X1038314Y387916D01*
X1037945Y388084D01*
X1037581Y388262D01*
X1037222Y388448D01*
X1036867Y388644D01*
X1036517Y388847D01*
X1036173Y389060D01*
X1035833Y389281D01*
X1035499Y389510D01*
X1035171Y389747D01*
X1034849Y389992D01*
X1034533Y390245D01*
X1034223Y390506D01*
X1033919Y390774D01*
X1033623Y391050D01*
X1033333Y391333D01*
X1033050Y391623D01*
X1032774Y391919D01*
X1032506Y392223D01*
X1032245Y392533D01*
X1031992Y392849D01*
X1031747Y393171D01*
X1031510Y393499D01*
X1031281Y393833D01*
X1031060Y394173D01*
X1030847Y394517D01*
X1030644Y394867D01*
X1030448Y395222D01*
X1030262Y395581D01*
X1030084Y395945D01*
X1029916Y396314D01*
X1029756Y396686D01*
X1029606Y397062D01*
X1029465Y397441D01*
X1029333Y397824D01*
X1029210Y398210D01*
X1029098Y398599D01*
X1028994Y398991D01*
X1028901Y399385D01*
X1028817Y399781D01*
X1028743Y400179D01*
X1028679Y400579D01*
X1028624Y400980D01*
X1028579Y401383D01*
X1028545Y401786D01*
X1028520Y402190D01*
X1028505Y402595D01*
X1028500Y403000D01*
X1303500Y403000D02*
X1303505Y403405D01*
X1303520Y403810D01*
X1303545Y404214D01*
X1303579Y404617D01*
X1303624Y405020D01*
X1303679Y405421D01*
X1303743Y405821D01*
X1303817Y406219D01*
X1303901Y406615D01*
X1303994Y407009D01*
X1304098Y407401D01*
X1304210Y407790D01*
X1304333Y408176D01*
X1304465Y408559D01*
X1304606Y408938D01*
X1304756Y409314D01*
X1304916Y409686D01*
X1305084Y410055D01*
X1305262Y410419D01*
X1305448Y410778D01*
X1305644Y411133D01*
X1305847Y411483D01*
X1306060Y411827D01*
X1306281Y412167D01*
X1306510Y412501D01*
X1306747Y412829D01*
X1306992Y413151D01*
X1307245Y413467D01*
X1307506Y413777D01*
X1307774Y414081D01*
X1308050Y414377D01*
X1308333Y414667D01*
X1308623Y414950D01*
X1308919Y415226D01*
X1309223Y415494D01*
X1309533Y415755D01*
X1309849Y416008D01*
X1310171Y416253D01*
X1310499Y416490D01*
X1310833Y416719D01*
X1311173Y416940D01*
X1311517Y417153D01*
X1311867Y417356D01*
X1312222Y417552D01*
X1312581Y417738D01*
X1312945Y417916D01*
X1313314Y418084D01*
X1313686Y418244D01*
X1314062Y418394D01*
X1314441Y418535D01*
X1314824Y418667D01*
X1315210Y418790D01*
X1315599Y418902D01*
X1315991Y419006D01*
X1316385Y419099D01*
X1316781Y419183D01*
X1317179Y419257D01*
X1317579Y419321D01*
X1317980Y419376D01*
X1318383Y419421D01*
X1318786Y419455D01*
X1319190Y419480D01*
X1319595Y419495D01*
X1320000Y419500D01*
X1320405Y419495D01*
X1320810Y419480D01*
X1321214Y419455D01*
X1321617Y419421D01*
X1322020Y419376D01*
X1322421Y419321D01*
X1322821Y419257D01*
X1323219Y419183D01*
X1323615Y419099D01*
X1324009Y419006D01*
X1324401Y418902D01*
X1324790Y418790D01*
X1325176Y418667D01*
X1325559Y418535D01*
X1325938Y418394D01*
X1326314Y418244D01*
X1326686Y418084D01*
X1327055Y417916D01*
X1327419Y417738D01*
X1327778Y417552D01*
X1328133Y417356D01*
X1328483Y417153D01*
X1328827Y416940D01*
X1329167Y416719D01*
X1329501Y416490D01*
X1329829Y416253D01*
X1330151Y416008D01*
X1330467Y415755D01*
X1330777Y415494D01*
X1331081Y415226D01*
X1331377Y414950D01*
X1331667Y414667D01*
X1331950Y414377D01*
X1332226Y414081D01*
X1332494Y413777D01*
X1332755Y413467D01*
X1333008Y413151D01*
X1333253Y412829D01*
X1333490Y412501D01*
X1333719Y412167D01*
X1333940Y411827D01*
X1334153Y411483D01*
X1334356Y411133D01*
X1334552Y410778D01*
X1334738Y410419D01*
X1334916Y410055D01*
X1335084Y409686D01*
X1335244Y409314D01*
X1335394Y408938D01*
X1335535Y408559D01*
X1335667Y408176D01*
X1335790Y407790D01*
X1335902Y407401D01*
X1336006Y407009D01*
X1336099Y406615D01*
X1336183Y406219D01*
X1336257Y405821D01*
X1336321Y405421D01*
X1336376Y405020D01*
X1336421Y404617D01*
X1336455Y404214D01*
X1336480Y403810D01*
X1336495Y403405D01*
X1336500Y403000D01*
X1336495Y402595D01*
X1336480Y402190D01*
X1336455Y401786D01*
X1336421Y401383D01*
X1336376Y400980D01*
X1336321Y400579D01*
X1336257Y400179D01*
X1336183Y399781D01*
X1336099Y399385D01*
X1336006Y398991D01*
X1335902Y398599D01*
X1335790Y398210D01*
X1335667Y397824D01*
X1335535Y397441D01*
X1335394Y397062D01*
X1335244Y396686D01*
X1335084Y396314D01*
X1334916Y395945D01*
X1334738Y395581D01*
X1334552Y395222D01*
X1334356Y394867D01*
X1334153Y394517D01*
X1333940Y394173D01*
X1333719Y393833D01*
X1333490Y393499D01*
X1333253Y393171D01*
X1333008Y392849D01*
X1332755Y392533D01*
X1332494Y392223D01*
X1332226Y391919D01*
X1331950Y391623D01*
X1331667Y391333D01*
X1331377Y391050D01*
X1331081Y390774D01*
X1330777Y390506D01*
X1330467Y390245D01*
X1330151Y389992D01*
X1329829Y389747D01*
X1329501Y389510D01*
X1329167Y389281D01*
X1328827Y389060D01*
X1328483Y388847D01*
X1328133Y388644D01*
X1327778Y388448D01*
X1327419Y388262D01*
X1327055Y388084D01*
X1326686Y387916D01*
X1326314Y387756D01*
X1325938Y387606D01*
X1325559Y387465D01*
X1325176Y387333D01*
X1324790Y387210D01*
X1324401Y387098D01*
X1324009Y386994D01*
X1323615Y386901D01*
X1323219Y386817D01*
X1322821Y386743D01*
X1322421Y386679D01*
X1322020Y386624D01*
X1321617Y386579D01*
X1321214Y386545D01*
X1320810Y386520D01*
X1320405Y386505D01*
X1320000Y386500D01*
X1319595Y386505D01*
X1319190Y386520D01*
X1318786Y386545D01*
X1318383Y386579D01*
X1317980Y386624D01*
X1317579Y386679D01*
X1317179Y386743D01*
X1316781Y386817D01*
X1316385Y386901D01*
X1315991Y386994D01*
X1315599Y387098D01*
X1315210Y387210D01*
X1314824Y387333D01*
X1314441Y387465D01*
X1314062Y387606D01*
X1313686Y387756D01*
X1313314Y387916D01*
X1312945Y388084D01*
X1312581Y388262D01*
X1312222Y388448D01*
X1311867Y388644D01*
X1311517Y388847D01*
X1311173Y389060D01*
X1310833Y389281D01*
X1310499Y389510D01*
X1310171Y389747D01*
X1309849Y389992D01*
X1309533Y390245D01*
X1309223Y390506D01*
X1308919Y390774D01*
X1308623Y391050D01*
X1308333Y391333D01*
X1308050Y391623D01*
X1307774Y391919D01*
X1307506Y392223D01*
X1307245Y392533D01*
X1306992Y392849D01*
X1306747Y393171D01*
X1306510Y393499D01*
X1306281Y393833D01*
X1306060Y394173D01*
X1305847Y394517D01*
X1305644Y394867D01*
X1305448Y395222D01*
X1305262Y395581D01*
X1305084Y395945D01*
X1304916Y396314D01*
X1304756Y396686D01*
X1304606Y397062D01*
X1304465Y397441D01*
X1304333Y397824D01*
X1304210Y398210D01*
X1304098Y398599D01*
X1303994Y398991D01*
X1303901Y399385D01*
X1303817Y399781D01*
X1303743Y400179D01*
X1303679Y400579D01*
X1303624Y400980D01*
X1303579Y401383D01*
X1303545Y401786D01*
X1303520Y402190D01*
X1303505Y402595D01*
X1303500Y403000D01*
X1303500Y693000D02*
X1303505Y693405D01*
X1303520Y693810D01*
X1303545Y694214D01*
X1303579Y694617D01*
X1303624Y695020D01*
X1303679Y695421D01*
X1303743Y695821D01*
X1303817Y696219D01*
X1303901Y696615D01*
X1303994Y697009D01*
X1304098Y697401D01*
X1304210Y697790D01*
X1304333Y698176D01*
X1304465Y698559D01*
X1304606Y698938D01*
X1304756Y699314D01*
X1304916Y699686D01*
X1305084Y700055D01*
X1305262Y700419D01*
X1305448Y700778D01*
X1305644Y701133D01*
X1305847Y701483D01*
X1306060Y701827D01*
X1306281Y702167D01*
X1306510Y702501D01*
X1306747Y702829D01*
X1306992Y703151D01*
X1307245Y703467D01*
X1307506Y703777D01*
X1307774Y704081D01*
X1308050Y704377D01*
X1308333Y704667D01*
X1308623Y704950D01*
X1308919Y705226D01*
X1309223Y705494D01*
X1309533Y705755D01*
X1309849Y706008D01*
X1310171Y706253D01*
X1310499Y706490D01*
X1310833Y706719D01*
X1311173Y706940D01*
X1311517Y707153D01*
X1311867Y707356D01*
X1312222Y707552D01*
X1312581Y707738D01*
X1312945Y707916D01*
X1313314Y708084D01*
X1313686Y708244D01*
X1314062Y708394D01*
X1314441Y708535D01*
X1314824Y708667D01*
X1315210Y708790D01*
X1315599Y708902D01*
X1315991Y709006D01*
X1316385Y709099D01*
X1316781Y709183D01*
X1317179Y709257D01*
X1317579Y709321D01*
X1317980Y709376D01*
X1318383Y709421D01*
X1318786Y709455D01*
X1319190Y709480D01*
X1319595Y709495D01*
X1320000Y709500D01*
X1320405Y709495D01*
X1320810Y709480D01*
X1321214Y709455D01*
X1321617Y709421D01*
X1322020Y709376D01*
X1322421Y709321D01*
X1322821Y709257D01*
X1323219Y709183D01*
X1323615Y709099D01*
X1324009Y709006D01*
X1324401Y708902D01*
X1324790Y708790D01*
X1325176Y708667D01*
X1325559Y708535D01*
X1325938Y708394D01*
X1326314Y708244D01*
X1326686Y708084D01*
X1327055Y707916D01*
X1327419Y707738D01*
X1327778Y707552D01*
X1328133Y707356D01*
X1328483Y707153D01*
X1328827Y706940D01*
X1329167Y706719D01*
X1329501Y706490D01*
X1329829Y706253D01*
X1330151Y706008D01*
X1330467Y705755D01*
X1330777Y705494D01*
X1331081Y705226D01*
X1331377Y704950D01*
X1331667Y704667D01*
X1331950Y704377D01*
X1332226Y704081D01*
X1332494Y703777D01*
X1332755Y703467D01*
X1333008Y703151D01*
X1333253Y702829D01*
X1333490Y702501D01*
X1333719Y702167D01*
X1333940Y701827D01*
X1334153Y701483D01*
X1334356Y701133D01*
X1334552Y700778D01*
X1334738Y700419D01*
X1334916Y700055D01*
X1335084Y699686D01*
X1335244Y699314D01*
X1335394Y698938D01*
X1335535Y698559D01*
X1335667Y698176D01*
X1335790Y697790D01*
X1335902Y697401D01*
X1336006Y697009D01*
X1336099Y696615D01*
X1336183Y696219D01*
X1336257Y695821D01*
X1336321Y695421D01*
X1336376Y695020D01*
X1336421Y694617D01*
X1336455Y694214D01*
X1336480Y693810D01*
X1336495Y693405D01*
X1336500Y693000D01*
X1336495Y692595D01*
X1336480Y692190D01*
X1336455Y691786D01*
X1336421Y691383D01*
X1336376Y690980D01*
X1336321Y690579D01*
X1336257Y690179D01*
X1336183Y689781D01*
X1336099Y689385D01*
X1336006Y688991D01*
X1335902Y688599D01*
X1335790Y688210D01*
X1335667Y687824D01*
X1335535Y687441D01*
X1335394Y687062D01*
X1335244Y686686D01*
X1335084Y686314D01*
X1334916Y685945D01*
X1334738Y685581D01*
X1334552Y685222D01*
X1334356Y684867D01*
X1334153Y684517D01*
X1333940Y684173D01*
X1333719Y683833D01*
X1333490Y683499D01*
X1333253Y683171D01*
X1333008Y682849D01*
X1332755Y682533D01*
X1332494Y682223D01*
X1332226Y681919D01*
X1331950Y681623D01*
X1331667Y681333D01*
X1331377Y681050D01*
X1331081Y680774D01*
X1330777Y680506D01*
X1330467Y680245D01*
X1330151Y679992D01*
X1329829Y679747D01*
X1329501Y679510D01*
X1329167Y679281D01*
X1328827Y679060D01*
X1328483Y678847D01*
X1328133Y678644D01*
X1327778Y678448D01*
X1327419Y678262D01*
X1327055Y678084D01*
X1326686Y677916D01*
X1326314Y677756D01*
X1325938Y677606D01*
X1325559Y677465D01*
X1325176Y677333D01*
X1324790Y677210D01*
X1324401Y677098D01*
X1324009Y676994D01*
X1323615Y676901D01*
X1323219Y676817D01*
X1322821Y676743D01*
X1322421Y676679D01*
X1322020Y676624D01*
X1321617Y676579D01*
X1321214Y676545D01*
X1320810Y676520D01*
X1320405Y676505D01*
X1320000Y676500D01*
X1319595Y676505D01*
X1319190Y676520D01*
X1318786Y676545D01*
X1318383Y676579D01*
X1317980Y676624D01*
X1317579Y676679D01*
X1317179Y676743D01*
X1316781Y676817D01*
X1316385Y676901D01*
X1315991Y676994D01*
X1315599Y677098D01*
X1315210Y677210D01*
X1314824Y677333D01*
X1314441Y677465D01*
X1314062Y677606D01*
X1313686Y677756D01*
X1313314Y677916D01*
X1312945Y678084D01*
X1312581Y678262D01*
X1312222Y678448D01*
X1311867Y678644D01*
X1311517Y678847D01*
X1311173Y679060D01*
X1310833Y679281D01*
X1310499Y679510D01*
X1310171Y679747D01*
X1309849Y679992D01*
X1309533Y680245D01*
X1309223Y680506D01*
X1308919Y680774D01*
X1308623Y681050D01*
X1308333Y681333D01*
X1308050Y681623D01*
X1307774Y681919D01*
X1307506Y682223D01*
X1307245Y682533D01*
X1306992Y682849D01*
X1306747Y683171D01*
X1306510Y683499D01*
X1306281Y683833D01*
X1306060Y684173D01*
X1305847Y684517D01*
X1305644Y684867D01*
X1305448Y685222D01*
X1305262Y685581D01*
X1305084Y685945D01*
X1304916Y686314D01*
X1304756Y686686D01*
X1304606Y687062D01*
X1304465Y687441D01*
X1304333Y687824D01*
X1304210Y688210D01*
X1304098Y688599D01*
X1303994Y688991D01*
X1303901Y689385D01*
X1303817Y689781D01*
X1303743Y690179D01*
X1303679Y690579D01*
X1303624Y690980D01*
X1303579Y691383D01*
X1303545Y691786D01*
X1303520Y692190D01*
X1303505Y692595D01*
X1303500Y693000D01*
X1163500Y693000D02*
X1163505Y693405D01*
X1163520Y693810D01*
X1163545Y694214D01*
X1163579Y694617D01*
X1163624Y695020D01*
X1163679Y695421D01*
X1163743Y695821D01*
X1163817Y696219D01*
X1163901Y696615D01*
X1163994Y697009D01*
X1164098Y697401D01*
X1164210Y697790D01*
X1164333Y698176D01*
X1164465Y698559D01*
X1164606Y698938D01*
X1164756Y699314D01*
X1164916Y699686D01*
X1165084Y700055D01*
X1165262Y700419D01*
X1165448Y700778D01*
X1165644Y701133D01*
X1165847Y701483D01*
X1166060Y701827D01*
X1166281Y702167D01*
X1166510Y702501D01*
X1166747Y702829D01*
X1166992Y703151D01*
X1167245Y703467D01*
X1167506Y703777D01*
X1167774Y704081D01*
X1168050Y704377D01*
X1168333Y704667D01*
X1168623Y704950D01*
X1168919Y705226D01*
X1169223Y705494D01*
X1169533Y705755D01*
X1169849Y706008D01*
X1170171Y706253D01*
X1170499Y706490D01*
X1170833Y706719D01*
X1171173Y706940D01*
X1171517Y707153D01*
X1171867Y707356D01*
X1172222Y707552D01*
X1172581Y707738D01*
X1172945Y707916D01*
X1173314Y708084D01*
X1173686Y708244D01*
X1174062Y708394D01*
X1174441Y708535D01*
X1174824Y708667D01*
X1175210Y708790D01*
X1175599Y708902D01*
X1175991Y709006D01*
X1176385Y709099D01*
X1176781Y709183D01*
X1177179Y709257D01*
X1177579Y709321D01*
X1177980Y709376D01*
X1178383Y709421D01*
X1178786Y709455D01*
X1179190Y709480D01*
X1179595Y709495D01*
X1180000Y709500D01*
X1180405Y709495D01*
X1180810Y709480D01*
X1181214Y709455D01*
X1181617Y709421D01*
X1182020Y709376D01*
X1182421Y709321D01*
X1182821Y709257D01*
X1183219Y709183D01*
X1183615Y709099D01*
X1184009Y709006D01*
X1184401Y708902D01*
X1184790Y708790D01*
X1185176Y708667D01*
X1185559Y708535D01*
X1185938Y708394D01*
X1186314Y708244D01*
X1186686Y708084D01*
X1187055Y707916D01*
X1187419Y707738D01*
X1187778Y707552D01*
X1188133Y707356D01*
X1188483Y707153D01*
X1188827Y706940D01*
X1189167Y706719D01*
X1189501Y706490D01*
X1189829Y706253D01*
X1190151Y706008D01*
X1190467Y705755D01*
X1190777Y705494D01*
X1191081Y705226D01*
X1191377Y704950D01*
X1191667Y704667D01*
X1191950Y704377D01*
X1192226Y704081D01*
X1192494Y703777D01*
X1192755Y703467D01*
X1193008Y703151D01*
X1193253Y702829D01*
X1193490Y702501D01*
X1193719Y702167D01*
X1193940Y701827D01*
X1194153Y701483D01*
X1194356Y701133D01*
X1194552Y700778D01*
X1194738Y700419D01*
X1194916Y700055D01*
X1195084Y699686D01*
X1195244Y699314D01*
X1195394Y698938D01*
X1195535Y698559D01*
X1195667Y698176D01*
X1195790Y697790D01*
X1195902Y697401D01*
X1196006Y697009D01*
X1196099Y696615D01*
X1196183Y696219D01*
X1196257Y695821D01*
X1196321Y695421D01*
X1196376Y695020D01*
X1196421Y694617D01*
X1196455Y694214D01*
X1196480Y693810D01*
X1196495Y693405D01*
X1196500Y693000D01*
X1196495Y692595D01*
X1196480Y692190D01*
X1196455Y691786D01*
X1196421Y691383D01*
X1196376Y690980D01*
X1196321Y690579D01*
X1196257Y690179D01*
X1196183Y689781D01*
X1196099Y689385D01*
X1196006Y688991D01*
X1195902Y688599D01*
X1195790Y688210D01*
X1195667Y687824D01*
X1195535Y687441D01*
X1195394Y687062D01*
X1195244Y686686D01*
X1195084Y686314D01*
X1194916Y685945D01*
X1194738Y685581D01*
X1194552Y685222D01*
X1194356Y684867D01*
X1194153Y684517D01*
X1193940Y684173D01*
X1193719Y683833D01*
X1193490Y683499D01*
X1193253Y683171D01*
X1193008Y682849D01*
X1192755Y682533D01*
X1192494Y682223D01*
X1192226Y681919D01*
X1191950Y681623D01*
X1191667Y681333D01*
X1191377Y681050D01*
X1191081Y680774D01*
X1190777Y680506D01*
X1190467Y680245D01*
X1190151Y679992D01*
X1189829Y679747D01*
X1189501Y679510D01*
X1189167Y679281D01*
X1188827Y679060D01*
X1188483Y678847D01*
X1188133Y678644D01*
X1187778Y678448D01*
X1187419Y678262D01*
X1187055Y678084D01*
X1186686Y677916D01*
X1186314Y677756D01*
X1185938Y677606D01*
X1185559Y677465D01*
X1185176Y677333D01*
X1184790Y677210D01*
X1184401Y677098D01*
X1184009Y676994D01*
X1183615Y676901D01*
X1183219Y676817D01*
X1182821Y676743D01*
X1182421Y676679D01*
X1182020Y676624D01*
X1181617Y676579D01*
X1181214Y676545D01*
X1180810Y676520D01*
X1180405Y676505D01*
X1180000Y676500D01*
X1179595Y676505D01*
X1179190Y676520D01*
X1178786Y676545D01*
X1178383Y676579D01*
X1177980Y676624D01*
X1177579Y676679D01*
X1177179Y676743D01*
X1176781Y676817D01*
X1176385Y676901D01*
X1175991Y676994D01*
X1175599Y677098D01*
X1175210Y677210D01*
X1174824Y677333D01*
X1174441Y677465D01*
X1174062Y677606D01*
X1173686Y677756D01*
X1173314Y677916D01*
X1172945Y678084D01*
X1172581Y678262D01*
X1172222Y678448D01*
X1171867Y678644D01*
X1171517Y678847D01*
X1171173Y679060D01*
X1170833Y679281D01*
X1170499Y679510D01*
X1170171Y679747D01*
X1169849Y679992D01*
X1169533Y680245D01*
X1169223Y680506D01*
X1168919Y680774D01*
X1168623Y681050D01*
X1168333Y681333D01*
X1168050Y681623D01*
X1167774Y681919D01*
X1167506Y682223D01*
X1167245Y682533D01*
X1166992Y682849D01*
X1166747Y683171D01*
X1166510Y683499D01*
X1166281Y683833D01*
X1166060Y684173D01*
X1165847Y684517D01*
X1165644Y684867D01*
X1165448Y685222D01*
X1165262Y685581D01*
X1165084Y685945D01*
X1164916Y686314D01*
X1164756Y686686D01*
X1164606Y687062D01*
X1164465Y687441D01*
X1164333Y687824D01*
X1164210Y688210D01*
X1164098Y688599D01*
X1163994Y688991D01*
X1163901Y689385D01*
X1163817Y689781D01*
X1163743Y690179D01*
X1163679Y690579D01*
X1163624Y690980D01*
X1163579Y691383D01*
X1163545Y691786D01*
X1163520Y692190D01*
X1163505Y692595D01*
X1163500Y693000D01*
X1028500Y693000D02*
X1028505Y693405D01*
X1028520Y693810D01*
X1028545Y694214D01*
X1028579Y694617D01*
X1028624Y695020D01*
X1028679Y695421D01*
X1028743Y695821D01*
X1028817Y696219D01*
X1028901Y696615D01*
X1028994Y697009D01*
X1029098Y697401D01*
X1029210Y697790D01*
X1029333Y698176D01*
X1029465Y698559D01*
X1029606Y698938D01*
X1029756Y699314D01*
X1029916Y699686D01*
X1030084Y700055D01*
X1030262Y700419D01*
X1030448Y700778D01*
X1030644Y701133D01*
X1030847Y701483D01*
X1031060Y701827D01*
X1031281Y702167D01*
X1031510Y702501D01*
X1031747Y702829D01*
X1031992Y703151D01*
X1032245Y703467D01*
X1032506Y703777D01*
X1032774Y704081D01*
X1033050Y704377D01*
X1033333Y704667D01*
X1033623Y704950D01*
X1033919Y705226D01*
X1034223Y705494D01*
X1034533Y705755D01*
X1034849Y706008D01*
X1035171Y706253D01*
X1035499Y706490D01*
X1035833Y706719D01*
X1036173Y706940D01*
X1036517Y707153D01*
X1036867Y707356D01*
X1037222Y707552D01*
X1037581Y707738D01*
X1037945Y707916D01*
X1038314Y708084D01*
X1038686Y708244D01*
X1039062Y708394D01*
X1039441Y708535D01*
X1039824Y708667D01*
X1040210Y708790D01*
X1040599Y708902D01*
X1040991Y709006D01*
X1041385Y709099D01*
X1041781Y709183D01*
X1042179Y709257D01*
X1042579Y709321D01*
X1042980Y709376D01*
X1043383Y709421D01*
X1043786Y709455D01*
X1044190Y709480D01*
X1044595Y709495D01*
X1045000Y709500D01*
X1045405Y709495D01*
X1045810Y709480D01*
X1046214Y709455D01*
X1046617Y709421D01*
X1047020Y709376D01*
X1047421Y709321D01*
X1047821Y709257D01*
X1048219Y709183D01*
X1048615Y709099D01*
X1049009Y709006D01*
X1049401Y708902D01*
X1049790Y708790D01*
X1050176Y708667D01*
X1050559Y708535D01*
X1050938Y708394D01*
X1051314Y708244D01*
X1051686Y708084D01*
X1052055Y707916D01*
X1052419Y707738D01*
X1052778Y707552D01*
X1053133Y707356D01*
X1053483Y707153D01*
X1053827Y706940D01*
X1054167Y706719D01*
X1054501Y706490D01*
X1054829Y706253D01*
X1055151Y706008D01*
X1055467Y705755D01*
X1055777Y705494D01*
X1056081Y705226D01*
X1056377Y704950D01*
X1056667Y704667D01*
X1056950Y704377D01*
X1057226Y704081D01*
X1057494Y703777D01*
X1057755Y703467D01*
X1058008Y703151D01*
X1058253Y702829D01*
X1058490Y702501D01*
X1058719Y702167D01*
X1058940Y701827D01*
X1059153Y701483D01*
X1059356Y701133D01*
X1059552Y700778D01*
X1059738Y700419D01*
X1059916Y700055D01*
X1060084Y699686D01*
X1060244Y699314D01*
X1060394Y698938D01*
X1060535Y698559D01*
X1060667Y698176D01*
X1060790Y697790D01*
X1060902Y697401D01*
X1061006Y697009D01*
X1061099Y696615D01*
X1061183Y696219D01*
X1061257Y695821D01*
X1061321Y695421D01*
X1061376Y695020D01*
X1061421Y694617D01*
X1061455Y694214D01*
X1061480Y693810D01*
X1061495Y693405D01*
X1061500Y693000D01*
X1061495Y692595D01*
X1061480Y692190D01*
X1061455Y691786D01*
X1061421Y691383D01*
X1061376Y690980D01*
X1061321Y690579D01*
X1061257Y690179D01*
X1061183Y689781D01*
X1061099Y689385D01*
X1061006Y688991D01*
X1060902Y688599D01*
X1060790Y688210D01*
X1060667Y687824D01*
X1060535Y687441D01*
X1060394Y687062D01*
X1060244Y686686D01*
X1060084Y686314D01*
X1059916Y685945D01*
X1059738Y685581D01*
X1059552Y685222D01*
X1059356Y684867D01*
X1059153Y684517D01*
X1058940Y684173D01*
X1058719Y683833D01*
X1058490Y683499D01*
X1058253Y683171D01*
X1058008Y682849D01*
X1057755Y682533D01*
X1057494Y682223D01*
X1057226Y681919D01*
X1056950Y681623D01*
X1056667Y681333D01*
X1056377Y681050D01*
X1056081Y680774D01*
X1055777Y680506D01*
X1055467Y680245D01*
X1055151Y679992D01*
X1054829Y679747D01*
X1054501Y679510D01*
X1054167Y679281D01*
X1053827Y679060D01*
X1053483Y678847D01*
X1053133Y678644D01*
X1052778Y678448D01*
X1052419Y678262D01*
X1052055Y678084D01*
X1051686Y677916D01*
X1051314Y677756D01*
X1050938Y677606D01*
X1050559Y677465D01*
X1050176Y677333D01*
X1049790Y677210D01*
X1049401Y677098D01*
X1049009Y676994D01*
X1048615Y676901D01*
X1048219Y676817D01*
X1047821Y676743D01*
X1047421Y676679D01*
X1047020Y676624D01*
X1046617Y676579D01*
X1046214Y676545D01*
X1045810Y676520D01*
X1045405Y676505D01*
X1045000Y676500D01*
X1044595Y676505D01*
X1044190Y676520D01*
X1043786Y676545D01*
X1043383Y676579D01*
X1042980Y676624D01*
X1042579Y676679D01*
X1042179Y676743D01*
X1041781Y676817D01*
X1041385Y676901D01*
X1040991Y676994D01*
X1040599Y677098D01*
X1040210Y677210D01*
X1039824Y677333D01*
X1039441Y677465D01*
X1039062Y677606D01*
X1038686Y677756D01*
X1038314Y677916D01*
X1037945Y678084D01*
X1037581Y678262D01*
X1037222Y678448D01*
X1036867Y678644D01*
X1036517Y678847D01*
X1036173Y679060D01*
X1035833Y679281D01*
X1035499Y679510D01*
X1035171Y679747D01*
X1034849Y679992D01*
X1034533Y680245D01*
X1034223Y680506D01*
X1033919Y680774D01*
X1033623Y681050D01*
X1033333Y681333D01*
X1033050Y681623D01*
X1032774Y681919D01*
X1032506Y682223D01*
X1032245Y682533D01*
X1031992Y682849D01*
X1031747Y683171D01*
X1031510Y683499D01*
X1031281Y683833D01*
X1031060Y684173D01*
X1030847Y684517D01*
X1030644Y684867D01*
X1030448Y685222D01*
X1030262Y685581D01*
X1030084Y685945D01*
X1029916Y686314D01*
X1029756Y686686D01*
X1029606Y687062D01*
X1029465Y687441D01*
X1029333Y687824D01*
X1029210Y688210D01*
X1029098Y688599D01*
X1028994Y688991D01*
X1028901Y689385D01*
X1028817Y689781D01*
X1028743Y690179D01*
X1028679Y690579D01*
X1028624Y690980D01*
X1028579Y691383D01*
X1028545Y691786D01*
X1028520Y692190D01*
X1028505Y692595D01*
X1028500Y693000D01*
X888500Y693000D02*
X888505Y693405D01*
X888520Y693810D01*
X888545Y694214D01*
X888579Y694617D01*
X888624Y695020D01*
X888679Y695421D01*
X888743Y695821D01*
X888817Y696219D01*
X888901Y696615D01*
X888994Y697009D01*
X889098Y697401D01*
X889210Y697790D01*
X889333Y698176D01*
X889465Y698559D01*
X889606Y698938D01*
X889756Y699314D01*
X889916Y699686D01*
X890084Y700055D01*
X890262Y700419D01*
X890448Y700778D01*
X890644Y701133D01*
X890847Y701483D01*
X891060Y701827D01*
X891281Y702167D01*
X891510Y702501D01*
X891747Y702829D01*
X891992Y703151D01*
X892245Y703467D01*
X892506Y703777D01*
X892774Y704081D01*
X893050Y704377D01*
X893333Y704667D01*
X893623Y704950D01*
X893919Y705226D01*
X894223Y705494D01*
X894533Y705755D01*
X894849Y706008D01*
X895171Y706253D01*
X895499Y706490D01*
X895833Y706719D01*
X896173Y706940D01*
X896517Y707153D01*
X896867Y707356D01*
X897222Y707552D01*
X897581Y707738D01*
X897945Y707916D01*
X898314Y708084D01*
X898686Y708244D01*
X899062Y708394D01*
X899441Y708535D01*
X899824Y708667D01*
X900210Y708790D01*
X900599Y708902D01*
X900991Y709006D01*
X901385Y709099D01*
X901781Y709183D01*
X902179Y709257D01*
X902579Y709321D01*
X902980Y709376D01*
X903383Y709421D01*
X903786Y709455D01*
X904190Y709480D01*
X904595Y709495D01*
X905000Y709500D01*
X905405Y709495D01*
X905810Y709480D01*
X906214Y709455D01*
X906617Y709421D01*
X907020Y709376D01*
X907421Y709321D01*
X907821Y709257D01*
X908219Y709183D01*
X908615Y709099D01*
X909009Y709006D01*
X909401Y708902D01*
X909790Y708790D01*
X910176Y708667D01*
X910559Y708535D01*
X910938Y708394D01*
X911314Y708244D01*
X911686Y708084D01*
X912055Y707916D01*
X912419Y707738D01*
X912778Y707552D01*
X913133Y707356D01*
X913483Y707153D01*
X913827Y706940D01*
X914167Y706719D01*
X914501Y706490D01*
X914829Y706253D01*
X915151Y706008D01*
X915467Y705755D01*
X915777Y705494D01*
X916081Y705226D01*
X916377Y704950D01*
X916667Y704667D01*
X916950Y704377D01*
X917226Y704081D01*
X917494Y703777D01*
X917755Y703467D01*
X918008Y703151D01*
X918253Y702829D01*
X918490Y702501D01*
X918719Y702167D01*
X918940Y701827D01*
X919153Y701483D01*
X919356Y701133D01*
X919552Y700778D01*
X919738Y700419D01*
X919916Y700055D01*
X920084Y699686D01*
X920244Y699314D01*
X920394Y698938D01*
X920535Y698559D01*
X920667Y698176D01*
X920790Y697790D01*
X920902Y697401D01*
X921006Y697009D01*
X921099Y696615D01*
X921183Y696219D01*
X921257Y695821D01*
X921321Y695421D01*
X921376Y695020D01*
X921421Y694617D01*
X921455Y694214D01*
X921480Y693810D01*
X921495Y693405D01*
X921500Y693000D01*
X921495Y692595D01*
X921480Y692190D01*
X921455Y691786D01*
X921421Y691383D01*
X921376Y690980D01*
X921321Y690579D01*
X921257Y690179D01*
X921183Y689781D01*
X921099Y689385D01*
X921006Y688991D01*
X920902Y688599D01*
X920790Y688210D01*
X920667Y687824D01*
X920535Y687441D01*
X920394Y687062D01*
X920244Y686686D01*
X920084Y686314D01*
X919916Y685945D01*
X919738Y685581D01*
X919552Y685222D01*
X919356Y684867D01*
X919153Y684517D01*
X918940Y684173D01*
X918719Y683833D01*
X918490Y683499D01*
X918253Y683171D01*
X918008Y682849D01*
X917755Y682533D01*
X917494Y682223D01*
X917226Y681919D01*
X916950Y681623D01*
X916667Y681333D01*
X916377Y681050D01*
X916081Y680774D01*
X915777Y680506D01*
X915467Y680245D01*
X915151Y679992D01*
X914829Y679747D01*
X914501Y679510D01*
X914167Y679281D01*
X913827Y679060D01*
X913483Y678847D01*
X913133Y678644D01*
X912778Y678448D01*
X912419Y678262D01*
X912055Y678084D01*
X911686Y677916D01*
X911314Y677756D01*
X910938Y677606D01*
X910559Y677465D01*
X910176Y677333D01*
X909790Y677210D01*
X909401Y677098D01*
X909009Y676994D01*
X908615Y676901D01*
X908219Y676817D01*
X907821Y676743D01*
X907421Y676679D01*
X907020Y676624D01*
X906617Y676579D01*
X906214Y676545D01*
X905810Y676520D01*
X905405Y676505D01*
X905000Y676500D01*
X904595Y676505D01*
X904190Y676520D01*
X903786Y676545D01*
X903383Y676579D01*
X902980Y676624D01*
X902579Y676679D01*
X902179Y676743D01*
X901781Y676817D01*
X901385Y676901D01*
X900991Y676994D01*
X900599Y677098D01*
X900210Y677210D01*
X899824Y677333D01*
X899441Y677465D01*
X899062Y677606D01*
X898686Y677756D01*
X898314Y677916D01*
X897945Y678084D01*
X897581Y678262D01*
X897222Y678448D01*
X896867Y678644D01*
X896517Y678847D01*
X896173Y679060D01*
X895833Y679281D01*
X895499Y679510D01*
X895171Y679747D01*
X894849Y679992D01*
X894533Y680245D01*
X894223Y680506D01*
X893919Y680774D01*
X893623Y681050D01*
X893333Y681333D01*
X893050Y681623D01*
X892774Y681919D01*
X892506Y682223D01*
X892245Y682533D01*
X891992Y682849D01*
X891747Y683171D01*
X891510Y683499D01*
X891281Y683833D01*
X891060Y684173D01*
X890847Y684517D01*
X890644Y684867D01*
X890448Y685222D01*
X890262Y685581D01*
X890084Y685945D01*
X889916Y686314D01*
X889756Y686686D01*
X889606Y687062D01*
X889465Y687441D01*
X889333Y687824D01*
X889210Y688210D01*
X889098Y688599D01*
X888994Y688991D01*
X888901Y689385D01*
X888817Y689781D01*
X888743Y690179D01*
X888679Y690579D01*
X888624Y690980D01*
X888579Y691383D01*
X888545Y691786D01*
X888520Y692190D01*
X888505Y692595D01*
X888500Y693000D01*
X578500Y693000D02*
X578505Y693405D01*
X578520Y693810D01*
X578545Y694214D01*
X578579Y694617D01*
X578624Y695020D01*
X578679Y695421D01*
X578743Y695821D01*
X578817Y696219D01*
X578901Y696615D01*
X578994Y697009D01*
X579098Y697401D01*
X579210Y697790D01*
X579333Y698176D01*
X579465Y698559D01*
X579606Y698938D01*
X579756Y699314D01*
X579916Y699686D01*
X580084Y700055D01*
X580262Y700419D01*
X580448Y700778D01*
X580644Y701133D01*
X580847Y701483D01*
X581060Y701827D01*
X581281Y702167D01*
X581510Y702501D01*
X581747Y702829D01*
X581992Y703151D01*
X582245Y703467D01*
X582506Y703777D01*
X582774Y704081D01*
X583050Y704377D01*
X583333Y704667D01*
X583623Y704950D01*
X583919Y705226D01*
X584223Y705494D01*
X584533Y705755D01*
X584849Y706008D01*
X585171Y706253D01*
X585499Y706490D01*
X585833Y706719D01*
X586173Y706940D01*
X586517Y707153D01*
X586867Y707356D01*
X587222Y707552D01*
X587581Y707738D01*
X587945Y707916D01*
X588314Y708084D01*
X588686Y708244D01*
X589062Y708394D01*
X589441Y708535D01*
X589824Y708667D01*
X590210Y708790D01*
X590599Y708902D01*
X590991Y709006D01*
X591385Y709099D01*
X591781Y709183D01*
X592179Y709257D01*
X592579Y709321D01*
X592980Y709376D01*
X593383Y709421D01*
X593786Y709455D01*
X594190Y709480D01*
X594595Y709495D01*
X595000Y709500D01*
X595405Y709495D01*
X595810Y709480D01*
X596214Y709455D01*
X596617Y709421D01*
X597020Y709376D01*
X597421Y709321D01*
X597821Y709257D01*
X598219Y709183D01*
X598615Y709099D01*
X599009Y709006D01*
X599401Y708902D01*
X599790Y708790D01*
X600176Y708667D01*
X600559Y708535D01*
X600938Y708394D01*
X601314Y708244D01*
X601686Y708084D01*
X602055Y707916D01*
X602419Y707738D01*
X602778Y707552D01*
X603133Y707356D01*
X603483Y707153D01*
X603827Y706940D01*
X604167Y706719D01*
X604501Y706490D01*
X604829Y706253D01*
X605151Y706008D01*
X605467Y705755D01*
X605777Y705494D01*
X606081Y705226D01*
X606377Y704950D01*
X606667Y704667D01*
X606950Y704377D01*
X607226Y704081D01*
X607494Y703777D01*
X607755Y703467D01*
X608008Y703151D01*
X608253Y702829D01*
X608490Y702501D01*
X608719Y702167D01*
X608940Y701827D01*
X609153Y701483D01*
X609356Y701133D01*
X609552Y700778D01*
X609738Y700419D01*
X609916Y700055D01*
X610084Y699686D01*
X610244Y699314D01*
X610394Y698938D01*
X610535Y698559D01*
X610667Y698176D01*
X610790Y697790D01*
X610902Y697401D01*
X611006Y697009D01*
X611099Y696615D01*
X611183Y696219D01*
X611257Y695821D01*
X611321Y695421D01*
X611376Y695020D01*
X611421Y694617D01*
X611455Y694214D01*
X611480Y693810D01*
X611495Y693405D01*
X611500Y693000D01*
X611495Y692595D01*
X611480Y692190D01*
X611455Y691786D01*
X611421Y691383D01*
X611376Y690980D01*
X611321Y690579D01*
X611257Y690179D01*
X611183Y689781D01*
X611099Y689385D01*
X611006Y688991D01*
X610902Y688599D01*
X610790Y688210D01*
X610667Y687824D01*
X610535Y687441D01*
X610394Y687062D01*
X610244Y686686D01*
X610084Y686314D01*
X609916Y685945D01*
X609738Y685581D01*
X609552Y685222D01*
X609356Y684867D01*
X609153Y684517D01*
X608940Y684173D01*
X608719Y683833D01*
X608490Y683499D01*
X608253Y683171D01*
X608008Y682849D01*
X607755Y682533D01*
X607494Y682223D01*
X607226Y681919D01*
X606950Y681623D01*
X606667Y681333D01*
X606377Y681050D01*
X606081Y680774D01*
X605777Y680506D01*
X605467Y680245D01*
X605151Y679992D01*
X604829Y679747D01*
X604501Y679510D01*
X604167Y679281D01*
X603827Y679060D01*
X603483Y678847D01*
X603133Y678644D01*
X602778Y678448D01*
X602419Y678262D01*
X602055Y678084D01*
X601686Y677916D01*
X601314Y677756D01*
X600938Y677606D01*
X600559Y677465D01*
X600176Y677333D01*
X599790Y677210D01*
X599401Y677098D01*
X599009Y676994D01*
X598615Y676901D01*
X598219Y676817D01*
X597821Y676743D01*
X597421Y676679D01*
X597020Y676624D01*
X596617Y676579D01*
X596214Y676545D01*
X595810Y676520D01*
X595405Y676505D01*
X595000Y676500D01*
X594595Y676505D01*
X594190Y676520D01*
X593786Y676545D01*
X593383Y676579D01*
X592980Y676624D01*
X592579Y676679D01*
X592179Y676743D01*
X591781Y676817D01*
X591385Y676901D01*
X590991Y676994D01*
X590599Y677098D01*
X590210Y677210D01*
X589824Y677333D01*
X589441Y677465D01*
X589062Y677606D01*
X588686Y677756D01*
X588314Y677916D01*
X587945Y678084D01*
X587581Y678262D01*
X587222Y678448D01*
X586867Y678644D01*
X586517Y678847D01*
X586173Y679060D01*
X585833Y679281D01*
X585499Y679510D01*
X585171Y679747D01*
X584849Y679992D01*
X584533Y680245D01*
X584223Y680506D01*
X583919Y680774D01*
X583623Y681050D01*
X583333Y681333D01*
X583050Y681623D01*
X582774Y681919D01*
X582506Y682223D01*
X582245Y682533D01*
X581992Y682849D01*
X581747Y683171D01*
X581510Y683499D01*
X581281Y683833D01*
X581060Y684173D01*
X580847Y684517D01*
X580644Y684867D01*
X580448Y685222D01*
X580262Y685581D01*
X580084Y685945D01*
X579916Y686314D01*
X579756Y686686D01*
X579606Y687062D01*
X579465Y687441D01*
X579333Y687824D01*
X579210Y688210D01*
X579098Y688599D01*
X578994Y688991D01*
X578901Y689385D01*
X578817Y689781D01*
X578743Y690179D01*
X578679Y690579D01*
X578624Y690980D01*
X578579Y691383D01*
X578545Y691786D01*
X578520Y692190D01*
X578505Y692595D01*
X578500Y693000D01*
X438500Y693000D02*
X438505Y693405D01*
X438520Y693810D01*
X438545Y694214D01*
X438579Y694617D01*
X438624Y695020D01*
X438679Y695421D01*
X438743Y695821D01*
X438817Y696219D01*
X438901Y696615D01*
X438994Y697009D01*
X439098Y697401D01*
X439210Y697790D01*
X439333Y698176D01*
X439465Y698559D01*
X439606Y698938D01*
X439756Y699314D01*
X439916Y699686D01*
X440084Y700055D01*
X440262Y700419D01*
X440448Y700778D01*
X440644Y701133D01*
X440847Y701483D01*
X441060Y701827D01*
X441281Y702167D01*
X441510Y702501D01*
X441747Y702829D01*
X441992Y703151D01*
X442245Y703467D01*
X442506Y703777D01*
X442774Y704081D01*
X443050Y704377D01*
X443333Y704667D01*
X443623Y704950D01*
X443919Y705226D01*
X444223Y705494D01*
X444533Y705755D01*
X444849Y706008D01*
X445171Y706253D01*
X445499Y706490D01*
X445833Y706719D01*
X446173Y706940D01*
X446517Y707153D01*
X446867Y707356D01*
X447222Y707552D01*
X447581Y707738D01*
X447945Y707916D01*
X448314Y708084D01*
X448686Y708244D01*
X449062Y708394D01*
X449441Y708535D01*
X449824Y708667D01*
X450210Y708790D01*
X450599Y708902D01*
X450991Y709006D01*
X451385Y709099D01*
X451781Y709183D01*
X452179Y709257D01*
X452579Y709321D01*
X452980Y709376D01*
X453383Y709421D01*
X453786Y709455D01*
X454190Y709480D01*
X454595Y709495D01*
X455000Y709500D01*
X455405Y709495D01*
X455810Y709480D01*
X456214Y709455D01*
X456617Y709421D01*
X457020Y709376D01*
X457421Y709321D01*
X457821Y709257D01*
X458219Y709183D01*
X458615Y709099D01*
X459009Y709006D01*
X459401Y708902D01*
X459790Y708790D01*
X460176Y708667D01*
X460559Y708535D01*
X460938Y708394D01*
X461314Y708244D01*
X461686Y708084D01*
X462055Y707916D01*
X462419Y707738D01*
X462778Y707552D01*
X463133Y707356D01*
X463483Y707153D01*
X463827Y706940D01*
X464167Y706719D01*
X464501Y706490D01*
X464829Y706253D01*
X465151Y706008D01*
X465467Y705755D01*
X465777Y705494D01*
X466081Y705226D01*
X466377Y704950D01*
X466667Y704667D01*
X466950Y704377D01*
X467226Y704081D01*
X467494Y703777D01*
X467755Y703467D01*
X468008Y703151D01*
X468253Y702829D01*
X468490Y702501D01*
X468719Y702167D01*
X468940Y701827D01*
X469153Y701483D01*
X469356Y701133D01*
X469552Y700778D01*
X469738Y700419D01*
X469916Y700055D01*
X470084Y699686D01*
X470244Y699314D01*
X470394Y698938D01*
X470535Y698559D01*
X470667Y698176D01*
X470790Y697790D01*
X470902Y697401D01*
X471006Y697009D01*
X471099Y696615D01*
X471183Y696219D01*
X471257Y695821D01*
X471321Y695421D01*
X471376Y695020D01*
X471421Y694617D01*
X471455Y694214D01*
X471480Y693810D01*
X471495Y693405D01*
X471500Y693000D01*
X471495Y692595D01*
X471480Y692190D01*
X471455Y691786D01*
X471421Y691383D01*
X471376Y690980D01*
X471321Y690579D01*
X471257Y690179D01*
X471183Y689781D01*
X471099Y689385D01*
X471006Y688991D01*
X470902Y688599D01*
X470790Y688210D01*
X470667Y687824D01*
X470535Y687441D01*
X470394Y687062D01*
X470244Y686686D01*
X470084Y686314D01*
X469916Y685945D01*
X469738Y685581D01*
X469552Y685222D01*
X469356Y684867D01*
X469153Y684517D01*
X468940Y684173D01*
X468719Y683833D01*
X468490Y683499D01*
X468253Y683171D01*
X468008Y682849D01*
X467755Y682533D01*
X467494Y682223D01*
X467226Y681919D01*
X466950Y681623D01*
X466667Y681333D01*
X466377Y681050D01*
X466081Y680774D01*
X465777Y680506D01*
X465467Y680245D01*
X465151Y679992D01*
X464829Y679747D01*
X464501Y679510D01*
X464167Y679281D01*
X463827Y679060D01*
X463483Y678847D01*
X463133Y678644D01*
X462778Y678448D01*
X462419Y678262D01*
X462055Y678084D01*
X461686Y677916D01*
X461314Y677756D01*
X460938Y677606D01*
X460559Y677465D01*
X460176Y677333D01*
X459790Y677210D01*
X459401Y677098D01*
X459009Y676994D01*
X458615Y676901D01*
X458219Y676817D01*
X457821Y676743D01*
X457421Y676679D01*
X457020Y676624D01*
X456617Y676579D01*
X456214Y676545D01*
X455810Y676520D01*
X455405Y676505D01*
X455000Y676500D01*
X454595Y676505D01*
X454190Y676520D01*
X453786Y676545D01*
X453383Y676579D01*
X452980Y676624D01*
X452579Y676679D01*
X452179Y676743D01*
X451781Y676817D01*
X451385Y676901D01*
X450991Y676994D01*
X450599Y677098D01*
X450210Y677210D01*
X449824Y677333D01*
X449441Y677465D01*
X449062Y677606D01*
X448686Y677756D01*
X448314Y677916D01*
X447945Y678084D01*
X447581Y678262D01*
X447222Y678448D01*
X446867Y678644D01*
X446517Y678847D01*
X446173Y679060D01*
X445833Y679281D01*
X445499Y679510D01*
X445171Y679747D01*
X444849Y679992D01*
X444533Y680245D01*
X444223Y680506D01*
X443919Y680774D01*
X443623Y681050D01*
X443333Y681333D01*
X443050Y681623D01*
X442774Y681919D01*
X442506Y682223D01*
X442245Y682533D01*
X441992Y682849D01*
X441747Y683171D01*
X441510Y683499D01*
X441281Y683833D01*
X441060Y684173D01*
X440847Y684517D01*
X440644Y684867D01*
X440448Y685222D01*
X440262Y685581D01*
X440084Y685945D01*
X439916Y686314D01*
X439756Y686686D01*
X439606Y687062D01*
X439465Y687441D01*
X439333Y687824D01*
X439210Y688210D01*
X439098Y688599D01*
X438994Y688991D01*
X438901Y689385D01*
X438817Y689781D01*
X438743Y690179D01*
X438679Y690579D01*
X438624Y690980D01*
X438579Y691383D01*
X438545Y691786D01*
X438520Y692190D01*
X438505Y692595D01*
X438500Y693000D01*
X13500Y970000D02*
X13505Y970405D01*
X13520Y970810D01*
X13545Y971214D01*
X13579Y971617D01*
X13624Y972020D01*
X13679Y972421D01*
X13743Y972821D01*
X13817Y973219D01*
X13901Y973615D01*
X13994Y974009D01*
X14098Y974401D01*
X14210Y974790D01*
X14333Y975176D01*
X14465Y975559D01*
X14606Y975938D01*
X14756Y976314D01*
X14916Y976686D01*
X15084Y977055D01*
X15262Y977419D01*
X15448Y977778D01*
X15644Y978133D01*
X15847Y978483D01*
X16060Y978827D01*
X16281Y979167D01*
X16510Y979501D01*
X16747Y979829D01*
X16992Y980151D01*
X17245Y980467D01*
X17506Y980777D01*
X17774Y981081D01*
X18050Y981377D01*
X18333Y981667D01*
X18623Y981950D01*
X18919Y982226D01*
X19223Y982494D01*
X19533Y982755D01*
X19849Y983008D01*
X20171Y983253D01*
X20499Y983490D01*
X20833Y983719D01*
X21173Y983940D01*
X21517Y984153D01*
X21867Y984356D01*
X22222Y984552D01*
X22581Y984738D01*
X22945Y984916D01*
X23314Y985084D01*
X23686Y985244D01*
X24062Y985394D01*
X24441Y985535D01*
X24824Y985667D01*
X25210Y985790D01*
X25599Y985902D01*
X25991Y986006D01*
X26385Y986099D01*
X26781Y986183D01*
X27179Y986257D01*
X27579Y986321D01*
X27980Y986376D01*
X28383Y986421D01*
X28786Y986455D01*
X29190Y986480D01*
X29595Y986495D01*
X30000Y986500D01*
X30405Y986495D01*
X30810Y986480D01*
X31214Y986455D01*
X31617Y986421D01*
X32020Y986376D01*
X32421Y986321D01*
X32821Y986257D01*
X33219Y986183D01*
X33615Y986099D01*
X34009Y986006D01*
X34401Y985902D01*
X34790Y985790D01*
X35176Y985667D01*
X35559Y985535D01*
X35938Y985394D01*
X36314Y985244D01*
X36686Y985084D01*
X37055Y984916D01*
X37419Y984738D01*
X37778Y984552D01*
X38133Y984356D01*
X38483Y984153D01*
X38827Y983940D01*
X39167Y983719D01*
X39501Y983490D01*
X39829Y983253D01*
X40151Y983008D01*
X40467Y982755D01*
X40777Y982494D01*
X41081Y982226D01*
X41377Y981950D01*
X41667Y981667D01*
X41950Y981377D01*
X42226Y981081D01*
X42494Y980777D01*
X42755Y980467D01*
X43008Y980151D01*
X43253Y979829D01*
X43490Y979501D01*
X43719Y979167D01*
X43940Y978827D01*
X44153Y978483D01*
X44356Y978133D01*
X44552Y977778D01*
X44738Y977419D01*
X44916Y977055D01*
X45084Y976686D01*
X45244Y976314D01*
X45394Y975938D01*
X45535Y975559D01*
X45667Y975176D01*
X45790Y974790D01*
X45902Y974401D01*
X46006Y974009D01*
X46099Y973615D01*
X46183Y973219D01*
X46257Y972821D01*
X46321Y972421D01*
X46376Y972020D01*
X46421Y971617D01*
X46455Y971214D01*
X46480Y970810D01*
X46495Y970405D01*
X46500Y970000D01*
X46495Y969595D01*
X46480Y969190D01*
X46455Y968786D01*
X46421Y968383D01*
X46376Y967980D01*
X46321Y967579D01*
X46257Y967179D01*
X46183Y966781D01*
X46099Y966385D01*
X46006Y965991D01*
X45902Y965599D01*
X45790Y965210D01*
X45667Y964824D01*
X45535Y964441D01*
X45394Y964062D01*
X45244Y963686D01*
X45084Y963314D01*
X44916Y962945D01*
X44738Y962581D01*
X44552Y962222D01*
X44356Y961867D01*
X44153Y961517D01*
X43940Y961173D01*
X43719Y960833D01*
X43490Y960499D01*
X43253Y960171D01*
X43008Y959849D01*
X42755Y959533D01*
X42494Y959223D01*
X42226Y958919D01*
X41950Y958623D01*
X41667Y958333D01*
X41377Y958050D01*
X41081Y957774D01*
X40777Y957506D01*
X40467Y957245D01*
X40151Y956992D01*
X39829Y956747D01*
X39501Y956510D01*
X39167Y956281D01*
X38827Y956060D01*
X38483Y955847D01*
X38133Y955644D01*
X37778Y955448D01*
X37419Y955262D01*
X37055Y955084D01*
X36686Y954916D01*
X36314Y954756D01*
X35938Y954606D01*
X35559Y954465D01*
X35176Y954333D01*
X34790Y954210D01*
X34401Y954098D01*
X34009Y953994D01*
X33615Y953901D01*
X33219Y953817D01*
X32821Y953743D01*
X32421Y953679D01*
X32020Y953624D01*
X31617Y953579D01*
X31214Y953545D01*
X30810Y953520D01*
X30405Y953505D01*
X30000Y953500D01*
X29595Y953505D01*
X29190Y953520D01*
X28786Y953545D01*
X28383Y953579D01*
X27980Y953624D01*
X27579Y953679D01*
X27179Y953743D01*
X26781Y953817D01*
X26385Y953901D01*
X25991Y953994D01*
X25599Y954098D01*
X25210Y954210D01*
X24824Y954333D01*
X24441Y954465D01*
X24062Y954606D01*
X23686Y954756D01*
X23314Y954916D01*
X22945Y955084D01*
X22581Y955262D01*
X22222Y955448D01*
X21867Y955644D01*
X21517Y955847D01*
X21173Y956060D01*
X20833Y956281D01*
X20499Y956510D01*
X20171Y956747D01*
X19849Y956992D01*
X19533Y957245D01*
X19223Y957506D01*
X18919Y957774D01*
X18623Y958050D01*
X18333Y958333D01*
X18050Y958623D01*
X17774Y958919D01*
X17506Y959223D01*
X17245Y959533D01*
X16992Y959849D01*
X16747Y960171D01*
X16510Y960499D01*
X16281Y960833D01*
X16060Y961173D01*
X15847Y961517D01*
X15644Y961867D01*
X15448Y962222D01*
X15262Y962581D01*
X15084Y962945D01*
X14916Y963314D01*
X14756Y963686D01*
X14606Y964062D01*
X14465Y964441D01*
X14333Y964824D01*
X14210Y965210D01*
X14098Y965599D01*
X13994Y965991D01*
X13901Y966385D01*
X13817Y966781D01*
X13743Y967179D01*
X13679Y967579D01*
X13624Y967980D01*
X13579Y968383D01*
X13545Y968786D01*
X13520Y969190D01*
X13505Y969595D01*
X13500Y970000D01*
X13500Y30000D02*
X13505Y30405D01*
X13520Y30810D01*
X13545Y31214D01*
X13579Y31617D01*
X13624Y32020D01*
X13679Y32421D01*
X13743Y32821D01*
X13817Y33219D01*
X13901Y33615D01*
X13994Y34009D01*
X14098Y34401D01*
X14210Y34790D01*
X14333Y35176D01*
X14465Y35559D01*
X14606Y35938D01*
X14756Y36314D01*
X14916Y36686D01*
X15084Y37055D01*
X15262Y37419D01*
X15448Y37778D01*
X15644Y38133D01*
X15847Y38483D01*
X16060Y38827D01*
X16281Y39167D01*
X16510Y39501D01*
X16747Y39829D01*
X16992Y40151D01*
X17245Y40467D01*
X17506Y40777D01*
X17774Y41081D01*
X18050Y41377D01*
X18333Y41667D01*
X18623Y41950D01*
X18919Y42226D01*
X19223Y42494D01*
X19533Y42755D01*
X19849Y43008D01*
X20171Y43253D01*
X20499Y43490D01*
X20833Y43719D01*
X21173Y43940D01*
X21517Y44153D01*
X21867Y44356D01*
X22222Y44552D01*
X22581Y44738D01*
X22945Y44916D01*
X23314Y45084D01*
X23686Y45244D01*
X24062Y45394D01*
X24441Y45535D01*
X24824Y45667D01*
X25210Y45790D01*
X25599Y45902D01*
X25991Y46006D01*
X26385Y46099D01*
X26781Y46183D01*
X27179Y46257D01*
X27579Y46321D01*
X27980Y46376D01*
X28383Y46421D01*
X28786Y46455D01*
X29190Y46480D01*
X29595Y46495D01*
X30000Y46500D01*
X30405Y46495D01*
X30810Y46480D01*
X31214Y46455D01*
X31617Y46421D01*
X32020Y46376D01*
X32421Y46321D01*
X32821Y46257D01*
X33219Y46183D01*
X33615Y46099D01*
X34009Y46006D01*
X34401Y45902D01*
X34790Y45790D01*
X35176Y45667D01*
X35559Y45535D01*
X35938Y45394D01*
X36314Y45244D01*
X36686Y45084D01*
X37055Y44916D01*
X37419Y44738D01*
X37778Y44552D01*
X38133Y44356D01*
X38483Y44153D01*
X38827Y43940D01*
X39167Y43719D01*
X39501Y43490D01*
X39829Y43253D01*
X40151Y43008D01*
X40467Y42755D01*
X40777Y42494D01*
X41081Y42226D01*
X41377Y41950D01*
X41667Y41667D01*
X41950Y41377D01*
X42226Y41081D01*
X42494Y40777D01*
X42755Y40467D01*
X43008Y40151D01*
X43253Y39829D01*
X43490Y39501D01*
X43719Y39167D01*
X43940Y38827D01*
X44153Y38483D01*
X44356Y38133D01*
X44552Y37778D01*
X44738Y37419D01*
X44916Y37055D01*
X45084Y36686D01*
X45244Y36314D01*
X45394Y35938D01*
X45535Y35559D01*
X45667Y35176D01*
X45790Y34790D01*
X45902Y34401D01*
X46006Y34009D01*
X46099Y33615D01*
X46183Y33219D01*
X46257Y32821D01*
X46321Y32421D01*
X46376Y32020D01*
X46421Y31617D01*
X46455Y31214D01*
X46480Y30810D01*
X46495Y30405D01*
X46500Y30000D01*
X46495Y29595D01*
X46480Y29190D01*
X46455Y28786D01*
X46421Y28383D01*
X46376Y27980D01*
X46321Y27579D01*
X46257Y27179D01*
X46183Y26781D01*
X46099Y26385D01*
X46006Y25991D01*
X45902Y25599D01*
X45790Y25210D01*
X45667Y24824D01*
X45535Y24441D01*
X45394Y24062D01*
X45244Y23686D01*
X45084Y23314D01*
X44916Y22945D01*
X44738Y22581D01*
X44552Y22222D01*
X44356Y21867D01*
X44153Y21517D01*
X43940Y21173D01*
X43719Y20833D01*
X43490Y20499D01*
X43253Y20171D01*
X43008Y19849D01*
X42755Y19533D01*
X42494Y19223D01*
X42226Y18919D01*
X41950Y18623D01*
X41667Y18333D01*
X41377Y18050D01*
X41081Y17774D01*
X40777Y17506D01*
X40467Y17245D01*
X40151Y16992D01*
X39829Y16747D01*
X39501Y16510D01*
X39167Y16281D01*
X38827Y16060D01*
X38483Y15847D01*
X38133Y15644D01*
X37778Y15448D01*
X37419Y15262D01*
X37055Y15084D01*
X36686Y14916D01*
X36314Y14756D01*
X35938Y14606D01*
X35559Y14465D01*
X35176Y14333D01*
X34790Y14210D01*
X34401Y14098D01*
X34009Y13994D01*
X33615Y13901D01*
X33219Y13817D01*
X32821Y13743D01*
X32421Y13679D01*
X32020Y13624D01*
X31617Y13579D01*
X31214Y13545D01*
X30810Y13520D01*
X30405Y13505D01*
X30000Y13500D01*
X29595Y13505D01*
X29190Y13520D01*
X28786Y13545D01*
X28383Y13579D01*
X27980Y13624D01*
X27579Y13679D01*
X27179Y13743D01*
X26781Y13817D01*
X26385Y13901D01*
X25991Y13994D01*
X25599Y14098D01*
X25210Y14210D01*
X24824Y14333D01*
X24441Y14465D01*
X24062Y14606D01*
X23686Y14756D01*
X23314Y14916D01*
X22945Y15084D01*
X22581Y15262D01*
X22222Y15448D01*
X21867Y15644D01*
X21517Y15847D01*
X21173Y16060D01*
X20833Y16281D01*
X20499Y16510D01*
X20171Y16747D01*
X19849Y16992D01*
X19533Y17245D01*
X19223Y17506D01*
X18919Y17774D01*
X18623Y18050D01*
X18333Y18333D01*
X18050Y18623D01*
X17774Y18919D01*
X17506Y19223D01*
X17245Y19533D01*
X16992Y19849D01*
X16747Y20171D01*
X16510Y20499D01*
X16281Y20833D01*
X16060Y21173D01*
X15847Y21517D01*
X15644Y21867D01*
X15448Y22222D01*
X15262Y22581D01*
X15084Y22945D01*
X14916Y23314D01*
X14756Y23686D01*
X14606Y24062D01*
X14465Y24441D01*
X14333Y24824D01*
X14210Y25210D01*
X14098Y25599D01*
X13994Y25991D01*
X13901Y26385D01*
X13817Y26781D01*
X13743Y27179D01*
X13679Y27579D01*
X13624Y27980D01*
X13579Y28383D01*
X13545Y28786D01*
X13520Y29190D01*
X13505Y29595D01*
X13500Y30000D01*
X1453500Y30000D02*
X1453505Y30405D01*
X1453520Y30810D01*
X1453545Y31214D01*
X1453579Y31617D01*
X1453624Y32020D01*
X1453679Y32421D01*
X1453743Y32821D01*
X1453817Y33219D01*
X1453901Y33615D01*
X1453994Y34009D01*
X1454098Y34401D01*
X1454210Y34790D01*
X1454333Y35176D01*
X1454465Y35559D01*
X1454606Y35938D01*
X1454756Y36314D01*
X1454916Y36686D01*
X1455084Y37055D01*
X1455262Y37419D01*
X1455448Y37778D01*
X1455644Y38133D01*
X1455847Y38483D01*
X1456060Y38827D01*
X1456281Y39167D01*
X1456510Y39501D01*
X1456747Y39829D01*
X1456992Y40151D01*
X1457245Y40467D01*
X1457506Y40777D01*
X1457774Y41081D01*
X1458050Y41377D01*
X1458333Y41667D01*
X1458623Y41950D01*
X1458919Y42226D01*
X1459223Y42494D01*
X1459533Y42755D01*
X1459849Y43008D01*
X1460171Y43253D01*
X1460499Y43490D01*
X1460833Y43719D01*
X1461173Y43940D01*
X1461517Y44153D01*
X1461867Y44356D01*
X1462222Y44552D01*
X1462581Y44738D01*
X1462945Y44916D01*
X1463314Y45084D01*
X1463686Y45244D01*
X1464062Y45394D01*
X1464441Y45535D01*
X1464824Y45667D01*
X1465210Y45790D01*
X1465599Y45902D01*
X1465991Y46006D01*
X1466385Y46099D01*
X1466781Y46183D01*
X1467179Y46257D01*
X1467579Y46321D01*
X1467980Y46376D01*
X1468383Y46421D01*
X1468786Y46455D01*
X1469190Y46480D01*
X1469595Y46495D01*
X1470000Y46500D01*
X1470405Y46495D01*
X1470810Y46480D01*
X1471214Y46455D01*
X1471617Y46421D01*
X1472020Y46376D01*
X1472421Y46321D01*
X1472821Y46257D01*
X1473219Y46183D01*
X1473615Y46099D01*
X1474009Y46006D01*
X1474401Y45902D01*
X1474790Y45790D01*
X1475176Y45667D01*
X1475559Y45535D01*
X1475938Y45394D01*
X1476314Y45244D01*
X1476686Y45084D01*
X1477055Y44916D01*
X1477419Y44738D01*
X1477778Y44552D01*
X1478133Y44356D01*
X1478483Y44153D01*
X1478827Y43940D01*
X1479167Y43719D01*
X1479501Y43490D01*
X1479829Y43253D01*
X1480151Y43008D01*
X1480467Y42755D01*
X1480777Y42494D01*
X1481081Y42226D01*
X1481377Y41950D01*
X1481667Y41667D01*
X1481950Y41377D01*
X1482226Y41081D01*
X1482494Y40777D01*
X1482755Y40467D01*
X1483008Y40151D01*
X1483253Y39829D01*
X1483490Y39501D01*
X1483719Y39167D01*
X1483940Y38827D01*
X1484153Y38483D01*
X1484356Y38133D01*
X1484552Y37778D01*
X1484738Y37419D01*
X1484916Y37055D01*
X1485084Y36686D01*
X1485244Y36314D01*
X1485394Y35938D01*
X1485535Y35559D01*
X1485667Y35176D01*
X1485790Y34790D01*
X1485902Y34401D01*
X1486006Y34009D01*
X1486099Y33615D01*
X1486183Y33219D01*
X1486257Y32821D01*
X1486321Y32421D01*
X1486376Y32020D01*
X1486421Y31617D01*
X1486455Y31214D01*
X1486480Y30810D01*
X1486495Y30405D01*
X1486500Y30000D01*
X1486495Y29595D01*
X1486480Y29190D01*
X1486455Y28786D01*
X1486421Y28383D01*
X1486376Y27980D01*
X1486321Y27579D01*
X1486257Y27179D01*
X1486183Y26781D01*
X1486099Y26385D01*
X1486006Y25991D01*
X1485902Y25599D01*
X1485790Y25210D01*
X1485667Y24824D01*
X1485535Y24441D01*
X1485394Y24062D01*
X1485244Y23686D01*
X1485084Y23314D01*
X1484916Y22945D01*
X1484738Y22581D01*
X1484552Y22222D01*
X1484356Y21867D01*
X1484153Y21517D01*
X1483940Y21173D01*
X1483719Y20833D01*
X1483490Y20499D01*
X1483253Y20171D01*
X1483008Y19849D01*
X1482755Y19533D01*
X1482494Y19223D01*
X1482226Y18919D01*
X1481950Y18623D01*
X1481667Y18333D01*
X1481377Y18050D01*
X1481081Y17774D01*
X1480777Y17506D01*
X1480467Y17245D01*
X1480151Y16992D01*
X1479829Y16747D01*
X1479501Y16510D01*
X1479167Y16281D01*
X1478827Y16060D01*
X1478483Y15847D01*
X1478133Y15644D01*
X1477778Y15448D01*
X1477419Y15262D01*
X1477055Y15084D01*
X1476686Y14916D01*
X1476314Y14756D01*
X1475938Y14606D01*
X1475559Y14465D01*
X1475176Y14333D01*
X1474790Y14210D01*
X1474401Y14098D01*
X1474009Y13994D01*
X1473615Y13901D01*
X1473219Y13817D01*
X1472821Y13743D01*
X1472421Y13679D01*
X1472020Y13624D01*
X1471617Y13579D01*
X1471214Y13545D01*
X1470810Y13520D01*
X1470405Y13505D01*
X1470000Y13500D01*
X1469595Y13505D01*
X1469190Y13520D01*
X1468786Y13545D01*
X1468383Y13579D01*
X1467980Y13624D01*
X1467579Y13679D01*
X1467179Y13743D01*
X1466781Y13817D01*
X1466385Y13901D01*
X1465991Y13994D01*
X1465599Y14098D01*
X1465210Y14210D01*
X1464824Y14333D01*
X1464441Y14465D01*
X1464062Y14606D01*
X1463686Y14756D01*
X1463314Y14916D01*
X1462945Y15084D01*
X1462581Y15262D01*
X1462222Y15448D01*
X1461867Y15644D01*
X1461517Y15847D01*
X1461173Y16060D01*
X1460833Y16281D01*
X1460499Y16510D01*
X1460171Y16747D01*
X1459849Y16992D01*
X1459533Y17245D01*
X1459223Y17506D01*
X1458919Y17774D01*
X1458623Y18050D01*
X1458333Y18333D01*
X1458050Y18623D01*
X1457774Y18919D01*
X1457506Y19223D01*
X1457245Y19533D01*
X1456992Y19849D01*
X1456747Y20171D01*
X1456510Y20499D01*
X1456281Y20833D01*
X1456060Y21173D01*
X1455847Y21517D01*
X1455644Y21867D01*
X1455448Y22222D01*
X1455262Y22581D01*
X1455084Y22945D01*
X1454916Y23314D01*
X1454756Y23686D01*
X1454606Y24062D01*
X1454465Y24441D01*
X1454333Y24824D01*
X1454210Y25210D01*
X1454098Y25599D01*
X1453994Y25991D01*
X1453901Y26385D01*
X1453817Y26781D01*
X1453743Y27179D01*
X1453679Y27579D01*
X1453624Y27980D01*
X1453579Y28383D01*
X1453545Y28786D01*
X1453520Y29190D01*
X1453505Y29595D01*
X1453500Y30000D01*
X1453500Y970000D02*
X1453505Y970405D01*
X1453520Y970810D01*
X1453545Y971214D01*
X1453579Y971617D01*
X1453624Y972020D01*
X1453679Y972421D01*
X1453743Y972821D01*
X1453817Y973219D01*
X1453901Y973615D01*
X1453994Y974009D01*
X1454098Y974401D01*
X1454210Y974790D01*
X1454333Y975176D01*
X1454465Y975559D01*
X1454606Y975938D01*
X1454756Y976314D01*
X1454916Y976686D01*
X1455084Y977055D01*
X1455262Y977419D01*
X1455448Y977778D01*
X1455644Y978133D01*
X1455847Y978483D01*
X1456060Y978827D01*
X1456281Y979167D01*
X1456510Y979501D01*
X1456747Y979829D01*
X1456992Y980151D01*
X1457245Y980467D01*
X1457506Y980777D01*
X1457774Y981081D01*
X1458050Y981377D01*
X1458333Y981667D01*
X1458623Y981950D01*
X1458919Y982226D01*
X1459223Y982494D01*
X1459533Y982755D01*
X1459849Y983008D01*
X1460171Y983253D01*
X1460499Y983490D01*
X1460833Y983719D01*
X1461173Y983940D01*
X1461517Y984153D01*
X1461867Y984356D01*
X1462222Y984552D01*
X1462581Y984738D01*
X1462945Y984916D01*
X1463314Y985084D01*
X1463686Y985244D01*
X1464062Y985394D01*
X1464441Y985535D01*
X1464824Y985667D01*
X1465210Y985790D01*
X1465599Y985902D01*
X1465991Y986006D01*
X1466385Y986099D01*
X1466781Y986183D01*
X1467179Y986257D01*
X1467579Y986321D01*
X1467980Y986376D01*
X1468383Y986421D01*
X1468786Y986455D01*
X1469190Y986480D01*
X1469595Y986495D01*
X1470000Y986500D01*
X1470405Y986495D01*
X1470810Y986480D01*
X1471214Y986455D01*
X1471617Y986421D01*
X1472020Y986376D01*
X1472421Y986321D01*
X1472821Y986257D01*
X1473219Y986183D01*
X1473615Y986099D01*
X1474009Y986006D01*
X1474401Y985902D01*
X1474790Y985790D01*
X1475176Y985667D01*
X1475559Y985535D01*
X1475938Y985394D01*
X1476314Y985244D01*
X1476686Y985084D01*
X1477055Y984916D01*
X1477419Y984738D01*
X1477778Y984552D01*
X1478133Y984356D01*
X1478483Y984153D01*
X1478827Y983940D01*
X1479167Y983719D01*
X1479501Y983490D01*
X1479829Y983253D01*
X1480151Y983008D01*
X1480467Y982755D01*
X1480777Y982494D01*
X1481081Y982226D01*
X1481377Y981950D01*
X1481667Y981667D01*
X1481950Y981377D01*
X1482226Y981081D01*
X1482494Y980777D01*
X1482755Y980467D01*
X1483008Y980151D01*
X1483253Y979829D01*
X1483490Y979501D01*
X1483719Y979167D01*
X1483940Y978827D01*
X1484153Y978483D01*
X1484356Y978133D01*
X1484552Y977778D01*
X1484738Y977419D01*
X1484916Y977055D01*
X1485084Y976686D01*
X1485244Y976314D01*
X1485394Y975938D01*
X1485535Y975559D01*
X1485667Y975176D01*
X1485790Y974790D01*
X1485902Y974401D01*
X1486006Y974009D01*
X1486099Y973615D01*
X1486183Y973219D01*
X1486257Y972821D01*
X1486321Y972421D01*
X1486376Y972020D01*
X1486421Y971617D01*
X1486455Y971214D01*
X1486480Y970810D01*
X1486495Y970405D01*
X1486500Y970000D01*
X1486495Y969595D01*
X1486480Y969190D01*
X1486455Y968786D01*
X1486421Y968383D01*
X1486376Y967980D01*
X1486321Y967579D01*
X1486257Y967179D01*
X1486183Y966781D01*
X1486099Y966385D01*
X1486006Y965991D01*
X1485902Y965599D01*
X1485790Y965210D01*
X1485667Y964824D01*
X1485535Y964441D01*
X1485394Y964062D01*
X1485244Y963686D01*
X1485084Y963314D01*
X1484916Y962945D01*
X1484738Y962581D01*
X1484552Y962222D01*
X1484356Y961867D01*
X1484153Y961517D01*
X1483940Y961173D01*
X1483719Y960833D01*
X1483490Y960499D01*
X1483253Y960171D01*
X1483008Y959849D01*
X1482755Y959533D01*
X1482494Y959223D01*
X1482226Y958919D01*
X1481950Y958623D01*
X1481667Y958333D01*
X1481377Y958050D01*
X1481081Y957774D01*
X1480777Y957506D01*
X1480467Y957245D01*
X1480151Y956992D01*
X1479829Y956747D01*
X1479501Y956510D01*
X1479167Y956281D01*
X1478827Y956060D01*
X1478483Y955847D01*
X1478133Y955644D01*
X1477778Y955448D01*
X1477419Y955262D01*
X1477055Y955084D01*
X1476686Y954916D01*
X1476314Y954756D01*
X1475938Y954606D01*
X1475559Y954465D01*
X1475176Y954333D01*
X1474790Y954210D01*
X1474401Y954098D01*
X1474009Y953994D01*
X1473615Y953901D01*
X1473219Y953817D01*
X1472821Y953743D01*
X1472421Y953679D01*
X1472020Y953624D01*
X1471617Y953579D01*
X1471214Y953545D01*
X1470810Y953520D01*
X1470405Y953505D01*
X1470000Y953500D01*
X1469595Y953505D01*
X1469190Y953520D01*
X1468786Y953545D01*
X1468383Y953579D01*
X1467980Y953624D01*
X1467579Y953679D01*
X1467179Y953743D01*
X1466781Y953817D01*
X1466385Y953901D01*
X1465991Y953994D01*
X1465599Y954098D01*
X1465210Y954210D01*
X1464824Y954333D01*
X1464441Y954465D01*
X1464062Y954606D01*
X1463686Y954756D01*
X1463314Y954916D01*
X1462945Y955084D01*
X1462581Y955262D01*
X1462222Y955448D01*
X1461867Y955644D01*
X1461517Y955847D01*
X1461173Y956060D01*
X1460833Y956281D01*
X1460499Y956510D01*
X1460171Y956747D01*
X1459849Y956992D01*
X1459533Y957245D01*
X1459223Y957506D01*
X1458919Y957774D01*
X1458623Y958050D01*
X1458333Y958333D01*
X1458050Y958623D01*
X1457774Y958919D01*
X1457506Y959223D01*
X1457245Y959533D01*
X1456992Y959849D01*
X1456747Y960171D01*
X1456510Y960499D01*
X1456281Y960833D01*
X1456060Y961173D01*
X1455847Y961517D01*
X1455644Y961867D01*
X1455448Y962222D01*
X1455262Y962581D01*
X1455084Y962945D01*
X1454916Y963314D01*
X1454756Y963686D01*
X1454606Y964062D01*
X1454465Y964441D01*
X1454333Y964824D01*
X1454210Y965210D01*
X1454098Y965599D01*
X1453994Y965991D01*
X1453901Y966385D01*
X1453817Y966781D01*
X1453743Y967179D01*
X1453679Y967579D01*
X1453624Y967980D01*
X1453579Y968383D01*
X1453545Y968786D01*
X1453520Y969190D01*
X1453505Y969595D01*
X1453500Y970000D01*
X930910Y806450D02*
X930913Y806668D01*
X930921Y806886D01*
X930934Y807104D01*
X930953Y807321D01*
X930977Y807538D01*
X931006Y807754D01*
X931041Y807970D01*
X931081Y808184D01*
X931126Y808398D01*
X931176Y808610D01*
X931232Y808821D01*
X931293Y809031D01*
X931359Y809239D01*
X931430Y809445D01*
X931506Y809649D01*
X931587Y809852D01*
X931673Y810053D01*
X931764Y810251D01*
X931859Y810447D01*
X931960Y810641D01*
X932065Y810832D01*
X932175Y811020D01*
X932289Y811206D01*
X932408Y811389D01*
X932532Y811569D01*
X932659Y811746D01*
X932792Y811919D01*
X932928Y812090D01*
X933068Y812257D01*
X933213Y812420D01*
X933361Y812580D01*
X933514Y812736D01*
X933670Y812889D01*
X933830Y813037D01*
X933993Y813182D01*
X934160Y813322D01*
X934331Y813458D01*
X934504Y813591D01*
X934681Y813718D01*
X934861Y813842D01*
X935044Y813961D01*
X935230Y814075D01*
X935418Y814185D01*
X935609Y814290D01*
X935803Y814391D01*
X935999Y814486D01*
X936197Y814577D01*
X936398Y814663D01*
X936601Y814744D01*
X936805Y814820D01*
X937011Y814891D01*
X937219Y814957D01*
X937429Y815018D01*
X937640Y815074D01*
X937852Y815124D01*
X938066Y815169D01*
X938280Y815209D01*
X938496Y815244D01*
X938712Y815273D01*
X938929Y815297D01*
X939146Y815316D01*
X939364Y815329D01*
X939582Y815337D01*
X939800Y815340D01*
X940018Y815337D01*
X940236Y815329D01*
X940454Y815316D01*
X940671Y815297D01*
X940888Y815273D01*
X941104Y815244D01*
X941320Y815209D01*
X941534Y815169D01*
X941748Y815124D01*
X941960Y815074D01*
X942171Y815018D01*
X942381Y814957D01*
X942589Y814891D01*
X942795Y814820D01*
X942999Y814744D01*
X943202Y814663D01*
X943403Y814577D01*
X943601Y814486D01*
X943797Y814391D01*
X943991Y814290D01*
X944182Y814185D01*
X944370Y814075D01*
X944556Y813961D01*
X944739Y813842D01*
X944919Y813718D01*
X945096Y813591D01*
X945269Y813458D01*
X945440Y813322D01*
X945607Y813182D01*
X945770Y813037D01*
X945930Y812889D01*
X946086Y812736D01*
X946239Y812580D01*
X946387Y812420D01*
X946532Y812257D01*
X946672Y812090D01*
X946808Y811919D01*
X946941Y811746D01*
X947068Y811569D01*
X947192Y811389D01*
X947311Y811206D01*
X947425Y811020D01*
X947535Y810832D01*
X947640Y810641D01*
X947741Y810447D01*
X947836Y810251D01*
X947927Y810053D01*
X948013Y809852D01*
X948094Y809649D01*
X948170Y809445D01*
X948241Y809239D01*
X948307Y809031D01*
X948368Y808821D01*
X948424Y808610D01*
X948474Y808398D01*
X948519Y808184D01*
X948559Y807970D01*
X948594Y807754D01*
X948623Y807538D01*
X948647Y807321D01*
X948666Y807104D01*
X948679Y806886D01*
X948687Y806668D01*
X948690Y806450D01*
X948687Y806232D01*
X948679Y806014D01*
X948666Y805796D01*
X948647Y805579D01*
X948623Y805362D01*
X948594Y805146D01*
X948559Y804930D01*
X948519Y804716D01*
X948474Y804502D01*
X948424Y804290D01*
X948368Y804079D01*
X948307Y803869D01*
X948241Y803661D01*
X948170Y803455D01*
X948094Y803251D01*
X948013Y803048D01*
X947927Y802847D01*
X947836Y802649D01*
X947741Y802453D01*
X947640Y802259D01*
X947535Y802068D01*
X947425Y801880D01*
X947311Y801694D01*
X947192Y801511D01*
X947068Y801331D01*
X946941Y801154D01*
X946808Y800981D01*
X946672Y800810D01*
X946532Y800643D01*
X946387Y800480D01*
X946239Y800320D01*
X946086Y800164D01*
X945930Y800011D01*
X945770Y799863D01*
X945607Y799718D01*
X945440Y799578D01*
X945269Y799442D01*
X945096Y799309D01*
X944919Y799182D01*
X944739Y799058D01*
X944556Y798939D01*
X944370Y798825D01*
X944182Y798715D01*
X943991Y798610D01*
X943797Y798509D01*
X943601Y798414D01*
X943403Y798323D01*
X943202Y798237D01*
X942999Y798156D01*
X942795Y798080D01*
X942589Y798009D01*
X942381Y797943D01*
X942171Y797882D01*
X941960Y797826D01*
X941748Y797776D01*
X941534Y797731D01*
X941320Y797691D01*
X941104Y797656D01*
X940888Y797627D01*
X940671Y797603D01*
X940454Y797584D01*
X940236Y797571D01*
X940018Y797563D01*
X939800Y797560D01*
X939582Y797563D01*
X939364Y797571D01*
X939146Y797584D01*
X938929Y797603D01*
X938712Y797627D01*
X938496Y797656D01*
X938280Y797691D01*
X938066Y797731D01*
X937852Y797776D01*
X937640Y797826D01*
X937429Y797882D01*
X937219Y797943D01*
X937011Y798009D01*
X936805Y798080D01*
X936601Y798156D01*
X936398Y798237D01*
X936197Y798323D01*
X935999Y798414D01*
X935803Y798509D01*
X935609Y798610D01*
X935418Y798715D01*
X935230Y798825D01*
X935044Y798939D01*
X934861Y799058D01*
X934681Y799182D01*
X934504Y799309D01*
X934331Y799442D01*
X934160Y799578D01*
X933993Y799718D01*
X933830Y799863D01*
X933670Y800011D01*
X933514Y800164D01*
X933361Y800320D01*
X933213Y800480D01*
X933068Y800643D01*
X932928Y800810D01*
X932792Y800981D01*
X932659Y801154D01*
X932532Y801331D01*
X932408Y801511D01*
X932289Y801694D01*
X932175Y801880D01*
X932065Y802068D01*
X931960Y802259D01*
X931859Y802453D01*
X931764Y802649D01*
X931673Y802847D01*
X931587Y803048D01*
X931506Y803251D01*
X931430Y803455D01*
X931359Y803661D01*
X931293Y803869D01*
X931232Y804079D01*
X931176Y804290D01*
X931126Y804502D01*
X931081Y804716D01*
X931041Y804930D01*
X931006Y805146D01*
X930977Y805362D01*
X930953Y805579D01*
X930934Y805796D01*
X930921Y806014D01*
X930913Y806232D01*
X930910Y806450D01*
X930910Y958850D02*
X930913Y959068D01*
X930921Y959286D01*
X930934Y959504D01*
X930953Y959721D01*
X930977Y959938D01*
X931006Y960154D01*
X931041Y960370D01*
X931081Y960584D01*
X931126Y960798D01*
X931176Y961010D01*
X931232Y961221D01*
X931293Y961431D01*
X931359Y961639D01*
X931430Y961845D01*
X931506Y962049D01*
X931587Y962252D01*
X931673Y962453D01*
X931764Y962651D01*
X931859Y962847D01*
X931960Y963041D01*
X932065Y963232D01*
X932175Y963420D01*
X932289Y963606D01*
X932408Y963789D01*
X932532Y963969D01*
X932659Y964146D01*
X932792Y964319D01*
X932928Y964490D01*
X933068Y964657D01*
X933213Y964820D01*
X933361Y964980D01*
X933514Y965136D01*
X933670Y965289D01*
X933830Y965437D01*
X933993Y965582D01*
X934160Y965722D01*
X934331Y965858D01*
X934504Y965991D01*
X934681Y966118D01*
X934861Y966242D01*
X935044Y966361D01*
X935230Y966475D01*
X935418Y966585D01*
X935609Y966690D01*
X935803Y966791D01*
X935999Y966886D01*
X936197Y966977D01*
X936398Y967063D01*
X936601Y967144D01*
X936805Y967220D01*
X937011Y967291D01*
X937219Y967357D01*
X937429Y967418D01*
X937640Y967474D01*
X937852Y967524D01*
X938066Y967569D01*
X938280Y967609D01*
X938496Y967644D01*
X938712Y967673D01*
X938929Y967697D01*
X939146Y967716D01*
X939364Y967729D01*
X939582Y967737D01*
X939800Y967740D01*
X940018Y967737D01*
X940236Y967729D01*
X940454Y967716D01*
X940671Y967697D01*
X940888Y967673D01*
X941104Y967644D01*
X941320Y967609D01*
X941534Y967569D01*
X941748Y967524D01*
X941960Y967474D01*
X942171Y967418D01*
X942381Y967357D01*
X942589Y967291D01*
X942795Y967220D01*
X942999Y967144D01*
X943202Y967063D01*
X943403Y966977D01*
X943601Y966886D01*
X943797Y966791D01*
X943991Y966690D01*
X944182Y966585D01*
X944370Y966475D01*
X944556Y966361D01*
X944739Y966242D01*
X944919Y966118D01*
X945096Y965991D01*
X945269Y965858D01*
X945440Y965722D01*
X945607Y965582D01*
X945770Y965437D01*
X945930Y965289D01*
X946086Y965136D01*
X946239Y964980D01*
X946387Y964820D01*
X946532Y964657D01*
X946672Y964490D01*
X946808Y964319D01*
X946941Y964146D01*
X947068Y963969D01*
X947192Y963789D01*
X947311Y963606D01*
X947425Y963420D01*
X947535Y963232D01*
X947640Y963041D01*
X947741Y962847D01*
X947836Y962651D01*
X947927Y962453D01*
X948013Y962252D01*
X948094Y962049D01*
X948170Y961845D01*
X948241Y961639D01*
X948307Y961431D01*
X948368Y961221D01*
X948424Y961010D01*
X948474Y960798D01*
X948519Y960584D01*
X948559Y960370D01*
X948594Y960154D01*
X948623Y959938D01*
X948647Y959721D01*
X948666Y959504D01*
X948679Y959286D01*
X948687Y959068D01*
X948690Y958850D01*
X948687Y958632D01*
X948679Y958414D01*
X948666Y958196D01*
X948647Y957979D01*
X948623Y957762D01*
X948594Y957546D01*
X948559Y957330D01*
X948519Y957116D01*
X948474Y956902D01*
X948424Y956690D01*
X948368Y956479D01*
X948307Y956269D01*
X948241Y956061D01*
X948170Y955855D01*
X948094Y955651D01*
X948013Y955448D01*
X947927Y955247D01*
X947836Y955049D01*
X947741Y954853D01*
X947640Y954659D01*
X947535Y954468D01*
X947425Y954280D01*
X947311Y954094D01*
X947192Y953911D01*
X947068Y953731D01*
X946941Y953554D01*
X946808Y953381D01*
X946672Y953210D01*
X946532Y953043D01*
X946387Y952880D01*
X946239Y952720D01*
X946086Y952564D01*
X945930Y952411D01*
X945770Y952263D01*
X945607Y952118D01*
X945440Y951978D01*
X945269Y951842D01*
X945096Y951709D01*
X944919Y951582D01*
X944739Y951458D01*
X944556Y951339D01*
X944370Y951225D01*
X944182Y951115D01*
X943991Y951010D01*
X943797Y950909D01*
X943601Y950814D01*
X943403Y950723D01*
X943202Y950637D01*
X942999Y950556D01*
X942795Y950480D01*
X942589Y950409D01*
X942381Y950343D01*
X942171Y950282D01*
X941960Y950226D01*
X941748Y950176D01*
X941534Y950131D01*
X941320Y950091D01*
X941104Y950056D01*
X940888Y950027D01*
X940671Y950003D01*
X940454Y949984D01*
X940236Y949971D01*
X940018Y949963D01*
X939800Y949960D01*
X939582Y949963D01*
X939364Y949971D01*
X939146Y949984D01*
X938929Y950003D01*
X938712Y950027D01*
X938496Y950056D01*
X938280Y950091D01*
X938066Y950131D01*
X937852Y950176D01*
X937640Y950226D01*
X937429Y950282D01*
X937219Y950343D01*
X937011Y950409D01*
X936805Y950480D01*
X936601Y950556D01*
X936398Y950637D01*
X936197Y950723D01*
X935999Y950814D01*
X935803Y950909D01*
X935609Y951010D01*
X935418Y951115D01*
X935230Y951225D01*
X935044Y951339D01*
X934861Y951458D01*
X934681Y951582D01*
X934504Y951709D01*
X934331Y951842D01*
X934160Y951978D01*
X933993Y952118D01*
X933830Y952263D01*
X933670Y952411D01*
X933514Y952564D01*
X933361Y952720D01*
X933213Y952880D01*
X933068Y953043D01*
X932928Y953210D01*
X932792Y953381D01*
X932659Y953554D01*
X932532Y953731D01*
X932408Y953911D01*
X932289Y954094D01*
X932175Y954280D01*
X932065Y954468D01*
X931960Y954659D01*
X931859Y954853D01*
X931764Y955049D01*
X931673Y955247D01*
X931587Y955448D01*
X931506Y955651D01*
X931430Y955855D01*
X931359Y956061D01*
X931293Y956269D01*
X931232Y956479D01*
X931176Y956690D01*
X931126Y956902D01*
X931081Y957116D01*
X931041Y957330D01*
X931006Y957546D01*
X930977Y957762D01*
X930953Y957979D01*
X930934Y958196D01*
X930921Y958414D01*
X930913Y958632D01*
X930910Y958850D01*
X1337310Y958850D02*
X1337313Y959068D01*
X1337321Y959286D01*
X1337334Y959504D01*
X1337353Y959721D01*
X1337377Y959938D01*
X1337406Y960154D01*
X1337441Y960370D01*
X1337481Y960584D01*
X1337526Y960798D01*
X1337576Y961010D01*
X1337632Y961221D01*
X1337693Y961431D01*
X1337759Y961639D01*
X1337830Y961845D01*
X1337906Y962049D01*
X1337987Y962252D01*
X1338073Y962453D01*
X1338164Y962651D01*
X1338259Y962847D01*
X1338360Y963041D01*
X1338465Y963232D01*
X1338575Y963420D01*
X1338689Y963606D01*
X1338808Y963789D01*
X1338932Y963969D01*
X1339059Y964146D01*
X1339192Y964319D01*
X1339328Y964490D01*
X1339468Y964657D01*
X1339613Y964820D01*
X1339761Y964980D01*
X1339914Y965136D01*
X1340070Y965289D01*
X1340230Y965437D01*
X1340393Y965582D01*
X1340560Y965722D01*
X1340731Y965858D01*
X1340904Y965991D01*
X1341081Y966118D01*
X1341261Y966242D01*
X1341444Y966361D01*
X1341630Y966475D01*
X1341818Y966585D01*
X1342009Y966690D01*
X1342203Y966791D01*
X1342399Y966886D01*
X1342597Y966977D01*
X1342798Y967063D01*
X1343001Y967144D01*
X1343205Y967220D01*
X1343411Y967291D01*
X1343619Y967357D01*
X1343829Y967418D01*
X1344040Y967474D01*
X1344252Y967524D01*
X1344466Y967569D01*
X1344680Y967609D01*
X1344896Y967644D01*
X1345112Y967673D01*
X1345329Y967697D01*
X1345546Y967716D01*
X1345764Y967729D01*
X1345982Y967737D01*
X1346200Y967740D01*
X1346418Y967737D01*
X1346636Y967729D01*
X1346854Y967716D01*
X1347071Y967697D01*
X1347288Y967673D01*
X1347504Y967644D01*
X1347720Y967609D01*
X1347934Y967569D01*
X1348148Y967524D01*
X1348360Y967474D01*
X1348571Y967418D01*
X1348781Y967357D01*
X1348989Y967291D01*
X1349195Y967220D01*
X1349399Y967144D01*
X1349602Y967063D01*
X1349803Y966977D01*
X1350001Y966886D01*
X1350197Y966791D01*
X1350391Y966690D01*
X1350582Y966585D01*
X1350770Y966475D01*
X1350956Y966361D01*
X1351139Y966242D01*
X1351319Y966118D01*
X1351496Y965991D01*
X1351669Y965858D01*
X1351840Y965722D01*
X1352007Y965582D01*
X1352170Y965437D01*
X1352330Y965289D01*
X1352486Y965136D01*
X1352639Y964980D01*
X1352787Y964820D01*
X1352932Y964657D01*
X1353072Y964490D01*
X1353208Y964319D01*
X1353341Y964146D01*
X1353468Y963969D01*
X1353592Y963789D01*
X1353711Y963606D01*
X1353825Y963420D01*
X1353935Y963232D01*
X1354040Y963041D01*
X1354141Y962847D01*
X1354236Y962651D01*
X1354327Y962453D01*
X1354413Y962252D01*
X1354494Y962049D01*
X1354570Y961845D01*
X1354641Y961639D01*
X1354707Y961431D01*
X1354768Y961221D01*
X1354824Y961010D01*
X1354874Y960798D01*
X1354919Y960584D01*
X1354959Y960370D01*
X1354994Y960154D01*
X1355023Y959938D01*
X1355047Y959721D01*
X1355066Y959504D01*
X1355079Y959286D01*
X1355087Y959068D01*
X1355090Y958850D01*
X1355087Y958632D01*
X1355079Y958414D01*
X1355066Y958196D01*
X1355047Y957979D01*
X1355023Y957762D01*
X1354994Y957546D01*
X1354959Y957330D01*
X1354919Y957116D01*
X1354874Y956902D01*
X1354824Y956690D01*
X1354768Y956479D01*
X1354707Y956269D01*
X1354641Y956061D01*
X1354570Y955855D01*
X1354494Y955651D01*
X1354413Y955448D01*
X1354327Y955247D01*
X1354236Y955049D01*
X1354141Y954853D01*
X1354040Y954659D01*
X1353935Y954468D01*
X1353825Y954280D01*
X1353711Y954094D01*
X1353592Y953911D01*
X1353468Y953731D01*
X1353341Y953554D01*
X1353208Y953381D01*
X1353072Y953210D01*
X1352932Y953043D01*
X1352787Y952880D01*
X1352639Y952720D01*
X1352486Y952564D01*
X1352330Y952411D01*
X1352170Y952263D01*
X1352007Y952118D01*
X1351840Y951978D01*
X1351669Y951842D01*
X1351496Y951709D01*
X1351319Y951582D01*
X1351139Y951458D01*
X1350956Y951339D01*
X1350770Y951225D01*
X1350582Y951115D01*
X1350391Y951010D01*
X1350197Y950909D01*
X1350001Y950814D01*
X1349803Y950723D01*
X1349602Y950637D01*
X1349399Y950556D01*
X1349195Y950480D01*
X1348989Y950409D01*
X1348781Y950343D01*
X1348571Y950282D01*
X1348360Y950226D01*
X1348148Y950176D01*
X1347934Y950131D01*
X1347720Y950091D01*
X1347504Y950056D01*
X1347288Y950027D01*
X1347071Y950003D01*
X1346854Y949984D01*
X1346636Y949971D01*
X1346418Y949963D01*
X1346200Y949960D01*
X1345982Y949963D01*
X1345764Y949971D01*
X1345546Y949984D01*
X1345329Y950003D01*
X1345112Y950027D01*
X1344896Y950056D01*
X1344680Y950091D01*
X1344466Y950131D01*
X1344252Y950176D01*
X1344040Y950226D01*
X1343829Y950282D01*
X1343619Y950343D01*
X1343411Y950409D01*
X1343205Y950480D01*
X1343001Y950556D01*
X1342798Y950637D01*
X1342597Y950723D01*
X1342399Y950814D01*
X1342203Y950909D01*
X1342009Y951010D01*
X1341818Y951115D01*
X1341630Y951225D01*
X1341444Y951339D01*
X1341261Y951458D01*
X1341081Y951582D01*
X1340904Y951709D01*
X1340731Y951842D01*
X1340560Y951978D01*
X1340393Y952118D01*
X1340230Y952263D01*
X1340070Y952411D01*
X1339914Y952564D01*
X1339761Y952720D01*
X1339613Y952880D01*
X1339468Y953043D01*
X1339328Y953210D01*
X1339192Y953381D01*
X1339059Y953554D01*
X1338932Y953731D01*
X1338808Y953911D01*
X1338689Y954094D01*
X1338575Y954280D01*
X1338465Y954468D01*
X1338360Y954659D01*
X1338259Y954853D01*
X1338164Y955049D01*
X1338073Y955247D01*
X1337987Y955448D01*
X1337906Y955651D01*
X1337830Y955855D01*
X1337759Y956061D01*
X1337693Y956269D01*
X1337632Y956479D01*
X1337576Y956690D01*
X1337526Y956902D01*
X1337481Y957116D01*
X1337441Y957330D01*
X1337406Y957546D01*
X1337377Y957762D01*
X1337353Y957979D01*
X1337334Y958196D01*
X1337321Y958414D01*
X1337313Y958632D01*
X1337310Y958850D01*
X1337310Y806450D02*
X1337313Y806668D01*
X1337321Y806886D01*
X1337334Y807104D01*
X1337353Y807321D01*
X1337377Y807538D01*
X1337406Y807754D01*
X1337441Y807970D01*
X1337481Y808184D01*
X1337526Y808398D01*
X1337576Y808610D01*
X1337632Y808821D01*
X1337693Y809031D01*
X1337759Y809239D01*
X1337830Y809445D01*
X1337906Y809649D01*
X1337987Y809852D01*
X1338073Y810053D01*
X1338164Y810251D01*
X1338259Y810447D01*
X1338360Y810641D01*
X1338465Y810832D01*
X1338575Y811020D01*
X1338689Y811206D01*
X1338808Y811389D01*
X1338932Y811569D01*
X1339059Y811746D01*
X1339192Y811919D01*
X1339328Y812090D01*
X1339468Y812257D01*
X1339613Y812420D01*
X1339761Y812580D01*
X1339914Y812736D01*
X1340070Y812889D01*
X1340230Y813037D01*
X1340393Y813182D01*
X1340560Y813322D01*
X1340731Y813458D01*
X1340904Y813591D01*
X1341081Y813718D01*
X1341261Y813842D01*
X1341444Y813961D01*
X1341630Y814075D01*
X1341818Y814185D01*
X1342009Y814290D01*
X1342203Y814391D01*
X1342399Y814486D01*
X1342597Y814577D01*
X1342798Y814663D01*
X1343001Y814744D01*
X1343205Y814820D01*
X1343411Y814891D01*
X1343619Y814957D01*
X1343829Y815018D01*
X1344040Y815074D01*
X1344252Y815124D01*
X1344466Y815169D01*
X1344680Y815209D01*
X1344896Y815244D01*
X1345112Y815273D01*
X1345329Y815297D01*
X1345546Y815316D01*
X1345764Y815329D01*
X1345982Y815337D01*
X1346200Y815340D01*
X1346418Y815337D01*
X1346636Y815329D01*
X1346854Y815316D01*
X1347071Y815297D01*
X1347288Y815273D01*
X1347504Y815244D01*
X1347720Y815209D01*
X1347934Y815169D01*
X1348148Y815124D01*
X1348360Y815074D01*
X1348571Y815018D01*
X1348781Y814957D01*
X1348989Y814891D01*
X1349195Y814820D01*
X1349399Y814744D01*
X1349602Y814663D01*
X1349803Y814577D01*
X1350001Y814486D01*
X1350197Y814391D01*
X1350391Y814290D01*
X1350582Y814185D01*
X1350770Y814075D01*
X1350956Y813961D01*
X1351139Y813842D01*
X1351319Y813718D01*
X1351496Y813591D01*
X1351669Y813458D01*
X1351840Y813322D01*
X1352007Y813182D01*
X1352170Y813037D01*
X1352330Y812889D01*
X1352486Y812736D01*
X1352639Y812580D01*
X1352787Y812420D01*
X1352932Y812257D01*
X1353072Y812090D01*
X1353208Y811919D01*
X1353341Y811746D01*
X1353468Y811569D01*
X1353592Y811389D01*
X1353711Y811206D01*
X1353825Y811020D01*
X1353935Y810832D01*
X1354040Y810641D01*
X1354141Y810447D01*
X1354236Y810251D01*
X1354327Y810053D01*
X1354413Y809852D01*
X1354494Y809649D01*
X1354570Y809445D01*
X1354641Y809239D01*
X1354707Y809031D01*
X1354768Y808821D01*
X1354824Y808610D01*
X1354874Y808398D01*
X1354919Y808184D01*
X1354959Y807970D01*
X1354994Y807754D01*
X1355023Y807538D01*
X1355047Y807321D01*
X1355066Y807104D01*
X1355079Y806886D01*
X1355087Y806668D01*
X1355090Y806450D01*
X1355087Y806232D01*
X1355079Y806014D01*
X1355066Y805796D01*
X1355047Y805579D01*
X1355023Y805362D01*
X1354994Y805146D01*
X1354959Y804930D01*
X1354919Y804716D01*
X1354874Y804502D01*
X1354824Y804290D01*
X1354768Y804079D01*
X1354707Y803869D01*
X1354641Y803661D01*
X1354570Y803455D01*
X1354494Y803251D01*
X1354413Y803048D01*
X1354327Y802847D01*
X1354236Y802649D01*
X1354141Y802453D01*
X1354040Y802259D01*
X1353935Y802068D01*
X1353825Y801880D01*
X1353711Y801694D01*
X1353592Y801511D01*
X1353468Y801331D01*
X1353341Y801154D01*
X1353208Y800981D01*
X1353072Y800810D01*
X1352932Y800643D01*
X1352787Y800480D01*
X1352639Y800320D01*
X1352486Y800164D01*
X1352330Y800011D01*
X1352170Y799863D01*
X1352007Y799718D01*
X1351840Y799578D01*
X1351669Y799442D01*
X1351496Y799309D01*
X1351319Y799182D01*
X1351139Y799058D01*
X1350956Y798939D01*
X1350770Y798825D01*
X1350582Y798715D01*
X1350391Y798610D01*
X1350197Y798509D01*
X1350001Y798414D01*
X1349803Y798323D01*
X1349602Y798237D01*
X1349399Y798156D01*
X1349195Y798080D01*
X1348989Y798009D01*
X1348781Y797943D01*
X1348571Y797882D01*
X1348360Y797826D01*
X1348148Y797776D01*
X1347934Y797731D01*
X1347720Y797691D01*
X1347504Y797656D01*
X1347288Y797627D01*
X1347071Y797603D01*
X1346854Y797584D01*
X1346636Y797571D01*
X1346418Y797563D01*
X1346200Y797560D01*
X1345982Y797563D01*
X1345764Y797571D01*
X1345546Y797584D01*
X1345329Y797603D01*
X1345112Y797627D01*
X1344896Y797656D01*
X1344680Y797691D01*
X1344466Y797731D01*
X1344252Y797776D01*
X1344040Y797826D01*
X1343829Y797882D01*
X1343619Y797943D01*
X1343411Y798009D01*
X1343205Y798080D01*
X1343001Y798156D01*
X1342798Y798237D01*
X1342597Y798323D01*
X1342399Y798414D01*
X1342203Y798509D01*
X1342009Y798610D01*
X1341818Y798715D01*
X1341630Y798825D01*
X1341444Y798939D01*
X1341261Y799058D01*
X1341081Y799182D01*
X1340904Y799309D01*
X1340731Y799442D01*
X1340560Y799578D01*
X1340393Y799718D01*
X1340230Y799863D01*
X1340070Y800011D01*
X1339914Y800164D01*
X1339761Y800320D01*
X1339613Y800480D01*
X1339468Y800643D01*
X1339328Y800810D01*
X1339192Y800981D01*
X1339059Y801154D01*
X1338932Y801331D01*
X1338808Y801511D01*
X1338689Y801694D01*
X1338575Y801880D01*
X1338465Y802068D01*
X1338360Y802259D01*
X1338259Y802453D01*
X1338164Y802649D01*
X1338073Y802847D01*
X1337987Y803048D01*
X1337906Y803251D01*
X1337830Y803455D01*
X1337759Y803661D01*
X1337693Y803869D01*
X1337632Y804079D01*
X1337576Y804290D01*
X1337526Y804502D01*
X1337481Y804716D01*
X1337441Y804930D01*
X1337406Y805146D01*
X1337377Y805362D01*
X1337353Y805579D01*
X1337334Y805796D01*
X1337321Y806014D01*
X1337313Y806232D01*
X1337310Y806450D01*
X1354600Y276150D02*
X1354604Y276487D01*
X1354617Y276825D01*
X1354637Y277162D01*
X1354666Y277498D01*
X1354703Y277833D01*
X1354749Y278168D01*
X1354802Y278501D01*
X1354864Y278832D01*
X1354934Y279163D01*
X1355012Y279491D01*
X1355098Y279817D01*
X1355192Y280141D01*
X1355294Y280463D01*
X1355404Y280782D01*
X1355521Y281099D01*
X1355647Y281412D01*
X1355780Y281722D01*
X1355920Y282029D01*
X1356068Y282332D01*
X1356224Y282632D01*
X1356386Y282927D01*
X1356556Y283219D01*
X1356733Y283506D01*
X1356917Y283789D01*
X1357108Y284067D01*
X1357306Y284341D01*
X1357510Y284609D01*
X1357721Y284873D01*
X1357938Y285131D01*
X1358162Y285384D01*
X1358392Y285631D01*
X1358627Y285873D01*
X1358869Y286108D01*
X1359116Y286338D01*
X1359369Y286562D01*
X1359627Y286779D01*
X1359891Y286990D01*
X1360159Y287194D01*
X1360433Y287392D01*
X1360711Y287583D01*
X1360994Y287767D01*
X1361281Y287944D01*
X1361573Y288114D01*
X1361868Y288276D01*
X1362168Y288432D01*
X1362471Y288580D01*
X1362778Y288720D01*
X1363088Y288853D01*
X1363401Y288979D01*
X1363718Y289096D01*
X1364037Y289206D01*
X1364359Y289308D01*
X1364683Y289402D01*
X1365009Y289488D01*
X1365337Y289566D01*
X1365668Y289636D01*
X1365999Y289698D01*
X1366332Y289751D01*
X1366667Y289797D01*
X1367002Y289834D01*
X1367338Y289863D01*
X1367675Y289883D01*
X1368013Y289896D01*
X1368350Y289900D01*
X1368687Y289896D01*
X1369025Y289883D01*
X1369362Y289863D01*
X1369698Y289834D01*
X1370033Y289797D01*
X1370368Y289751D01*
X1370701Y289698D01*
X1371032Y289636D01*
X1371363Y289566D01*
X1371691Y289488D01*
X1372017Y289402D01*
X1372341Y289308D01*
X1372663Y289206D01*
X1372982Y289096D01*
X1373299Y288979D01*
X1373612Y288853D01*
X1373922Y288720D01*
X1374229Y288580D01*
X1374532Y288432D01*
X1374832Y288276D01*
X1375127Y288114D01*
X1375419Y287944D01*
X1375706Y287767D01*
X1375989Y287583D01*
X1376267Y287392D01*
X1376541Y287194D01*
X1376809Y286990D01*
X1377073Y286779D01*
X1377331Y286562D01*
X1377584Y286338D01*
X1377831Y286108D01*
X1378073Y285873D01*
X1378308Y285631D01*
X1378538Y285384D01*
X1378762Y285131D01*
X1378979Y284873D01*
X1379190Y284609D01*
X1379394Y284341D01*
X1379592Y284067D01*
X1379783Y283789D01*
X1379967Y283506D01*
X1380144Y283219D01*
X1380314Y282927D01*
X1380476Y282632D01*
X1380632Y282332D01*
X1380780Y282029D01*
X1380920Y281722D01*
X1381053Y281412D01*
X1381179Y281099D01*
X1381296Y280782D01*
X1381406Y280463D01*
X1381508Y280141D01*
X1381602Y279817D01*
X1381688Y279491D01*
X1381766Y279163D01*
X1381836Y278832D01*
X1381898Y278501D01*
X1381951Y278168D01*
X1381997Y277833D01*
X1382034Y277498D01*
X1382063Y277162D01*
X1382083Y276825D01*
X1382096Y276487D01*
X1382100Y276150D01*
X1382096Y275813D01*
X1382083Y275475D01*
X1382063Y275138D01*
X1382034Y274802D01*
X1381997Y274467D01*
X1381951Y274132D01*
X1381898Y273799D01*
X1381836Y273468D01*
X1381766Y273137D01*
X1381688Y272809D01*
X1381602Y272483D01*
X1381508Y272159D01*
X1381406Y271837D01*
X1381296Y271518D01*
X1381179Y271201D01*
X1381053Y270888D01*
X1380920Y270578D01*
X1380780Y270271D01*
X1380632Y269968D01*
X1380476Y269668D01*
X1380314Y269373D01*
X1380144Y269081D01*
X1379967Y268794D01*
X1379783Y268511D01*
X1379592Y268233D01*
X1379394Y267959D01*
X1379190Y267691D01*
X1378979Y267427D01*
X1378762Y267169D01*
X1378538Y266916D01*
X1378308Y266669D01*
X1378073Y266427D01*
X1377831Y266192D01*
X1377584Y265962D01*
X1377331Y265738D01*
X1377073Y265521D01*
X1376809Y265310D01*
X1376541Y265106D01*
X1376267Y264908D01*
X1375989Y264717D01*
X1375706Y264533D01*
X1375419Y264356D01*
X1375127Y264186D01*
X1374832Y264024D01*
X1374532Y263868D01*
X1374229Y263720D01*
X1373922Y263580D01*
X1373612Y263447D01*
X1373299Y263321D01*
X1372982Y263204D01*
X1372663Y263094D01*
X1372341Y262992D01*
X1372017Y262898D01*
X1371691Y262812D01*
X1371363Y262734D01*
X1371032Y262664D01*
X1370701Y262602D01*
X1370368Y262549D01*
X1370033Y262503D01*
X1369698Y262466D01*
X1369362Y262437D01*
X1369025Y262417D01*
X1368687Y262404D01*
X1368350Y262400D01*
X1368013Y262404D01*
X1367675Y262417D01*
X1367338Y262437D01*
X1367002Y262466D01*
X1366667Y262503D01*
X1366332Y262549D01*
X1365999Y262602D01*
X1365668Y262664D01*
X1365337Y262734D01*
X1365009Y262812D01*
X1364683Y262898D01*
X1364359Y262992D01*
X1364037Y263094D01*
X1363718Y263204D01*
X1363401Y263321D01*
X1363088Y263447D01*
X1362778Y263580D01*
X1362471Y263720D01*
X1362168Y263868D01*
X1361868Y264024D01*
X1361573Y264186D01*
X1361281Y264356D01*
X1360994Y264533D01*
X1360711Y264717D01*
X1360433Y264908D01*
X1360159Y265106D01*
X1359891Y265310D01*
X1359627Y265521D01*
X1359369Y265738D01*
X1359116Y265962D01*
X1358869Y266192D01*
X1358627Y266427D01*
X1358392Y266669D01*
X1358162Y266916D01*
X1357938Y267169D01*
X1357721Y267427D01*
X1357510Y267691D01*
X1357306Y267959D01*
X1357108Y268233D01*
X1356917Y268511D01*
X1356733Y268794D01*
X1356556Y269081D01*
X1356386Y269373D01*
X1356224Y269668D01*
X1356068Y269968D01*
X1355920Y270271D01*
X1355780Y270578D01*
X1355647Y270888D01*
X1355521Y271201D01*
X1355404Y271518D01*
X1355294Y271837D01*
X1355192Y272159D01*
X1355098Y272483D01*
X1355012Y272809D01*
X1354934Y273137D01*
X1354864Y273468D01*
X1354802Y273799D01*
X1354749Y274132D01*
X1354703Y274467D01*
X1354666Y274802D01*
X1354637Y275138D01*
X1354617Y275475D01*
X1354604Y275813D01*
X1354600Y276150D01*
X1354600Y46150D02*
X1354604Y46487D01*
X1354617Y46825D01*
X1354637Y47162D01*
X1354666Y47498D01*
X1354703Y47833D01*
X1354749Y48168D01*
X1354802Y48501D01*
X1354864Y48832D01*
X1354934Y49163D01*
X1355012Y49491D01*
X1355098Y49817D01*
X1355192Y50141D01*
X1355294Y50463D01*
X1355404Y50782D01*
X1355521Y51099D01*
X1355647Y51412D01*
X1355780Y51722D01*
X1355920Y52029D01*
X1356068Y52332D01*
X1356224Y52632D01*
X1356386Y52927D01*
X1356556Y53219D01*
X1356733Y53506D01*
X1356917Y53789D01*
X1357108Y54067D01*
X1357306Y54341D01*
X1357510Y54609D01*
X1357721Y54873D01*
X1357938Y55131D01*
X1358162Y55384D01*
X1358392Y55631D01*
X1358627Y55873D01*
X1358869Y56108D01*
X1359116Y56338D01*
X1359369Y56562D01*
X1359627Y56779D01*
X1359891Y56990D01*
X1360159Y57194D01*
X1360433Y57392D01*
X1360711Y57583D01*
X1360994Y57767D01*
X1361281Y57944D01*
X1361573Y58114D01*
X1361868Y58276D01*
X1362168Y58432D01*
X1362471Y58580D01*
X1362778Y58720D01*
X1363088Y58853D01*
X1363401Y58979D01*
X1363718Y59096D01*
X1364037Y59206D01*
X1364359Y59308D01*
X1364683Y59402D01*
X1365009Y59488D01*
X1365337Y59566D01*
X1365668Y59636D01*
X1365999Y59698D01*
X1366332Y59751D01*
X1366667Y59797D01*
X1367002Y59834D01*
X1367338Y59863D01*
X1367675Y59883D01*
X1368013Y59896D01*
X1368350Y59900D01*
X1368687Y59896D01*
X1369025Y59883D01*
X1369362Y59863D01*
X1369698Y59834D01*
X1370033Y59797D01*
X1370368Y59751D01*
X1370701Y59698D01*
X1371032Y59636D01*
X1371363Y59566D01*
X1371691Y59488D01*
X1372017Y59402D01*
X1372341Y59308D01*
X1372663Y59206D01*
X1372982Y59096D01*
X1373299Y58979D01*
X1373612Y58853D01*
X1373922Y58720D01*
X1374229Y58580D01*
X1374532Y58432D01*
X1374832Y58276D01*
X1375127Y58114D01*
X1375419Y57944D01*
X1375706Y57767D01*
X1375989Y57583D01*
X1376267Y57392D01*
X1376541Y57194D01*
X1376809Y56990D01*
X1377073Y56779D01*
X1377331Y56562D01*
X1377584Y56338D01*
X1377831Y56108D01*
X1378073Y55873D01*
X1378308Y55631D01*
X1378538Y55384D01*
X1378762Y55131D01*
X1378979Y54873D01*
X1379190Y54609D01*
X1379394Y54341D01*
X1379592Y54067D01*
X1379783Y53789D01*
X1379967Y53506D01*
X1380144Y53219D01*
X1380314Y52927D01*
X1380476Y52632D01*
X1380632Y52332D01*
X1380780Y52029D01*
X1380920Y51722D01*
X1381053Y51412D01*
X1381179Y51099D01*
X1381296Y50782D01*
X1381406Y50463D01*
X1381508Y50141D01*
X1381602Y49817D01*
X1381688Y49491D01*
X1381766Y49163D01*
X1381836Y48832D01*
X1381898Y48501D01*
X1381951Y48168D01*
X1381997Y47833D01*
X1382034Y47498D01*
X1382063Y47162D01*
X1382083Y46825D01*
X1382096Y46487D01*
X1382100Y46150D01*
X1382096Y45813D01*
X1382083Y45475D01*
X1382063Y45138D01*
X1382034Y44802D01*
X1381997Y44467D01*
X1381951Y44132D01*
X1381898Y43799D01*
X1381836Y43468D01*
X1381766Y43137D01*
X1381688Y42809D01*
X1381602Y42483D01*
X1381508Y42159D01*
X1381406Y41837D01*
X1381296Y41518D01*
X1381179Y41201D01*
X1381053Y40888D01*
X1380920Y40578D01*
X1380780Y40271D01*
X1380632Y39968D01*
X1380476Y39668D01*
X1380314Y39373D01*
X1380144Y39081D01*
X1379967Y38794D01*
X1379783Y38511D01*
X1379592Y38233D01*
X1379394Y37959D01*
X1379190Y37691D01*
X1378979Y37427D01*
X1378762Y37169D01*
X1378538Y36916D01*
X1378308Y36669D01*
X1378073Y36427D01*
X1377831Y36192D01*
X1377584Y35962D01*
X1377331Y35738D01*
X1377073Y35521D01*
X1376809Y35310D01*
X1376541Y35106D01*
X1376267Y34908D01*
X1375989Y34717D01*
X1375706Y34533D01*
X1375419Y34356D01*
X1375127Y34186D01*
X1374832Y34024D01*
X1374532Y33868D01*
X1374229Y33720D01*
X1373922Y33580D01*
X1373612Y33447D01*
X1373299Y33321D01*
X1372982Y33204D01*
X1372663Y33094D01*
X1372341Y32992D01*
X1372017Y32898D01*
X1371691Y32812D01*
X1371363Y32734D01*
X1371032Y32664D01*
X1370701Y32602D01*
X1370368Y32549D01*
X1370033Y32503D01*
X1369698Y32466D01*
X1369362Y32437D01*
X1369025Y32417D01*
X1368687Y32404D01*
X1368350Y32400D01*
X1368013Y32404D01*
X1367675Y32417D01*
X1367338Y32437D01*
X1367002Y32466D01*
X1366667Y32503D01*
X1366332Y32549D01*
X1365999Y32602D01*
X1365668Y32664D01*
X1365337Y32734D01*
X1365009Y32812D01*
X1364683Y32898D01*
X1364359Y32992D01*
X1364037Y33094D01*
X1363718Y33204D01*
X1363401Y33321D01*
X1363088Y33447D01*
X1362778Y33580D01*
X1362471Y33720D01*
X1362168Y33868D01*
X1361868Y34024D01*
X1361573Y34186D01*
X1361281Y34356D01*
X1360994Y34533D01*
X1360711Y34717D01*
X1360433Y34908D01*
X1360159Y35106D01*
X1359891Y35310D01*
X1359627Y35521D01*
X1359369Y35738D01*
X1359116Y35962D01*
X1358869Y36192D01*
X1358627Y36427D01*
X1358392Y36669D01*
X1358162Y36916D01*
X1357938Y37169D01*
X1357721Y37427D01*
X1357510Y37691D01*
X1357306Y37959D01*
X1357108Y38233D01*
X1356917Y38511D01*
X1356733Y38794D01*
X1356556Y39081D01*
X1356386Y39373D01*
X1356224Y39668D01*
X1356068Y39968D01*
X1355920Y40271D01*
X1355780Y40578D01*
X1355647Y40888D01*
X1355521Y41201D01*
X1355404Y41518D01*
X1355294Y41837D01*
X1355192Y42159D01*
X1355098Y42483D01*
X1355012Y42809D01*
X1354934Y43137D01*
X1354864Y43468D01*
X1354802Y43799D01*
X1354749Y44132D01*
X1354703Y44467D01*
X1354666Y44802D01*
X1354637Y45138D01*
X1354617Y45475D01*
X1354604Y45813D01*
X1354600Y46150D01*
X774600Y276150D02*
X774604Y276487D01*
X774617Y276825D01*
X774637Y277162D01*
X774666Y277498D01*
X774703Y277833D01*
X774749Y278168D01*
X774802Y278501D01*
X774864Y278832D01*
X774934Y279163D01*
X775012Y279491D01*
X775098Y279817D01*
X775192Y280141D01*
X775294Y280463D01*
X775404Y280782D01*
X775521Y281099D01*
X775647Y281412D01*
X775780Y281722D01*
X775920Y282029D01*
X776068Y282332D01*
X776224Y282632D01*
X776386Y282927D01*
X776556Y283219D01*
X776733Y283506D01*
X776917Y283789D01*
X777108Y284067D01*
X777306Y284341D01*
X777510Y284609D01*
X777721Y284873D01*
X777938Y285131D01*
X778162Y285384D01*
X778392Y285631D01*
X778627Y285873D01*
X778869Y286108D01*
X779116Y286338D01*
X779369Y286562D01*
X779627Y286779D01*
X779891Y286990D01*
X780159Y287194D01*
X780433Y287392D01*
X780711Y287583D01*
X780994Y287767D01*
X781281Y287944D01*
X781573Y288114D01*
X781868Y288276D01*
X782168Y288432D01*
X782471Y288580D01*
X782778Y288720D01*
X783088Y288853D01*
X783401Y288979D01*
X783718Y289096D01*
X784037Y289206D01*
X784359Y289308D01*
X784683Y289402D01*
X785009Y289488D01*
X785337Y289566D01*
X785668Y289636D01*
X785999Y289698D01*
X786332Y289751D01*
X786667Y289797D01*
X787002Y289834D01*
X787338Y289863D01*
X787675Y289883D01*
X788013Y289896D01*
X788350Y289900D01*
X788687Y289896D01*
X789025Y289883D01*
X789362Y289863D01*
X789698Y289834D01*
X790033Y289797D01*
X790368Y289751D01*
X790701Y289698D01*
X791032Y289636D01*
X791363Y289566D01*
X791691Y289488D01*
X792017Y289402D01*
X792341Y289308D01*
X792663Y289206D01*
X792982Y289096D01*
X793299Y288979D01*
X793612Y288853D01*
X793922Y288720D01*
X794229Y288580D01*
X794532Y288432D01*
X794832Y288276D01*
X795127Y288114D01*
X795419Y287944D01*
X795706Y287767D01*
X795989Y287583D01*
X796267Y287392D01*
X796541Y287194D01*
X796809Y286990D01*
X797073Y286779D01*
X797331Y286562D01*
X797584Y286338D01*
X797831Y286108D01*
X798073Y285873D01*
X798308Y285631D01*
X798538Y285384D01*
X798762Y285131D01*
X798979Y284873D01*
X799190Y284609D01*
X799394Y284341D01*
X799592Y284067D01*
X799783Y283789D01*
X799967Y283506D01*
X800144Y283219D01*
X800314Y282927D01*
X800476Y282632D01*
X800632Y282332D01*
X800780Y282029D01*
X800920Y281722D01*
X801053Y281412D01*
X801179Y281099D01*
X801296Y280782D01*
X801406Y280463D01*
X801508Y280141D01*
X801602Y279817D01*
X801688Y279491D01*
X801766Y279163D01*
X801836Y278832D01*
X801898Y278501D01*
X801951Y278168D01*
X801997Y277833D01*
X802034Y277498D01*
X802063Y277162D01*
X802083Y276825D01*
X802096Y276487D01*
X802100Y276150D01*
X802096Y275813D01*
X802083Y275475D01*
X802063Y275138D01*
X802034Y274802D01*
X801997Y274467D01*
X801951Y274132D01*
X801898Y273799D01*
X801836Y273468D01*
X801766Y273137D01*
X801688Y272809D01*
X801602Y272483D01*
X801508Y272159D01*
X801406Y271837D01*
X801296Y271518D01*
X801179Y271201D01*
X801053Y270888D01*
X800920Y270578D01*
X800780Y270271D01*
X800632Y269968D01*
X800476Y269668D01*
X800314Y269373D01*
X800144Y269081D01*
X799967Y268794D01*
X799783Y268511D01*
X799592Y268233D01*
X799394Y267959D01*
X799190Y267691D01*
X798979Y267427D01*
X798762Y267169D01*
X798538Y266916D01*
X798308Y266669D01*
X798073Y266427D01*
X797831Y266192D01*
X797584Y265962D01*
X797331Y265738D01*
X797073Y265521D01*
X796809Y265310D01*
X796541Y265106D01*
X796267Y264908D01*
X795989Y264717D01*
X795706Y264533D01*
X795419Y264356D01*
X795127Y264186D01*
X794832Y264024D01*
X794532Y263868D01*
X794229Y263720D01*
X793922Y263580D01*
X793612Y263447D01*
X793299Y263321D01*
X792982Y263204D01*
X792663Y263094D01*
X792341Y262992D01*
X792017Y262898D01*
X791691Y262812D01*
X791363Y262734D01*
X791032Y262664D01*
X790701Y262602D01*
X790368Y262549D01*
X790033Y262503D01*
X789698Y262466D01*
X789362Y262437D01*
X789025Y262417D01*
X788687Y262404D01*
X788350Y262400D01*
X788013Y262404D01*
X787675Y262417D01*
X787338Y262437D01*
X787002Y262466D01*
X786667Y262503D01*
X786332Y262549D01*
X785999Y262602D01*
X785668Y262664D01*
X785337Y262734D01*
X785009Y262812D01*
X784683Y262898D01*
X784359Y262992D01*
X784037Y263094D01*
X783718Y263204D01*
X783401Y263321D01*
X783088Y263447D01*
X782778Y263580D01*
X782471Y263720D01*
X782168Y263868D01*
X781868Y264024D01*
X781573Y264186D01*
X781281Y264356D01*
X780994Y264533D01*
X780711Y264717D01*
X780433Y264908D01*
X780159Y265106D01*
X779891Y265310D01*
X779627Y265521D01*
X779369Y265738D01*
X779116Y265962D01*
X778869Y266192D01*
X778627Y266427D01*
X778392Y266669D01*
X778162Y266916D01*
X777938Y267169D01*
X777721Y267427D01*
X777510Y267691D01*
X777306Y267959D01*
X777108Y268233D01*
X776917Y268511D01*
X776733Y268794D01*
X776556Y269081D01*
X776386Y269373D01*
X776224Y269668D01*
X776068Y269968D01*
X775920Y270271D01*
X775780Y270578D01*
X775647Y270888D01*
X775521Y271201D01*
X775404Y271518D01*
X775294Y271837D01*
X775192Y272159D01*
X775098Y272483D01*
X775012Y272809D01*
X774934Y273137D01*
X774864Y273468D01*
X774802Y273799D01*
X774749Y274132D01*
X774703Y274467D01*
X774666Y274802D01*
X774637Y275138D01*
X774617Y275475D01*
X774604Y275813D01*
X774600Y276150D01*
X774600Y46150D02*
X774604Y46487D01*
X774617Y46825D01*
X774637Y47162D01*
X774666Y47498D01*
X774703Y47833D01*
X774749Y48168D01*
X774802Y48501D01*
X774864Y48832D01*
X774934Y49163D01*
X775012Y49491D01*
X775098Y49817D01*
X775192Y50141D01*
X775294Y50463D01*
X775404Y50782D01*
X775521Y51099D01*
X775647Y51412D01*
X775780Y51722D01*
X775920Y52029D01*
X776068Y52332D01*
X776224Y52632D01*
X776386Y52927D01*
X776556Y53219D01*
X776733Y53506D01*
X776917Y53789D01*
X777108Y54067D01*
X777306Y54341D01*
X777510Y54609D01*
X777721Y54873D01*
X777938Y55131D01*
X778162Y55384D01*
X778392Y55631D01*
X778627Y55873D01*
X778869Y56108D01*
X779116Y56338D01*
X779369Y56562D01*
X779627Y56779D01*
X779891Y56990D01*
X780159Y57194D01*
X780433Y57392D01*
X780711Y57583D01*
X780994Y57767D01*
X781281Y57944D01*
X781573Y58114D01*
X781868Y58276D01*
X782168Y58432D01*
X782471Y58580D01*
X782778Y58720D01*
X783088Y58853D01*
X783401Y58979D01*
X783718Y59096D01*
X784037Y59206D01*
X784359Y59308D01*
X784683Y59402D01*
X785009Y59488D01*
X785337Y59566D01*
X785668Y59636D01*
X785999Y59698D01*
X786332Y59751D01*
X786667Y59797D01*
X787002Y59834D01*
X787338Y59863D01*
X787675Y59883D01*
X788013Y59896D01*
X788350Y59900D01*
X788687Y59896D01*
X789025Y59883D01*
X789362Y59863D01*
X789698Y59834D01*
X790033Y59797D01*
X790368Y59751D01*
X790701Y59698D01*
X791032Y59636D01*
X791363Y59566D01*
X791691Y59488D01*
X792017Y59402D01*
X792341Y59308D01*
X792663Y59206D01*
X792982Y59096D01*
X793299Y58979D01*
X793612Y58853D01*
X793922Y58720D01*
X794229Y58580D01*
X794532Y58432D01*
X794832Y58276D01*
X795127Y58114D01*
X795419Y57944D01*
X795706Y57767D01*
X795989Y57583D01*
X796267Y57392D01*
X796541Y57194D01*
X796809Y56990D01*
X797073Y56779D01*
X797331Y56562D01*
X797584Y56338D01*
X797831Y56108D01*
X798073Y55873D01*
X798308Y55631D01*
X798538Y55384D01*
X798762Y55131D01*
X798979Y54873D01*
X799190Y54609D01*
X799394Y54341D01*
X799592Y54067D01*
X799783Y53789D01*
X799967Y53506D01*
X800144Y53219D01*
X800314Y52927D01*
X800476Y52632D01*
X800632Y52332D01*
X800780Y52029D01*
X800920Y51722D01*
X801053Y51412D01*
X801179Y51099D01*
X801296Y50782D01*
X801406Y50463D01*
X801508Y50141D01*
X801602Y49817D01*
X801688Y49491D01*
X801766Y49163D01*
X801836Y48832D01*
X801898Y48501D01*
X801951Y48168D01*
X801997Y47833D01*
X802034Y47498D01*
X802063Y47162D01*
X802083Y46825D01*
X802096Y46487D01*
X802100Y46150D01*
X802096Y45813D01*
X802083Y45475D01*
X802063Y45138D01*
X802034Y44802D01*
X801997Y44467D01*
X801951Y44132D01*
X801898Y43799D01*
X801836Y43468D01*
X801766Y43137D01*
X801688Y42809D01*
X801602Y42483D01*
X801508Y42159D01*
X801406Y41837D01*
X801296Y41518D01*
X801179Y41201D01*
X801053Y40888D01*
X800920Y40578D01*
X800780Y40271D01*
X800632Y39968D01*
X800476Y39668D01*
X800314Y39373D01*
X800144Y39081D01*
X799967Y38794D01*
X799783Y38511D01*
X799592Y38233D01*
X799394Y37959D01*
X799190Y37691D01*
X798979Y37427D01*
X798762Y37169D01*
X798538Y36916D01*
X798308Y36669D01*
X798073Y36427D01*
X797831Y36192D01*
X797584Y35962D01*
X797331Y35738D01*
X797073Y35521D01*
X796809Y35310D01*
X796541Y35106D01*
X796267Y34908D01*
X795989Y34717D01*
X795706Y34533D01*
X795419Y34356D01*
X795127Y34186D01*
X794832Y34024D01*
X794532Y33868D01*
X794229Y33720D01*
X793922Y33580D01*
X793612Y33447D01*
X793299Y33321D01*
X792982Y33204D01*
X792663Y33094D01*
X792341Y32992D01*
X792017Y32898D01*
X791691Y32812D01*
X791363Y32734D01*
X791032Y32664D01*
X790701Y32602D01*
X790368Y32549D01*
X790033Y32503D01*
X789698Y32466D01*
X789362Y32437D01*
X789025Y32417D01*
X788687Y32404D01*
X788350Y32400D01*
X788013Y32404D01*
X787675Y32417D01*
X787338Y32437D01*
X787002Y32466D01*
X786667Y32503D01*
X786332Y32549D01*
X785999Y32602D01*
X785668Y32664D01*
X785337Y32734D01*
X785009Y32812D01*
X784683Y32898D01*
X784359Y32992D01*
X784037Y33094D01*
X783718Y33204D01*
X783401Y33321D01*
X783088Y33447D01*
X782778Y33580D01*
X782471Y33720D01*
X782168Y33868D01*
X781868Y34024D01*
X781573Y34186D01*
X781281Y34356D01*
X780994Y34533D01*
X780711Y34717D01*
X780433Y34908D01*
X780159Y35106D01*
X779891Y35310D01*
X779627Y35521D01*
X779369Y35738D01*
X779116Y35962D01*
X778869Y36192D01*
X778627Y36427D01*
X778392Y36669D01*
X778162Y36916D01*
X777938Y37169D01*
X777721Y37427D01*
X777510Y37691D01*
X777306Y37959D01*
X777108Y38233D01*
X776917Y38511D01*
X776733Y38794D01*
X776556Y39081D01*
X776386Y39373D01*
X776224Y39668D01*
X776068Y39968D01*
X775920Y40271D01*
X775780Y40578D01*
X775647Y40888D01*
X775521Y41201D01*
X775404Y41518D01*
X775294Y41837D01*
X775192Y42159D01*
X775098Y42483D01*
X775012Y42809D01*
X774934Y43137D01*
X774864Y43468D01*
X774802Y43799D01*
X774749Y44132D01*
X774703Y44467D01*
X774666Y44802D01*
X774637Y45138D01*
X774617Y45475D01*
X774604Y45813D01*
X774600Y46150D01*
X329550Y74610D02*
X329552Y74715D01*
X329558Y74819D01*
X329568Y74923D01*
X329582Y75027D01*
X329600Y75130D01*
X329621Y75233D01*
X329647Y75334D01*
X329677Y75435D01*
X329710Y75534D01*
X329747Y75632D01*
X329788Y75729D01*
X329832Y75823D01*
X329880Y75916D01*
X329932Y76008D01*
X329987Y76097D01*
X330045Y76184D01*
X330106Y76268D01*
X330171Y76351D01*
X330239Y76431D01*
X330310Y76508D01*
X330383Y76582D01*
X330460Y76654D01*
X330539Y76722D01*
X330621Y76788D01*
X330705Y76850D01*
X330791Y76909D01*
X330880Y76965D01*
X330971Y77017D01*
X331063Y77066D01*
X331158Y77111D01*
X331254Y77153D01*
X331351Y77191D01*
X331450Y77225D01*
X331550Y77256D01*
X331652Y77282D01*
X331754Y77305D01*
X331857Y77324D01*
X331961Y77339D01*
X332065Y77350D01*
X332169Y77357D01*
X332274Y77360D01*
X332379Y77359D01*
X332483Y77354D01*
X332587Y77345D01*
X332691Y77332D01*
X332795Y77315D01*
X332897Y77294D01*
X332999Y77270D01*
X333100Y77241D01*
X333199Y77209D01*
X333298Y77173D01*
X333395Y77133D01*
X333490Y77089D01*
X333583Y77042D01*
X333675Y76992D01*
X333765Y76937D01*
X333852Y76880D01*
X333938Y76819D01*
X334020Y76755D01*
X334101Y76688D01*
X334179Y76618D01*
X334254Y76545D01*
X334326Y76469D01*
X334395Y76391D01*
X334462Y76310D01*
X334525Y76226D01*
X334585Y76141D01*
X334641Y76052D01*
X334695Y75962D01*
X334744Y75870D01*
X334790Y75776D01*
X334833Y75680D01*
X334872Y75583D01*
X334907Y75485D01*
X334939Y75385D01*
X334966Y75284D01*
X334990Y75182D01*
X335010Y75079D01*
X335026Y74975D01*
X335038Y74871D01*
X335046Y74767D01*
X335050Y74662D01*
X335050Y74558D01*
X335046Y74453D01*
X335038Y74349D01*
X335026Y74245D01*
X335010Y74141D01*
X334990Y74038D01*
X334966Y73936D01*
X334939Y73835D01*
X334907Y73735D01*
X334872Y73637D01*
X334833Y73540D01*
X334790Y73444D01*
X334744Y73350D01*
X334695Y73258D01*
X334641Y73168D01*
X334585Y73079D01*
X334525Y72994D01*
X334462Y72910D01*
X334395Y72829D01*
X334326Y72751D01*
X334254Y72675D01*
X334179Y72602D01*
X334101Y72532D01*
X334020Y72465D01*
X333938Y72401D01*
X333852Y72340D01*
X333765Y72283D01*
X333675Y72228D01*
X333583Y72178D01*
X333490Y72131D01*
X333395Y72087D01*
X333298Y72047D01*
X333199Y72011D01*
X333100Y71979D01*
X332999Y71950D01*
X332897Y71926D01*
X332795Y71905D01*
X332691Y71888D01*
X332587Y71875D01*
X332483Y71866D01*
X332379Y71861D01*
X332274Y71860D01*
X332169Y71863D01*
X332065Y71870D01*
X331961Y71881D01*
X331857Y71896D01*
X331754Y71915D01*
X331652Y71938D01*
X331550Y71964D01*
X331450Y71995D01*
X331351Y72029D01*
X331254Y72067D01*
X331158Y72109D01*
X331063Y72154D01*
X330971Y72203D01*
X330880Y72255D01*
X330791Y72311D01*
X330705Y72370D01*
X330621Y72432D01*
X330539Y72498D01*
X330460Y72566D01*
X330383Y72638D01*
X330310Y72712D01*
X330239Y72789D01*
X330171Y72869D01*
X330106Y72952D01*
X330045Y73036D01*
X329987Y73123D01*
X329932Y73212D01*
X329880Y73304D01*
X329832Y73397D01*
X329788Y73491D01*
X329747Y73588D01*
X329710Y73686D01*
X329677Y73785D01*
X329647Y73886D01*
X329621Y73987D01*
X329600Y74090D01*
X329582Y74193D01*
X329568Y74297D01*
X329558Y74401D01*
X329552Y74505D01*
X329550Y74610D01*
X401550Y74610D02*
X401552Y74715D01*
X401558Y74819D01*
X401568Y74923D01*
X401582Y75027D01*
X401600Y75130D01*
X401621Y75233D01*
X401647Y75334D01*
X401677Y75435D01*
X401710Y75534D01*
X401747Y75632D01*
X401788Y75729D01*
X401832Y75823D01*
X401880Y75916D01*
X401932Y76008D01*
X401987Y76097D01*
X402045Y76184D01*
X402106Y76268D01*
X402171Y76351D01*
X402239Y76431D01*
X402310Y76508D01*
X402383Y76582D01*
X402460Y76654D01*
X402539Y76722D01*
X402621Y76788D01*
X402705Y76850D01*
X402791Y76909D01*
X402880Y76965D01*
X402971Y77017D01*
X403063Y77066D01*
X403158Y77111D01*
X403254Y77153D01*
X403351Y77191D01*
X403450Y77225D01*
X403550Y77256D01*
X403652Y77282D01*
X403754Y77305D01*
X403857Y77324D01*
X403961Y77339D01*
X404065Y77350D01*
X404169Y77357D01*
X404274Y77360D01*
X404379Y77359D01*
X404483Y77354D01*
X404587Y77345D01*
X404691Y77332D01*
X404795Y77315D01*
X404897Y77294D01*
X404999Y77270D01*
X405100Y77241D01*
X405199Y77209D01*
X405298Y77173D01*
X405395Y77133D01*
X405490Y77089D01*
X405583Y77042D01*
X405675Y76992D01*
X405765Y76937D01*
X405852Y76880D01*
X405938Y76819D01*
X406020Y76755D01*
X406101Y76688D01*
X406179Y76618D01*
X406254Y76545D01*
X406326Y76469D01*
X406395Y76391D01*
X406462Y76310D01*
X406525Y76226D01*
X406585Y76141D01*
X406641Y76052D01*
X406695Y75962D01*
X406744Y75870D01*
X406790Y75776D01*
X406833Y75680D01*
X406872Y75583D01*
X406907Y75485D01*
X406939Y75385D01*
X406966Y75284D01*
X406990Y75182D01*
X407010Y75079D01*
X407026Y74975D01*
X407038Y74871D01*
X407046Y74767D01*
X407050Y74662D01*
X407050Y74558D01*
X407046Y74453D01*
X407038Y74349D01*
X407026Y74245D01*
X407010Y74141D01*
X406990Y74038D01*
X406966Y73936D01*
X406939Y73835D01*
X406907Y73735D01*
X406872Y73637D01*
X406833Y73540D01*
X406790Y73444D01*
X406744Y73350D01*
X406695Y73258D01*
X406641Y73168D01*
X406585Y73079D01*
X406525Y72994D01*
X406462Y72910D01*
X406395Y72829D01*
X406326Y72751D01*
X406254Y72675D01*
X406179Y72602D01*
X406101Y72532D01*
X406020Y72465D01*
X405938Y72401D01*
X405852Y72340D01*
X405765Y72283D01*
X405675Y72228D01*
X405583Y72178D01*
X405490Y72131D01*
X405395Y72087D01*
X405298Y72047D01*
X405199Y72011D01*
X405100Y71979D01*
X404999Y71950D01*
X404897Y71926D01*
X404795Y71905D01*
X404691Y71888D01*
X404587Y71875D01*
X404483Y71866D01*
X404379Y71861D01*
X404274Y71860D01*
X404169Y71863D01*
X404065Y71870D01*
X403961Y71881D01*
X403857Y71896D01*
X403754Y71915D01*
X403652Y71938D01*
X403550Y71964D01*
X403450Y71995D01*
X403351Y72029D01*
X403254Y72067D01*
X403158Y72109D01*
X403063Y72154D01*
X402971Y72203D01*
X402880Y72255D01*
X402791Y72311D01*
X402705Y72370D01*
X402621Y72432D01*
X402539Y72498D01*
X402460Y72566D01*
X402383Y72638D01*
X402310Y72712D01*
X402239Y72789D01*
X402171Y72869D01*
X402106Y72952D01*
X402045Y73036D01*
X401987Y73123D01*
X401932Y73212D01*
X401880Y73304D01*
X401832Y73397D01*
X401788Y73491D01*
X401747Y73588D01*
X401710Y73686D01*
X401677Y73785D01*
X401647Y73886D01*
X401621Y73987D01*
X401600Y74090D01*
X401582Y74193D01*
X401568Y74297D01*
X401558Y74401D01*
X401552Y74505D01*
X401550Y74610D01*
X116190Y74610D02*
X116192Y74715D01*
X116198Y74819D01*
X116208Y74923D01*
X116222Y75027D01*
X116240Y75130D01*
X116261Y75233D01*
X116287Y75334D01*
X116317Y75435D01*
X116350Y75534D01*
X116387Y75632D01*
X116428Y75729D01*
X116472Y75823D01*
X116520Y75916D01*
X116572Y76008D01*
X116627Y76097D01*
X116685Y76184D01*
X116746Y76268D01*
X116811Y76351D01*
X116879Y76431D01*
X116950Y76508D01*
X117023Y76582D01*
X117100Y76654D01*
X117179Y76722D01*
X117261Y76788D01*
X117345Y76850D01*
X117431Y76909D01*
X117520Y76965D01*
X117611Y77017D01*
X117703Y77066D01*
X117798Y77111D01*
X117894Y77153D01*
X117991Y77191D01*
X118090Y77225D01*
X118190Y77256D01*
X118292Y77282D01*
X118394Y77305D01*
X118497Y77324D01*
X118601Y77339D01*
X118705Y77350D01*
X118809Y77357D01*
X118914Y77360D01*
X119019Y77359D01*
X119123Y77354D01*
X119227Y77345D01*
X119331Y77332D01*
X119435Y77315D01*
X119537Y77294D01*
X119639Y77270D01*
X119740Y77241D01*
X119839Y77209D01*
X119938Y77173D01*
X120035Y77133D01*
X120130Y77089D01*
X120223Y77042D01*
X120315Y76992D01*
X120405Y76937D01*
X120492Y76880D01*
X120578Y76819D01*
X120660Y76755D01*
X120741Y76688D01*
X120819Y76618D01*
X120894Y76545D01*
X120966Y76469D01*
X121035Y76391D01*
X121102Y76310D01*
X121165Y76226D01*
X121225Y76141D01*
X121281Y76052D01*
X121335Y75962D01*
X121384Y75870D01*
X121430Y75776D01*
X121473Y75680D01*
X121512Y75583D01*
X121547Y75485D01*
X121579Y75385D01*
X121606Y75284D01*
X121630Y75182D01*
X121650Y75079D01*
X121666Y74975D01*
X121678Y74871D01*
X121686Y74767D01*
X121690Y74662D01*
X121690Y74558D01*
X121686Y74453D01*
X121678Y74349D01*
X121666Y74245D01*
X121650Y74141D01*
X121630Y74038D01*
X121606Y73936D01*
X121579Y73835D01*
X121547Y73735D01*
X121512Y73637D01*
X121473Y73540D01*
X121430Y73444D01*
X121384Y73350D01*
X121335Y73258D01*
X121281Y73168D01*
X121225Y73079D01*
X121165Y72994D01*
X121102Y72910D01*
X121035Y72829D01*
X120966Y72751D01*
X120894Y72675D01*
X120819Y72602D01*
X120741Y72532D01*
X120660Y72465D01*
X120578Y72401D01*
X120492Y72340D01*
X120405Y72283D01*
X120315Y72228D01*
X120223Y72178D01*
X120130Y72131D01*
X120035Y72087D01*
X119938Y72047D01*
X119839Y72011D01*
X119740Y71979D01*
X119639Y71950D01*
X119537Y71926D01*
X119435Y71905D01*
X119331Y71888D01*
X119227Y71875D01*
X119123Y71866D01*
X119019Y71861D01*
X118914Y71860D01*
X118809Y71863D01*
X118705Y71870D01*
X118601Y71881D01*
X118497Y71896D01*
X118394Y71915D01*
X118292Y71938D01*
X118190Y71964D01*
X118090Y71995D01*
X117991Y72029D01*
X117894Y72067D01*
X117798Y72109D01*
X117703Y72154D01*
X117611Y72203D01*
X117520Y72255D01*
X117431Y72311D01*
X117345Y72370D01*
X117261Y72432D01*
X117179Y72498D01*
X117100Y72566D01*
X117023Y72638D01*
X116950Y72712D01*
X116879Y72789D01*
X116811Y72869D01*
X116746Y72952D01*
X116685Y73036D01*
X116627Y73123D01*
X116572Y73212D01*
X116520Y73304D01*
X116472Y73397D01*
X116428Y73491D01*
X116387Y73588D01*
X116350Y73686D01*
X116317Y73785D01*
X116287Y73886D01*
X116261Y73987D01*
X116240Y74090D01*
X116222Y74193D01*
X116208Y74297D01*
X116198Y74401D01*
X116192Y74505D01*
X116190Y74610D01*
X188190Y74610D02*
X188192Y74715D01*
X188198Y74819D01*
X188208Y74923D01*
X188222Y75027D01*
X188240Y75130D01*
X188261Y75233D01*
X188287Y75334D01*
X188317Y75435D01*
X188350Y75534D01*
X188387Y75632D01*
X188428Y75729D01*
X188472Y75823D01*
X188520Y75916D01*
X188572Y76008D01*
X188627Y76097D01*
X188685Y76184D01*
X188746Y76268D01*
X188811Y76351D01*
X188879Y76431D01*
X188950Y76508D01*
X189023Y76582D01*
X189100Y76654D01*
X189179Y76722D01*
X189261Y76788D01*
X189345Y76850D01*
X189431Y76909D01*
X189520Y76965D01*
X189611Y77017D01*
X189703Y77066D01*
X189798Y77111D01*
X189894Y77153D01*
X189991Y77191D01*
X190090Y77225D01*
X190190Y77256D01*
X190292Y77282D01*
X190394Y77305D01*
X190497Y77324D01*
X190601Y77339D01*
X190705Y77350D01*
X190809Y77357D01*
X190914Y77360D01*
X191019Y77359D01*
X191123Y77354D01*
X191227Y77345D01*
X191331Y77332D01*
X191435Y77315D01*
X191537Y77294D01*
X191639Y77270D01*
X191740Y77241D01*
X191839Y77209D01*
X191938Y77173D01*
X192035Y77133D01*
X192130Y77089D01*
X192223Y77042D01*
X192315Y76992D01*
X192405Y76937D01*
X192492Y76880D01*
X192578Y76819D01*
X192660Y76755D01*
X192741Y76688D01*
X192819Y76618D01*
X192894Y76545D01*
X192966Y76469D01*
X193035Y76391D01*
X193102Y76310D01*
X193165Y76226D01*
X193225Y76141D01*
X193281Y76052D01*
X193335Y75962D01*
X193384Y75870D01*
X193430Y75776D01*
X193473Y75680D01*
X193512Y75583D01*
X193547Y75485D01*
X193579Y75385D01*
X193606Y75284D01*
X193630Y75182D01*
X193650Y75079D01*
X193666Y74975D01*
X193678Y74871D01*
X193686Y74767D01*
X193690Y74662D01*
X193690Y74558D01*
X193686Y74453D01*
X193678Y74349D01*
X193666Y74245D01*
X193650Y74141D01*
X193630Y74038D01*
X193606Y73936D01*
X193579Y73835D01*
X193547Y73735D01*
X193512Y73637D01*
X193473Y73540D01*
X193430Y73444D01*
X193384Y73350D01*
X193335Y73258D01*
X193281Y73168D01*
X193225Y73079D01*
X193165Y72994D01*
X193102Y72910D01*
X193035Y72829D01*
X192966Y72751D01*
X192894Y72675D01*
X192819Y72602D01*
X192741Y72532D01*
X192660Y72465D01*
X192578Y72401D01*
X192492Y72340D01*
X192405Y72283D01*
X192315Y72228D01*
X192223Y72178D01*
X192130Y72131D01*
X192035Y72087D01*
X191938Y72047D01*
X191839Y72011D01*
X191740Y71979D01*
X191639Y71950D01*
X191537Y71926D01*
X191435Y71905D01*
X191331Y71888D01*
X191227Y71875D01*
X191123Y71866D01*
X191019Y71861D01*
X190914Y71860D01*
X190809Y71863D01*
X190705Y71870D01*
X190601Y71881D01*
X190497Y71896D01*
X190394Y71915D01*
X190292Y71938D01*
X190190Y71964D01*
X190090Y71995D01*
X189991Y72029D01*
X189894Y72067D01*
X189798Y72109D01*
X189703Y72154D01*
X189611Y72203D01*
X189520Y72255D01*
X189431Y72311D01*
X189345Y72370D01*
X189261Y72432D01*
X189179Y72498D01*
X189100Y72566D01*
X189023Y72638D01*
X188950Y72712D01*
X188879Y72789D01*
X188811Y72869D01*
X188746Y72952D01*
X188685Y73036D01*
X188627Y73123D01*
X188572Y73212D01*
X188520Y73304D01*
X188472Y73397D01*
X188428Y73491D01*
X188387Y73588D01*
X188350Y73686D01*
X188317Y73785D01*
X188287Y73886D01*
X188261Y73987D01*
X188240Y74090D01*
X188222Y74193D01*
X188208Y74297D01*
X188198Y74401D01*
X188192Y74505D01*
X188190Y74610D01*
M02*
