G04 EAGLE Gerber X2 export*
%TF.Part,Single*%
%TF.FileFunction,Other,L?tstopmaske Best?ckungsseite*%
%TF.FilePolarity,Positive*%
%TF.GenerationSoftware,Autodesk,EAGLE,9.0.1*%
%TF.CreationDate,2018-07-07T15:44:29Z*%
G75*
%MOMM*%
%FSLAX34Y34*%
%LPD*%
%AMOC8*
5,1,8,0,0,1.08239X$1,22.5*%
G01*
%ADD10C,3.503200*%
%ADD11C,1.422400*%
%ADD12R,1.303200X1.203200*%
%ADD13P,1.869504X8X22.500000*%
%ADD14C,1.727200*%
%ADD15R,1.203200X1.303200*%
%ADD16P,1.539592X8X292.500000*%
%ADD17R,1.203200X1.603200*%
%ADD18R,1.603200X1.203200*%
%ADD19R,1.503200X1.703200*%
%ADD20R,1.703200X1.503200*%
%ADD21C,1.981200*%
%ADD22R,1.403200X1.403200*%
%ADD23C,1.403200*%
%ADD24R,1.981200X1.981200*%
%ADD25C,2.953200*%
%ADD26P,1.869504X8X202.500000*%
%ADD27P,1.869504X8X112.500000*%
%ADD28C,0.853200*%
%ADD29R,0.503200X1.103200*%
%ADD30C,0.753200*%
%ADD31C,1.503200*%
%ADD32C,1.009600*%


D10*
X180000Y693000D03*
X320000Y693000D03*
X180000Y403000D03*
X320000Y403000D03*
X455000Y403000D03*
X595000Y403000D03*
X905000Y403000D03*
X1180000Y403000D03*
X1045000Y403000D03*
X1320000Y403000D03*
X1320000Y693000D03*
X1180000Y693000D03*
X1045000Y693000D03*
X905000Y693000D03*
X595000Y693000D03*
X455000Y693000D03*
X30000Y970000D03*
X30000Y30000D03*
X1470000Y30000D03*
X1470000Y970000D03*
D11*
X736346Y958850D02*
X724154Y958850D01*
X724154Y933450D02*
X736346Y933450D01*
X736346Y806450D02*
X724154Y806450D01*
X724154Y781050D02*
X736346Y781050D01*
X736346Y908050D02*
X724154Y908050D01*
X724154Y882650D02*
X736346Y882650D01*
X736346Y831850D02*
X724154Y831850D01*
X724154Y857250D02*
X736346Y857250D01*
X800354Y781050D02*
X812546Y781050D01*
X812546Y806450D02*
X800354Y806450D01*
X800354Y831850D02*
X812546Y831850D01*
X812546Y857250D02*
X800354Y857250D01*
X800354Y882650D02*
X812546Y882650D01*
X812546Y908050D02*
X800354Y908050D01*
X800354Y933450D02*
X812546Y933450D01*
X812546Y958850D02*
X800354Y958850D01*
D12*
X609600Y829700D03*
X609600Y846700D03*
X857250Y670950D03*
X857250Y687950D03*
X819150Y670950D03*
X819150Y687950D03*
X781050Y670950D03*
X781050Y687950D03*
X742950Y670950D03*
X742950Y687950D03*
X704850Y670950D03*
X704850Y687950D03*
X666750Y670950D03*
X666750Y687950D03*
X501650Y829700D03*
X501650Y846700D03*
X539750Y829700D03*
X539750Y846700D03*
X577850Y829700D03*
X577850Y846700D03*
D13*
X186500Y455300D03*
X211900Y455300D03*
X237300Y455300D03*
X262700Y455300D03*
X288100Y455300D03*
X313500Y455300D03*
X186500Y480700D03*
X211900Y480700D03*
X237300Y480700D03*
X262700Y480700D03*
X288100Y480700D03*
X313500Y480700D03*
D14*
X692150Y280670D02*
X692150Y265430D01*
X666750Y265430D02*
X666750Y280670D01*
X641350Y280670D02*
X641350Y265430D01*
X615950Y265430D02*
X615950Y280670D01*
X590550Y280670D02*
X590550Y265430D01*
D13*
X911500Y455300D03*
X936900Y455300D03*
X962300Y455300D03*
X987700Y455300D03*
X1013100Y455300D03*
X1038500Y455300D03*
X911500Y480700D03*
X936900Y480700D03*
X962300Y480700D03*
X987700Y480700D03*
X1013100Y480700D03*
X1038500Y480700D03*
X1186500Y455300D03*
X1211900Y455300D03*
X1237300Y455300D03*
X1262700Y455300D03*
X1288100Y455300D03*
X1313500Y455300D03*
X1186500Y480700D03*
X1211900Y480700D03*
X1237300Y480700D03*
X1262700Y480700D03*
X1288100Y480700D03*
X1313500Y480700D03*
X461500Y455300D03*
X486900Y455300D03*
X512300Y455300D03*
X537700Y455300D03*
X563100Y455300D03*
X588500Y455300D03*
X461500Y480700D03*
X486900Y480700D03*
X512300Y480700D03*
X537700Y480700D03*
X563100Y480700D03*
X588500Y480700D03*
D15*
X1248800Y755650D03*
X1265800Y755650D03*
X969400Y755650D03*
X986400Y755650D03*
X448700Y755650D03*
X465700Y755650D03*
X232800Y755650D03*
X249800Y755650D03*
D16*
X1405890Y949960D03*
X1405890Y873760D03*
D15*
X1405500Y844550D03*
X1388500Y844550D03*
D17*
X603250Y776400D03*
X593750Y798400D03*
X612750Y798400D03*
X850900Y624000D03*
X841400Y646000D03*
X860400Y646000D03*
X812800Y624000D03*
X803300Y646000D03*
X822300Y646000D03*
X774700Y624000D03*
X765200Y646000D03*
X784200Y646000D03*
X736600Y624000D03*
X727100Y646000D03*
X746100Y646000D03*
X698500Y624000D03*
X689000Y646000D03*
X708000Y646000D03*
X660400Y624000D03*
X650900Y646000D03*
X669900Y646000D03*
X488950Y776400D03*
X479450Y798400D03*
X498450Y798400D03*
X527050Y776400D03*
X517550Y798400D03*
X536550Y798400D03*
X565150Y776400D03*
X555650Y798400D03*
X574650Y798400D03*
D18*
X1223850Y755650D03*
X1201850Y746150D03*
X1201850Y765150D03*
X944450Y755650D03*
X922450Y746150D03*
X922450Y765150D03*
X423750Y755650D03*
X401750Y746150D03*
X401750Y765150D03*
X207850Y755650D03*
X185850Y746150D03*
X185850Y765150D03*
D14*
X147320Y838200D02*
X132080Y838200D01*
X132080Y863600D02*
X147320Y863600D01*
X147320Y889000D02*
X132080Y889000D01*
X132080Y914400D02*
X147320Y914400D01*
X147320Y939800D02*
X132080Y939800D01*
D19*
X639470Y313690D03*
X658470Y313690D03*
X639470Y337820D03*
X658470Y337820D03*
D20*
X234950Y923900D03*
X234950Y904900D03*
X266700Y923900D03*
X266700Y904900D03*
X177800Y879500D03*
X177800Y898500D03*
X203200Y879500D03*
X203200Y898500D03*
X177800Y854050D03*
X177800Y835050D03*
X203200Y854050D03*
X203200Y835050D03*
D21*
X939800Y806450D03*
D22*
X965200Y806450D03*
D23*
X990600Y806450D03*
X1016000Y806450D03*
X1041400Y806450D03*
X1066800Y806450D03*
X1092200Y806450D03*
X1117600Y806450D03*
X1143000Y806450D03*
X1168400Y806450D03*
X1193800Y806450D03*
X1219200Y806450D03*
X1244600Y806450D03*
X1270000Y806450D03*
X1295400Y806450D03*
X1320800Y806450D03*
X1320800Y958850D03*
X1295400Y958850D03*
X1270000Y958850D03*
X1244600Y958850D03*
X1219200Y958850D03*
X1193800Y958850D03*
X1168400Y958850D03*
X1143000Y958850D03*
X1117600Y958850D03*
X1092200Y958850D03*
X1066800Y958850D03*
X1041400Y958850D03*
X1016000Y958850D03*
X990600Y958850D03*
X965200Y958850D03*
D21*
X939800Y958850D03*
X1346200Y958850D03*
X1346200Y806450D03*
D24*
X1319650Y58850D03*
D21*
X1319650Y33450D03*
X1294250Y58850D03*
X1294250Y33450D03*
X1268850Y58850D03*
X1268850Y33450D03*
X1243450Y58850D03*
X1243450Y33450D03*
X1218050Y58850D03*
X1218050Y33450D03*
X1192650Y58850D03*
X1192650Y33450D03*
X1167250Y58850D03*
X1167250Y33450D03*
X1141850Y58850D03*
X1141850Y33450D03*
X1116450Y58850D03*
X1116450Y33450D03*
X1091050Y58850D03*
X1091050Y33450D03*
X1065650Y58850D03*
X1065650Y33450D03*
X1040250Y58850D03*
X1040250Y33450D03*
X1014850Y58850D03*
X1014850Y33450D03*
X989450Y58850D03*
X989450Y33450D03*
X964050Y58850D03*
X964050Y33450D03*
X938650Y58850D03*
X938650Y33450D03*
X913250Y58850D03*
X913250Y33450D03*
X887850Y58850D03*
X887850Y33450D03*
X862450Y58850D03*
X862450Y33450D03*
X837050Y58850D03*
X837050Y33450D03*
D25*
X1368350Y276150D03*
X1368350Y46150D03*
X788350Y276150D03*
X788350Y46150D03*
D14*
X387350Y951230D02*
X387350Y966470D01*
X361950Y966470D02*
X361950Y951230D01*
X336550Y951230D02*
X336550Y966470D01*
X311150Y966470D02*
X311150Y951230D01*
X285750Y951230D02*
X285750Y966470D01*
D26*
X307340Y213360D03*
X281940Y213360D03*
X256540Y213360D03*
X231140Y213360D03*
X205740Y213360D03*
X180340Y213360D03*
X307340Y238760D03*
X281940Y238760D03*
X256540Y238760D03*
X231140Y238760D03*
X205740Y238760D03*
X180340Y238760D03*
X154940Y213360D03*
X129540Y213360D03*
X104140Y213360D03*
X78740Y213360D03*
X53340Y213360D03*
X27940Y213360D03*
X154940Y238760D03*
X129540Y238760D03*
X104140Y238760D03*
X78740Y238760D03*
X53340Y238760D03*
X27940Y238760D03*
D27*
X488950Y38100D03*
X488950Y63500D03*
X488950Y88900D03*
X488950Y114300D03*
X488950Y139700D03*
X488950Y165100D03*
X514350Y38100D03*
X514350Y63500D03*
X514350Y88900D03*
X514350Y114300D03*
X514350Y139700D03*
X514350Y165100D03*
X488950Y190500D03*
X488950Y215900D03*
X488950Y241300D03*
X488950Y266700D03*
X488950Y292100D03*
X488950Y317500D03*
X514350Y190500D03*
X514350Y215900D03*
X514350Y241300D03*
X514350Y266700D03*
X514350Y292100D03*
X514350Y317500D03*
D28*
X396300Y68110D03*
X392300Y59110D03*
X384300Y59110D03*
X380300Y68110D03*
X376300Y59110D03*
X372300Y68110D03*
X364300Y68110D03*
X360300Y59110D03*
X356300Y68110D03*
X352300Y59110D03*
X344300Y59110D03*
X340300Y68110D03*
D29*
X340800Y80310D03*
X345800Y80310D03*
X350800Y80310D03*
X355800Y80310D03*
X360800Y80310D03*
X365800Y80310D03*
X370800Y80310D03*
X375800Y80310D03*
X380800Y80310D03*
X385800Y80310D03*
X390800Y80310D03*
X395800Y80310D03*
D23*
X409600Y62110D03*
X413200Y18210D03*
X327000Y62110D03*
X323400Y18210D03*
D30*
X332300Y74610D03*
X404300Y74610D03*
D28*
X182940Y68110D03*
X178940Y59110D03*
X170940Y59110D03*
X166940Y68110D03*
X162940Y59110D03*
X158940Y68110D03*
X150940Y68110D03*
X146940Y59110D03*
X142940Y68110D03*
X138940Y59110D03*
X130940Y59110D03*
X126940Y68110D03*
D29*
X127440Y80310D03*
X132440Y80310D03*
X137440Y80310D03*
X142440Y80310D03*
X147440Y80310D03*
X152440Y80310D03*
X157440Y80310D03*
X162440Y80310D03*
X167440Y80310D03*
X172440Y80310D03*
X177440Y80310D03*
X182440Y80310D03*
D23*
X196240Y62110D03*
X199840Y18210D03*
X113640Y62110D03*
X110040Y18210D03*
D30*
X118940Y74610D03*
X190940Y74610D03*
D14*
X152400Y271780D02*
X152400Y287020D01*
X177800Y287020D02*
X177800Y271780D01*
X203200Y271780D02*
X203200Y287020D01*
D20*
X177800Y943000D03*
X177800Y962000D03*
X203200Y943000D03*
X203200Y962000D03*
D15*
X1437250Y730250D03*
X1420250Y730250D03*
X1437250Y755650D03*
X1420250Y755650D03*
X1437250Y781050D03*
X1420250Y781050D03*
D12*
X734060Y273930D03*
X734060Y256930D03*
X361950Y827650D03*
X361950Y810650D03*
D15*
X461400Y927100D03*
X478400Y927100D03*
X1337700Y755650D03*
X1354700Y755650D03*
X1058300Y755650D03*
X1075300Y755650D03*
D12*
X641350Y795900D03*
X641350Y778900D03*
D15*
X321700Y755650D03*
X338700Y755650D03*
D18*
X1312750Y755650D03*
X1290750Y746150D03*
X1290750Y765150D03*
X1033350Y755650D03*
X1011350Y746150D03*
X1011350Y765150D03*
X668450Y787400D03*
X690450Y796900D03*
X690450Y777900D03*
X296750Y755650D03*
X274750Y746150D03*
X274750Y765150D03*
D19*
X178410Y342900D03*
X159410Y342900D03*
X178410Y317500D03*
X159410Y317500D03*
D31*
X133350Y393700D03*
X247650Y879500D03*
X95250Y889000D03*
D32*
X673100Y846700D03*
X781050Y901700D03*
X692150Y869950D03*
D31*
X95250Y838200D03*
D32*
X313500Y444000D03*
X1313500Y444000D03*
X1038500Y444000D03*
X588500Y444000D03*
X850900Y444000D03*
X288100Y387350D03*
X1288100Y374650D03*
X1013100Y374650D03*
X563100Y374650D03*
X812800Y374650D03*
X262700Y374650D03*
X1262700Y361950D03*
X987700Y361950D03*
X537700Y361950D03*
X774700Y361950D03*
X237300Y361950D03*
X1237300Y349250D03*
X962300Y349250D03*
X512300Y349250D03*
X736600Y349250D03*
X1159040Y468630D03*
X888130Y468630D03*
X437750Y468630D03*
X335750Y468630D03*
X698500Y468630D03*
X205550Y431800D03*
X889400Y431800D03*
X1162850Y431800D03*
X482200Y431800D03*
X660400Y431800D03*
X461500Y565150D03*
X186500Y565150D03*
X1186500Y565150D03*
X911500Y565150D03*
X533400Y565150D03*
X486900Y552450D03*
X211900Y552450D03*
X1211900Y552450D03*
X936900Y552450D03*
X565150Y552450D03*
X512300Y539750D03*
X237300Y539750D03*
X1237300Y539750D03*
X962300Y539750D03*
X596900Y539750D03*
X537700Y527050D03*
X262700Y527050D03*
X1262700Y527050D03*
X987700Y527050D03*
X609600Y527050D03*
X249800Y730250D03*
X465700Y730250D03*
X986400Y730250D03*
X641350Y730250D03*
X338700Y730250D03*
X1354700Y730250D03*
X1075300Y730250D03*
X1265800Y730250D03*
D31*
X361950Y854050D03*
X95250Y863600D03*
D32*
X831850Y806450D03*
X831850Y895350D03*
X381000Y765150D03*
D31*
X311150Y933450D03*
X95250Y914400D03*
D32*
X1371600Y844550D03*
X336550Y787400D03*
X1092200Y831850D03*
X1181100Y765150D03*
X412750Y254000D03*
D31*
X241300Y958850D03*
X95250Y939800D03*
D32*
X1205230Y81280D03*
X1300480Y81280D03*
D31*
X514350Y927100D03*
X889000Y908050D03*
X1003300Y908050D03*
X609600Y336550D03*
D32*
X336550Y774700D03*
X927100Y838200D03*
X694690Y765810D03*
X1028700Y774700D03*
X1028700Y927100D03*
M02*
